<?xml version="1.0" encoding="utf-8"?>
<!-- Generator: Adobe Illustrator 27.1.0, SVG Export Plug-In . SVG Version: 6.00 Build 0)  -->
<svg version="1.1" id="Layer_1" xmlns="http://www.w3.org/2000/svg" xmlns:xlink="http://www.w3.org/1999/xlink" x="0px" y="0px"
	 viewBox="0 0 175 175" style="enable-background:new 0 0 175 175;" xml:space="preserve">
<style type="text/css">
	.st0{display:none;}
	.st1{display:inline;fill:#FFFFFF;}
	.st2{fill:#FFFFFF;stroke:#2D63ED;stroke-width:6;stroke-miterlimit:10;}
	.st3{display:inline;}
	.st4{clip-path:url(#SVGID_00000139986470731594168900000017922319743674020528_);}
	.st5{clip-path:url(#SVGID_00000140707213063908729480000013860287011554515337_);}
	.st6{fill:#B78876;}
	.st7{fill:#FFCD05;}
	.st8{fill:#FDB71E;}
	.st9{opacity:0.5;fill:#46494C;enable-background:new    ;}
	.st10{fill:#010101;}
	.st11{fill:#966E63;}
	.st12{clip-path:url(#SVGID_00000062192621376422692010000006039745746917257124_);}
	.st13{fill:#46494C;}
	.st14{fill:#9A6F2A;}
	.st15{fill:#FBBD9E;}
	.st16{fill:#EC9A6F;}
	.st17{fill:#F7A7A8;}
	.st18{clip-path:url(#SVGID_00000006693888323929644150000000696536045428679057_);}
	.st19{fill:#EEEEEF;}
	.st20{clip-path:url(#SVGID_00000098902673990966306700000014382367190417870724_);}
	.st21{clip-path:url(#SVGID_00000036950616598101834130000000888515281244077712_);}
	.st22{fill:#45484B;}
	.st23{fill:#FFFFFF;}
	.st24{fill:#7FB936;}
	.st25{fill:#B16668;}
	.st26{fill:#263238;}
	.st27{fill:#C8856A;}
	.st28{fill:#AF6152;}
	.st29{fill:#F28F8F;}
	.st30{fill:#FFA8A7;}
	.st31{fill:#5F8B29;}
	.st32{fill:#EDEEEF;}
	.st33{fill:#492B00;}
	.st34{display:inline;fill:none;stroke:#7FB936;stroke-width:6;stroke-miterlimit:10;}
	.st35{fill:#C17560;}
	.st36{fill:#093677;}
	.st37{fill:#08305E;enable-background:new    ;}
	.st38{fill:#082C56;}
	.st39{fill:#2D63ED;}
	.st40{opacity:0.3;enable-background:new    ;}
	.st41{opacity:0.4;enable-background:new    ;}
	.st42{opacity:0.55;enable-background:new    ;}
	.st43{opacity:0.1;enable-background:new    ;}
	.st44{opacity:0.2;enable-background:new    ;}
	.st45{fill:#37474F;}
	.st46{fill:#2073F2;}
	.st47{fill:#D37F7F;}
	.st48{opacity:0.15;enable-background:new    ;}
	.st49{fill:#8D4032;}
	.st50{fill:#1A2E35;}
	.st51{opacity:0.15;}
	.st52{opacity:0.3;}
</style>
<g class="st0">
	<circle id="SVGID_1_" class="st1" cx="87.05" cy="87.25" r="82.81"/>
</g>
<g>
	<circle id="SVGID_00000132070845494499653930000004028124833565880500_" class="st2" cx="87.05" cy="87.25" r="82.81"/>
</g>
<g class="st0">
	<g class="st3">
		<defs>
			<circle id="SVGID_00000090985256550471975610000007673862718064597376_" cx="87.05" cy="87.25" r="82.81"/>
		</defs>
		<clipPath id="SVGID_00000075154430824595541800000005285639928510428588_">
			<use xlink:href="#SVGID_00000090985256550471975610000007673862718064597376_"  style="overflow:visible;"/>
		</clipPath>
		<g style="clip-path:url(#SVGID_00000075154430824595541800000005285639928510428588_);">
			<g>
				<g>
					<defs>
						<circle id="SVGID_00000127020005246407096100000005790255734474224002_" cx="87.05" cy="87.25" r="82.81"/>
					</defs>
					<clipPath id="SVGID_00000109726441495767886980000015072177256601040030_">
						<use xlink:href="#SVGID_00000127020005246407096100000005790255734474224002_"  style="overflow:visible;"/>
					</clipPath>
					<g style="clip-path:url(#SVGID_00000109726441495767886980000015072177256601040030_);">
						<polygon class="st6" points="82.64,135.2 64.43,158.55 53.17,157.66 69.82,132.79 						"/>
						<polygon class="st6" points="77.98,110.46 82.64,135.2 72.18,144.7 65.87,113.54 						"/>
						<polygon class="st6" points="14.12,110.84 8.34,136.05 20.57,136.08 26.23,113.92 						"/>
						<path class="st7" d="M64.29,98.5l0.31,53.03H26.88l0.26-36.79l-15.39-4.5c0,0,6-20.44,7.83-23.31
							C21.4,84.06,36,77.71,36,77.71s13.68-1.21,14.45-0.83c0,0,17.56,5.56,20.4,8.74c2.84,3.17,10.17,25.23,10.17,25.23
							l-16.73,3.31V98.53"/>
						<path class="st8" d="M64.3,98.53"/>
						<path class="st9" d="M27.21,121.08c-0.05,0-0.1-5.34-0.1-11.92s0.05-11.92,0.1-11.92c0.05,0,0.1,5.33,0.1,11.92
							S27.27,121.08,27.21,121.08z"/>
						<path class="st9" d="M64.3,121.3c-0.05,0-0.1-5.34-0.1-11.92s0.05-11.92,0.1-11.92s0.1,5.33,0.1,11.92
							C64.39,115.97,64.35,121.3,64.3,121.3z"/>
						<path class="st6" d="M32.32,56.35l3.86,22.38c0.67,3.92,4.39,6.56,8.31,5.89c0.02,0,0.04-0.01,0.05-0.01l0,0
							c3.67-0.66,6.24-4.01,5.91-7.73c-0.18-1.99-0.33-3.63-0.33-3.63s5.61-1.44,5.12-7.13c-0.24-2.75-1.18-8.39-2.09-13.48
							c-0.98-5.46-6-9.25-11.52-8.71l-0.55,0.05c-5.77,0.9-9.72,6.32-8.81,12.09C32.29,56.17,32.3,56.26,32.32,56.35z"/>
						<path class="st10" d="M51.44,56.14c0.05,0.56-0.26,1.07-0.7,1.14c-0.42,0.1-0.83-0.26-0.9-0.79c0-0.01,0-0.02,0-0.03
							c-0.05-0.56,0.26-1.07,0.7-1.14c0.42-0.1,0.83,0.26,0.9,0.79C51.44,56.12,51.44,56.13,51.44,56.14z"/>
						<path class="st10" d="M42.88,57.41c0.04,0.56-0.27,1.06-0.71,1.14c-0.42,0.1-0.83-0.26-0.91-0.8c0-0.01,0-0.01,0-0.02
							c-0.05-0.56,0.26-1.06,0.7-1.14C42.39,56.49,42.79,56.86,42.88,57.41C42.88,57.4,42.88,57.4,42.88,57.41z"/>
						<path class="st10" d="M43.52,53.09c-0.06,0.25-0.95,0.22-1.96,0.44c-1.01,0.23-1.82,0.59-1.97,0.38
							c-0.07-0.09,0.05-0.33,0.38-0.6c0.42-0.33,0.91-0.56,1.43-0.66c0.52-0.11,1.06-0.1,1.57,0.03
							C43.34,52.81,43.54,52.98,43.52,53.09z"/>
						<path class="st10" d="M51.64,53.04c-0.14,0.21-0.75,0.07-1.5,0.13s-1.32,0.27-1.5,0.07c-0.07-0.09,0-0.3,0.26-0.52
							c0.34-0.27,0.75-0.42,1.17-0.44c0.43-0.03,0.85,0.06,1.22,0.29C51.59,52.74,51.7,52.94,51.64,53.04z"/>
						<path class="st10" d="M37.89,49.51l-0.03,0.03c-0.84,0.8-1.33,1.9-1.38,3.05c0,0.04,0,0.08,0,0.12
							c-0.06,1.65,0.14,3.3,0.06,4.94c-0.08,1.64-0.48,3.35-1.57,4.58c-0.45,0.51-1.29,0.91-1.75,0.41
							c-0.16-0.21-0.26-0.46-0.28-0.72c-0.68-3.89-2.09-7.26-2.48-11.36c-0.11-1.11,0.32-2.21,1.16-2.95
							c0.8-0.7,1.78-1.44,2.78-1.08c1,0.36,2.41,2.02,3.22,2.71"/>
						<path class="st6" d="M34.49,58.74c-0.1-0.03-4.02-0.77-3.52,3.1c0.29,2.23,1.66,2.75,2.78,2.76c0.83,0.01,1.51-0.25,1.51-0.3
							C35.25,64.19,34.49,58.74,34.49,58.74z"/>
						<path class="st11" d="M35.06,64.61c0,0,1.66,10.55,15.4,8.53l-0.14,1.74c0,0-11.82,1.97-15.67-4.96l-0.91-5.32L35.06,64.61z"
							/>
						<path class="st10" d="M57.66,45.65c0-1.32-1.07-2.38-2.38-2.38c-0.14,0-0.28,0.02-0.42,0.04c-0.02-0.19-0.06-0.38-0.15-0.55
							c-0.46-0.74-1.3-1.17-2.18-1.1c-0.33,0.03-0.66,0.1-0.98,0.18c-0.43-0.63-1.15-1.04-1.97-1.04c-0.65,0-1.25,0.26-1.68,0.69
							c-0.43-0.43-1.02-0.69-1.68-0.69c-0.79,0-1.48,0.39-1.91,0.98c-0.43-0.59-1.13-0.98-1.91-0.98c-0.91,0-1.69,0.52-2.1,1.27
							c-1.01-0.08-2-0.03-2.83,0.32c-1.86,0.79-4.29,3.28-3.16,4.75H34.3c-0.07,0.74-0.03,1.49,0.14,2.22
							c0.18,0.73,0.7,1.34,1.4,1.63c0.73,0.24,1.44-1.32,2.63-1.88c1.61-0.75,4.51,0.06,6.23,0.51c1.73,0.45,3.37,1.17,5.1,1.58
							c1.73,0.4,3.65,0.45,5.2-0.42c0.61-0.34,1.19-0.91,1.19-1.61c0-0.39-0.29-0.75-0.64-0.91c0.19-0.06,0.37-0.14,0.53-0.25
							c0.12-0.08,0.22-0.17,0.31-0.27C57.15,47.33,57.66,46.56,57.66,45.65z"/>
						<path class="st10" d="M58.12,67.52c0-0.89-0.37-1.69-0.96-2.26c0.04-0.21,0.07-0.43,0.07-0.65c0-1.74-1.41-3.15-3.15-3.15
							c-0.64,0-1.24,0.2-1.74,0.53c-0.43-0.21-0.9-0.35-1.41-0.35c-1.08,0-2.03,0.54-2.6,1.37c-0.56-0.52-1.31-0.85-2.14-0.85
							c-0.79,0-1.49,0.3-2.05,0.77c-1.95,0.45-3.19,2.16-3.19,2.16c-2.34,0-4.26-1.87-4.31-4.22l-0.09-3.88l-1.9,1.05
							c-0.52,7.24,2.03,10.41,2.03,10.41c-0.01,2.48,1.66,3.85,2.98,4.54c0.22,1.16,1.23,2.03,2.45,2.03c0.4,0,0.77-0.1,1.11-0.27
							c0.56,0.85,1.53,1.42,2.63,1.42c0.81,0,1.54-0.31,2.1-0.81c0.02,0,0.04,0,0.06,0c0.51,0.35,1.12,0.56,1.79,0.56
							c1.21,0,2.25-0.69,2.78-1.7c0.23,0.05,0.47,0.09,0.72,0.09c1.74,0,3.15-1.41,3.15-3.15c0-0.28-0.05-0.54-0.11-0.8
							C57.38,69.85,58.12,68.77,58.12,67.52z"/>
						<path class="st10" d="M47.1,55.66c0.83,1.41,1.86,3.07,1.55,4.77c-0.17,0.04-0.34,0.06-0.51,0.09
							c0.15-0.06,0.31-0.13,0.46-0.18l-0.03,0.03C48.73,58.71,47.76,57.14,47.1,55.66L47.1,55.66z"/>
						<rect x="26.88" y="151.53" class="st10" width="37.52" height="26.47"/>
					</g>
				</g>
			</g>
			<g>
				<g>
					<defs>
						<circle id="SVGID_00000066502345783594929370000016182810626439180731_" cx="87.05" cy="87.25" r="82.81"/>
					</defs>
					<clipPath id="SVGID_00000040547574008623340880000012556070353145118624_">
						<use xlink:href="#SVGID_00000066502345783594929370000016182810626439180731_"  style="overflow:visible;"/>
					</clipPath>
					<g style="clip-path:url(#SVGID_00000040547574008623340880000012556070353145118624_);">
						<path class="st7" d="M114.05,120.86l11.11-18.52l-7.09-17.7c-0.68,0.35-13.67,26.15-16.36,30.24
							c-0.12,0.19-0.59,1.62-1.02,3.02c-0.54,1.76-0.26,3.66,0.77,5.18l16.07,25.16l1.36-17.76L114.05,120.86z"/>
						<rect x="117.28" y="143.61" class="st13" width="40.21" height="35.92"/>
						<path class="st14" d="M131.06,71.55l-3.33-0.17c0.64-1.88,1.13-4.16,1.37-6.64c0.65-6.78-0.82-12.46-3.28-12.7
							c-2.46-0.24-4.98,5.07-5.63,11.85c-0.4,4.17,0,7.93,0.95,10.25c0.46,1.13,0.21,2.46-0.69,3.29c-0.01,0.01-0.01,0.01-0.02,0.02
							c-1.14,1.01-2.63,1.6-3.68,2.71c-1.32,1.51-1.76,3.6-1.14,5.51c0.64,1.88,2.03,3.42,3.84,4.26c2.47,1.15,5.34,1.06,7.73-0.26
							c2.9-1.64,4.59-4.93,5.02-8.24C132.62,78.12,131.95,74.77,131.06,71.55z"/>
						<path class="st7" d="M124.86,81.37l6.52,0.49l9.03,1.4c0,0,15.84,4.16,15.84,5.9c0,0.58-4.32,14.35-6.76,22.6
							c-0.6,2-1.08,4.04-1.46,6.09l9.45,25.82l-40.21-0.11v-24.19c0,0-2.63-21.89-2.17-24.88c0.29-1.86,1.04-6.05,2.68-9.36
							C118.83,83.01,122.51,81.19,124.86,81.37z"/>
						<path class="st7" d="M116.93,93.07c-1.35,1.73-2.37,3.7-2.98,5.81c-0.61,2.12-0.54,4.38,0.19,6.46
							c1.16,2.93,3.77,5.04,6.88,5.55"/>
						<path class="st9" d="M119.65,111.12c-0.06-0.02-0.11-0.06-0.17-0.09l-0.44-0.29c-0.38-0.26-0.93-0.64-1.59-1.15
							c-0.77-0.59-1.48-1.27-2.11-2.02c-0.77-0.92-1.33-2.01-1.63-3.17c-0.29-1.17-0.36-2.37-0.22-3.57
							c0.12-0.97,0.33-1.92,0.64-2.84c0.21-0.62,0.45-1.23,0.72-1.83c0.1-0.21,0.17-0.38,0.23-0.48c0.02-0.06,0.06-0.11,0.09-0.17
							c-0.07,0.23-0.15,0.46-0.25,0.68c-0.17,0.43-0.41,1.05-0.66,1.84c-0.29,0.92-0.49,1.86-0.59,2.82
							c-0.13,1.17-0.05,2.35,0.23,3.5c0.29,1.14,0.83,2.2,1.58,3.11c0.61,0.74,1.3,1.42,2.05,2.02c0.64,0.53,1.17,0.92,1.55,1.2
							l0.42,0.32C119.61,111.07,119.65,111.11,119.65,111.12z"/>
						<path class="st9" d="M140.91,114.83c-0.05,0.03-0.11,0.05-0.17,0.06c-0.11,0.03-0.27,0.09-0.49,0.13
							c-0.6,0.13-1.22,0.21-1.84,0.22c-4.22,0.13-8.09-2.32-9.78-6.19c-0.25-0.57-0.45-1.15-0.59-1.76
							c-0.05-0.21-0.07-0.38-0.09-0.5c-0.01-0.06-0.02-0.12-0.02-0.18c0.08,0.21,0.14,0.43,0.19,0.65
							c1.23,4.66,5.47,7.89,10.29,7.83c0.61,0,1.22-0.06,1.83-0.16C140.46,114.89,140.69,114.86,140.91,114.83z"/>
						<path class="st9" d="M146.86,122.08c-0.05,0,0.41-2.1,1.06-4.65s1.18-4.61,1.23-4.6s-0.41,2.09-1.04,4.65
							C147.48,120.03,146.91,122.08,146.86,122.08z"/>
						<path class="st9" d="M152.12,117.72c-0.05,0.03-1.55-2.44-3.38-5.51c-1.82-3.07-3.25-5.58-3.2-5.61s1.55,2.44,3.38,5.51
							C150.74,115.18,152.18,117.69,152.12,117.72z"/>
						<path class="st15" d="M142.91,60.68c0.7-5.6-3.27-10.71-8.87-11.41c-0.11-0.01-0.21-0.02-0.32-0.03
							c-5.45-0.52-10.29,3.54-11.11,8.95c-0.72,4.74-1.33,9.53-1.31,11.26c0.07,5.25,3.13,7.29,4.38,7.88
							c0.45,0.16,0.91,0.28,1.38,0.34l0,0c0.02,0,0.03,0.02,0.03,0.04l0,0l-1.16,6c-0.53,3.94,1.67,7.46,5.61,8.04
							c3.94,0.57,7.04-2.45,7.64-6.4L142.91,60.68z"/>
						<path class="st13" d="M123.53,61.25c0.09,0.12,0.78-0.25,1.67-0.12s1.47,0.67,1.58,0.57c0.06-0.04-0.02-0.25-0.27-0.5
							c-0.35-0.32-0.78-0.53-1.25-0.6c-0.46-0.07-0.93,0.01-1.35,0.23C123.59,61.01,123.48,61.19,123.53,61.25z"/>
						<path class="st13" d="M131.42,62.96c0.09,0.12,0.78-0.25,1.67-0.12s1.47,0.67,1.59,0.57c0.05-0.04-0.02-0.25-0.28-0.5
							c-0.34-0.32-0.78-0.53-1.25-0.59c-0.46-0.07-0.93,0.01-1.35,0.23C131.5,62.72,131.38,62.9,131.42,62.96z"/>
						<path class="st16" d="M127.11,77.7c0,0,3.38,0.78,8.05-1.17c0,0-2.01,4.33-8.36,2.79L127.11,77.7z"/>
						<path class="st14" d="M132.04,60.07c0.05,0.26,0.96,0.27,1.98,0.55s1.83,0.68,2,0.49c0.08-0.09-0.04-0.34-0.34-0.63
							c-0.83-0.71-1.95-1.01-3.03-0.79C132.23,59.79,132.02,59.95,132.04,60.07z"/>
						<path class="st14" d="M124.42,58.51c0.12,0.23,0.77,0.11,1.5,0.2c0.73,0.1,1.34,0.33,1.5,0.14c0.08-0.09,0-0.31-0.24-0.54
							c-0.68-0.58-1.64-0.69-2.43-0.28C124.48,58.21,124.37,58.4,124.42,58.51z"/>
						<path class="st7" d="M125.91,81.82c1,4.35,5.32,7.06,9.67,6.07c0.38-0.09,0.75-0.2,1.11-0.34c1.94-0.75,3.51-2.21,5.03-3.64
							c1.07,6.41-3.27,12.48-9.68,13.55c-0.41,0.07-0.82,0.11-1.23,0.14c-2.49,0.15-5.16-0.61-6.73-2.55
							c-1.09-1.35-1.53-3.14-1.5-4.88c0.08-1.74,0.41-3.46,0.98-5.1c0.44-1.42,1.14-3,2.58-3.4"/>
						<path class="st14" d="M142.46,54.53c1.87,1,2.87,3.1,3.23,5.18c0.36,2.07,0.18,4.2,0.27,6.3c0.09,2.1,0.49,4.3,1.82,5.93
							c1.4,1.74,3.62,2.56,5.6,3.62c4.35,2.33,7.94,6.32,9.24,11.09c1.31,4.77,0.12,10.27-3.45,13.7c-3.27,3.11-7.98,4.2-12.49,4.2
							c-3.21,0-6.73-0.69-8.74-3.2c-2-2.51-1.87-6.02-1.17-9.11c0.7-3.09,1.13-3.54,1.19-6.71c-0.86,1.94-0.46,1.27-1.62,2.93
							c-0.33,0.47-0.9,0.98-1.4,0.71c-0.5-0.27-0.35-1.14-0.09-1.73c3.87-8.61,2.52-25.95,4.81-35.45"/>
						<path class="st14" d="M145.2,54.39c-0.5-1.81-1.29-3.62-2.72-4.83c-2.19-1.75-5.28-1.8-7.52-0.12l0,0l0,0
							c0,0-10.77-5.05-12.75,9.49c0,0,3.82-0.32,7.78-2.62c1.22-0.71,2.59-1.06,3.99-1.04c0.02,0,0.05,0,0.07,0h0.01
							c0.62,0,1.14,0.46,1.17,1.08c0.03,0.74,0.07,1.44,0.11,2c0.12,1.84,0.88,3.59,2.15,4.93c1.96,1.91,4.92,2.25,7.65,2.48
							C146.18,62.05,146.21,58.12,145.2,54.39z"/>
						<path class="st7" d="M156.25,91.8l-9.62,16.46l11.69,20.07v0.12c0.04,0.4,0.27,0.75,0.61,0.95l0.08,6.63h13v-10.59
							c0-0.44-0.09-0.87-0.28-1.27C169.67,119.73,156.87,92.24,156.25,91.8z"/>
						<path class="st13" d="M127.46,64.73l-0.61,1.07l-0.03-0.1c0.3,0.14,0.66,0.3,0.87,0.54c-0.36-0.1-0.69-0.27-1-0.46l0.04-0.06
							C126.75,65.74,127.45,64.69,127.46,64.73L127.46,64.73z"/>
						<path class="st16" d="M128.98,69.77l-3.55-0.01c-0.05,0.96,0.7,1.78,1.66,1.83c0.02,0,0.04,0,0.07,0
							C128.15,71.58,128.96,70.77,128.98,69.77z"/>
						<path class="st17" d="M128.88,70.29c-0.23,0.77-0.93,1.3-1.73,1.3c-0.41,0.01-0.8-0.14-1.11-0.4
							C126.72,70.35,127.84,69.99,128.88,70.29z"/>
					</g>
				</g>
			</g>
			<g>
				<g>
					<defs>
						<circle id="SVGID_00000110437553421655584310000001897120784306020513_" cx="87.05" cy="87.25" r="82.81"/>
					</defs>
					<clipPath id="SVGID_00000140711750478416369190000007342512613058028966_">
						<use xlink:href="#SVGID_00000110437553421655584310000001897120784306020513_"  style="overflow:visible;"/>
					</clipPath>
					<g style="clip-path:url(#SVGID_00000140711750478416369190000007342512613058028966_);">
						<g>
							<path class="st19" d="M62.59,59.31l3.17,0.56c3.53,3.97,9.61,4.34,13.58,0.81s4.34-9.61,0.81-13.58s-9.61-4.34-13.58-0.81
								c-3,2.66-4.03,6.89-2.6,10.63l0,0L62.59,59.31z"/>
							<path class="st10" d="M75.89,53.77c0-0.54,0.44-0.98,0.98-0.98s0.98,0.44,0.98,0.98s-0.44,0.98-0.98,0.98l0,0
								C76.33,54.74,75.9,54.3,75.89,53.77z"/>
							<path class="st10" d="M71.98,53.77c0-0.54,0.44-0.98,0.98-0.98s0.98,0.44,0.98,0.98s-0.44,0.98-0.98,0.98l0,0
								C72.42,54.74,71.99,54.3,71.98,53.77z"/>
							<path class="st10" d="M68.08,54.25c-0.27-0.47-0.11-1.07,0.36-1.33c0.47-0.27,1.07-0.11,1.33,0.36
								c0.27,0.47,0.11,1.06-0.35,1.33s-1.06,0.12-1.34-0.35C68.09,54.26,68.09,54.26,68.08,54.25z"/>
						</g>
						<g id="lines_00000008856618496693816550000013936048600852872621_">
							<g id="lines_00000028285985034494115850000017259419818740429211_">
								<path class="st7" d="M79.92,43.39c-0.15-0.13-0.16-0.35-0.03-0.5l2.75-3.49c0.13-0.15,0.35-0.16,0.5-0.03
									c0.14,0.12,0.16,0.34,0.05,0.49l-2.77,3.51C80.29,43.5,80.08,43.52,79.92,43.39L79.92,43.39z"/>
								<path class="st7" d="M76.34,41.85c-0.09-0.08-0.14-0.2-0.13-0.32l0.65-4.49c0.03-0.2,0.21-0.33,0.4-0.3
									c0.2,0.03,0.33,0.21,0.3,0.4l-0.66,4.49c-0.03,0.19-0.21,0.33-0.4,0.3C76.45,41.91,76.39,41.89,76.34,41.85z"/>
								<path class="st7" d="M72.46,42.3c-0.04-0.04-0.08-0.09-0.1-0.14l-1.61-4.05c-0.07-0.19,0.03-0.39,0.21-0.46
									c0.18-0.06,0.37,0.02,0.45,0.19l1.62,4.05c0.07,0.18-0.02,0.39-0.2,0.46C72.71,42.41,72.56,42.39,72.46,42.3z"/>
								<path class="st7" d="M82.26,46.52c-0.04-0.04-0.08-0.09-0.1-0.14c-0.07-0.18,0.01-0.39,0.2-0.46l0,0l4.2-1.67
									c0.18-0.07,0.39,0.02,0.46,0.2l0,0c0.07,0.18-0.01,0.39-0.2,0.46l-4.21,1.67C82.5,46.62,82.36,46.6,82.26,46.52z"/>
							</g>
						</g>
					</g>
				</g>
			</g>
			<g>
				<g>
					<defs>
						<circle id="SVGID_00000169523566636058038480000013048484644605451953_" cx="87.05" cy="87.25" r="82.81"/>
					</defs>
					<clipPath id="SVGID_00000063629052953868213230000014993822243404227246_">
						<use xlink:href="#SVGID_00000169523566636058038480000013048484644605451953_"  style="overflow:visible;"/>
					</clipPath>
					<g style="clip-path:url(#SVGID_00000063629052953868213230000014993822243404227246_);">
						<g>
							<path class="st13" d="M110.27,79.35l-3.17,0.56c-3.53,3.97-9.61,4.34-13.58,0.81c-3.97-3.53-4.34-9.61-0.81-13.58
								c3.53-3.97,9.61-4.34,13.58-0.81c3,2.66,4.03,6.89,2.6,10.63l0,0L110.27,79.35z"/>
							<path class="st19" d="M96.97,73.8c0-0.54-0.44-0.98-0.98-0.98s-0.98,0.44-0.98,0.98s0.44,0.98,0.98,0.98l0,0
								C96.53,74.78,96.97,74.34,96.97,73.8z"/>
							<path class="st19" d="M100.88,73.8c0-0.54-0.44-0.98-0.98-0.98s-0.98,0.44-0.98,0.98s0.44,0.98,0.98,0.98l0,0
								C100.44,74.78,100.88,74.34,100.88,73.8z"/>
							<path class="st19" d="M104.78,74.29c0.27-0.47,0.11-1.07-0.36-1.33c-0.47-0.27-1.07-0.11-1.33,0.36
								c-0.27,0.47-0.11,1.06,0.35,1.33c0.46,0.27,1.06,0.12,1.34-0.35C104.77,74.3,104.78,74.3,104.78,74.29z"/>
						</g>
						<g id="lines_00000110457906598447062010000003639702052756405420_">
							<g id="lines_00000010279767892960457020000014637697431072886155_">
								<path class="st7" d="M92.94,63.43c0.15-0.13,0.16-0.35,0.03-0.5l-2.75-3.49c-0.13-0.15-0.35-0.16-0.5-0.03
									c-0.14,0.12-0.16,0.34-0.05,0.49l2.77,3.51C92.57,63.53,92.79,63.55,92.94,63.43L92.94,63.43z"/>
								<path class="st7" d="M96.52,61.88c0.09-0.08,0.14-0.2,0.13-0.32L96,57.07c-0.03-0.2-0.21-0.33-0.4-0.3
									c-0.2,0.03-0.33,0.21-0.3,0.4l0.66,4.49c0.03,0.19,0.21,0.33,0.4,0.3C96.41,61.95,96.47,61.93,96.52,61.88z"/>
								<path class="st7" d="M100.4,62.34c0.04-0.04,0.08-0.09,0.1-0.14l1.61-4.05c0.07-0.19-0.03-0.39-0.21-0.46
									c-0.18-0.06-0.37,0.02-0.45,0.19l-1.62,4.05c-0.07,0.18,0.02,0.39,0.2,0.46C100.16,62.45,100.3,62.43,100.4,62.34z"/>
								<path class="st7" d="M90.61,66.55c0.04-0.04,0.08-0.09,0.1-0.14c0.07-0.18-0.01-0.39-0.2-0.46l0,0l-4.2-1.67
									c-0.18-0.07-0.39,0.02-0.46,0.2l0,0c-0.07,0.18,0.01,0.39,0.2,0.46l4.21,1.67C90.37,66.66,90.51,66.64,90.61,66.55z"/>
							</g>
						</g>
					</g>
				</g>
			</g>
		</g>
	</g>
</g>
<g class="st0">
	<g class="st3">
		<defs>
			<circle id="SVGID_00000042731156194958617390000010699363986346054310_" cx="87.05" cy="87.25" r="82.81"/>
		</defs>
		<clipPath id="SVGID_00000170245685424501927380000002209182018580821393_">
			<use xlink:href="#SVGID_00000042731156194958617390000010699363986346054310_"  style="overflow:visible;"/>
		</clipPath>
		<g style="clip-path:url(#SVGID_00000170245685424501927380000002209182018580821393_);">
			<g>
				<g>
					<path class="st22" d="M62.59,62.22l3.17,0.56c3.53,3.97,9.61,4.34,13.58,0.81s4.34-9.61,0.81-13.58
						c-3.53-3.97-9.61-4.34-13.58-0.81c-3,2.66-4.03,6.89-2.6,10.63l0,0L62.59,62.22z"/>
					<path class="st23" d="M75.89,56.67c0-0.54,0.44-0.98,0.98-0.98s0.98,0.44,0.98,0.98s-0.44,0.98-0.98,0.98l0,0
						C76.33,57.65,75.9,57.21,75.89,56.67z"/>
					<path class="st23" d="M71.99,56.67c0-0.54,0.44-0.98,0.98-0.98s0.98,0.44,0.98,0.98s-0.44,0.98-0.98,0.98l0,0
						C72.42,57.65,71.99,57.21,71.99,56.67z"/>
					<path class="st23" d="M68.09,57.16c-0.27-0.47-0.11-1.07,0.36-1.33c0.47-0.27,1.07-0.11,1.33,0.36
						c0.27,0.47,0.11,1.06-0.35,1.33s-1.06,0.12-1.34-0.35C68.09,57.17,68.09,57.16,68.09,57.16z"/>
				</g>
				<g id="lines_00000163764045626715053810000013691176070821200004_">
					<g id="lines_00000039115718752644804560000000035099475686513815_">
						<path class="st24" d="M79.92,46.29c-0.15-0.13-0.16-0.35-0.03-0.5l2.75-3.49c0.13-0.15,0.35-0.16,0.5-0.03
							c0.14,0.12,0.16,0.34,0.05,0.49l-2.77,3.51C80.29,46.4,80.08,46.42,79.92,46.29L79.92,46.29z"/>
						<path class="st24" d="M76.34,44.75c-0.09-0.08-0.14-0.2-0.13-0.32l0.65-4.49c0.03-0.2,0.21-0.33,0.4-0.3
							c0.2,0.03,0.33,0.21,0.3,0.4l-0.66,4.49c-0.03,0.19-0.21,0.33-0.4,0.3C76.45,44.82,76.39,44.79,76.34,44.75z"/>
						<path class="st24" d="M72.46,45.21c-0.04-0.04-0.08-0.09-0.1-0.14l-1.61-4.05c-0.07-0.19,0.03-0.39,0.21-0.46
							c0.18-0.06,0.37,0.02,0.45,0.19l1.62,4.05c0.07,0.18-0.02,0.39-0.2,0.46C72.71,45.31,72.56,45.29,72.46,45.21z"/>
						<path class="st24" d="M82.26,49.42c-0.04-0.04-0.08-0.09-0.1-0.14c-0.07-0.18,0.01-0.39,0.2-0.46l0,0l4.21-1.67
							c0.18-0.07,0.39,0.02,0.46,0.2l0,0c0.07,0.18-0.01,0.39-0.2,0.46l-4.21,1.67C82.5,49.53,82.36,49.51,82.26,49.42z"/>
					</g>
				</g>
			</g>
			<g>
				<g id="bottom_00000103223932812419806190000002256945741977036710_">
					<path class="st25" d="M26.28,126.32c-1.44,4.38-1.86,10.45-2.45,20.42c-0.58,9.75-0.79,18.47-1.5,29.35
						c-1.02,2.59-2.37,5.3-3.27,17.24c-0.45,6.04-0.57,13.52-1.2,19.91l-0.47,3.87c0.82,4.53,7.44,4.94,8.33,2.26
						c0.59-1.48,1.07-2.99,1.44-4.54c2.2-8.6,5.69-20.38,7.79-26.77c1.63-4.96,6.1-22.79,9.08-33.03l4.17,20.47
						c0,0-1.39,2.49,1.24,16.14c1.24,6.41,2.13,8.25,3.27,17.12c0.12,0.96,0.89,1.53,0.92,2.5c0,0.28,0.74,1.2,3.43,1.6
						c2.69,0.4,5.5-1.45,5.48-1.84c-0.51-10.05,0.23-26.33,0.28-33.09c0.14-16.61,0-42.64-0.68-53.23L26.28,126.32z"/>
					<path d="M77.51,223.24c0.17,0,0.48,1.85-0.41,2.67c-1.02,0.95-4.08,2.55-8.23,2.13s-5.3-1.2-6.99-2.55
						c-1.68-1.35-3.24-2.74-5.11-3.09c-1.74-0.33-4.39-0.94-4.96-1.47s-0.56-2.89-0.56-2.89L77.51,223.24z"/>
					<path class="st22" d="M56.35,211.33c-0.48-0.46-0.91-0.96-1.31-1.49c-0.23-0.27-1.24-0.42-1.53-0.63
						c-0.28-0.15-0.56-0.33-0.82-0.51c-0.28-0.26-0.15-0.62-0.18-1c-0.33,0.02-0.61,0.26-0.68,0.59c-0.11,0.66-0.19,2.55-0.43,3.65
						c-0.32,2.3-0.34,4.62-0.07,6.92c0.26,1.22,3.86,1.86,5.68,2.5s3.22,1.53,5.14,3.04c2.21,1.67,4.91,2.57,7.68,2.55
						c3.17-0.12,6.71-1.25,7.49-2.75c0.96-1.85,1.06-3.57-3.71-5.65c-0.9-0.38-3.69-1.91-4.78-2.55c-1.19-0.68-2.32-1.49-3.35-2.39
						c-0.43-0.38-0.85-0.78-1.24-1.2c-0.31-0.39-1.59-1.39-1.74-1.87C62.5,210.55,60.68,213.98,56.35,211.33z"/>
					<path d="M25.39,233.55c-0.29,2.84-0.82,4.71-1.9,6.33c-1.09,1.62-3.02,2.04-4.92,1.49c-1.9-0.56-4.32-2-4.76-4.48
						c-0.44-2.48-0.26-4.16,0.3-6.77L25.39,233.55z"/>
					<path class="st22" d="M18.17,216.97c-0.05-0.11-0.34-0.4-0.35-0.45s-0.08-1.88,0.03-2.54c-0.68,0.19-1.02,3.32-1.66,7.11
						c-0.67,4.08-1.46,5.28-2.04,8.63c-0.68,3.82-0.46,5.11,0.78,7.5s5.91,4.88,8.4,1.66c2.04-2.62,2.16-5.2,2.16-9.05
						c-0.03-3.05,0.12-6.11,0.44-9.14c0.29-2.87,1.33-3.41,0.65-3.75c0.13,0.06,0.06-0.16,0,0c-0.1,0.37-0.25,0.72-0.46,1.05
						C26.13,217.99,20.83,222.65,18.17,216.97z"/>
					<path class="st22" d="M44.12,156.53l3.48,18.34c0,0-0.06,4.15,0.33,9.46c0.39,5.31,1.91,15.25,3.21,20.85
						c3.62,2.01,8.03,2,11.64-0.03c0,0,0.32-23.68,0.37-31.15c0.07-9.62-0.28-37.51-0.92-49.33l-37.27,1.74c0,0-1.26,4.3-1.68,13.78
						c-0.42,9.49-1.39,35.19-1.39,35.19c-3.06,9.19-4.02,19.9-4.51,36.65c3.68,4.92,10.82,2.37,10.82,2.37s6.2-22.1,7.75-27.17
						c1.82-5.97,6.42-25.02,8.17-30.72"/>
					<path d="M41.35,166.73c2.25-9.41,4.71-18.77,7.24-28.12c0.01-3.07,0.08-6.6,0.15-9.83c0.07,3.3,0.14,6.61,0.15,9.91
						C46.49,148.07,44.02,157.43,41.35,166.73L41.35,166.73z"/>
				</g>
				<path class="st24" d="M60.49,72.02c-2.18-3.15-5.73-4.2-10.82-3.37l12.44,25.61c0.49-3.9,0.76-7.82,0.82-11.74
					C62.95,77.81,62.67,75.17,60.49,72.02z"/>
				<g id="Chest">
					<path class="st24" d="M62.78,124.84c-6.94,12.38-32.36,12.6-38.77,4.46c0.86-5.74,1.43-11.52,1.69-17.32
						c0.2-4.98-2.41-13.52-2.2-19.79c0.21-6.27,2.68-10.29,2.68-10.29s8.62-8.77,14.42-11.12c9.7-3.94,14.04-1.18,14.04-1.18
						c2.55,0.75,8.29,9.75,8.29,16.45C62.93,94.64,62.78,124.84,62.78,124.84z"/>
				</g>
				<g id="Head">
					<path class="st26" d="M37.83,48.64c-0.83-0.47-1.76-0.71-2.71-0.71c-1.05,0-1.4,0-2.34,0.67c-0.53,0.38-0.92,0.93-1.09,1.56
						c-0.25,0.87-0.18,1.8,0.19,2.62c0.3,0.78-0.11,1.39-0.37,2.12c-0.34,0.92-0.12,1.95,0.56,2.65c0.61,0.62,1.48,1.14,1.82,1.97
						c0.42,0.99,0.3,2.09,0.71,3.11c0.36,0.81,0.85,1.55,1.46,2.19c0.39,0.49,0.73,1.02,1.02,1.57c0.31,0.51,0.97,0.74,1.41,1.09
						c0.15,0.12,0.51,0.63,0.73,0.57c0.32-0.08,0.13-1.07,0.12-1.29c0-0.86,0-1.72-0.06-2.55l-0.17-3.34c0,0,2.14-2.9,2.38-5.29
						c0.31-3.06-0.34-4.32-0.34-4.32C40.1,50.44,39.03,49.32,37.83,48.64z"/>
					<path class="st26" d="M41.08,53.53c-0.1,1.6,0.24,3.21,0.98,4.64c0.64,1.23,1.79,2.89,3.17,3.33c0.5,0.14,1.02,0.26,1.53,0.35
						c1.73,0.33,3.51,0.29,5.22-0.11c1.28-0.29,2.55-0.73,3.45-1.74c0.61-0.62,1.14-1.3,1.6-2.04c0.14-0.27,0.15-0.56,0.29-0.83
						c0.34-0.64,0.97-1.2,1.18-1.9c0.11-0.63,0.14-1.27,0.09-1.9c0-0.7,0.47-1.21,0.51-1.89c0.08-0.62-0.07-1.24-0.42-1.76
						c-0.2-0.32-0.41-0.62-0.65-0.91c-0.38-0.34-0.82-0.61-1.29-0.82c-0.42-0.24-0.79-0.56-1.2-0.8c-1.02-0.56-2.11-1.01-3.23-1.34
						c-1.59-0.46-3.27-0.54-4.9-0.23c-1.68,0.31-3.34,1.66-4.39,2.96C41.87,49.96,41.2,51.71,41.08,53.53z"/>
					<path class="st27" d="M35.05,65.56c1.96,0.77,2.84-0.48,2.84-0.48l-0.67,8.27c2.3,2.94,7.78,6.53,11.81,6
						c2.16-0.29,2.49-2.2,0.38-5.06l0.37-2.71c1.13,0.11,2.26,0.11,3.39,0c2.19-0.34,3.89-1.93,4.54-4.29
						c1.06-3.8,0.69-10.56-0.51-17.8c-2.44-1.9-11.74-1.26-16.88,1.99c0.57,3.11,0.6,4.01,0.27,5.91c-0.33,1.9-1.02,2.77-1.59,2.85
						c-1.05,0.15-1.2-0.98-1.87-1.68s-3.23-1.12-4.32,1.18C31.73,62.04,33.56,64.98,35.05,65.56z"/>
					<path class="st28" d="M49.8,71.58c-3.48-0.35-7.87-1.99-8.99-3.57c-0.64-0.89-1.16-1.87-1.53-2.9c0,0,0.06,2.17,0.9,3.57
						s3.98,3.82,9.43,4.2L49.8,71.58z"/>
					<path class="st26" d="M57,43.95c-0.34-0.15-0.62-0.41-0.81-0.73c-0.31-0.57-0.42-1.19-0.87-1.69
						c-0.61-0.76-1.53-1.21-2.51-1.23c-0.9,0-1.75,0.55-2.63,0.68c-0.96,0.15-1.37-0.29-2.11-0.75c-0.93-0.58-2.47-0.57-3.51-0.25
						c-0.47,0.13-0.91,0.36-1.29,0.68c-0.34,0.32-0.51,0.79-0.96,1.02c-0.76,0.42-1.95-0.09-2.77-0.15
						c-1.44-0.12-2.61,0.33-2.91,1.53c-0.13,0.51-0.14,0.92-0.26,1.39c-0.12,0.4-0.4,0.73-0.77,0.91c-0.68,0.32-1.19,0.9-1.43,1.61
						c-0.31,0.99-0.04,2.06,0.71,2.78c0.7,0.58,1.95,1.02,2.88,0.77c0.12,0.81,1.11,1.38,1.88,1.48c0.44,0.09,0.89,0.09,1.32,0
						c0.15-0.04,1.33-0.55,1.2-0.78c0.47,0.79,1.31,1.29,2.23,1.33c1.11,0.09,2.18-0.43,2.8-1.36c-0.23,0.36,0.38,0.9,0.63,1.08
						c0.42,0.26,0.91,0.4,1.4,0.41c0.86,0.04,1.68-0.38,2.14-1.11c0.38-0.55,1.06-0.82,1.72-0.68c0.61,0.18,1.24,0.28,1.87,0.3
						c0.87-0.01,1.66-0.51,2.04-1.29c0.21-0.51,0.24-1.08,0.07-1.6c0.55,0.87,2.24,1.2,2.4-0.1c-0.18,0.17-0.47,0.16-0.64-0.02
						c-0.06-0.06-0.1-0.14-0.11-0.23c-0.08-0.45,0.39-0.91,0.48-1.34c0.15-0.87-0.28-1.73-1.07-2.12
						C57.81,44.28,57.39,44.14,57,43.95z"/>
					<path class="st26" d="M47.82,54.56l-2.38,0.49c-0.21-0.42,0.16-0.87,0.83-1.01c0.64-0.13,1.33,0.09,1.54,0.49
						C47.8,54.54,47.81,54.55,47.82,54.56z"/>
					<path class="st26" d="M56.9,54.55l-2.43-0.45c0.15-0.41,0.8-0.67,1.45-0.57c0.03,0,0.06,0.01,0.09,0.01
						C56.68,53.67,57.08,54.11,56.9,54.55z"/>
					<path class="st28" d="M47.96,63.96l3.38,1.32c-0.32,0.93-1.33,1.44-2.27,1.12c-0.02-0.01-0.04-0.01-0.06-0.02
						C48.07,65.98,47.6,64.91,47.96,63.96z"/>
					<path class="st29" d="M47.86,64.48c-0.07,0.81,0.4,1.58,1.16,1.89c0.39,0.15,0.82,0.15,1.22,0
						C49.88,65.33,48.95,64.59,47.86,64.48z"/>
					<path class="st28" d="M51.28,59.92c0,0,2.63,1.45,0.31,1.89L51.28,59.92z"/>
					<path class="st26" d="M48.3,57.34c-0.27,0.89-1.39,1.57-2.29,1.17c-0.29-0.16-0.51-0.4-0.62-0.73l0.05-0.06
						c0.55-0.05,0.98,0.1,1.48,0.22c0.44,0.03,0.94-0.23,1.31-0.63L48.3,57.34L48.3,57.34z"/>
					<path class="st26" d="M56.73,57.38c-0.11,1.21-1.61,1.23-2.36,0.61c-0.24-0.19-0.42-0.42-0.59-0.65l0.06-0.06
						c0.42,0.28,0.93,0.52,1.42,0.46c0.51-0.15,0.8-0.31,1.4-0.41C56.67,57.33,56.73,57.38,56.73,57.38L56.73,57.38z"/>
					<circle class="st28" cx="43.53" cy="60.73" r="0.32"/>
					<circle class="st28" cx="44.49" cy="61.38" r="0.32"/>
					<circle class="st28" cx="43.53" cy="61.7" r="0.32"/>
					<circle class="st28" cx="56.56" cy="60.02" r="0.26"/>
					<circle class="st28" cx="57.33" cy="60.54" r="0.26"/>
					<circle class="st28" cx="56.56" cy="60.8" r="0.26"/>
				</g>
				<path class="st27" d="M42.15,115.36c0,0-1.75-21.99-2.17-25.94c-0.52-4.96-0.83-8.98-3.57-9.55c-2.43-0.51-4.58-0.12-8.26,3.02
					c-2.34,1.99-3.24,4.32-3.48,9.48s3.81,22.93,4.98,26.1c2.49,6.74,2.63,7.16,7.84,8.45"/>
				<path class="st24" d="M37.43,78.48c1.67,0.82,2.5,3.43,2.76,8.01c0.26,4.59,1.29,20.38,1.29,20.38
					c-2.35,2.08-5.27,3.43-8.38,3.87c-5.13,0.71-6.14-0.2-6.14-0.2s-3.42-16.52-3.64-18.47c-0.23-1.95-0.32-5.62,1.76-8.35
					S31.85,76.49,37.43,78.48z"/>
				<path class="st27" d="M41.16,114.63c0,0,12.53,7.46,17.51,9.46l2.58,0.67l7.97-4.2c0,0,2.87-0.87,3.05,1.49
					c1.09,0.35,2.15,1.42,1.69,2.64c-0.08,0.16-0.13,0.33-0.16,0.51c0.01,0.17,0.05,0.34,0.13,0.5c0.26,0.5,0.31,1.09,0.15,1.63
					c-0.19,0.43-0.62,0.69-0.8,1.2c-0.18,0.51-0.04,1.14-0.31,1.61c-0.16,0.25-0.38,0.45-0.65,0.58c-1.96,1.04-3.97,1.98-6.03,2.82
					c-0.71,0.27-4.87-0.18-6.66-0.48c-3.8-0.53-7.56-1.33-11.24-2.4c-8.13-2.27-10.22-2.83-14.96-5.18"/>
				<path class="st22" d="M41.48,106.87c-0.44-5.61-0.8-11.23-1.08-16.86C40.84,95.63,41.19,101.25,41.48,106.87L41.48,106.87z"/>
			</g>
			<g>
				<g id="bottom">
					<path class="st30" d="M119.86,217.52l0.84-9.04l-12-1.53c0,0,0.35,4.76,0.35,8.31c0,3.43,0,4.88-1.17,6.81
						s-4.13,4.41-7.39,5.71s-6.38,3.06-5.49,4.92s5.77,2.73,7.9,2.29c2.12-0.44,6.86-2.95,9.27-4.73s6.38-2.61,7.3-3.01
						c0.92-0.39,1.14-1.69,1.11-3.84C120.47,221.43,120.23,219.46,119.86,217.52z"/>
					<path class="st24" d="M103.29,131.41c-0.42,6.13,1.05,23.7,1.49,36.56c0.2,6.07,1.3,14.68,1.53,17.36
						c0.61,7.61,2.3,25.02,2.3,25.02s6.39,2.55,12.11,0.28c0.96-9.55,4.34-23.11,1.8-31.23l4.11-45.23L103.29,131.41z"/>
					<path class="st31" d="M94.37,232.84c-0.16,0-0.38,1.8,0.51,2.55c1.02,0.86,4.08,2.26,8.05,1.69c3.96-0.57,6.1-1.83,7.66-3.18
						c1.56-1.35,3.77-3.26,5.56-3.68c1.67-0.39,4.38-1.37,4.9-1.89s0.41-2.81,0.41-2.81L94.37,232.84z"/>
					<path class="st24" d="M116.64,221.81c0.7-0.41,0.89-1.31,1.3-2.01c0.32-0.55,0.79-1.01,1.36-1.31
						c0.18-0.09,0.36-0.16,0.55-0.22c0,0,0.05-0.76,0.03-0.76c0.32,0.15,0.56,0.43,0.65,0.77c0.13,0.63,0.15,1.43,0.43,2.47
						c0.39,1.43,0.68,4.38,0.48,5.55s-3.81,2.23-5.54,2.92c-2.03,0.92-3.92,2.15-5.59,3.63c-1.85,1.56-5.75,3.17-8.35,3.24
						c-3.96,0.12-6.54-0.91-7.35-2.32c-0.7-1.22-0.11-3.01,0.9-3.89c1.39-1.23,3.11-2.01,4.77-2.85c2.22-1.14,4.7-2.51,6.37-4.48
						c0.46-0.54,1.19-0.77,1.88-0.62C110.27,222.34,113.68,222.84,116.64,221.81z"/>
					<path class="st31" d="M108.33,207.85c2.32,1.63,8.92,3.14,12.73,0.51l-0.51,8.11c-2.29,1.53-9.04,2.12-11.72-0.9L108.33,207.85
						z"/>
					<path class="st30" d="M141.21,225.86l0.23-10.6l-11.89,0.44l1.75,10.72c0,0,0.69,4.35,0.84,5.4c0.37,3.01,0.58,6.04,0.62,9.08
						c0.05,4,0.26,7.7,1.35,9.55c1.1,1.84,2.29,2.13,4.08,1.53c1.79-0.6,3.98-2.61,4.67-5.79s-0.27-7.87-0.66-8.94
						C141.82,236.18,141.27,229.77,141.21,225.86z"/>
					<path class="st24" d="M139.61,134.57l-23.48-0.12c0.77,5.91,6.22,46.03,7.43,52.81c1.22,6.78,6.55,33.37,6.55,33.37
						s1.26,1.99,5.26,1.75c4.5-0.28,6.23-2.09,6.23-2.09s0.87-14.29,0.96-22.68c0.1-5.29-0.58-10.57-2.01-15.67
						c0,0,0.6-15.29,0.58-25.53C141.12,146.17,141.06,142.93,139.61,134.57z"/>
					<path class="st31" d="M131.82,245.88c0.12,2.81,0.54,4.67,1.51,6.33s2.85,2.21,4.77,1.76c1.91-0.45,4.38-1.69,4.96-4.08
						s0.93-4.06,0.51-6.66L131.82,245.88z"/>
					<path class="st24" d="M141,229.09c0.28-0.21,0.1-2.83,0.21-3.23c0.78,0.08,0.51,3.79,0.92,7.56c0.42,4.04,0.99,5.66,1.37,8.98
						c0.44,3.79-0.21,5.47-1.58,7.73c-1.36,2.27-6.13,4.43-8.38,1.12c-1.85-2.7-1.89-5.67-1.66-9.44c0.23-3.9-0.11-6.53-0.38-9.49
						c-0.29-3.06-0.87-5.62-0.18-5.9c0,0,0.46,2.33,0.63,2.81C131.94,229.24,135.78,232.71,141,229.09z"/>
					<path class="st31" d="M129.36,217.44c2.43,1.39,9.04,2.22,12.49-0.8l-0.47,7.32c-2.08,1.74-8.62,3.06-11.54,0.3L129.36,217.44z
						"/>
					<path class="st31" d="M140.19,188.64c-0.16-1.31-0.32-2.35-0.46-3.35c-0.51-3.35-0.96-6.52-1.6-19.17
						c-0.23-4.76-0.26-8.43-0.28-11.68c-0.04-6.57-0.06-11.33-1.77-19.91h-0.51c1.62,8.06,1.74,12.76,1.78,18.72
						c-3.14-0.13-4.93-3.14-5.62-9.46c-0.74-6.69-1.48-11.26-1.49-11.3l-0.51,0.08c0,0.05,0.75,4.59,1.48,11.28
						c0.72,6.55,2.73,9.79,6.13,9.92c0,0.22,0,0.43,0,0.66c0,3.24,0.04,6.92,0.28,11.7c0.64,12.68,1.11,15.86,1.6,19.22
						c0.15,1.02,0.3,2.04,0.46,3.34c1.14,9.97,1.48,20.02,1.02,30.05h0.51C141.67,208.7,141.33,198.63,140.19,188.64z"/>
					<path class="st31" d="M124.05,188.33c-0.99-6.03-1.97-12.06-2.96-18.09c-0.63-3.87-1.27-7.75-1.9-11.62
						c-0.24-1.5-0.43-3.01-0.81-4.48c-0.62-2.36-1.05-4.77-1.25-7.2c-0.25-3.1-0.21-6.55,1.42-9.3c0.19-0.33-0.32-0.62-0.51-0.3
						c-2.59,4.38-1.68,10.39-0.67,15.12c0.36,1.66,0.75,3.24,1.02,4.92c1.3,7.94,2.6,15.89,3.9,23.83c0.4,2.43,0.79,4.85,1.19,7.28
						C123.54,188.86,124.11,188.7,124.05,188.33L124.05,188.33z"/>
				</g>
				<g id="character_00000165922468156480635380000007502132137765293717_">
					<path class="st30" d="M105.78,84.28c-2.74,2.14-4.74,7.35-5.81,17.25c-1.04,9.59,3.7,34,3.7,34l7.98,2.33l2.2-35.97
						L105.78,84.28z"/>
					<path class="st32" d="M109.58,81.82c-4.8,1.68-7.39,4.68-8.35,9.42c-1.1,5.45-2.59,21.05-2.59,21.05
						c2.43-0.12,4.87,0.06,7.26,0.52c3.2,0.75,6.04,3.07,6.04,3.07l1.72-14.69L109.58,81.82z"/>
					<g id="chest">
						<path class="st32" d="M103.32,97.11c0.03-6.71,6.13-15.73,8.52-16.48c0,0,4.08-2.76,13.19,1.18
							c5.45,2.35,14.53,8.93,14.53,8.93c0.83,4.11,1.34,8.28,1.53,12.47c0.2,6.26-2.26,14.81-2.04,19.79
							c0.21,4.99,0.62,10.01,1.59,17.32c-6.02,8.14-30.94,7.7-37.46-4.68C103.21,125.8,103.32,104.28,103.32,97.11z"/>
					</g>
					<g id="head">
						<path class="st33" d="M107,66.83c-1.09-2.36-0.19-6.31-0.19-6.31c-1.1,1.6-1.42,3.61-0.89,5.47
							c-2.26-2.61-1.83-7.87,2.75-10.84c6.05-3.93,17.87-4.66,20.42,3.8c1.97,0.3,3.1,2.55,2.93,7.24s-2.85,10.72-2.38,12.91
							c0.47,2.19,1.13,2.74,1.13,2.74c-1.25-0.2-2.32-1-2.86-2.15c0.23,0.96,0.54,1.9,0.95,2.81h-16.57L107,66.83z"/>
						<path class="st30" d="M129.43,77.07c-1.93,0.7-2.71-0.51-2.71-0.51l0.65,8.11c-2.32,2.82-7.79,6.49-11.74,5.87
							c-2.11-0.34-2.37-2.23-0.24-4.98l-0.33-2.6c-1.3,0.06-2.6-0.03-3.89-0.26c-2.2-0.59-3.85-2.41-4.21-4.66
							c-0.47-2.6-0.46-8.87,0.63-14.81c0.25-1.32,1.11-3.28,2.12-4.14c0.27,1.13,0.39,2.17,3.4,2.5c3.32,0.36,8.39-3.22,10.68-0.63
							c-1.03,0.81-1.61,2.07-1.53,3.38c0.04,1.83,1.53,3.73,1.69,4.87c0.28,1.88,0.94,2.74,1.49,2.83c1.02,0.18,1.21-0.93,1.88-1.6
							s3.19-1.02,4.2,1.27C132.54,73.99,130.91,76.53,129.43,77.07z"/>
						<path class="st29" d="M124.05,80.3c0.86-1.35,0.98-3.48,0.98-3.48c-0.39,1-0.91,1.95-1.56,2.81c-1.13,1.53-5,3.06-8.42,3.31
							l0.17,1.21C120.17,83.76,123.23,81.6,124.05,80.3z"/>
						<path class="st29" d="M111.02,73.1l1.86,0.54l0.33-3.24C112.47,70.49,111.74,71.73,111.02,73.1z"/>
						<path class="st33" d="M116.66,66.35l2.81,0.48c0.26-0.39-0.16-0.82-0.95-0.96c-0.76-0.13-1.58,0.07-1.84,0.44
							C116.68,66.33,116.67,66.34,116.66,66.35z"/>
						<path class="st33" d="M107.97,66.14l2.83-0.41c-0.17-0.39-0.92-0.64-1.68-0.56c-0.02,0-0.05,0.01-0.07,0.01
							C108.26,65.31,107.79,65.73,107.97,66.14z"/>
						<path d="M107.94,69.43c-0.14-1.33,1.68-2.07,2.61-1.22c0.3,0.24,0.49,0.58,0.53,0.97l-0.05,0.06
							c-0.9-0.87-2.28-0.81-3.02,0.23C108,69.48,107.94,69.43,107.94,69.43L107.94,69.43z"/>
						<path d="M115.66,69.22c0.26-1.32,2.22-1.47,2.85-0.38c0.21,0.32,0.29,0.7,0.22,1.09l-0.07,0.04c-0.59-1.1-1.93-1.46-2.95-0.69
							C115.71,69.28,115.66,69.22,115.66,69.22L115.66,69.22z"/>
						<path class="st25" d="M113.04,77.01c0.4-0.38,1.03-0.65,1.66-0.71c0.47-0.05,0.9,0.03,1.2,0.22c0.29,0.18,0.33,0.49,0.09,0.78
							c-0.34,0.3-0.88,0.48-1.37,0.44c-0.5-0.03-0.95-0.13-1.35-0.29c-0.12-0.03-0.22-0.08-0.31-0.15c-0.08-0.06-0.08-0.16,0-0.25"
							/>
						<path d="M116.12,75.88c-0.13-0.07-0.53,0.82-1.57,1.12s-1.95-0.23-2.01-0.11c-0.04,0.05,0.14,0.27,0.53,0.46
							c0.52,0.24,1.1,0.29,1.65,0.14c0.53-0.14,0.98-0.49,1.26-0.96C116.18,76.17,116.18,75.9,116.12,75.88z"/>
					</g>
					<path class="st30" d="M135.48,93.59c2.68-3.18,4.7-3.41,8.42,4.13c4.85,9.81,6.39,12.66,9.1,20.09
						c2.04,5.62,2.09,5.98-0.15,10.72c-1.25,2.63-8.57,16.16-10.8,18.64c-1.48,1.65-3.46,4.81-5.02,6.13c0,0-3.67,0.18-4.85-6.39
						c0,0-0.94-0.79-3.02,0.14c-1.43,0.64-3.31,0.92-4.27,0.14s1.07-1.42,2.07-2.16c1.44-1.21,3.13-2.08,4.94-2.55
						c2.59-0.67,3.1-1.35,5.11-4.42c2.41-3.71,4.91-13.07,4.91-13.07l-5.93-12.04C130.38,101.63,132.81,96.77,135.48,93.59z"/>
					<path class="st32" d="M132.14,97.94c1.17-5.78,5.36-7.48,6.91-7.33s3.99,2.92,5.47,6.22c2.27,5.04,7.02,16.51,7.02,16.51
						c-1.09,2.48-3.01,4.51-5.43,5.75c-4.14,2.19-6.42,2.41-6.42,2.41s-1.81-3.15-4.14-7.98
						C133.23,108.67,131.23,102.42,132.14,97.94z"/>
					<path class="st29" d="M141.92,124.94c1.46-1.79,3.61-2.9,5.92-3.04c-2.25-0.81-4.89,0.15-6.45,1.99L141.92,124.94z"/>
				</g>
				<path d="M138.71,119.7c-2.36-4.52-4.65-9.07-6.87-13.66C134.2,110.56,136.49,115.12,138.71,119.7L138.71,119.7z"/>
			</g>
			<g>
				<path class="st32" d="M111.5,23.41c-0.21-0.93-0.91-1.87-1.97-2.48c-1.14-0.66-2.4-0.77-3.33-0.39
					c-0.97-0.66-2.12-1.08-3.38-1.14c-2.27-0.11-4.33,0.94-5.61,2.63c-1-0.1-2.1,0.22-2.99,0.97c-1.38,1.16-1.84,2.95-1.21,4.32
					c-0.3,0.28-0.58,0.6-0.82,0.96c-1.56,2.39-0.89,5.6,1.5,7.16c0.1,0.06,0.2,0.12,0.3,0.17c-0.01,0.11-0.02,0.22-0.02,0.33
					c0,2.63,2.22,4.77,4.95,4.77c1.13,0,2.16-0.37,2.99-0.98c1.12,0.59,2.42,0.86,3.77,0.72c2.88-0.31,5.13-2.44,5.72-5.12
					c1.53-0.71,2.78-1.99,3.41-3.69C116.01,28.43,114.53,24.87,111.5,23.41z"/>
				<g>
					<path class="st26" d="M101.9,32.62c0-0.48,0.05-0.89,0.16-1.24c0.11-0.34,0.26-0.64,0.47-0.89s0.48-0.47,0.8-0.66
						c0.21-0.13,0.46-0.27,0.74-0.41s0.54-0.31,0.78-0.5s0.44-0.43,0.6-0.71c0.16-0.28,0.24-0.62,0.24-1.01
						c0-0.48-0.11-0.88-0.33-1.19c-0.22-0.31-0.51-0.55-0.85-0.71c-0.35-0.16-0.72-0.24-1.12-0.24s-0.77,0.07-1.13,0.22
						s-0.67,0.35-0.94,0.6c-0.27,0.25-0.49,0.54-0.66,0.86l-0.79-0.5c0.21-0.45,0.5-0.84,0.87-1.16s0.78-0.56,1.24-0.73
						s0.94-0.25,1.42-0.25c0.42,0,0.82,0.06,1.22,0.19c0.39,0.13,0.75,0.32,1.06,0.58s0.56,0.59,0.74,0.98
						c0.19,0.39,0.28,0.85,0.28,1.39c0,0.44-0.06,0.81-0.19,1.11c-0.12,0.3-0.3,0.56-0.52,0.77c-0.22,0.21-0.47,0.4-0.74,0.57
						c-0.27,0.16-0.55,0.32-0.85,0.48c-0.26,0.14-0.51,0.3-0.74,0.48c-0.24,0.17-0.43,0.41-0.58,0.71s-0.22,0.71-0.22,1.24h-0.96
						V32.62z M101.91,35.96v-1.77h1v1.77H101.91z"/>
				</g>
				<circle class="st32" cx="110.2" cy="42.9" r="1.3"/>
				<circle class="st32" cx="113.14" cy="45.85" r="1.3"/>
				<circle class="st32" cx="116.53" cy="48.46" r="1.3"/>
			</g>
		</g>
	</g>
</g>
<g class="st0">
	<circle id="SVGID_00000044149791232847480710000004775682977474788508_" class="st34" cx="87.05" cy="87.25" r="82.81"/>
</g>
<g>
	<g>
		<g>
			<g>
				<g>
					<path class="st35" d="M111.84,70.77l2.03,1.59c0.38,0.3,0.67,0.7,0.84,1.16l0.67,1.89l-2.52,2.81l-3.03-2.11
						c0,0-0.95-1.56-1.03-1.98c-0.07-0.43,0.48-0.71,0.48-0.71c-0.18-0.54,0.49-1.08,0.49-1.08c-0.12-0.63,0.65-0.83,0.65-0.83
						s-0.04-0.76,0.15-0.94c0.08-0.07,0.21-0.1,0.35-0.1C111.25,70.44,111.58,70.56,111.84,70.77z"/>
				</g>
			</g>
		</g>
		<g>
			<g>
				<g>
					<path class="st35" d="M129.16,92.94c0,0-9.11-2.75-11.62-4.55c-1.37-0.98-5.44-10.89-5.44-10.89l3.05-2.56l5.61,9.26
						l10.95,2.61L129.16,92.94z"/>
				</g>
			</g>
		</g>
	</g>
	<g id="color-block_00000107577484730941089560000006451017826405592456_">
		<polygon class="st36" points="127.02,121.5 105.84,133.72 105.84,120.86 127.02,108.63 		"/>
		<polygon class="st37" points="84.67,121.5 105.84,133.72 105.84,120.86 84.67,108.63 		"/>
		<polygon class="st38" points="127.02,108.63 105.84,96.4 84.67,108.63 105.84,120.86 		"/>
	</g>
	<g id="color-block_00000029004884788120721920000001647382610841537712_">
		<polygon class="st39" points="104.17,134.41 82.99,146.63 82.99,133.76 104.17,121.54 		"/>
		<polygon class="st40" points="104.17,134.41 82.99,146.63 82.99,133.76 104.17,121.54 		"/>
		<polygon class="st39" points="61.82,134.41 82.99,146.63 82.99,133.76 61.82,121.54 		"/>
		<polygon class="st41" points="61.82,134.41 82.99,146.63 82.99,133.76 61.82,121.54 		"/>
		<polygon class="st39" points="104.17,121.54 82.99,109.31 61.82,121.54 82.99,133.76 		"/>
		<polygon class="st42" points="104.17,121.54 82.99,109.31 61.82,121.54 82.99,133.76 		"/>
	</g>
	<g id="color-block_00000122701346995440940100000004679553894536953513_">
		<polygon class="st39" points="126.46,107.49 105.28,119.72 105.28,106.85 126.46,94.62 		"/>
		<polygon class="st40" points="126.46,107.49 105.28,119.72 105.28,106.85 126.46,94.62 		"/>
		<polygon class="st39" points="84.11,107.49 105.28,119.72 105.28,106.85 84.11,94.62 		"/>
		<polygon class="st41" points="84.11,107.49 105.28,119.72 105.28,106.85 84.11,94.62 		"/>
		<polygon class="st39" points="126.46,94.62 105.28,82.4 84.11,94.62 105.28,106.85 		"/>
		<polygon class="st42" points="126.46,94.62 105.28,82.4 84.11,94.62 105.28,106.85 		"/>
	</g>
	<g id="color-block">
		<polygon class="st39" points="104.17,119.97 82.99,132.2 82.99,119.33 104.17,107.11 		"/>
		<polygon class="st43" points="104.17,119.97 82.99,132.2 82.99,119.33 104.17,107.11 		"/>
		<polygon class="st39" points="61.82,119.97 82.99,132.2 82.99,119.33 61.82,107.11 		"/>
		<polygon class="st44" points="61.82,119.97 82.99,132.2 82.99,119.33 61.82,107.11 		"/>
		<polygon class="st39" points="104.17,107.11 82.99,94.88 61.82,107.11 82.99,119.33 		"/>
	</g>
	<g id="color-block_00000085239821134059829450000005372366066847422867_">
		<polygon class="st39" points="126.46,93.22 105.28,105.44 105.28,92.57 126.46,80.35 		"/>
		<polygon class="st43" points="126.46,93.22 105.28,105.44 105.28,92.57 126.46,80.35 		"/>
		<polygon class="st39" points="84.11,93.22 105.28,105.44 105.28,92.57 84.11,80.35 		"/>
		<polygon class="st44" points="84.11,93.22 105.28,105.44 105.28,92.57 84.11,80.35 		"/>
		<polygon class="st39" points="126.46,80.35 105.28,68.12 84.11,80.35 105.28,92.57 		"/>
	</g>
	<g id="Character">
		<g id="Character_00000042703329444204885390000005026099222055923356_">
			<path d="M32.97,115.38c-0.16,0.87-0.24,1.76-0.25,2.65c-0.03,1.61-0.32,2.18-0.37,3.5c-0.04,1.51,0.22,2.07,0.83,2.92
				s2.22,1.61,2.89,0.18c0.67-1.42,0.59-2.37,0.38-3.85s-0.25-2.37-0.38-3.53c-0.12-1.03-0.25-1.81-0.25-1.81L32.97,115.38z"/>
			<path class="st30" d="M37.54,102.74l-5.29-0.1c0.08,3.53,0.64,9.42,0.73,12.73c0,0.63,0,4.85,0.22,6.14
				c0.35,1.93,2.64,1.67,2.76,0.51c0.12-1.16-0.15-6.07-0.15-6.6c-0.02-2.13,0.96-7.68,1.5-11.49
				C37.34,103.76,37.51,102.93,37.54,102.74z"/>
			<path d="M53.25,117.41l-1.14-0.74c-2.33-1.52-3.18-2.34-3.85-3.85l-2.94-0.18c0,0-0.27,0.02-0.32,0.24
				c-0.05,0.22-0.06,0.68-0.17,1.12c-0.18,0.68-0.24,1.39-0.19,2.1l0.3,2.58h1.06l0.16-1.36c0.16,0.06,0.32,0.11,0.47,0.14
				c0.77,0.13,1.86,0.89,2.46,1.46c0.97,0.8,2.17,1.27,3.42,1.35c1.28,0,2.18-0.43,2.61-1.12
				C55.53,118.44,54.72,118.36,53.25,117.41z"/>
			<path class="st30" d="M48.3,111.69c-0.04-1.09,0.71-12.33,0.71-12.33l-5.03,2.29c1.08,6.42,1.45,10.02,1.32,10.95l0,0
				c-0.02,0.09-0.03,0.18-0.03,0.27c0,1.25,1.42,1.93,2.51,2.75c0.43,0.32,1.55,1.34,2.86,1.79c0.85,0.29,2.41,0.4,2.61-0.12
				c-1.34-1.02-3.16-2.36-4.22-3.53C48.53,113.21,48.33,112.78,48.3,111.69z"/>
			<path d="M49.7,90.72c0.32-4.32-0.41-16.14-1.4-22.2l-13.89-0.26c-1.93,4.24-1.93,7.52-1.61,12.92l-2.47,34.82l7.83-1.16
				l2.73-31.61l1.87,28.98l8.74,0.86L49.7,90.72"/>
			<path d="M41.91,48.23h-1.3c-3.51,0.01-6.37-2.84-6.37-6.35c0,0,0-0.01,0-0.01l0,0c0-3.66,2.97-6.63,6.63-6.63c0,0,0,0,0,0h0.77
				c3.66,0,6.63,2.97,6.63,6.63l0,0C48.26,45.38,45.42,48.23,41.91,48.23z"/>
			<path d="M33.35,45.49c1.1-1.06,2.39-0.45,3.53,0.73c1.14,1.18,1.69,2.49,0.58,3.55c-1.1,1.06-2.92,0.96-4.05-0.22
				C32.28,48.37,32.25,46.55,33.35,45.49z"/>
			<path d="M33.13,42.57c1.1-1.06,2.39-0.45,3.53,0.73s1.69,2.49,0.58,3.55c-1.1,1.06-2.92,0.96-4.05-0.22S32.02,43.63,33.13,42.57z
				"/>
			<path d="M36.12,44.85c1.1-1.06,2.39-0.45,3.53,0.73c1.14,1.18,1.69,2.49,0.58,3.55c-1.1,1.06-2.92,0.96-4.05-0.22
				C35.04,47.73,35.01,45.91,36.12,44.85z"/>
			<path class="st30" d="M48.75,54.85c1.54,2.6,3.39,5.76,4.43,6.84c1.97,0.92,6.49,2.64,8.3,2.89c0.32,0.04,0.64-0.04,0.91-0.22
				c0.71-0.47,1.26-0.54,2.02-0.8c0.59-0.21,0.84-0.48,0.96-0.38c0.24,0.28,0.21,0.69-0.06,0.93c-0.28,0.27-0.59,0.5-0.93,0.7
				c0.81,0.2,1.64,0.21,2.46,0.04c1.57-0.41,2.31,0.34,1.25,2.05c-0.38,0.61-1.88,1.59-4.92,1.33c-1.08-0.06-2.16-0.19-3.23-0.38
				c-2.91-0.62-6.02-1.53-8.03-2.13c-0.74-0.29-1.4-0.75-1.93-1.34c-3.35-3.82-4.99-7.2-6.46-9.67l0.13-4.04
				C46.03,50.59,47.46,52.67,48.75,54.85z"/>
			<path class="st45" d="M39.67,91.36c0.5-3.97,1.9-12.23,1.9-12.23"/>
			<path class="st46" d="M38.54,50.81L38.54,50.81c-1.02,0.07-2.34,0.28-2.34,0.28c-1.07,0.6-1.61,1.69-1.61,2.97
				c0,1.39-0.78,2.17-0.35,4.47l1.67,4.17c-0.08,1.04-1.33,3.5-2.05,6.9c4.09,2.28,9.31,1.75,12.2,0.51
				c0.87-0.33,1.64-0.88,2.25-1.58c-0.48-2.5-0.64-2.47-0.91-4.76c-0.13-0.92-0.18-1.86-0.15-2.79c1.31-1.69,2.01-3.34,1.35-4.85
				c-1.35-3.08-3.87-5.55-5.17-5.46L38.54,50.81z"/>
			<path class="st30" d="M45.66,38.23c0.74,0.44,1.66,2.3,1.57,6.21c-0.08,3.31-1.15,4.13-1.69,4.37c-0.54,0.23-1.58,0.09-2.59-0.07
				v1.99c0,0,1.17,1.22,1.08,2.13c-0.09,0.91-1.83,1.01-3.14,0.12c-0.79-0.54-1.5-1.2-2.1-1.95v-4.93c0,0-0.55,0.59-1.53-0.09
				c-0.84-0.53-1.09-1.65-0.56-2.49c0.03-0.05,0.06-0.09,0.09-0.13c0.42-0.5,1.51-0.54,2.03,0.24c0,0,1.36-0.12,3.51-1.28
				C43.94,41.47,45.14,39.99,45.66,38.23z"/>
			<path class="st47" d="M43.42,46.25l1.18,0.39c-0.08,0.33-0.42,0.52-0.74,0.44c-0.01,0-0.03-0.01-0.04-0.01
				C43.49,46.95,43.31,46.59,43.42,46.25z"/>
			<path class="st29" d="M42.95,48.72c-1.07-0.14-3.26-0.77-3.6-1.64c0.14,0.44,0.4,0.83,0.77,1.11c0.64,0.56,2.83,1.19,2.83,1.19
				V48.72z"/>
			<polygon class="st39" points="79.08,83.38 57.91,95.61 57.91,82.74 79.08,70.52 			"/>
			<polygon class="st40" points="79.08,83.38 57.91,95.61 57.91,82.74 79.08,70.52 			"/>
			<polygon class="st39" points="36.73,83.38 57.91,95.61 57.91,82.74 36.73,70.52 			"/>
			<polygon class="st41" points="36.73,83.38 57.91,95.61 57.91,82.74 36.73,70.52 			"/>
			<path class="st43" d="M40.57,78.32l-1.14-1.14c-0.16-0.16-0.34-0.3-0.49-0.47c-0.06-0.06-0.35-0.4-0.26-0.5
				c0.02-0.02,0.05-0.02,0.08-0.02c0.5,0.05,1.14,0.03,1.5-0.39c0.06-0.07,0.1-0.16,0.12-0.25c0.01-0.07,0-0.14-0.04-0.19
				c-0.07-0.11-0.27-0.11-0.39-0.14c-0.15-0.05-0.3-0.11-0.43-0.19c-0.24-0.13-0.48-0.23-0.74-0.32l-1.01-0.22
				c-0.29-0.23-0.67-0.34-1.04-0.29v5.75c0.42,0.23,0.88,0.37,1.35,0.41c0.63,0.07,1.27-0.03,1.84-0.3c0.47-0.23,1.2-0.83,0.91-1.44
				C40.76,78.52,40.67,78.41,40.57,78.32z"/>
			<polygon class="st39" points="79.08,70.52 57.91,58.29 36.73,70.52 57.91,82.74 			"/>
			<polygon class="st48" points="79.08,70.52 57.91,58.29 36.73,70.52 57.91,82.74 			"/>
			<path class="st30" d="M27.64,63.5c1.21-2.64,3.36-6.72,4.37-8.79c1.48-2.99,2.69-3.63,4.72-3.7c0.8,0.69,1.18,3.1-0.11,6.19
				c-1.08,1.86-4.41,7.55-4.41,7.55c0.16,0.46,2.76,6.88,3.83,8.35c0.19,0.26,0.47,0.44,0.79,0.5c0.84,0.18,1.93,0.84,2.63,1.2
				c0.56,0.28,0.94,0.26,0.93,0.41c-0.05,0.37-0.37,0.63-0.74,0.61c-0.56-0.07-1.11-0.17-1.65-0.32c0.61,0.64,1.26,1.23,1.95,1.79
				c1.28,0.99,1.45,2.02-0.57,2.46c-1.53,0.32-2.5-0.37-4.39-2.72c-0.54-0.68-1.2-1.72-1.86-2.6c-1.67-2.21-2.57-3.77-3.59-5.16
				C26.62,65.36,27.19,64.47,27.64,63.5z"/>
			<path class="st46" d="M44.25,53.06l2.46,4.59l3.77,0.12c0,0-2.71-7.32-6.83-7.1c0,0,0.59,2.39,0.76,3.36"/>
			<path class="st46" d="M30.43,57.71c0.3-0.83,2.87-7.6,6.3-6.7c0,0,2.41,1.52,0.92,4.55c-0.53,1.08-3.89,6.53-3.89,6.53
				l-3.31-4.23C30.42,57.82,30.41,57.77,30.43,57.71z"/>
			<path d="M42.88,43.22c-0.18-0.1-0.39-0.14-0.6-0.11c-0.2,0.02-0.39,0.11-0.54,0.25l-0.3-0.06l0.17,0.24c0,0.02,0,0.03,0.01,0.03
				c0.05,0.04,0.3-0.19,0.69-0.24c0.39-0.05,0.7,0.12,0.74,0.06C43.08,43.37,43.02,43.3,42.88,43.22z"/>
			<path d="M46.58,43.17l0.02-0.31l-0.2,0.18c-0.18-0.09-0.37-0.13-0.57-0.1c-0.2,0.02-0.39,0.11-0.54,0.25
				c-0.11,0.11-0.14,0.2-0.12,0.22c0.05,0.04,0.3-0.19,0.69-0.24c0.39-0.04,0.7,0.12,0.74,0.06C46.6,43.22,46.6,43.2,46.58,43.17
				L46.58,43.17z"/>
			<polygon class="st46" points="42.95,50.68 42.95,50.32 38.79,50.32 38.79,54.48 42.51,54.48 42.51,54.89 44.15,54.89 
				44.15,50.68 			"/>
		</g>
	</g>
	<g id="Lines_00000007416911180639990460000014796459237267798206_">
		<g id="Lines_00000083054580808994162870000012204110897322265492_">
			<path class="st46" d="M80.71,69.05c-0.1-0.16-0.05-0.38,0.11-0.48l3.52-2.49c0.16-0.1,0.38-0.05,0.48,0.11
				c0.1,0.15,0.06,0.36-0.09,0.47l-3.55,2.5c-0.16,0.1-0.36,0.06-0.47-0.09L80.71,69.05z"/>
			<path class="st46" d="M77.81,66.63c-0.07-0.1-0.08-0.23-0.03-0.33l1.85-4c0.08-0.17,0.29-0.25,0.46-0.17
				c0.17,0.08,0.25,0.29,0.17,0.46l-1.85,4c-0.08,0.17-0.29,0.25-0.46,0.17C77.89,66.72,77.84,66.68,77.81,66.63z"/>
			<path class="st46" d="M82.02,72.61c-0.03-0.05-0.05-0.1-0.05-0.16c-0.02-0.19,0.12-0.36,0.31-0.38c0,0,0,0,0,0l4.37-0.39
				c0.19-0.02,0.36,0.12,0.38,0.31c0,0,0,0,0,0c0.02,0.19-0.12,0.36-0.31,0.38l-4.38,0.39C82.21,72.78,82.09,72.72,82.02,72.61z"/>
		</g>
	</g>
	<g>
		<g>
			<g>
				<g>
					<path class="st35" d="M141.59,71.8l-4.85-2.14c-1.92-0.48-3.57,1.74-3.97,3.68c-0.45,2.16-0.91,4.81-0.88,6.47
						c0.05,3.34,2.88,4.51,2.88,4.51c0,0-0.27,2-0.27,2c0.1,1.57,1.74,1.75,1.74,1.75c4.47,0.53,5.02-1.97,5.02-1.97l1.18-12.41
						C142.53,73.11,142.17,71.95,141.59,71.8z"/>
				</g>
				<g>
					<g>
						<g>
							<g>
								<g>
									<g>
										<g>
											<path class="st49" d="M134.77,84.33c0,0,1.8,0.06,4.16-0.94c0,0-0.96,2-4.29,1.93L134.77,84.33z"/>
										</g>
									</g>
								</g>
							</g>
						</g>
					</g>
				</g>
			</g>
		</g>
		<g>
			<g>
				<path class="st22" d="M134.29,85.97c0,0-0.36,0.58-1.01,1.32c-0.55,0.63-4.39,4.56-4.39,4.56l1.43,1.89l3.17-0.93L134.29,85.97z
					"/>
			</g>
			<g>
				<path class="st22" d="M131.47,95.38l0.07-0.93l-4.25-1.62l2.26-6.71l3.15,0.57c0.5-0.41,1.59-0.72,1.59-0.72l0.02-0.03l0,0.04
					l-0.79,6.84l-0.01,0L131.47,95.38z"/>
			</g>
		</g>
		<g>
			<g>
				<g>
					<g>
						<path class="st22" d="M147.96,100.85v-0.32l-2.89-10.91c-0.71-2.7-2.6-4.47-5.33-5.05c-0.26-0.06-5.45,1.19-5.49,1.19
							l-1.74,5.11c0,0-1.65,4.56-1.37,6.85c0.17,1.43,4.18,7.52,4.18,7.52l-1.07,1.63c9.37,4.66,18.14,4.12,18.14,4.12
							C151.52,106.49,147.96,100.85,147.96,100.85z"/>
					</g>
				</g>
			</g>
		</g>
		<g>
			<g>
				<g>
					<path class="st35" d="M138.43,94.13c0,0-10.93,7.25-12.58,6.91c-1.65-0.33-11.85-9.2-11.85-9.2l2.31-3.08l9.79,6.29l9.99-7.13
						L138.43,94.13z"/>
				</g>
			</g>
		</g>
		<g>
			<g>
				<g>
					<g>
						<path class="st22" d="M142.43,85.9c-1.58-1.55-4.89,0.03-7.21,1.38c-2.1,1.23-5.4,3.77-5.4,3.77l4.75,6.75l6.17-3.92
							c1.51-0.92,2.98-2.7,3.07-4.47C143.86,88.3,143.54,86.99,142.43,85.9z"/>
						<g>
							<path class="st22" d="M142.43,85.9c0,0,0.02,0.02,0.07,0.05c0.04,0.04,0.1,0.09,0.18,0.17c0.15,0.16,0.36,0.41,0.58,0.77
								c0.22,0.36,0.43,0.84,0.54,1.43c0.11,0.59,0.13,1.3-0.09,2.04c-0.44,1.47-1.7,2.96-3.48,3.96c-1.71,1.09-3.6,2.3-5.6,3.58
								l-0.08,0.05l-0.06-0.08c-0.54-0.76-1.1-1.56-1.67-2.38c-1.07-1.53-2.11-3-3.07-4.37l-0.06-0.08l0.08-0.06
								c1.66-1.26,3.23-2.4,4.71-3.33c1.48-0.92,2.87-1.62,4.09-2.04c1.21-0.41,2.29-0.5,2.97-0.27c0.08,0.03,0.16,0.06,0.24,0.08
								c0.07,0.03,0.13,0.07,0.19,0.1c0.12,0.06,0.22,0.12,0.28,0.19C142.36,85.83,142.43,85.9,142.43,85.9
								c-0.02,0.03-0.27-0.3-0.94-0.49c-0.66-0.21-1.71-0.1-2.9,0.32c-1.2,0.43-2.57,1.14-4.03,2.06c-1.46,0.94-3.03,2.08-4.68,3.34
								L129.9,91c0.96,1.37,2,2.84,3.08,4.37c0.57,0.82,1.14,1.62,1.67,2.38l-0.14-0.03c2.01-1.27,3.91-2.47,5.62-3.56
								c1.76-0.97,2.99-2.42,3.44-3.84c0.23-0.71,0.21-1.4,0.12-1.97c-0.1-0.58-0.3-1.05-0.5-1.41
								C142.77,86.22,142.41,85.92,142.43,85.9z"/>
						</g>
					</g>
				</g>
			</g>
		</g>
		<g>
			<g>
				<g>
					<g>
						<g>
							<g>
								<g>
									<g>
										<g>
											<g>
												<g>
													<g>
														<g>
															<g>
																<g>
																	<g>
																		<g>
																			<g>
																				<g>
																					<g>
																						<path class="st46" d="M137.04,130.02l6.35-2.17c0,0,4.34,5.73,5.55,5.44l-3.77-12.47l-10.04,2.98
																							L137.04,130.02z"/>
																					</g>
																				</g>
																			</g>
																		</g>
																	</g>
																</g>
															</g>
														</g>
													</g>
												</g>
											</g>
										</g>
									</g>
								</g>
							</g>
						</g>
					</g>
					<g>
						<g>
							<g>
								<g>
									<g>
										<g>
											<g>
												<g>
													<g>
														<g>
															<g>
																<g>
																	<g>
																		<g>
																			<g>
																				<g>
																					<g>
																						<path d="M145.44,120.73l-0.97,0.29l3.7,11.97c0,0,0.41,0.48,0.78,0.3L145.44,120.73z"/>
																					</g>
																				</g>
																			</g>
																		</g>
																	</g>
																</g>
															</g>
														</g>
													</g>
												</g>
											</g>
										</g>
									</g>
								</g>
							</g>
						</g>
					</g>
				</g>
				<g>
					<g>
						<g>
							<g>
								<g>
									<g>
										<g>
											<g>
												<g>
													<g>
														<g>
															<g>
																<g>
																	<g>
																		<g>
																			<g>
																				<g>
																					<g>
																						<path class="st50" d="M142.01,128.74c0.06-0.05-0.14-0.35-0.23-0.75c-0.1-0.41-0.06-0.76-0.13-0.78
																							c-0.06-0.03-0.23,0.36-0.12,0.84C141.64,128.52,141.97,128.79,142.01,128.74z"/>
																					</g>
																				</g>
																			</g>
																		</g>
																	</g>
																</g>
															</g>
														</g>
													</g>
												</g>
											</g>
										</g>
									</g>
								</g>
							</g>
						</g>
					</g>
				</g>
				<g>
					<g>
						<g>
							<path class="st32" d="M135.46,110.87c-0.29-0.08-12.83,13.38-13.11,15.6c-0.29,2.22,0.17,4.16,1.65,5.42
								c1.48,1.25,18.36-2.85,18.36-2.85l-1.6-7.07l6.1-2.05l-5.45-9.98L135.46,110.87z"/>
						</g>
					</g>
				</g>
				<g class="st51">
					<g>
						<g>
							<path d="M133.29,113.86l-0.4,0.43c0,0,7.19,7.54,9.39,7.44l3.53-1.2l-11.94-7.33L133.29,113.86z"/>
						</g>
					</g>
				</g>
				<g class="st51">
					<g>
						<g>
							<g>
								<path d="M140.8,122.15c0.01,0.04-2.6,0.85-5.84,1.8c-3.24,0.95-5.88,1.69-5.89,1.64c-0.01-0.04,2.6-0.85,5.84-1.8
									C138.15,122.85,140.79,122.11,140.8,122.15z"/>
							</g>
						</g>
					</g>
				</g>
				<g>
					<g>
						<g>
							<g>
								<g>
									<g>
										<g>
											<g>
												<g>
													<g>
														<g>
															<g>
																<g>
																	<g>
																		<g>
																			<g>
																				<g>
																					<path class="st46" d="M126.37,123.18l1.98,6.29c0,0-5.73,4.13-5.48,5.33l12.34-3.41l-2.69-9.93L126.37,123.18z
																						"/>
																				</g>
																			</g>
																		</g>
																	</g>
																</g>
															</g>
														</g>
													</g>
												</g>
											</g>
										</g>
									</g>
								</g>
							</g>
						</g>
					</g>
				</g>
				<g>
					<g>
						<g>
							<g>
								<g>
									<g>
										<g>
											<g>
												<g>
													<g>
														<g>
															<g>
																<g>
																	<g>
																		<g>
																			<g>
																				<g>
																					<path d="M135.29,131.65l-0.26-0.96l-11.84,3.35c0,0-0.48,0.39-0.31,0.76L135.29,131.65z"/>
																				</g>
																			</g>
																		</g>
																	</g>
																</g>
															</g>
														</g>
													</g>
												</g>
											</g>
										</g>
									</g>
								</g>
							</g>
						</g>
					</g>
				</g>
				<g class="st51">
					<g>
						<g>
							<polygon points="135.71,130.45 134.78,126.78 135.47,126.46 131.23,114.91 130.42,115.61 133.75,126.19 134.95,130.61 
															"/>
						</g>
					</g>
				</g>
				<g>
					<g>
						<g>
							<path class="st32" d="M126.11,101.86c-1.66-0.34-3.42,0-4.77,1.02c-1.14,0.86-2.09,2.23-1.78,4.38
								c0.68,4.79,6.8,21.14,6.8,21.14l8.47-2.55c0.05-0.01,0.1-0.15,0.07-0.11c-0.07,0.11-4.3-13.51-4.19-13.35
								c0.11,0.17,8.55,6.97,12.05,8.23c3.6,1.29,7.16-0.25,8.88-2.65c0.82-1.15,2.97-6.28-0.78-11.29l-7.26,0.38
								c0,0-16.6-4.96-16.85-5.05C126.61,101.97,126.38,101.91,126.11,101.86z"/>
						</g>
					</g>
				</g>
				<g class="st51">
					<g>
						<g>
							<g>
								<path d="M151.96,117.8c0,0-0.03,0.06-0.1,0.16c-0.06,0.11-0.19,0.25-0.34,0.45c-0.33,0.37-0.86,0.89-1.67,1.4
									c-0.8,0.5-1.88,1.03-3.24,1.23c-0.68,0.1-1.42,0.14-2.19,0.03c-0.77-0.1-1.59-0.31-2.37-0.71c-0.4-0.17-0.78-0.4-1.19-0.61
									c-0.39-0.23-0.8-0.46-1.21-0.71c-0.81-0.5-1.65-1.05-2.49-1.64c-1.7-1.18-3.48-2.51-5.33-3.98
									c-0.23-0.19-0.46-0.37-0.69-0.56l-0.35-0.29l-0.09-0.08l-0.05-0.04c0.03,0.01-0.08-0.04,0.06,0.02
									c0.11-0.12,0.03-0.06,0.06-0.07l0.01,0.02l0.06,0.22c0.18,0.58,0.36,1.16,0.54,1.76c0.38,1.19,0.76,2.4,1.15,3.64
									c0.79,2.48,1.62,5.08,2.47,7.76l0.02,0.08l-0.08,0.02c-2.75,0.83-5.63,1.69-8.58,2.58l-0.07,0.02l-0.03-0.07
									c-0.55-1.47-1.12-3.03-1.68-4.61c-1.23-3.44-2.4-6.81-3.43-10.1c-0.52-1.64-1-3.27-1.38-4.88c-0.05-0.2-0.1-0.4-0.14-0.61
									c-0.04-0.2-0.07-0.41-0.11-0.61c-0.09-0.4-0.12-0.82-0.12-1.23c0-0.82,0.24-1.64,0.68-2.31c0.9-1.35,2.4-2.15,3.89-2.36
									c0.75-0.11,1.51-0.07,2.23,0.09c0.18,0.05,0.36,0.09,0.54,0.14c0.17,0.05,0.34,0.1,0.52,0.15c0.34,0.1,0.68,0.2,1.02,0.3
									c2.7,0.8,5.21,1.55,7.5,2.24c4.58,1.37,8.29,2.48,10.86,3.25c1.28,0.39,2.27,0.69,2.95,0.89c0.33,0.1,0.59,0.18,0.77,0.24
									c0.17,0.05,0.26,0.09,0.26,0.09s-0.09-0.02-0.26-0.07c-0.18-0.05-0.43-0.12-0.77-0.22c-0.68-0.2-1.68-0.49-2.96-0.86
									c-2.57-0.76-6.29-1.85-10.88-3.2c-2.3-0.68-4.81-1.42-7.51-2.22c-0.34-0.1-0.68-0.2-1.02-0.3c-0.17-0.05-0.34-0.1-0.52-0.15
									c-0.17-0.04-0.34-0.09-0.52-0.13c-0.7-0.16-1.44-0.19-2.17-0.09c-1.46,0.2-2.93,0.98-3.79,2.29
									c-0.42,0.65-0.65,1.44-0.65,2.23c0,0.4,0.03,0.8,0.12,1.2c0.04,0.2,0.07,0.4,0.11,0.6c0.04,0.2,0.09,0.4,0.14,0.6
									c0.38,1.61,0.86,3.23,1.38,4.87c1.03,3.28,2.2,6.65,3.43,10.09c0.57,1.58,1.14,3.14,1.68,4.61l-0.1-0.05
									c2.95-0.89,5.82-1.75,8.58-2.58l-0.05,0.1c-0.85-2.68-1.68-5.28-2.47-7.76c-0.39-1.24-0.77-2.46-1.15-3.65
									c-0.18-0.59-0.36-1.18-0.54-1.76l-0.06-0.22l-0.01-0.03c0.02-0.02-0.06,0.02,0.05-0.1c0.15,0.06,0.05,0.02,0.08,0.04
									l0.04,0.03l0.08,0.07l0.34,0.29c0.23,0.19,0.46,0.38,0.69,0.56c1.84,1.47,3.62,2.81,5.31,3.99
									c0.84,0.59,1.68,1.14,2.48,1.65c0.4,0.26,0.81,0.48,1.2,0.72c0.4,0.21,0.79,0.44,1.18,0.61c0.77,0.4,1.57,0.61,2.33,0.71
									c0.77,0.12,1.5,0.08,2.17-0.02c1.35-0.2,2.42-0.71,3.22-1.2c0.81-0.5,1.34-1.01,1.68-1.37c0.16-0.19,0.28-0.33,0.35-0.44
									C151.92,117.85,151.96,117.8,151.96,117.8z"/>
							</g>
						</g>
					</g>
				</g>
				<g class="st51">
					<g>
						<g>
							<g>
								<path d="M126.84,108.64c0.01-0.02,0.29,0.11,0.7,0.38c0.42,0.27,0.97,0.68,1.52,1.2c0.55,0.52,0.98,1.06,1.26,1.47
									c0.28,0.41,0.41,0.69,0.39,0.7c-0.02,0.01-0.19-0.24-0.49-0.63c-0.3-0.39-0.74-0.9-1.28-1.42
									c-0.54-0.51-1.07-0.93-1.47-1.22C127.08,108.83,126.82,108.67,126.84,108.64z"/>
							</g>
						</g>
					</g>
				</g>
				<g class="st51">
					<g>
						<g>
							<g>
								<path d="M129.73,107.7c0.02-0.01,0.15,0.23,0.31,0.64c0.16,0.41,0.35,0.98,0.5,1.63c0.14,0.65,0.22,1.25,0.24,1.69
									c0.03,0.44,0.01,0.71-0.01,0.71c-0.05,0-0.11-1.07-0.4-2.36C130.09,108.72,129.68,107.72,129.73,107.7z"/>
							</g>
						</g>
					</g>
				</g>
			</g>
		</g>
		<g>
			<g>
				<g>
					<path class="st35" d="M112.98,84.4l2.03,1.59c0.38,0.3,0.67,0.7,0.84,1.16l0.67,1.89L114,91.85l-3.03-2.11
						c0,0-0.95-1.56-1.03-1.98c-0.07-0.43,0.48-0.71,0.48-0.71c-0.18-0.54,0.49-1.08,0.49-1.08c-0.12-0.63,0.65-0.83,0.65-0.83
						s-0.04-0.76,0.15-0.94c0.08-0.07,0.21-0.1,0.35-0.1C112.39,84.07,112.72,84.19,112.98,84.4z"/>
				</g>
			</g>
			<g>
				<g>
					<g>
						<path class="st49" d="M110.88,87.83c0.03-0.02-0.04-0.21-0.17-0.42c-0.13-0.21-0.26-0.36-0.3-0.34
							c-0.03,0.02,0.04,0.21,0.17,0.42C110.71,87.7,110.85,87.85,110.88,87.83z"/>
					</g>
				</g>
			</g>
			<g>
				<g>
					<g>
						<path class="st49" d="M111.59,87.05c0.03-0.03-0.14-0.26-0.34-0.55c-0.2-0.29-0.35-0.54-0.39-0.52
							c-0.04,0.02,0.06,0.3,0.27,0.61C111.33,86.88,111.56,87.07,111.59,87.05z"/>
					</g>
				</g>
			</g>
			<g>
				<g>
					<g>
						<path class="st49" d="M112.26,86.05c0.03-0.03-0.15-0.22-0.35-0.46c-0.2-0.24-0.35-0.44-0.39-0.42
							c-0.03,0.02,0.07,0.27,0.28,0.52C112.01,85.94,112.24,86.08,112.26,86.05z"/>
					</g>
				</g>
			</g>
			<g>
				<g>
					<g>
						<path class="st49" d="M111.36,88.3c0-0.02-0.06-0.03-0.14,0c-0.08,0.03-0.18,0.1-0.24,0.22c-0.06,0.12-0.06,0.24-0.04,0.32
							c0.02,0.08,0.06,0.12,0.08,0.11c0.04-0.01,0-0.19,0.09-0.37C111.2,88.41,111.37,88.34,111.36,88.3z"/>
					</g>
				</g>
			</g>
			<g>
				<g>
					<g>
						<path class="st49" d="M111.98,87.22c-0.01-0.02-0.06-0.02-0.15,0.02c-0.08,0.04-0.18,0.12-0.25,0.24
							c-0.06,0.12-0.08,0.25-0.06,0.34c0.01,0.09,0.05,0.14,0.07,0.13c0.04-0.01,0.02-0.2,0.13-0.4
							C111.82,87.35,112,87.26,111.98,87.22z"/>
					</g>
				</g>
			</g>
			<g>
				<g>
					<g>
						<path class="st49" d="M113.66,85.57c0.02,0-0.01-0.13-0.18-0.15c-0.16-0.01-0.34,0.08-0.5,0.23
							c-0.15,0.16-0.23,0.35-0.24,0.49c-0.02,0.14,0.01,0.22,0.03,0.22c0.04,0,0.05-0.34,0.31-0.61c0.13-0.13,0.29-0.22,0.39-0.23
							C113.59,85.51,113.64,85.58,113.66,85.57z"/>
					</g>
				</g>
			</g>
		</g>
	</g>
	<g>
		<g class="st52">
			<g>
				<g>
					<path d="M134.28,83.11l12.72,19.6c-3.11,1.56-7.02,2.34-9.96,0.47c-0.81,1-2.56,0.64-3.35-0.38c-0.79-1.02-0.88-2.41-0.89-3.7
						C132.76,93.75,133.53,88.42,134.28,83.11z"/>
				</g>
			</g>
		</g>
		<path d="M149.79,93.49c-0.24-3.97-1.15-7.87-2.05-11.74c-0.61-2.63-1.23-5.27-2.3-7.75c-0.55-1.27-1.23-2.52-2.25-3.46
			c-0.98-0.9-2.03-2.06-3.67-1.37c-1.6-0.99-3.82-0.38-5.12,0.98c-1.31,1.37-1.8,3.35-1.8,5.25c-0.01,1.89,0.41,3.76,0.67,5.64
			c1.11,7.89-1.1,12.97,0.85,20.69l1.96,0.18c0,0,1.12-5.84,1.12-5.85s0.7,6.13,0.7,6.13l2.35,0.36l0.82-1.15l-0.01,1.15l6.05,0.84
			C148.84,99.8,150.03,97.46,149.79,93.49z"/>
		<g>
			<g>
				<g>
					<path class="st46" d="M146.43,98.17c0,0,0.01-0.02,0.01-0.07c0.01-0.06,0.02-0.13,0.03-0.22c0.02-0.2,0.05-0.48,0.09-0.83
						c0.02-0.18,0.04-0.38,0.06-0.6c0.02-0.22,0.03-0.46,0.04-0.72c0.03-0.52,0.07-1.1,0.08-1.76c0.01-0.33,0.01-0.67,0.02-1.02
						c0-0.36-0.01-0.73-0.02-1.11c0-0.77-0.06-1.58-0.11-2.44c-0.14-1.72-0.36-3.6-0.73-5.55c-0.38-1.95-0.87-3.79-1.38-5.43
						c-0.27-0.82-0.52-1.6-0.8-2.31c-0.14-0.36-0.26-0.71-0.4-1.04c-0.14-0.33-0.27-0.64-0.4-0.94c-0.24-0.6-0.51-1.13-0.72-1.6
						c-0.11-0.23-0.21-0.45-0.31-0.65c-0.1-0.2-0.19-0.38-0.28-0.54c-0.17-0.32-0.3-0.56-0.39-0.74c-0.04-0.08-0.08-0.14-0.1-0.19
						c-0.02-0.04-0.04-0.06-0.04-0.06s0.01,0.02,0.03,0.07c0.02,0.05,0.05,0.12,0.09,0.2c0.09,0.18,0.21,0.43,0.37,0.75
						c0.08,0.16,0.17,0.34,0.27,0.54c0.09,0.2,0.19,0.42,0.3,0.66c0.21,0.47,0.47,1,0.7,1.61c0.12,0.3,0.25,0.62,0.39,0.94
						c0.13,0.33,0.25,0.68,0.39,1.04c0.28,0.71,0.52,1.49,0.79,2.31c0.5,1.64,0.98,3.47,1.37,5.42c0.37,1.95,0.6,3.82,0.74,5.54
						c0.05,0.86,0.12,1.67,0.12,2.44c0.01,0.38,0.03,0.75,0.02,1.11c0,0.35-0.01,0.69-0.01,1.02c0,0.65-0.04,1.24-0.06,1.75
						c-0.01,0.26-0.02,0.5-0.03,0.72c-0.02,0.22-0.03,0.42-0.05,0.6c-0.03,0.35-0.05,0.63-0.06,0.84c-0.01,0.09-0.01,0.16-0.01,0.22
						C146.43,98.14,146.43,98.17,146.43,98.17z"/>
				</g>
			</g>
		</g>
		<g>
			<g>
				<g>
					<path class="st46" d="M143.07,102.83c0,0,0.01-0.02,0.03-0.07c0.02-0.06,0.04-0.13,0.07-0.22c0.06-0.2,0.15-0.48,0.26-0.84
						c0.05-0.18,0.12-0.39,0.18-0.61c0.07-0.22,0.12-0.47,0.18-0.73c0.12-0.53,0.29-1.12,0.4-1.8c0.06-0.34,0.13-0.69,0.2-1.05
						c0.07-0.37,0.11-0.75,0.17-1.15c0.05-0.4,0.12-0.81,0.15-1.23c0.04-0.43,0.07-0.87,0.11-1.31c0.11-1.8,0.12-3.79-0.04-5.87
						c-0.17-2.08-0.5-4.04-0.88-5.81c-0.1-0.44-0.2-0.87-0.3-1.29c-0.1-0.42-0.22-0.81-0.32-1.2c-0.2-0.78-0.43-1.49-0.64-2.14
						c-0.2-0.65-0.42-1.23-0.6-1.74c-0.18-0.51-0.35-0.95-0.5-1.3c-0.14-0.35-0.25-0.62-0.33-0.81c-0.04-0.09-0.07-0.16-0.09-0.21
						c-0.02-0.05-0.03-0.07-0.03-0.07c0,0,0.01,0.03,0.02,0.08c0.02,0.06,0.05,0.13,0.08,0.22c0.07,0.2,0.18,0.47,0.31,0.82
						c0.14,0.36,0.3,0.79,0.47,1.31c0.17,0.51,0.39,1.09,0.58,1.74c0.2,0.65,0.43,1.36,0.62,2.14c0.1,0.39,0.22,0.78,0.31,1.2
						c0.09,0.42,0.19,0.84,0.29,1.28c0.37,1.76,0.69,3.72,0.87,5.79c0.16,2.07,0.16,4.05,0.05,5.85c-0.04,0.45-0.07,0.89-0.11,1.31
						c-0.03,0.43-0.1,0.83-0.14,1.23c-0.06,0.4-0.09,0.78-0.16,1.15c-0.07,0.37-0.13,0.72-0.19,1.05c-0.1,0.67-0.27,1.27-0.38,1.8
						c-0.06,0.26-0.11,0.51-0.17,0.73c-0.06,0.22-0.12,0.43-0.17,0.61c-0.1,0.36-0.17,0.64-0.23,0.85
						c-0.02,0.09-0.04,0.16-0.06,0.22C143.08,102.8,143.07,102.83,143.07,102.83z"/>
				</g>
			</g>
		</g>
		<g>
			<path class="st46" d="M134.09,100.41c0,0-0.01-0.02-0.03-0.08c-0.02-0.05-0.04-0.13-0.07-0.23c-0.05-0.21-0.11-0.52-0.14-0.92
				c-0.06-0.81,0.07-1.99,0.51-3.37c0.21-0.69,0.49-1.43,0.77-2.23c0.27-0.8,0.55-1.66,0.67-2.59c0.28-1.87,0.01-3.97-0.44-6.1
				c-0.45-2.14-0.95-4.19-1.08-6.1c-0.16-1.9-0.06-3.63,0.13-5.06c0.1-0.71,0.2-1.36,0.35-1.92c0.15-0.56,0.37-1.01,0.61-1.34
				c0.25-0.33,0.51-0.52,0.7-0.61c0.19-0.1,0.31-0.11,0.31-0.11c0.02,0.03-0.47,0.11-0.94,0.77c-0.22,0.33-0.43,0.78-0.57,1.32
				c-0.14,0.55-0.23,1.19-0.32,1.9c-0.17,1.42-0.25,3.14-0.08,5.03c0.14,1.89,0.64,3.92,1.1,6.07c0.45,2.14,0.73,4.27,0.43,6.17
				c-0.13,0.95-0.42,1.82-0.7,2.62c-0.28,0.8-0.57,1.53-0.79,2.21c-0.45,1.36-0.6,2.52-0.57,3.32c0.01,0.4,0.06,0.71,0.1,0.91
				C134.08,100.3,134.1,100.41,134.09,100.41z"/>
		</g>
		<g>
			<path class="st46" d="M137.45,93.51c-0.01,0,0.01-0.19,0.06-0.53c0.06-0.34,0.13-0.83,0.2-1.45c0.15-1.22,0.26-2.92,0.16-4.8
				c-0.1-1.88-0.4-3.56-0.67-4.76c-0.14-0.6-0.26-1.08-0.36-1.42c-0.09-0.33-0.13-0.52-0.12-0.52c0.01,0,0.08,0.17,0.2,0.5
				c0.12,0.33,0.26,0.81,0.42,1.4c0.32,1.2,0.64,2.89,0.74,4.78c0.1,1.89-0.04,3.61-0.23,4.83c-0.09,0.61-0.19,1.11-0.27,1.44
				C137.51,93.33,137.46,93.52,137.45,93.51z"/>
		</g>
		<g>
			<path class="st46" d="M141.16,94.03c-0.06,0-0.26-1.86-0.44-4.17c-0.19-2.31-0.29-4.18-0.23-4.19c0.06,0,0.26,1.86,0.44,4.17
				C141.12,92.15,141.22,94.02,141.16,94.03z"/>
		</g>
	</g>
</g>
</svg>
