<?xml version="1.0" encoding="utf-8"?>
<!-- Generator: Adobe Illustrator 27.1.0, SVG Export Plug-In . SVG Version: 6.00 Build 0)  -->
<svg version="1.1" id="Layer_1" xmlns="http://www.w3.org/2000/svg" xmlns:xlink="http://www.w3.org/1999/xlink" x="0px" y="0px"
	 viewBox="0 0 316.03 280.85" style="enable-background:new 0 0 316.03 280.85;" xml:space="preserve">
<style type="text/css">
	.st0{fill:url(#SVGID_1_);}
	.st1{fill:url(#SVGID_00000141435831880598645220000004711602360528949933_);}
	.st2{fill:url(#SVGID_00000116231292402211059120000000726628684580867519_);}
	.st3{fill:url(#SVGID_00000108298013422681486210000009293519687752136362_);}
	.st4{fill:url(#SVGID_00000121988148498092840220000012672601165035439775_);}
</style>
<g>
	<linearGradient id="SVGID_1_" gradientUnits="userSpaceOnUse" x1="4.5772" y1="114.8586" x2="131.0572" y2="114.8586">
		<stop  offset="0" style="stop-color:#B4C9FF"/>
		<stop  offset="1" style="stop-color:#2073F2"/>
	</linearGradient>
	<path class="st0" d="M131.06,122.31V90.9l-51.7-29.85l-12.48,7.21c-1.55-1.95-3.56-5.09-5.64-8.49
		c-0.02-0.06-6.12-16.44-15.47-17.29v0h-0.03c-0.39-0.03-0.77-0.05-1.17-0.03c0,0,0,0.02,0.01,0.02c-0.19-0.02-0.37-0.04-0.55-0.03
		l-1.09,0.03h-0.08v-4.75c2.47,0.41,5,0.75,6.32,0.18c1.17-0.51,3.38-2.16,3.98-8.23c1.68-2.48,2.67-5.48,2.67-8.7
		c0-8.94-7.24-16.19-16.18-16.19h-1.89c0,0-0.01,0-0.01,0c-8.94,0-16.18,7.25-16.18,16.19c0,0.01,0,0.02,0,0.02
		c0,0.13,0.02,0.25,0.02,0.37c-0.93,0.08-1.85,0.49-2.71,1.32c-2.38,2.28-2.6,6.01-0.71,8.84c-1.29,2.56-0.81,5.87,1.42,8.2
		c2.77,2.89,7.2,3.13,9.9,0.54c0.03-0.03,0.06-0.06,0.09-0.1c1.03,0.32,2.1,0.41,3.14,0.25v1.19v1.17l-0.61,0.02
		c-1.5,0.1-3.26,0.33-4.43,0.49c-8.37-2.2-14.64,14.32-15.37,16.36c-0.03,0.09-0.02,0.19,0.02,0.27c-2.36,4.65-5.03,9.91-6.84,13.86
		c-1.09,2.37-2.48,4.54,4.62,14.08c2.32,3.16,4.4,6.7,7.98,11.54c-0.58,5.15-0.4,10.63,0.01,17.55l-6.03,85l6.34-0.94
		c-0.32,1.94-0.5,3.91-0.52,5.88c-0.08,3.92-0.78,5.31-0.89,8.54c-0.11,3.68,0.53,5.06,2.02,7.12c1.5,2.07,5.41,3.92,7.05,0.45
		s1.44-5.78,0.92-9.41s-0.62-5.79-0.93-8.62c-0.28-2.51-0.62-4.41-0.62-4.41l-0.02,0c0,0,0-0.01,0-0.01c0-0.18,0.01-0.38,0.01-0.58
		l5.74-0.85l6.15-71.23l0.93,0.54l4.14,64.28l6.24,0.61c-0.01,0.11-0.01,0.22-0.03,0.31c-0.01,0.03,0,0.06-0.01,0.09
		c-0.13,0.02-0.65,0.11-0.75,0.58c-0.12,0.54-0.16,1.67-0.42,2.74c-0.44,1.67-0.6,3.4-0.46,5.12l0.73,6.29h2.59l0.39-3.31
		c0.39,0.15,0.78,0.28,1.14,0.34c1.88,0.32,4.54,2.17,6.01,3.56c2.36,1.96,5.29,3.11,8.35,3.28c3.13,0,5.33-1.04,6.36-2.73
		c1.03-1.69-0.95-1.88-4.53-4.21l-0.11-0.07c0.05-0.06,0.09-0.13,0.12-0.21c-3.26-2.49-7.7-5.75-10.31-8.62
		c-0.71-0.77-1.17-1.45-1.45-2.39l7.46,0.73l-4.35-54.19l20,11.55L131.06,122.31z M53.9,75.76c-0.05-0.41-0.11-0.85-0.16-1.34
		c-0.32-2.26-0.44-4.53-0.38-6.81c0.03-0.04,0.06-0.08,0.09-0.12c1.33,1.91,2.81,3.9,4.48,5.94L53.9,75.76z M20.42,70.34
		c0,0,1.23-2,2.81-4.6l2.44,6.08c-0.19,2.4-2.92,7.88-4.69,15.47c-2.17-4.93-4.14-9.83-4.36-10.44
		C16.62,76.84,18.32,73.93,20.42,70.34z"/>
	
		<linearGradient id="SVGID_00000116948430488107536680000004550119281844486795_" gradientUnits="userSpaceOnUse" x1="134.9067" y1="83.84" x2="145.1932" y2="83.84">
		<stop  offset="0" style="stop-color:#B4C9FF"/>
		<stop  offset="1" style="stop-color:#2073F2"/>
	</linearGradient>
	<path style="fill:url(#SVGID_00000116948430488107536680000004550119281844486795_);" d="M135.04,87.36
		c0.26,0.37,0.76,0.47,1.14,0.23l8.65-6.09c0.36-0.26,0.46-0.76,0.22-1.14c-0.25-0.39-0.77-0.51-1.17-0.26l-8.6,6.08
		c-0.39,0.25-0.51,0.77-0.26,1.17L135.04,87.36z"/>
	
		<linearGradient id="SVGID_00000058566691387086514230000016737899008508169634_" gradientUnits="userSpaceOnUse" x1="127.8006" y1="76.0612" x2="134.0042" y2="76.0612">
		<stop  offset="0" style="stop-color:#B4C9FF"/>
		<stop  offset="1" style="stop-color:#2073F2"/>
	</linearGradient>
	<path style="fill:url(#SVGID_00000058566691387086514230000016737899008508169634_);" d="M128.29,81.7
		c0.42,0.2,0.92,0.01,1.12-0.41l4.52-9.76c0.2-0.42,0.01-0.93-0.41-1.12s-0.93-0.01-1.12,0.41l-4.51,9.76
		c-0.12,0.27-0.09,0.57,0.07,0.82C128.03,81.54,128.15,81.64,128.29,81.7z"/>
	
		<linearGradient id="SVGID_00000040565729729651948530000002280597881046783667_" gradientUnits="userSpaceOnUse" x1="138.0905" y1="95.0727" x2="150.4566" y2="95.0727">
		<stop  offset="0" style="stop-color:#B4C9FF"/>
		<stop  offset="1" style="stop-color:#2073F2"/>
	</linearGradient>
	<path style="fill:url(#SVGID_00000040565729729651948530000002280597881046783667_);" d="M138.85,94.71
		c-0.46,0.05-0.8,0.46-0.76,0.92c0.01,0.14,0.06,0.27,0.13,0.39c0.17,0.26,0.47,0.4,0.78,0.38l10.69-0.95
		c0.46-0.05,0.8-0.46,0.76-0.92c0,0,0,0,0,0c-0.04-0.46-0.45-0.81-0.92-0.77L138.85,94.71C138.86,94.71,138.86,94.71,138.85,94.71z"
		/>
	
		<linearGradient id="SVGID_00000124147517151151004270000010360333487714125987_" gradientUnits="userSpaceOnUse" x1="88.9071" y1="180.8871" x2="311.4738" y2="180.8871">
		<stop  offset="0" style="stop-color:#2073F2"/>
		<stop  offset="1" style="stop-color:#B4C9FF"/>
	</linearGradient>
	<path style="fill:url(#SVGID_00000124147517151151004270000010360333487714125987_);" d="M307.84,207.78
		c-0.81,0.88-2.12,2.13-4.09,3.34c-0.8,0.49-1.72,0.99-2.75,1.44c2.94-1.36,5.44-3.41,7.16-5.82c1.94-2.71,6.9-14.51-1.05-26.34
		c-2.66-6.57-6.13-12.54-7.4-14.64c2.74-6.06,4.41-11.22,3.96-18.78c-0.59-9.69-2.8-19.2-5.01-28.66c-1.5-6.42-3.01-12.87-5.6-18.92
		c-1.33-3.11-2.99-6.15-5.48-8.44c-2.4-2.2-4.96-5.03-8.96-3.34c-3.91-2.42-9.31-0.93-12.49,2.4c-1.24,1.3-2.16,2.82-2.85,4.46
		c-0.52,1.08-0.92,2.22-1.15,3.32c-1.09,5.27-2.22,11.75-2.15,15.8c0.07,4.42,2.13,7.28,4,8.97c0.15,2.29,0.2,4.49,0.19,6.63
		c-0.78,0.31-1.66,0.72-2.23,1.19l-7.68-1.38l-0.13,0.39l-7.4-1.77v-12.72l-28.66-16.55l-0.04-0.12c-0.4-1.12-1.11-2.11-2.05-2.84
		l-4.94-3.88c-0.64-0.5-1.44-0.79-2.26-0.77c-0.35,0.01-0.68,0.08-0.86,0.25c-0.23,0.22-0.32,0.78-0.35,1.29l-12.54-7.24
		l-51.7,29.85v31.41l2.97,1.71l-2.97,1.71v2.2l-2.72-1.57l-51.7,29.85v31.41l3.3,1.91l-3.3,1.91v31.41l51.7,29.85l51.7-29.85v-4.02
		l4.09,2.36l45.12-26.05c0.04,0.13,0.09,0.25,0.13,0.38c-2.85,3.7-4.8,6.65-4.97,7.97c-0.7,5.43,0.42,10.16,4.04,13.22
		c0.4,0.34,1.26,0.52,2.47,0.57c-1.97,1.73-3.75,3.49-4.63,4.85c-0.32,0.32-0.88,1.01-0.57,1.67l30.31-7.69l-0.63-2.35l-0.03,0.01
		l-0.01-0.03c9.53-1.96,17.91-3.99,17.91-3.99l-0.43-1.91l2.96-1.01c0,0,7.74,10.21,11.84,12.74c0.33,0.31,1.05,0.87,1.72,0.54
		l-8.29-29.65c0.9-0.02,1.76-0.11,2.59-0.23c3.32-0.51,5.95-1.78,7.91-3.01c1.97-1.24,3.27-2.51,4.07-3.41
		c0.38-0.47,0.68-0.82,0.84-1.09c0.17-0.26,0.25-0.39,0.25-0.39s-0.1,0.12-0.28,0.37C308.53,206.97,308.23,207.32,307.84,207.78z
		 M258.74,198.01c-0.45-1.45-0.89-2.88-1.33-4.29l-0.02-0.07l0.75,0.63c0.57,0.46,1.13,0.92,1.69,1.37c0.51,0.4,1,0.79,1.51,1.18
		c-0.71,0.76-1.45,1.56-2.22,2.39C258.99,198.81,258.86,198.4,258.74,198.01z M258.75,159.27c0.9,2.12,2.64,5.2,4.39,8.12
		c0.31,0.83,0.71,1.62,1.26,2.34c0.15,0.2,0.33,0.39,0.51,0.56c0.74,1.19,1.42,2.27,1.98,3.15c-4.88-1.46-10.12-3.02-15.7-4.69
		c-0.82-0.25-1.65-0.49-2.49-0.74c-0.42-0.12-0.84-0.25-1.26-0.38c-0.24-0.06-0.48-0.12-0.72-0.18v-2.2
		C249.26,164.55,253.9,162.1,258.75,159.27z M290.39,214.29l-2.07,0.62l1.9-0.64C290.27,214.27,290.33,214.29,290.39,214.29z
		 M249.08,144.32l-0.36,1.06l3.06,1.16l-5.07,3.62v-0.41l-2.97-1.71l2.97-1.71v-2.77C247.56,143.83,248.36,144.09,249.08,144.32z
		 M281.63,216.51l2.41-0.81c0.34,0.11,0.66,0.17,0.95,0.2l-3.28,0.97L281.63,216.51z"/>
</g>
</svg>
