<?xml version="1.0" encoding="utf-8"?>
<!-- Generator: Adobe Illustrator 27.1.0, SVG Export Plug-In . SVG Version: 6.00 Build 0)  -->
<svg version="1.1" id="Layer_1" xmlns="http://www.w3.org/2000/svg" xmlns:xlink="http://www.w3.org/1999/xlink" x="0px" y="0px"
	 viewBox="0 0 175 175" style="enable-background:new 0 0 175 175;" xml:space="preserve">
<style type="text/css">
	.st0{display:none;}
	.st1{display:inline;fill:#FFFFFF;}
	.st2{fill:#FFFFFF;stroke:#FF8E3A;stroke-width:6;stroke-miterlimit:10;}
	.st3{display:inline;}
	.st4{clip-path:url(#SVGID_00000160906127114804075440000012639933994481846447_);}
	.st5{clip-path:url(#SVGID_00000017497794351874131990000002842164099896198029_);}
	.st6{fill:#B78876;}
	.st7{fill:#FFCD05;}
	.st8{fill:#FDB71E;}
	.st9{opacity:0.5;fill:#46494C;enable-background:new    ;}
	.st10{fill:#010101;}
	.st11{fill:#966E63;}
	.st12{clip-path:url(#SVGID_00000003814641371065263540000014870817098680941705_);}
	.st13{fill:#46494C;}
	.st14{fill:#9A6F2A;}
	.st15{fill:#FBBD9E;}
	.st16{fill:#EC9A6F;}
	.st17{fill:#F7A7A8;}
	.st18{clip-path:url(#SVGID_00000039112886764835719680000016923046675392321442_);}
	.st19{fill:#EEEEEF;}
	.st20{clip-path:url(#SVGID_00000127731033438721783710000005957169126480416188_);}
	.st21{clip-path:url(#SVGID_00000047754486737095604640000002783648090869293990_);}
	.st22{fill:#45484B;}
	.st23{fill:#FFFFFF;}
	.st24{fill:#7FB936;}
	.st25{fill:#B16668;}
	.st26{fill:#263238;}
	.st27{fill:#C8856A;}
	.st28{fill:#AF6152;}
	.st29{fill:#F28F8F;}
	.st30{fill:#FFA8A7;}
	.st31{fill:#5F8B29;}
	.st32{fill:#EDEEEF;}
	.st33{fill:#492B00;}
	.st34{display:inline;fill:none;stroke:#7FB936;stroke-width:6;stroke-miterlimit:10;}
	.st35{clip-path:url(#SVGID_00000051344696867087248300000013769086422921635715_);}
	.st36{fill:#FFAD9D;}
	.st37{fill:#565656;}
	.st38{fill:#7A7A7C;}
	.st39{fill:#F4A59A;}
	.st40{fill:#FF8E3A;}
	.st41{fill:#E88B79;}
	.st42{fill:#EA8C63;}
	.st43{fill:#CC7050;}
	.st44{fill:#F7AAAA;}
	.st45{fill:#FCFCFC;}
	.st46{fill:#FFBB89;}
</style>
<g class="st0">
	<circle id="SVGID_1_" class="st1" cx="87.05" cy="87.25" r="82.81"/>
</g>
<g>
	<circle id="SVGID_00000132070845494499653930000004028124833565880500_" class="st2" cx="87.05" cy="87.25" r="82.81"/>
</g>
<g class="st0">
	<g class="st3">
		<g>
			<defs>
				<circle id="SVGID_00000169559010819221176060000007479951940229768879_" cx="87.05" cy="87.25" r="82.81"/>
			</defs>
			<clipPath id="SVGID_00000007422392100419439080000015012822502704020409_">
				<use xlink:href="#SVGID_00000169559010819221176060000007479951940229768879_"  style="overflow:visible;"/>
			</clipPath>
			<g style="clip-path:url(#SVGID_00000007422392100419439080000015012822502704020409_);">
				<g>
					<g>
						<g>
							<defs>
								<circle id="SVGID_00000013192982627732812730000015988542969830849664_" cx="87.05" cy="87.25" r="82.81"/>
							</defs>
							<clipPath id="SVGID_00000090265526676307457570000007593790624676095635_">
								<use xlink:href="#SVGID_00000013192982627732812730000015988542969830849664_"  style="overflow:visible;"/>
							</clipPath>
							<g style="clip-path:url(#SVGID_00000090265526676307457570000007593790624676095635_);">
								<polygon class="st6" points="82.64,135.2 64.43,158.55 53.17,157.66 69.82,132.79 								"/>
								<polygon class="st6" points="77.98,110.46 82.64,135.2 72.18,144.7 65.87,113.54 								"/>
								<polygon class="st6" points="14.12,110.84 8.34,136.05 20.57,136.08 26.23,113.92 								"/>
								<path class="st7" d="M64.29,98.5l0.31,53.03H26.88l0.26-36.79l-15.39-4.5c0,0,6-20.44,7.83-23.31
									C21.4,84.06,36,77.71,36,77.71s13.68-1.21,14.45-0.83c0,0,17.56,5.56,20.4,8.74c2.84,3.17,10.17,25.23,10.17,25.23
									l-16.73,3.31V98.53"/>
								<path class="st8" d="M64.3,98.53"/>
								<path class="st9" d="M27.21,121.08c-0.05,0-0.1-5.34-0.1-11.92s0.05-11.92,0.1-11.92c0.05,0,0.1,5.33,0.1,11.92
									S27.27,121.08,27.21,121.08z"/>
								<path class="st9" d="M64.3,121.3c-0.05,0-0.1-5.34-0.1-11.92s0.05-11.92,0.1-11.92s0.1,5.33,0.1,11.92
									C64.39,115.97,64.35,121.3,64.3,121.3z"/>
								<path class="st6" d="M32.32,56.35l3.86,22.38c0.67,3.92,4.39,6.56,8.31,5.89c0.02,0,0.04-0.01,0.05-0.01l0,0
									c3.67-0.66,6.24-4.01,5.91-7.73c-0.18-1.99-0.33-3.63-0.33-3.63s5.61-1.44,5.12-7.13c-0.24-2.75-1.18-8.39-2.09-13.48
									c-0.98-5.46-6-9.25-11.52-8.71l-0.55,0.05c-5.77,0.9-9.72,6.32-8.81,12.09C32.29,56.17,32.3,56.26,32.32,56.35z"/>
								<path class="st10" d="M51.44,56.14c0.05,0.56-0.26,1.07-0.7,1.14c-0.42,0.1-0.83-0.26-0.9-0.79c0-0.01,0-0.02,0-0.03
									c-0.05-0.56,0.26-1.07,0.7-1.14c0.42-0.1,0.83,0.26,0.9,0.79C51.44,56.12,51.44,56.13,51.44,56.14z"/>
								<path class="st10" d="M42.88,57.41c0.04,0.56-0.27,1.06-0.71,1.14c-0.42,0.1-0.83-0.26-0.91-0.8c0-0.01,0-0.01,0-0.02
									c-0.05-0.56,0.26-1.06,0.7-1.14C42.39,56.49,42.79,56.86,42.88,57.41C42.88,57.4,42.88,57.4,42.88,57.41z"/>
								<path class="st10" d="M43.52,53.09c-0.06,0.25-0.95,0.22-1.96,0.44c-1.01,0.23-1.82,0.59-1.97,0.38
									c-0.07-0.09,0.05-0.33,0.38-0.6c0.42-0.33,0.91-0.56,1.43-0.66c0.52-0.11,1.06-0.1,1.57,0.03
									C43.34,52.81,43.54,52.98,43.52,53.09z"/>
								<path class="st10" d="M51.64,53.04c-0.14,0.21-0.75,0.07-1.5,0.13s-1.32,0.27-1.5,0.07c-0.07-0.09,0-0.3,0.26-0.52
									c0.34-0.27,0.75-0.42,1.17-0.44c0.43-0.03,0.85,0.06,1.22,0.29C51.59,52.74,51.7,52.94,51.64,53.04z"/>
								<path class="st10" d="M37.89,49.51l-0.03,0.03c-0.84,0.8-1.33,1.9-1.38,3.05c0,0.04,0,0.08,0,0.12
									c-0.06,1.65,0.14,3.3,0.06,4.94c-0.08,1.64-0.48,3.35-1.57,4.58c-0.45,0.51-1.29,0.91-1.75,0.41
									c-0.16-0.21-0.26-0.46-0.28-0.72c-0.68-3.89-2.09-7.26-2.48-11.36c-0.11-1.11,0.32-2.21,1.16-2.95
									c0.8-0.7,1.78-1.44,2.78-1.08c1,0.36,2.41,2.02,3.22,2.71"/>
								<path class="st6" d="M34.49,58.74c-0.1-0.03-4.02-0.77-3.52,3.1c0.29,2.23,1.66,2.75,2.78,2.76
									c0.83,0.01,1.51-0.25,1.51-0.3C35.25,64.19,34.49,58.74,34.49,58.74z"/>
								<path class="st11" d="M35.06,64.61c0,0,1.66,10.55,15.4,8.53l-0.14,1.74c0,0-11.82,1.97-15.67-4.96l-0.91-5.32L35.06,64.61z
									"/>
								<path class="st10" d="M57.66,45.65c0-1.32-1.07-2.38-2.38-2.38c-0.14,0-0.28,0.02-0.42,0.04c-0.02-0.19-0.06-0.38-0.15-0.55
									c-0.46-0.74-1.3-1.17-2.18-1.1c-0.33,0.03-0.66,0.1-0.98,0.18c-0.43-0.63-1.15-1.04-1.97-1.04c-0.65,0-1.25,0.26-1.68,0.69
									c-0.43-0.43-1.02-0.69-1.68-0.69c-0.79,0-1.48,0.39-1.91,0.98c-0.43-0.59-1.13-0.98-1.91-0.98c-0.91,0-1.69,0.52-2.1,1.27
									c-1.01-0.08-2-0.03-2.83,0.32c-1.86,0.79-4.29,3.28-3.16,4.75H34.3c-0.07,0.74-0.03,1.49,0.14,2.22
									c0.18,0.73,0.7,1.34,1.4,1.63c0.73,0.24,1.44-1.32,2.63-1.88c1.61-0.75,4.51,0.06,6.23,0.51c1.73,0.45,3.37,1.17,5.1,1.58
									c1.73,0.4,3.65,0.45,5.2-0.42c0.61-0.34,1.19-0.91,1.19-1.61c0-0.39-0.29-0.75-0.64-0.91c0.19-0.06,0.37-0.14,0.53-0.25
									c0.12-0.08,0.22-0.17,0.31-0.27C57.15,47.33,57.66,46.56,57.66,45.65z"/>
								<path class="st10" d="M58.12,67.52c0-0.89-0.37-1.69-0.96-2.26c0.04-0.21,0.07-0.43,0.07-0.65c0-1.74-1.41-3.15-3.15-3.15
									c-0.64,0-1.24,0.2-1.74,0.53c-0.43-0.21-0.9-0.35-1.41-0.35c-1.08,0-2.03,0.54-2.6,1.37c-0.56-0.52-1.31-0.85-2.14-0.85
									c-0.79,0-1.49,0.3-2.05,0.77c-1.95,0.45-3.19,2.16-3.19,2.16c-2.34,0-4.26-1.87-4.31-4.22l-0.09-3.88l-1.9,1.05
									c-0.52,7.24,2.03,10.41,2.03,10.41c-0.01,2.48,1.66,3.85,2.98,4.54c0.22,1.16,1.23,2.03,2.45,2.03c0.4,0,0.77-0.1,1.11-0.27
									c0.56,0.85,1.53,1.42,2.63,1.42c0.81,0,1.54-0.31,2.1-0.81c0.02,0,0.04,0,0.06,0c0.51,0.35,1.12,0.56,1.79,0.56
									c1.21,0,2.25-0.69,2.78-1.7c0.23,0.05,0.47,0.09,0.72,0.09c1.74,0,3.15-1.41,3.15-3.15c0-0.28-0.05-0.54-0.11-0.8
									C57.38,69.85,58.12,68.77,58.12,67.52z"/>
								<path class="st10" d="M47.1,55.66c0.83,1.41,1.86,3.07,1.55,4.77c-0.17,0.04-0.34,0.06-0.51,0.09
									c0.15-0.06,0.31-0.13,0.46-0.18l-0.03,0.03C48.73,58.71,47.76,57.14,47.1,55.66L47.1,55.66z"/>
								<rect x="26.88" y="151.53" class="st10" width="37.52" height="26.47"/>
							</g>
						</g>
					</g>
				</g>
				<g>
					<g>
						<g>
							<defs>
								<circle id="SVGID_00000140007720458298190950000018041943435485056446_" cx="87.05" cy="87.25" r="82.81"/>
							</defs>
							<clipPath id="SVGID_00000122711995698159493030000000441101398010401468_">
								<use xlink:href="#SVGID_00000140007720458298190950000018041943435485056446_"  style="overflow:visible;"/>
							</clipPath>
							<g style="clip-path:url(#SVGID_00000122711995698159493030000000441101398010401468_);">
								<path class="st7" d="M114.05,120.86l11.11-18.52l-7.09-17.7c-0.68,0.35-13.67,26.15-16.36,30.24
									c-0.12,0.19-0.59,1.62-1.02,3.02c-0.54,1.76-0.26,3.66,0.77,5.18l16.07,25.16l1.36-17.76L114.05,120.86z"/>
								<rect x="117.28" y="143.61" class="st13" width="40.21" height="35.92"/>
								<path class="st14" d="M131.06,71.55l-3.33-0.17c0.64-1.88,1.13-4.16,1.37-6.64c0.65-6.78-0.82-12.46-3.28-12.7
									c-2.46-0.24-4.98,5.07-5.63,11.85c-0.4,4.17,0,7.93,0.95,10.25c0.46,1.13,0.21,2.46-0.69,3.29
									c-0.01,0.01-0.01,0.01-0.02,0.02c-1.14,1.01-2.63,1.6-3.68,2.71c-1.32,1.51-1.76,3.6-1.14,5.51
									c0.64,1.88,2.03,3.42,3.84,4.26c2.47,1.15,5.34,1.06,7.73-0.26c2.9-1.64,4.59-4.93,5.02-8.24
									C132.62,78.12,131.95,74.77,131.06,71.55z"/>
								<path class="st7" d="M124.86,81.37l6.52,0.49l9.03,1.4c0,0,15.84,4.16,15.84,5.9c0,0.58-4.32,14.35-6.76,22.6
									c-0.6,2-1.08,4.04-1.46,6.09l9.45,25.82l-40.21-0.11v-24.19c0,0-2.63-21.89-2.17-24.88c0.29-1.86,1.04-6.05,2.68-9.36
									C118.83,83.01,122.51,81.19,124.86,81.37z"/>
								<path class="st7" d="M116.93,93.07c-1.35,1.73-2.37,3.7-2.98,5.81c-0.61,2.12-0.54,4.38,0.19,6.46
									c1.16,2.93,3.77,5.04,6.88,5.55"/>
								<path class="st9" d="M119.65,111.12c-0.06-0.02-0.11-0.06-0.17-0.09l-0.44-0.29c-0.38-0.26-0.93-0.64-1.59-1.15
									c-0.77-0.59-1.48-1.27-2.11-2.02c-0.77-0.92-1.33-2.01-1.63-3.17c-0.29-1.17-0.36-2.37-0.22-3.57
									c0.12-0.97,0.33-1.92,0.64-2.84c0.21-0.62,0.45-1.23,0.72-1.83c0.1-0.21,0.17-0.38,0.23-0.48c0.02-0.06,0.06-0.11,0.09-0.17
									c-0.07,0.23-0.15,0.46-0.25,0.68c-0.17,0.43-0.41,1.05-0.66,1.84c-0.29,0.92-0.49,1.86-0.59,2.82
									c-0.13,1.17-0.05,2.35,0.23,3.5c0.29,1.14,0.83,2.2,1.58,3.11c0.61,0.74,1.3,1.42,2.05,2.02c0.64,0.53,1.17,0.92,1.55,1.2
									l0.42,0.32C119.61,111.07,119.65,111.11,119.65,111.12z"/>
								<path class="st9" d="M140.91,114.83c-0.05,0.03-0.11,0.05-0.17,0.06c-0.11,0.03-0.27,0.09-0.49,0.13
									c-0.6,0.13-1.22,0.21-1.84,0.22c-4.22,0.13-8.09-2.32-9.78-6.19c-0.25-0.57-0.45-1.15-0.59-1.76
									c-0.05-0.21-0.07-0.38-0.09-0.5c-0.01-0.06-0.02-0.12-0.02-0.18c0.08,0.21,0.14,0.43,0.19,0.65
									c1.23,4.66,5.47,7.89,10.29,7.83c0.61,0,1.22-0.06,1.83-0.16C140.46,114.89,140.69,114.86,140.91,114.83z"/>
								<path class="st9" d="M146.86,122.08c-0.05,0,0.41-2.1,1.06-4.65s1.18-4.61,1.23-4.6s-0.41,2.09-1.04,4.65
									C147.48,120.03,146.91,122.08,146.86,122.08z"/>
								<path class="st9" d="M152.12,117.72c-0.05,0.03-1.55-2.44-3.38-5.51c-1.82-3.07-3.25-5.58-3.2-5.61s1.55,2.44,3.38,5.51
									C150.74,115.18,152.18,117.69,152.12,117.72z"/>
								<path class="st15" d="M142.91,60.68c0.7-5.6-3.27-10.71-8.87-11.41c-0.11-0.01-0.21-0.02-0.32-0.03
									c-5.45-0.52-10.29,3.54-11.11,8.95c-0.72,4.74-1.33,9.53-1.31,11.26c0.07,5.25,3.13,7.29,4.38,7.88
									c0.45,0.16,0.91,0.28,1.38,0.34l0,0c0.02,0,0.03,0.02,0.03,0.04l0,0l-1.16,6c-0.53,3.94,1.67,7.46,5.61,8.04
									c3.94,0.57,7.04-2.45,7.64-6.4L142.91,60.68z"/>
								<path class="st13" d="M123.53,61.25c0.09,0.12,0.78-0.25,1.67-0.12s1.47,0.67,1.58,0.57c0.06-0.04-0.02-0.25-0.27-0.5
									c-0.35-0.32-0.78-0.53-1.25-0.6c-0.46-0.07-0.93,0.01-1.35,0.23C123.59,61.01,123.48,61.19,123.53,61.25z"/>
								<path class="st13" d="M131.42,62.96c0.09,0.12,0.78-0.25,1.67-0.12s1.47,0.67,1.59,0.57c0.05-0.04-0.02-0.25-0.28-0.5
									c-0.34-0.32-0.78-0.53-1.25-0.59c-0.46-0.07-0.93,0.01-1.35,0.23C131.5,62.72,131.38,62.9,131.42,62.96z"/>
								<path class="st16" d="M127.11,77.7c0,0,3.38,0.78,8.05-1.17c0,0-2.01,4.33-8.36,2.79L127.11,77.7z"/>
								<path class="st14" d="M132.04,60.07c0.05,0.26,0.96,0.27,1.98,0.55s1.83,0.68,2,0.49c0.08-0.09-0.04-0.34-0.34-0.63
									c-0.83-0.71-1.95-1.01-3.03-0.79C132.23,59.79,132.02,59.95,132.04,60.07z"/>
								<path class="st14" d="M124.42,58.51c0.12,0.23,0.77,0.11,1.5,0.2c0.73,0.1,1.34,0.33,1.5,0.14c0.08-0.09,0-0.31-0.24-0.54
									c-0.68-0.58-1.64-0.69-2.43-0.28C124.48,58.21,124.37,58.4,124.42,58.51z"/>
								<path class="st7" d="M125.91,81.82c1,4.35,5.32,7.06,9.67,6.07c0.38-0.09,0.75-0.2,1.11-0.34c1.94-0.75,3.51-2.21,5.03-3.64
									c1.07,6.41-3.27,12.48-9.68,13.55c-0.41,0.07-0.82,0.11-1.23,0.14c-2.49,0.15-5.16-0.61-6.73-2.55
									c-1.09-1.35-1.53-3.14-1.5-4.88c0.08-1.74,0.41-3.46,0.98-5.1c0.44-1.42,1.14-3,2.58-3.4"/>
								<path class="st14" d="M142.46,54.53c1.87,1,2.87,3.1,3.23,5.18c0.36,2.07,0.18,4.2,0.27,6.3c0.09,2.1,0.49,4.3,1.82,5.93
									c1.4,1.74,3.62,2.56,5.6,3.62c4.35,2.33,7.94,6.32,9.24,11.09c1.31,4.77,0.12,10.27-3.45,13.7
									c-3.27,3.11-7.98,4.2-12.49,4.2c-3.21,0-6.73-0.69-8.74-3.2c-2-2.51-1.87-6.02-1.17-9.11c0.7-3.09,1.13-3.54,1.19-6.71
									c-0.86,1.94-0.46,1.27-1.62,2.93c-0.33,0.47-0.9,0.98-1.4,0.71c-0.5-0.27-0.35-1.14-0.09-1.73
									c3.87-8.61,2.52-25.95,4.81-35.45"/>
								<path class="st14" d="M145.2,54.39c-0.5-1.81-1.29-3.62-2.72-4.83c-2.19-1.75-5.28-1.8-7.52-0.12l0,0l0,0
									c0,0-10.77-5.05-12.75,9.49c0,0,3.82-0.32,7.78-2.62c1.22-0.71,2.59-1.06,3.99-1.04c0.02,0,0.05,0,0.07,0h0.01
									c0.62,0,1.14,0.46,1.17,1.08c0.03,0.74,0.07,1.44,0.11,2c0.12,1.84,0.88,3.59,2.15,4.93c1.96,1.91,4.92,2.25,7.65,2.48
									C146.18,62.05,146.21,58.12,145.2,54.39z"/>
								<path class="st7" d="M156.25,91.8l-9.62,16.46l11.69,20.07v0.12c0.04,0.4,0.27,0.75,0.61,0.95l0.08,6.63h13v-10.59
									c0-0.44-0.09-0.87-0.28-1.27C169.67,119.73,156.87,92.24,156.25,91.8z"/>
								<path class="st13" d="M127.46,64.73l-0.61,1.07l-0.03-0.1c0.3,0.14,0.66,0.3,0.87,0.54c-0.36-0.1-0.69-0.27-1-0.46
									l0.04-0.06C126.75,65.74,127.45,64.69,127.46,64.73L127.46,64.73z"/>
								<path class="st16" d="M128.98,69.77l-3.55-0.01c-0.05,0.96,0.7,1.78,1.66,1.83c0.02,0,0.04,0,0.07,0
									C128.15,71.58,128.96,70.77,128.98,69.77z"/>
								<path class="st17" d="M128.88,70.29c-0.23,0.77-0.93,1.3-1.73,1.3c-0.41,0.01-0.8-0.14-1.11-0.4
									C126.72,70.35,127.84,69.99,128.88,70.29z"/>
							</g>
						</g>
					</g>
				</g>
				<g>
					<g>
						<g>
							<defs>
								<circle id="SVGID_00000078740526660106469970000000431518329768506532_" cx="87.05" cy="87.25" r="82.81"/>
							</defs>
							<clipPath id="SVGID_00000068646675261290956870000012392275814088791202_">
								<use xlink:href="#SVGID_00000078740526660106469970000000431518329768506532_"  style="overflow:visible;"/>
							</clipPath>
							<g style="clip-path:url(#SVGID_00000068646675261290956870000012392275814088791202_);">
								<g>
									<path class="st19" d="M62.59,59.31l3.17,0.56c3.53,3.97,9.61,4.34,13.58,0.81s4.34-9.61,0.81-13.58s-9.61-4.34-13.58-0.81
										c-3,2.66-4.03,6.89-2.6,10.63l0,0L62.59,59.31z"/>
									<path class="st10" d="M75.89,53.77c0-0.54,0.44-0.98,0.98-0.98s0.98,0.44,0.98,0.98s-0.44,0.98-0.98,0.98l0,0
										C76.33,54.74,75.9,54.3,75.89,53.77z"/>
									<path class="st10" d="M71.98,53.77c0-0.54,0.44-0.98,0.98-0.98s0.98,0.44,0.98,0.98s-0.44,0.98-0.98,0.98l0,0
										C72.42,54.74,71.99,54.3,71.98,53.77z"/>
									<path class="st10" d="M68.08,54.25c-0.27-0.47-0.11-1.07,0.36-1.33c0.47-0.27,1.07-0.11,1.33,0.36
										c0.27,0.47,0.11,1.06-0.35,1.33s-1.06,0.12-1.34-0.35C68.09,54.26,68.09,54.26,68.08,54.25z"/>
								</g>
								<g id="lines_00000008856618496693816550000013936048600852872621_">
									<g id="lines_00000028285985034494115850000017259419818740429211_">
										<path class="st7" d="M79.92,43.39c-0.15-0.13-0.16-0.35-0.03-0.5l2.75-3.49c0.13-0.15,0.35-0.16,0.5-0.03
											c0.14,0.12,0.16,0.34,0.05,0.49l-2.77,3.51C80.29,43.5,80.08,43.52,79.92,43.39L79.92,43.39z"/>
										<path class="st7" d="M76.34,41.85c-0.09-0.08-0.14-0.2-0.13-0.32l0.65-4.49c0.03-0.2,0.21-0.33,0.4-0.3
											c0.2,0.03,0.33,0.21,0.3,0.4l-0.66,4.49c-0.03,0.19-0.21,0.33-0.4,0.3C76.45,41.91,76.39,41.89,76.34,41.85z"/>
										<path class="st7" d="M72.46,42.3c-0.04-0.04-0.08-0.09-0.1-0.14l-1.61-4.05c-0.07-0.19,0.03-0.39,0.21-0.46
											c0.18-0.06,0.37,0.02,0.45,0.19l1.62,4.05c0.07,0.18-0.02,0.39-0.2,0.46C72.71,42.41,72.56,42.39,72.46,42.3z"/>
										<path class="st7" d="M82.26,46.52c-0.04-0.04-0.08-0.09-0.1-0.14c-0.07-0.18,0.01-0.39,0.2-0.46l0,0l4.2-1.67
											c0.18-0.07,0.39,0.02,0.46,0.2l0,0c0.07,0.18-0.01,0.39-0.2,0.46l-4.21,1.67C82.5,46.62,82.36,46.6,82.26,46.52z"/>
									</g>
								</g>
							</g>
						</g>
					</g>
				</g>
				<g>
					<g>
						<g>
							<defs>
								<circle id="SVGID_00000070100430586480604860000009750421808651879559_" cx="87.05" cy="87.25" r="82.81"/>
							</defs>
							<clipPath id="SVGID_00000030487223010450661300000016831541538179871915_">
								<use xlink:href="#SVGID_00000070100430586480604860000009750421808651879559_"  style="overflow:visible;"/>
							</clipPath>
							<g style="clip-path:url(#SVGID_00000030487223010450661300000016831541538179871915_);">
								<g>
									<path class="st13" d="M110.27,79.35l-3.17,0.56c-3.53,3.97-9.61,4.34-13.58,0.81c-3.97-3.53-4.34-9.61-0.81-13.58
										c3.53-3.97,9.61-4.34,13.58-0.81c3,2.66,4.03,6.89,2.6,10.63l0,0L110.27,79.35z"/>
									<path class="st19" d="M96.97,73.8c0-0.54-0.44-0.98-0.98-0.98s-0.98,0.44-0.98,0.98s0.44,0.98,0.98,0.98l0,0
										C96.53,74.78,96.97,74.34,96.97,73.8z"/>
									<path class="st19" d="M100.88,73.8c0-0.54-0.44-0.98-0.98-0.98s-0.98,0.44-0.98,0.98s0.44,0.98,0.98,0.98l0,0
										C100.44,74.78,100.88,74.34,100.88,73.8z"/>
									<path class="st19" d="M104.78,74.29c0.27-0.47,0.11-1.07-0.36-1.33c-0.47-0.27-1.07-0.11-1.33,0.36
										c-0.27,0.47-0.11,1.06,0.35,1.33c0.46,0.27,1.06,0.12,1.34-0.35C104.77,74.3,104.78,74.3,104.78,74.29z"/>
								</g>
								<g id="lines_00000110457906598447062010000003639702052756405420_">
									<g id="lines_00000010279767892960457020000014637697431072886155_">
										<path class="st7" d="M92.94,63.43c0.15-0.13,0.16-0.35,0.03-0.5l-2.75-3.49c-0.13-0.15-0.35-0.16-0.5-0.03
											c-0.14,0.12-0.16,0.34-0.05,0.49l2.77,3.51C92.57,63.53,92.79,63.55,92.94,63.43L92.94,63.43z"/>
										<path class="st7" d="M96.52,61.88c0.09-0.08,0.14-0.2,0.13-0.32L96,57.07c-0.03-0.2-0.21-0.33-0.4-0.3
											c-0.2,0.03-0.33,0.21-0.3,0.4l0.66,4.49c0.03,0.19,0.21,0.33,0.4,0.3C96.41,61.95,96.47,61.93,96.52,61.88z"/>
										<path class="st7" d="M100.4,62.34c0.04-0.04,0.08-0.09,0.1-0.14l1.61-4.05c0.07-0.19-0.03-0.39-0.21-0.46
											c-0.18-0.06-0.37,0.02-0.45,0.19l-1.62,4.05c-0.07,0.18,0.02,0.39,0.2,0.46C100.16,62.45,100.3,62.43,100.4,62.34z"/>
										<path class="st7" d="M90.61,66.55c0.04-0.04,0.08-0.09,0.1-0.14c0.07-0.18-0.01-0.39-0.2-0.46l0,0l-4.2-1.67
											c-0.18-0.07-0.39,0.02-0.46,0.2l0,0c-0.07,0.18,0.01,0.39,0.2,0.46l4.21,1.67C90.37,66.66,90.51,66.64,90.61,66.55z"/>
									</g>
								</g>
							</g>
						</g>
					</g>
				</g>
			</g>
		</g>
	</g>
</g>
<g class="st0">
	<g class="st3">
		<g>
			<defs>
				<circle id="SVGID_00000136377082377545426420000012111779073905099408_" cx="87.05" cy="87.25" r="82.81"/>
			</defs>
			<clipPath id="SVGID_00000027571844608329061480000001939412884719543218_">
				<use xlink:href="#SVGID_00000136377082377545426420000012111779073905099408_"  style="overflow:visible;"/>
			</clipPath>
			<g style="clip-path:url(#SVGID_00000027571844608329061480000001939412884719543218_);">
				<g>
					<g>
						<path class="st22" d="M62.59,62.22l3.17,0.56c3.53,3.97,9.61,4.34,13.58,0.81s4.34-9.61,0.81-13.58
							c-3.53-3.97-9.61-4.34-13.58-0.81c-3,2.66-4.03,6.89-2.6,10.63l0,0L62.59,62.22z"/>
						<path class="st23" d="M75.89,56.67c0-0.54,0.44-0.98,0.98-0.98s0.98,0.44,0.98,0.98s-0.44,0.98-0.98,0.98l0,0
							C76.33,57.65,75.9,57.21,75.89,56.67z"/>
						<path class="st23" d="M71.99,56.67c0-0.54,0.44-0.98,0.98-0.98s0.98,0.44,0.98,0.98s-0.44,0.98-0.98,0.98l0,0
							C72.42,57.65,71.99,57.21,71.99,56.67z"/>
						<path class="st23" d="M68.09,57.16c-0.27-0.47-0.11-1.07,0.36-1.33c0.47-0.27,1.07-0.11,1.33,0.36
							c0.27,0.47,0.11,1.06-0.35,1.33s-1.06,0.12-1.34-0.35C68.09,57.17,68.09,57.16,68.09,57.16z"/>
					</g>
					<g id="lines_00000163764045626715053810000013691176070821200004_">
						<g id="lines_00000039115718752644804560000000035099475686513815_">
							<path class="st24" d="M79.92,46.29c-0.15-0.13-0.16-0.35-0.03-0.5l2.75-3.49c0.13-0.15,0.35-0.16,0.5-0.03
								c0.14,0.12,0.16,0.34,0.05,0.49l-2.77,3.51C80.29,46.4,80.08,46.42,79.92,46.29L79.92,46.29z"/>
							<path class="st24" d="M76.34,44.75c-0.09-0.08-0.14-0.2-0.13-0.32l0.65-4.49c0.03-0.2,0.21-0.33,0.4-0.3
								c0.2,0.03,0.33,0.21,0.3,0.4l-0.66,4.49c-0.03,0.19-0.21,0.33-0.4,0.3C76.45,44.82,76.39,44.79,76.34,44.75z"/>
							<path class="st24" d="M72.46,45.21c-0.04-0.04-0.08-0.09-0.1-0.14l-1.61-4.05c-0.07-0.19,0.03-0.39,0.21-0.46
								c0.18-0.06,0.37,0.02,0.45,0.19l1.62,4.05c0.07,0.18-0.02,0.39-0.2,0.46C72.71,45.31,72.56,45.29,72.46,45.21z"/>
							<path class="st24" d="M82.26,49.42c-0.04-0.04-0.08-0.09-0.1-0.14c-0.07-0.18,0.01-0.39,0.2-0.46l0,0l4.21-1.67
								c0.18-0.07,0.39,0.02,0.46,0.2l0,0c0.07,0.18-0.01,0.39-0.2,0.46l-4.21,1.67C82.5,49.53,82.36,49.51,82.26,49.42z"/>
						</g>
					</g>
				</g>
				<g>
					<g id="bottom_00000103223932812419806190000002256945741977036710_">
						<path class="st25" d="M26.28,126.32c-1.44,4.38-1.86,10.45-2.45,20.42c-0.58,9.75-0.79,18.47-1.5,29.35
							c-1.02,2.59-2.37,5.3-3.27,17.24c-0.45,6.04-0.57,13.52-1.2,19.91l-0.47,3.87c0.82,4.53,7.44,4.94,8.33,2.26
							c0.59-1.48,1.07-2.99,1.44-4.54c2.2-8.6,5.69-20.38,7.79-26.77c1.63-4.96,6.1-22.79,9.08-33.03l4.17,20.47
							c0,0-1.39,2.49,1.24,16.14c1.24,6.41,2.13,8.25,3.27,17.12c0.12,0.96,0.89,1.53,0.92,2.5c0,0.28,0.74,1.2,3.43,1.6
							c2.69,0.4,5.5-1.45,5.48-1.84c-0.51-10.05,0.23-26.33,0.28-33.09c0.14-16.61,0-42.64-0.68-53.23L26.28,126.32z"/>
						<path d="M77.51,223.24c0.17,0,0.48,1.85-0.41,2.67c-1.02,0.95-4.08,2.55-8.23,2.13s-5.3-1.2-6.99-2.55
							c-1.68-1.35-3.24-2.74-5.11-3.09c-1.74-0.33-4.39-0.94-4.96-1.47s-0.56-2.89-0.56-2.89L77.51,223.24z"/>
						<path class="st22" d="M56.35,211.33c-0.48-0.46-0.91-0.96-1.31-1.49c-0.23-0.27-1.24-0.42-1.53-0.63
							c-0.28-0.15-0.56-0.33-0.82-0.51c-0.28-0.26-0.15-0.62-0.18-1c-0.33,0.02-0.61,0.26-0.68,0.59c-0.11,0.66-0.19,2.55-0.43,3.65
							c-0.32,2.3-0.34,4.62-0.07,6.92c0.26,1.22,3.86,1.86,5.68,2.5s3.22,1.53,5.14,3.04c2.21,1.67,4.91,2.57,7.68,2.55
							c3.17-0.12,6.71-1.25,7.49-2.75c0.96-1.85,1.06-3.57-3.71-5.65c-0.9-0.38-3.69-1.91-4.78-2.55c-1.19-0.68-2.32-1.49-3.35-2.39
							c-0.43-0.38-0.85-0.78-1.24-1.2c-0.31-0.39-1.59-1.39-1.74-1.87C62.5,210.55,60.68,213.98,56.35,211.33z"/>
						<path d="M25.39,233.55c-0.29,2.84-0.82,4.71-1.9,6.33c-1.09,1.62-3.02,2.04-4.92,1.49c-1.9-0.56-4.32-2-4.76-4.48
							c-0.44-2.48-0.26-4.16,0.3-6.77L25.39,233.55z"/>
						<path class="st22" d="M18.17,216.97c-0.05-0.11-0.34-0.4-0.35-0.45s-0.08-1.88,0.03-2.54c-0.68,0.19-1.02,3.32-1.66,7.11
							c-0.67,4.08-1.46,5.28-2.04,8.63c-0.68,3.82-0.46,5.11,0.78,7.5s5.91,4.88,8.4,1.66c2.04-2.62,2.16-5.2,2.16-9.05
							c-0.03-3.05,0.12-6.11,0.44-9.14c0.29-2.87,1.33-3.41,0.65-3.75c0.13,0.06,0.06-0.16,0,0c-0.1,0.37-0.25,0.72-0.46,1.05
							C26.13,217.99,20.83,222.65,18.17,216.97z"/>
						<path class="st22" d="M44.12,156.53l3.48,18.34c0,0-0.06,4.15,0.33,9.46c0.39,5.31,1.91,15.25,3.21,20.85
							c3.62,2.01,8.03,2,11.64-0.03c0,0,0.32-23.68,0.37-31.15c0.07-9.62-0.28-37.51-0.92-49.33l-37.27,1.74
							c0,0-1.26,4.3-1.68,13.78c-0.42,9.49-1.39,35.19-1.39,35.19c-3.06,9.19-4.02,19.9-4.51,36.65c3.68,4.92,10.82,2.37,10.82,2.37
							s6.2-22.1,7.75-27.17c1.82-5.97,6.42-25.02,8.17-30.72"/>
						<path d="M41.35,166.73c2.25-9.41,4.71-18.77,7.24-28.12c0.01-3.07,0.08-6.6,0.15-9.83c0.07,3.3,0.14,6.61,0.15,9.91
							C46.49,148.07,44.02,157.43,41.35,166.73L41.35,166.73z"/>
					</g>
					<path class="st24" d="M60.49,72.02c-2.18-3.15-5.73-4.2-10.82-3.37l12.44,25.61c0.49-3.9,0.76-7.82,0.82-11.74
						C62.95,77.81,62.67,75.17,60.49,72.02z"/>
					<g id="Chest">
						<path class="st24" d="M62.78,124.84c-6.94,12.38-32.36,12.6-38.77,4.46c0.86-5.74,1.43-11.52,1.69-17.32
							c0.2-4.98-2.41-13.52-2.2-19.79c0.21-6.27,2.68-10.29,2.68-10.29s8.62-8.77,14.42-11.12c9.7-3.94,14.04-1.18,14.04-1.18
							c2.55,0.75,8.29,9.75,8.29,16.45C62.93,94.64,62.78,124.84,62.78,124.84z"/>
					</g>
					<g id="Head">
						<path class="st26" d="M37.83,48.64c-0.83-0.47-1.76-0.71-2.71-0.71c-1.05,0-1.4,0-2.34,0.67c-0.53,0.38-0.92,0.93-1.09,1.56
							c-0.25,0.87-0.18,1.8,0.19,2.62c0.3,0.78-0.11,1.39-0.37,2.12c-0.34,0.92-0.12,1.95,0.56,2.65c0.61,0.62,1.48,1.14,1.82,1.97
							c0.42,0.99,0.3,2.09,0.71,3.11c0.36,0.81,0.85,1.55,1.46,2.19c0.39,0.49,0.73,1.02,1.02,1.57c0.31,0.51,0.97,0.74,1.41,1.09
							c0.15,0.12,0.51,0.63,0.73,0.57c0.32-0.08,0.13-1.07,0.12-1.29c0-0.86,0-1.72-0.06-2.55l-0.17-3.34c0,0,2.14-2.9,2.38-5.29
							c0.31-3.06-0.34-4.32-0.34-4.32C40.1,50.44,39.03,49.32,37.83,48.64z"/>
						<path class="st26" d="M41.08,53.53c-0.1,1.6,0.24,3.21,0.98,4.64c0.64,1.23,1.79,2.89,3.17,3.33c0.5,0.14,1.02,0.26,1.53,0.35
							c1.73,0.33,3.51,0.29,5.22-0.11c1.28-0.29,2.55-0.73,3.45-1.74c0.61-0.62,1.14-1.3,1.6-2.04c0.14-0.27,0.15-0.56,0.29-0.83
							c0.34-0.64,0.97-1.2,1.18-1.9c0.11-0.63,0.14-1.27,0.09-1.9c0-0.7,0.47-1.21,0.51-1.89c0.08-0.62-0.07-1.24-0.42-1.76
							c-0.2-0.32-0.41-0.62-0.65-0.91c-0.38-0.34-0.82-0.61-1.29-0.82c-0.42-0.24-0.79-0.56-1.2-0.8c-1.02-0.56-2.11-1.01-3.23-1.34
							c-1.59-0.46-3.27-0.54-4.9-0.23c-1.68,0.31-3.34,1.66-4.39,2.96C41.87,49.96,41.2,51.71,41.08,53.53z"/>
						<path class="st27" d="M35.05,65.56c1.96,0.77,2.84-0.48,2.84-0.48l-0.67,8.27c2.3,2.94,7.78,6.53,11.81,6
							c2.16-0.29,2.49-2.2,0.38-5.06l0.37-2.71c1.13,0.11,2.26,0.11,3.39,0c2.19-0.34,3.89-1.93,4.54-4.29
							c1.06-3.8,0.69-10.56-0.51-17.8c-2.44-1.9-11.74-1.26-16.88,1.99c0.57,3.11,0.6,4.01,0.27,5.91c-0.33,1.9-1.02,2.77-1.59,2.85
							c-1.05,0.15-1.2-0.98-1.87-1.68s-3.23-1.12-4.32,1.18C31.73,62.04,33.56,64.98,35.05,65.56z"/>
						<path class="st28" d="M49.8,71.58c-3.48-0.35-7.87-1.99-8.99-3.57c-0.64-0.89-1.16-1.87-1.53-2.9c0,0,0.06,2.17,0.9,3.57
							s3.98,3.82,9.43,4.2L49.8,71.58z"/>
						<path class="st26" d="M57,43.95c-0.34-0.15-0.62-0.41-0.81-0.73c-0.31-0.57-0.42-1.19-0.87-1.69
							c-0.61-0.76-1.53-1.21-2.51-1.23c-0.9,0-1.75,0.55-2.63,0.68c-0.96,0.15-1.37-0.29-2.11-0.75c-0.93-0.58-2.47-0.57-3.51-0.25
							c-0.47,0.13-0.91,0.36-1.29,0.68c-0.34,0.32-0.51,0.79-0.96,1.02c-0.76,0.42-1.95-0.09-2.77-0.15
							c-1.44-0.12-2.61,0.33-2.91,1.53c-0.13,0.51-0.14,0.92-0.26,1.39c-0.12,0.4-0.4,0.73-0.77,0.91c-0.68,0.32-1.19,0.9-1.43,1.61
							c-0.31,0.99-0.04,2.06,0.71,2.78c0.7,0.58,1.95,1.02,2.88,0.77c0.12,0.81,1.11,1.38,1.88,1.48c0.44,0.09,0.89,0.09,1.32,0
							c0.15-0.04,1.33-0.55,1.2-0.78c0.47,0.79,1.31,1.29,2.23,1.33c1.11,0.09,2.18-0.43,2.8-1.36c-0.23,0.36,0.38,0.9,0.63,1.08
							c0.42,0.26,0.91,0.4,1.4,0.41c0.86,0.04,1.68-0.38,2.14-1.11c0.38-0.55,1.06-0.82,1.72-0.68c0.61,0.18,1.24,0.28,1.87,0.3
							c0.87-0.01,1.66-0.51,2.04-1.29c0.21-0.51,0.24-1.08,0.07-1.6c0.55,0.87,2.24,1.2,2.4-0.1c-0.18,0.17-0.47,0.16-0.64-0.02
							c-0.06-0.06-0.1-0.14-0.11-0.23c-0.08-0.45,0.39-0.91,0.48-1.34c0.15-0.87-0.28-1.73-1.07-2.12
							C57.81,44.28,57.39,44.14,57,43.95z"/>
						<path class="st26" d="M47.82,54.56l-2.38,0.49c-0.21-0.42,0.16-0.87,0.83-1.01c0.64-0.13,1.33,0.09,1.54,0.49
							C47.8,54.54,47.81,54.55,47.82,54.56z"/>
						<path class="st26" d="M56.9,54.55l-2.43-0.45c0.15-0.41,0.8-0.67,1.45-0.57c0.03,0,0.06,0.01,0.09,0.01
							C56.68,53.67,57.08,54.11,56.9,54.55z"/>
						<path class="st28" d="M47.96,63.96l3.38,1.32c-0.32,0.93-1.33,1.44-2.27,1.12c-0.02-0.01-0.04-0.01-0.06-0.02
							C48.07,65.98,47.6,64.91,47.96,63.96z"/>
						<path class="st29" d="M47.86,64.48c-0.07,0.81,0.4,1.58,1.16,1.89c0.39,0.15,0.82,0.15,1.22,0
							C49.88,65.33,48.95,64.59,47.86,64.48z"/>
						<path class="st28" d="M51.28,59.92c0,0,2.63,1.45,0.31,1.89L51.28,59.92z"/>
						<path class="st26" d="M48.3,57.34c-0.27,0.89-1.39,1.57-2.29,1.17c-0.29-0.16-0.51-0.4-0.62-0.73l0.05-0.06
							c0.55-0.05,0.98,0.1,1.48,0.22c0.44,0.03,0.94-0.23,1.31-0.63L48.3,57.34L48.3,57.34z"/>
						<path class="st26" d="M56.73,57.38c-0.11,1.21-1.61,1.23-2.36,0.61c-0.24-0.19-0.42-0.42-0.59-0.65l0.06-0.06
							c0.42,0.28,0.93,0.52,1.42,0.46c0.51-0.15,0.8-0.31,1.4-0.41C56.67,57.33,56.73,57.38,56.73,57.38L56.73,57.38z"/>
						<circle class="st28" cx="43.53" cy="60.73" r="0.32"/>
						<circle class="st28" cx="44.49" cy="61.38" r="0.32"/>
						<circle class="st28" cx="43.53" cy="61.7" r="0.32"/>
						<circle class="st28" cx="56.56" cy="60.02" r="0.26"/>
						<circle class="st28" cx="57.33" cy="60.54" r="0.26"/>
						<circle class="st28" cx="56.56" cy="60.8" r="0.26"/>
					</g>
					<path class="st27" d="M42.15,115.36c0,0-1.75-21.99-2.17-25.94c-0.52-4.96-0.83-8.98-3.57-9.55c-2.43-0.51-4.58-0.12-8.26,3.02
						c-2.34,1.99-3.24,4.32-3.48,9.48s3.81,22.93,4.98,26.1c2.49,6.74,2.63,7.16,7.84,8.45"/>
					<path class="st24" d="M37.43,78.48c1.67,0.82,2.5,3.43,2.76,8.01c0.26,4.59,1.29,20.38,1.29,20.38
						c-2.35,2.08-5.27,3.43-8.38,3.87c-5.13,0.71-6.14-0.2-6.14-0.2s-3.42-16.52-3.64-18.47c-0.23-1.95-0.32-5.62,1.76-8.35
						S31.85,76.49,37.43,78.48z"/>
					<path class="st27" d="M41.16,114.63c0,0,12.53,7.46,17.51,9.46l2.58,0.67l7.97-4.2c0,0,2.87-0.87,3.05,1.49
						c1.09,0.35,2.15,1.42,1.69,2.64c-0.08,0.16-0.13,0.33-0.16,0.51c0.01,0.17,0.05,0.34,0.13,0.5c0.26,0.5,0.31,1.09,0.15,1.63
						c-0.19,0.43-0.62,0.69-0.8,1.2c-0.18,0.51-0.04,1.14-0.31,1.61c-0.16,0.25-0.38,0.45-0.65,0.58c-1.96,1.04-3.97,1.98-6.03,2.82
						c-0.71,0.27-4.87-0.18-6.66-0.48c-3.8-0.53-7.56-1.33-11.24-2.4c-8.13-2.27-10.22-2.83-14.96-5.18"/>
					<path class="st22" d="M41.48,106.87c-0.44-5.61-0.8-11.23-1.08-16.86C40.84,95.63,41.19,101.25,41.48,106.87L41.48,106.87z"/>
				</g>
				<g>
					<g id="bottom">
						<path class="st30" d="M119.86,217.52l0.84-9.04l-12-1.53c0,0,0.35,4.76,0.35,8.31c0,3.43,0,4.88-1.17,6.81
							s-4.13,4.41-7.39,5.71s-6.38,3.06-5.49,4.92s5.77,2.73,7.9,2.29c2.12-0.44,6.86-2.95,9.27-4.73s6.38-2.61,7.3-3.01
							c0.92-0.39,1.14-1.69,1.11-3.84C120.47,221.43,120.23,219.46,119.86,217.52z"/>
						<path class="st24" d="M103.29,131.41c-0.42,6.13,1.05,23.7,1.49,36.56c0.2,6.07,1.3,14.68,1.53,17.36
							c0.61,7.61,2.3,25.02,2.3,25.02s6.39,2.55,12.11,0.28c0.96-9.55,4.34-23.11,1.8-31.23l4.11-45.23L103.29,131.41z"/>
						<path class="st31" d="M94.37,232.84c-0.16,0-0.38,1.8,0.51,2.55c1.02,0.86,4.08,2.26,8.05,1.69c3.96-0.57,6.1-1.83,7.66-3.18
							c1.56-1.35,3.77-3.26,5.56-3.68c1.67-0.39,4.38-1.37,4.9-1.89s0.41-2.81,0.41-2.81L94.37,232.84z"/>
						<path class="st24" d="M116.64,221.81c0.7-0.41,0.89-1.31,1.3-2.01c0.32-0.55,0.79-1.01,1.36-1.31
							c0.18-0.09,0.36-0.16,0.55-0.22c0,0,0.05-0.76,0.03-0.76c0.32,0.15,0.56,0.43,0.65,0.77c0.13,0.63,0.15,1.43,0.43,2.47
							c0.39,1.43,0.68,4.38,0.48,5.55s-3.81,2.23-5.54,2.92c-2.03,0.92-3.92,2.15-5.59,3.63c-1.85,1.56-5.75,3.17-8.35,3.24
							c-3.96,0.12-6.54-0.91-7.35-2.32c-0.7-1.22-0.11-3.01,0.9-3.89c1.39-1.23,3.11-2.01,4.77-2.85c2.22-1.14,4.7-2.51,6.37-4.48
							c0.46-0.54,1.19-0.77,1.88-0.62C110.27,222.34,113.68,222.84,116.64,221.81z"/>
						<path class="st31" d="M108.33,207.85c2.32,1.63,8.92,3.14,12.73,0.51l-0.51,8.11c-2.29,1.53-9.04,2.12-11.72-0.9
							L108.33,207.85z"/>
						<path class="st30" d="M141.21,225.86l0.23-10.6l-11.89,0.44l1.75,10.72c0,0,0.69,4.35,0.84,5.4c0.37,3.01,0.58,6.04,0.62,9.08
							c0.05,4,0.26,7.7,1.35,9.55c1.1,1.84,2.29,2.13,4.08,1.53c1.79-0.6,3.98-2.61,4.67-5.79s-0.27-7.87-0.66-8.94
							C141.82,236.18,141.27,229.77,141.21,225.86z"/>
						<path class="st24" d="M139.61,134.57l-23.48-0.12c0.77,5.91,6.22,46.03,7.43,52.81c1.22,6.78,6.55,33.37,6.55,33.37
							s1.26,1.99,5.26,1.75c4.5-0.28,6.23-2.09,6.23-2.09s0.87-14.29,0.96-22.68c0.1-5.29-0.58-10.57-2.01-15.67
							c0,0,0.6-15.29,0.58-25.53C141.12,146.17,141.06,142.93,139.61,134.57z"/>
						<path class="st31" d="M131.82,245.88c0.12,2.81,0.54,4.67,1.51,6.33s2.85,2.21,4.77,1.76c1.91-0.45,4.38-1.69,4.96-4.08
							s0.93-4.06,0.51-6.66L131.82,245.88z"/>
						<path class="st24" d="M141,229.09c0.28-0.21,0.1-2.83,0.21-3.23c0.78,0.08,0.51,3.79,0.92,7.56c0.42,4.04,0.99,5.66,1.37,8.98
							c0.44,3.79-0.21,5.47-1.58,7.73c-1.36,2.27-6.13,4.43-8.38,1.12c-1.85-2.7-1.89-5.67-1.66-9.44c0.23-3.9-0.11-6.53-0.38-9.49
							c-0.29-3.06-0.87-5.62-0.18-5.9c0,0,0.46,2.33,0.63,2.81C131.94,229.24,135.78,232.71,141,229.09z"/>
						<path class="st31" d="M129.36,217.44c2.43,1.39,9.04,2.22,12.49-0.8l-0.47,7.32c-2.08,1.74-8.62,3.06-11.54,0.3L129.36,217.44
							z"/>
						<path class="st31" d="M140.19,188.64c-0.16-1.31-0.32-2.35-0.46-3.35c-0.51-3.35-0.96-6.52-1.6-19.17
							c-0.23-4.76-0.26-8.43-0.28-11.68c-0.04-6.57-0.06-11.33-1.77-19.91h-0.51c1.62,8.06,1.74,12.76,1.78,18.72
							c-3.14-0.13-4.93-3.14-5.62-9.46c-0.74-6.69-1.48-11.26-1.49-11.3l-0.51,0.08c0,0.05,0.75,4.59,1.48,11.28
							c0.72,6.55,2.73,9.79,6.13,9.92c0,0.22,0,0.43,0,0.66c0,3.24,0.04,6.92,0.28,11.7c0.64,12.68,1.11,15.86,1.6,19.22
							c0.15,1.02,0.3,2.04,0.46,3.34c1.14,9.97,1.48,20.02,1.02,30.05h0.51C141.67,208.7,141.33,198.63,140.19,188.64z"/>
						<path class="st31" d="M124.05,188.33c-0.99-6.03-1.97-12.06-2.96-18.09c-0.63-3.87-1.27-7.75-1.9-11.62
							c-0.24-1.5-0.43-3.01-0.81-4.48c-0.62-2.36-1.05-4.77-1.25-7.2c-0.25-3.1-0.21-6.55,1.42-9.3c0.19-0.33-0.32-0.62-0.51-0.3
							c-2.59,4.38-1.68,10.39-0.67,15.12c0.36,1.66,0.75,3.24,1.02,4.92c1.3,7.94,2.6,15.89,3.9,23.83c0.4,2.43,0.79,4.85,1.19,7.28
							C123.54,188.86,124.11,188.7,124.05,188.33L124.05,188.33z"/>
					</g>
					<g id="character_00000165922468156480635380000007502132137765293717_">
						<path class="st30" d="M105.78,84.28c-2.74,2.14-4.74,7.35-5.81,17.25c-1.04,9.59,3.7,34,3.7,34l7.98,2.33l2.2-35.97
							L105.78,84.28z"/>
						<path class="st32" d="M109.58,81.82c-4.8,1.68-7.39,4.68-8.35,9.42c-1.1,5.45-2.59,21.05-2.59,21.05
							c2.43-0.12,4.87,0.06,7.26,0.52c3.2,0.75,6.04,3.07,6.04,3.07l1.72-14.69L109.58,81.82z"/>
						<g id="chest">
							<path class="st32" d="M103.32,97.11c0.03-6.71,6.13-15.73,8.52-16.48c0,0,4.08-2.76,13.19,1.18
								c5.45,2.35,14.53,8.93,14.53,8.93c0.83,4.11,1.34,8.28,1.53,12.47c0.2,6.26-2.26,14.81-2.04,19.79
								c0.21,4.99,0.62,10.01,1.59,17.32c-6.02,8.14-30.94,7.7-37.46-4.68C103.21,125.8,103.32,104.28,103.32,97.11z"/>
						</g>
						<g id="head">
							<path class="st33" d="M107,66.83c-1.09-2.36-0.19-6.31-0.19-6.31c-1.1,1.6-1.42,3.61-0.89,5.47
								c-2.26-2.61-1.83-7.87,2.75-10.84c6.05-3.93,17.87-4.66,20.42,3.8c1.97,0.3,3.1,2.55,2.93,7.24s-2.85,10.72-2.38,12.91
								c0.47,2.19,1.13,2.74,1.13,2.74c-1.25-0.2-2.32-1-2.86-2.15c0.23,0.96,0.54,1.9,0.95,2.81h-16.57L107,66.83z"/>
							<path class="st30" d="M129.43,77.07c-1.93,0.7-2.71-0.51-2.71-0.51l0.65,8.11c-2.32,2.82-7.79,6.49-11.74,5.87
								c-2.11-0.34-2.37-2.23-0.24-4.98l-0.33-2.6c-1.3,0.06-2.6-0.03-3.89-0.26c-2.2-0.59-3.85-2.41-4.21-4.66
								c-0.47-2.6-0.46-8.87,0.63-14.81c0.25-1.32,1.11-3.28,2.12-4.14c0.27,1.13,0.39,2.17,3.4,2.5c3.32,0.36,8.39-3.22,10.68-0.63
								c-1.03,0.81-1.61,2.07-1.53,3.38c0.04,1.83,1.53,3.73,1.69,4.87c0.28,1.88,0.94,2.74,1.49,2.83c1.02,0.18,1.21-0.93,1.88-1.6
								s3.19-1.02,4.2,1.27C132.54,73.99,130.91,76.53,129.43,77.07z"/>
							<path class="st29" d="M124.05,80.3c0.86-1.35,0.98-3.48,0.98-3.48c-0.39,1-0.91,1.95-1.56,2.81c-1.13,1.53-5,3.06-8.42,3.31
								l0.17,1.21C120.17,83.76,123.23,81.6,124.05,80.3z"/>
							<path class="st29" d="M111.02,73.1l1.86,0.54l0.33-3.24C112.47,70.49,111.74,71.73,111.02,73.1z"/>
							<path class="st33" d="M116.66,66.35l2.81,0.48c0.26-0.39-0.16-0.82-0.95-0.96c-0.76-0.13-1.58,0.07-1.84,0.44
								C116.68,66.33,116.67,66.34,116.66,66.35z"/>
							<path class="st33" d="M107.97,66.14l2.83-0.41c-0.17-0.39-0.92-0.64-1.68-0.56c-0.02,0-0.05,0.01-0.07,0.01
								C108.26,65.31,107.79,65.73,107.97,66.14z"/>
							<path d="M107.94,69.43c-0.14-1.33,1.68-2.07,2.61-1.22c0.3,0.24,0.49,0.58,0.53,0.97l-0.05,0.06
								c-0.9-0.87-2.28-0.81-3.02,0.23C108,69.48,107.94,69.43,107.94,69.43L107.94,69.43z"/>
							<path d="M115.66,69.22c0.26-1.32,2.22-1.47,2.85-0.38c0.21,0.32,0.29,0.7,0.22,1.09l-0.07,0.04
								c-0.59-1.1-1.93-1.46-2.95-0.69C115.71,69.28,115.66,69.22,115.66,69.22L115.66,69.22z"/>
							<path class="st25" d="M113.04,77.01c0.4-0.38,1.03-0.65,1.66-0.71c0.47-0.05,0.9,0.03,1.2,0.22
								c0.29,0.18,0.33,0.49,0.09,0.78c-0.34,0.3-0.88,0.48-1.37,0.44c-0.5-0.03-0.95-0.13-1.35-0.29
								c-0.12-0.03-0.22-0.08-0.31-0.15c-0.08-0.06-0.08-0.16,0-0.25"/>
							<path d="M116.12,75.88c-0.13-0.07-0.53,0.82-1.57,1.12s-1.95-0.23-2.01-0.11c-0.04,0.05,0.14,0.27,0.53,0.46
								c0.52,0.24,1.1,0.29,1.65,0.14c0.53-0.14,0.98-0.49,1.26-0.96C116.18,76.17,116.18,75.9,116.12,75.88z"/>
						</g>
						<path class="st30" d="M135.48,93.59c2.68-3.18,4.7-3.41,8.42,4.13c4.85,9.81,6.39,12.66,9.1,20.09
							c2.04,5.62,2.09,5.98-0.15,10.72c-1.25,2.63-8.57,16.16-10.8,18.64c-1.48,1.65-3.46,4.81-5.02,6.13c0,0-3.67,0.18-4.85-6.39
							c0,0-0.94-0.79-3.02,0.14c-1.43,0.64-3.31,0.92-4.27,0.14s1.07-1.42,2.07-2.16c1.44-1.21,3.13-2.08,4.94-2.55
							c2.59-0.67,3.1-1.35,5.11-4.42c2.41-3.71,4.91-13.07,4.91-13.07l-5.93-12.04C130.38,101.63,132.81,96.77,135.48,93.59z"/>
						<path class="st32" d="M132.14,97.94c1.17-5.78,5.36-7.48,6.91-7.33s3.99,2.92,5.47,6.22c2.27,5.04,7.02,16.51,7.02,16.51
							c-1.09,2.48-3.01,4.51-5.43,5.75c-4.14,2.19-6.42,2.41-6.42,2.41s-1.81-3.15-4.14-7.98
							C133.23,108.67,131.23,102.42,132.14,97.94z"/>
						<path class="st29" d="M141.92,124.94c1.46-1.79,3.61-2.9,5.92-3.04c-2.25-0.81-4.89,0.15-6.45,1.99L141.92,124.94z"/>
					</g>
					<path d="M138.71,119.7c-2.36-4.52-4.65-9.07-6.87-13.66C134.2,110.56,136.49,115.12,138.71,119.7L138.71,119.7z"/>
				</g>
				<g>
					<path class="st32" d="M111.5,23.41c-0.21-0.93-0.91-1.87-1.97-2.48c-1.14-0.66-2.4-0.77-3.33-0.39
						c-0.97-0.66-2.12-1.08-3.38-1.14c-2.27-0.11-4.33,0.94-5.61,2.63c-1-0.1-2.1,0.22-2.99,0.97c-1.38,1.16-1.84,2.95-1.21,4.32
						c-0.3,0.28-0.58,0.6-0.82,0.96c-1.56,2.39-0.89,5.6,1.5,7.16c0.1,0.06,0.2,0.12,0.3,0.17c-0.01,0.11-0.02,0.22-0.02,0.33
						c0,2.63,2.22,4.77,4.95,4.77c1.13,0,2.16-0.37,2.99-0.98c1.12,0.59,2.42,0.86,3.77,0.72c2.88-0.31,5.13-2.44,5.72-5.12
						c1.53-0.71,2.78-1.99,3.41-3.69C116.01,28.43,114.53,24.87,111.5,23.41z"/>
					<g>
						<path class="st26" d="M101.9,32.62c0-0.48,0.05-0.89,0.16-1.24c0.11-0.34,0.26-0.64,0.47-0.89s0.48-0.47,0.8-0.66
							c0.21-0.13,0.46-0.27,0.74-0.41s0.54-0.31,0.78-0.5s0.44-0.43,0.6-0.71c0.16-0.28,0.24-0.62,0.24-1.01
							c0-0.48-0.11-0.88-0.33-1.19c-0.22-0.31-0.51-0.55-0.85-0.71c-0.35-0.16-0.72-0.24-1.12-0.24s-0.77,0.07-1.13,0.22
							s-0.67,0.35-0.94,0.6c-0.27,0.25-0.49,0.54-0.66,0.86l-0.79-0.5c0.21-0.45,0.5-0.84,0.87-1.16s0.78-0.56,1.24-0.73
							s0.94-0.25,1.42-0.25c0.42,0,0.82,0.06,1.22,0.19c0.39,0.13,0.75,0.32,1.06,0.58s0.56,0.59,0.74,0.98
							c0.19,0.39,0.28,0.85,0.28,1.39c0,0.44-0.06,0.81-0.19,1.11c-0.12,0.3-0.3,0.56-0.52,0.77c-0.22,0.21-0.47,0.4-0.74,0.57
							c-0.27,0.16-0.55,0.32-0.85,0.48c-0.26,0.14-0.51,0.3-0.74,0.48c-0.24,0.17-0.43,0.41-0.58,0.71s-0.22,0.71-0.22,1.24h-0.96
							C101.9,32.6,101.9,32.62,101.9,32.62z M101.91,35.96v-1.77h1v1.77H101.91z"/>
					</g>
					<circle class="st32" cx="110.2" cy="42.9" r="1.3"/>
					<circle class="st32" cx="113.14" cy="45.85" r="1.3"/>
					<circle class="st32" cx="116.53" cy="48.46" r="1.3"/>
				</g>
			</g>
		</g>
	</g>
</g>
<g class="st0">
	<circle id="SVGID_00000044149791232847480710000004775682977474788508_" class="st34" cx="87.05" cy="87.25" r="82.81"/>
</g>
<g>
	<defs>
		<circle id="SVGID_00000004529878855814119620000018153440906715861155_" cx="86.28" cy="87.25" r="72.61"/>
	</defs>
	<clipPath id="SVGID_00000090285600542298756610000017878069408384291204_">
		<use xlink:href="#SVGID_00000004529878855814119620000018153440906715861155_"  style="overflow:visible;"/>
	</clipPath>
	<g style="clip-path:url(#SVGID_00000090285600542298756610000017878069408384291204_);">
		<g>
			<path class="st36" d="M45.41,106.86c2.5-4.01,3.68-3.47,8.03-5.28c2.11,0.3,4.91,0.57,9.62,4.05l-9.27,6.51
				C54.09,111.41,48.23,108.58,45.41,106.86z"/>
			<g>
				<g>
					<g>
						<polygon class="st37" points="67.4,147.69 56.97,118.72 59.04,117.94 69.93,147.69 						"/>
					</g>
					<g>
						<polygon class="st37" points="27.26,147.69 38.12,117.49 40.19,118.27 29.62,147.69 						"/>
					</g>
					<g>
						<polygon class="st37" points="10.03,147.69 20.94,117.32 23.01,118.1 12.37,147.69 						"/>
					</g>
					<g>
						<polygon class="st37" points="53.72,147.69 43.29,118.72 45.35,117.94 56.25,147.69 						"/>
					</g>
					<path class="st37" d="M61.01,112.5h-30.3c-2.36,0-4.28,1.92-4.28,4.28v1.99c0,2.36,1.92,4.28,4.28,4.28h30.3
						c2.36,0,4.28-1.92,4.28-4.28v-1.99C65.29,114.42,63.37,112.5,61.01,112.5z"/>
					<path class="st38" d="M37.74,113.38h-4.1L22.96,83.95c-0.42-1.11-1.46-1.85-2.62-1.86L7.52,81.9c-1.97-0.02-3.82,2.8-2.73,6.42
						l8.18,24.15l0,0l2.26,7.24l24.02,0.25L37.74,113.38z"/>
					<path class="st37" d="M42.2,113.66l-20.85-0.05l-9.63-27.8c-0.66-1.9,0.73-3.88,2.71-3.86l13.9,0.14
						c1.17,0.01,2.21,0.75,2.62,1.86L42.2,113.66z"/>
					<path class="st38" d="M51.94,112.51c0,0-11.75,0.73-15.68,0.74c-4.07,0-15.11-1.55-15.11-1.55c-2.74,0-6.13,2.87-6.13,5.41
						v1.35c0,2.54,2.22,4.6,4.96,4.6h31.96c2.74,0,4.96-2.06,4.96-4.6v-1.35C56.9,114.57,54.68,112.51,51.94,112.51z"/>
				</g>
				<g>
					<path d="M45.39,73.73c0,0,1.13,1.67,0.29,3.15c-0.85,1.48-1.61,1.83-1.49,3.22c0.12,1.39-1.2,0-1.2,0l-3.01-8.14L45.39,73.73z"
						/>
					<path d="M43.64,52.17c1.05,1.56,1.49,3.45,1.24,5.32c-0.15,1.05-0.51,2.14-0.15,3.13c0.31,0.86,1.13,1.56,1.09,2.47
						c-0.05,1.04-1.22,1.74-1.33,2.77c-0.15,1.43,1.77,2.39,1.75,3.83c-0.01,0.74-0.54,1.35-0.9,2c-0.36,0.64-0.53,1.58,0.05,2.04
						l-6.69-0.48l1.19-20.91L43.64,52.17z"/>
					<path d="M28.44,57.33c-1.84,1.8-0.07,4.61-1.25,6.42c-0.71,1.1-2.25,1.63-2.58,2.9c-0.16,0.63,0.02,1.29,0.12,1.93
						c0.1,0.64,0.07,1.38-0.39,1.83c-0.24,0.19-0.48,0.35-0.74,0.51c-0.72,0.53-0.96,1.52-0.88,2.41s0.43,1.73,0.68,2.59
						c0.59,2.12,0.56,4.36-0.09,6.45c-0.15,0.48,0.34,0.92,0.8,0.72c0.41-0.18,0.77-0.46,1.06-0.82c-0.01,0.37-0.03,0.73-0.04,1.1
						c-0.02,0.4,0.37,0.71,0.76,0.59c0.5-0.16,0.95-0.48,1.3-0.87c0.5-0.62,0.88-1.32,1.13-2.08c1.25-3.37,1.66-6.98,1.2-10.54"/>
					<path class="st39" d="M59.6,93.18c-0.29-0.04-1.24-0.46-2.44-0.56c-4.39-0.35-12.99-0.61-12.99-0.61
						c-0.35-0.02-0.68-0.05-0.99-0.08c-0.15-2.84,0.41-15.66-1.71-19.22c-0.72-1.21-5.29-3.25-6.05,2.21
						c-0.76,5.54,3.47,18.2,4.18,19.84c0,0.01,0.01,0.02,0.01,0.03c0.54,1.45,3.83,1.87,5.8,1.66c1.94-0.21,9.72-1.45,10.25-1.34
						c0.53,0.11,2.08,2.17,2.08,2.17s0.99,2.63,1.43,2.47c0.44-0.17-0.91-3.31-0.91-3.31s0.85,0.74,1.47,1.76
						c0.3,0.5,0.73,1.29,0.95,1.5c0.38,0.36,0.18-0.92,0.04-1.29c-0.18-0.49-1.69-3.01-1.63-3.09c0.16-0.24,1.5,1.49,1.5,1.49
						s1.45,2.48,1.64,2.45c0.66-0.13-0.03-1.14-0.44-2.24c-0.41-1.1-1.85-2.54-1.6-2.64c0.25-0.09,1.88,2.24,2.11,1.75
						C62.53,95.63,60.96,93.34,59.6,93.18z"/>
					<g>
						<path class="st40" d="M41.88,73.27c-0.48-1.32-3.21-4.14-4.94,1.04c-0.65,1.93-1.15,5.4-1.08,8.5
							c2.04,0.19,4.58-0.11,6.6,0.15C42.69,79.16,42.56,75.14,41.88,73.27z"/>
					</g>
					<g>
						<path class="st40" d="M42.02,75.37c-0.94-1.69-1.91-3.03-1.91-3.03c-0.98-1.69-3.5-2.54-3.5-2.54s-0.84,0.02-1.81,0.06
							c-0.06,0.16-0.12,0.27-0.18,0.31c-0.36,0.27-3.9-0.05-5.25,0.84c-4.52,3.77-1.41,21.17-1.05,26.94l10.87,0.87
							c0,0,0.75-12.33,3.54-15.52C44.67,81.09,43.42,77.88,42.02,75.37z"/>
					</g>
					<path class="st39" d="M45.11,139.61c0.12-0.22,1.69-3.88,2.97-5.51c1.86-2.37,17.96-23.83,17.29-29.06
						c-0.29-2.28-7.26-4.22-8.09-4.35c-4.44,0.58,0.22,4.28-3.11,7.32c2.17,0.72,3.45,1.61,2.98,2.2
						c-1.88,2.36-11.84,21.41-12.27,21.65c-1.93,1.1-2.69,0.59-2.69,0.59s0.44,10.71,1.36,10.37
						C44.48,142.48,43.75,142.04,45.11,139.61z"/>
					<g>
						<path class="st40" d="M41.38,132.51l1.86,10.79c0.42,1.4,1.12,1.38,1.3,1.19c0.37-0.39,0.54-3.27,0.59-4.9
							c-0.84-2.5-0.76-7.21-0.24-7.74C43.63,131.88,41.39,132.27,41.38,132.51z"/>
					</g>
					<path class="st36" d="M35.81,63.63c0,0-0.76,5.25-1.29,6.53c-0.53,1.28,2.91,4.01,5.77,4.84c2.86,0.83-0.87-2.82-0.76-4.18
						c0.12-1.36,0.64-7.83,0.64-7.83L35.81,63.63z"/>
					<path class="st41" d="M40.03,65.9c0.08-1.07,0.14-1.85,0.14-1.85l-4.36,0.65c0,0-0.11,0.62-0.23,1.49
						C37.35,67.18,38.94,66.87,40.03,65.9z"/>
					<path d="M47.53,99.14c-1.93-0.17-8.32-0.8-8.32-0.8L28.2,96.9c0,0-2.33,4.59-2.41,7.5c-0.14,5.09,4.7,8.87,8.83,9.13
						c2.43,0.15,16.11,0.99,18.83,0.01c0.56-4.15,1.5-10.07,4.38-13.05C53.21,99.88,50.15,99.37,47.53,99.14z"/>
					<path class="st36" d="M47.67,137.51c0.31-0.31,2.8-16.79,4.3-23.7c0.36-1.67,1.46-3.09,3-3.91l8.09-4.27
						c2.8,2.48-10.27,30.35-11.47,33.27c-0.82,2.01-1.1,4.65-1.16,4.9c-0.67,2.85-0.35,2.79-1.18,3.39
						c-0.84,0.6-4.27-7.98-4.27-7.98S46.03,139.16,47.67,137.51z"/>
					<g>
						<path class="st40" d="M50.43,143.8c0,0,0.1,1.1,0.55,2.01c0.45,0.91,1.99,1.51,1.57,1.98c-0.42,0.47-3.79,0-3.79,0l-3.98-8.22
							c-0.16-0.3-0.07-0.65,0.22-0.86c0.47-0.35,1.32-0.84,2.67-1.18C47.65,137.53,47.6,142.56,50.43,143.8z"/>
					</g>
					<path class="st36" d="M48.51,97.97c-0.3-0.09-1.2-0.73-2.43-1.07c-4.5-1.23-13.41-3.21-13.41-3.21
						c-0.36-0.09-0.7-0.19-1.01-0.27c0.4-3,2.07-16.29,0.57-20.43c-0.51-1.41-3.44-4.44-5.3,1.12c-1.89,5.64,0.03,19.71,0.45,21.57
						c0,0.01,0,0.02,0,0.03c0.28,1.62,3.61,2.72,5.71,2.88c2.06,0.16,10.41,0.4,10.93,0.62c0.53,0.22,1.74,2.67,1.74,2.67
						s0.51,2.95,1.01,2.86c0.5-0.08-0.29-3.64-0.29-3.64s0.74,0.94,1.19,2.13c0.22,0.58,0.51,1.49,0.7,1.76
						c0.32,0.45,0.37-0.92,0.3-1.33c-0.09-0.55-1.16-3.48-1.09-3.55c0.22-0.22,1.26,1.85,1.26,1.85s1.02,2.88,1.22,2.88
						c0.71,0,0.19-1.2-0.02-2.43c-0.21-1.24-1.43-3.02-1.14-3.07c0.28-0.05,1.51,2.72,1.85,2.25
						C51.08,101.11,49.89,98.41,48.51,97.97z"/>
					<g>
						<path class="st40" d="M32.23,72.99c-0.51-1.41-3.44-4.44-5.3,1.12c-0.69,2.07-1.23,5.79-1.16,9.11
							c2.18,0.21,4.91-0.12,7.07,0.16C33.1,79.3,32.95,75,32.23,72.99z"/>
					</g>
					<path class="st36" d="M39.54,71.88c0.05-2.03,0.96-6.1,0.96-6.1s3.08-0.39,3.22-3.53c0.1-2.4,0.14-6.16,0.16-7.82
						c0-0.5-0.32-0.94-0.79-1.08l-5.13-1.58l-4.32,3.19l-0.1,14.92c-0.01,1.9,1.23,3.07,3.12,3.07l0,0
						C38.51,72.94,39.5,73.73,39.54,71.88z"/>
					<path class="st41" d="M40.5,65.78c-1.46-0.04-2.88-0.5-4.08-1.34c0,0,0.84,2.3,3.91,2.11L40.5,65.78z"/>
					<path class="st41" d="M40.79,62.03c0-0.2-0.16-0.37-0.36-0.38c-0.07,0-0.13,0.02-0.19,0.05c-0.15-0.26-0.47-0.36-0.75-0.23
						c-0.26,0.14-0.4,0.44-0.33,0.73c0.08,0.29,0.32,0.5,0.61,0.55c0.29,0.04,0.58-0.06,0.78-0.28c0.17-0.16,0.24-0.4,0.18-0.62"/>
					<path d="M41.06,59.21l0.19,0.28c0.05,0.07,0.07,0.14,0.04,0.22c-0.02,0.04-0.07,0.07-0.13,0.08c-0.05,0.01-0.09,0.01-0.14,0.01
						c-0.18,0.02-0.36,0.02-0.53,0c0.17-0.04,0.35-0.06,0.53-0.06c0.08-0.01,0.16-0.02,0.17-0.05c0.01-0.06,0.01-0.16-0.04-0.21
						l-0.25-0.44L41.06,59.21z"/>
					<path d="M39.17,61.42c0.07-0.03,0.27,0.43,0.81,0.58c0.54,0.15,1.01-0.11,1.04-0.05c0.01,0.03-0.07,0.14-0.27,0.23
						c-0.27,0.12-0.57,0.15-0.86,0.07c-0.27-0.07-0.51-0.25-0.65-0.5C39.13,61.57,39.13,61.43,39.17,61.42z"/>
					<path d="M38.89,56.82c-0.05,0.12-0.44,0.03-0.9,0.06s-0.86,0.15-0.9,0.03c-0.02-0.06,0.05-0.17,0.21-0.28
						c0.2-0.14,0.44-0.21,0.69-0.23c0.24-0.01,0.48,0.04,0.7,0.15C38.83,56.65,38.91,56.76,38.89,56.82z"/>
					<path d="M43.32,55.91c-0.1,0.11-0.49,0-0.96,0s-0.86,0.07-0.95-0.04c-0.04-0.05,0.02-0.16,0.19-0.26
						c0.24-0.12,0.51-0.18,0.78-0.17c0.27,0,0.53,0.07,0.76,0.21C43.31,55.75,43.36,55.86,43.32,55.91z"/>
					<path class="st41" d="M37.17,58.79c-0.02,0.03-0.08,0.02-0.15-0.02c-0.07-0.04-0.11-0.09-0.09-0.12
						c0.02-0.03,0.08-0.02,0.15,0.02C37.14,58.7,37.19,58.76,37.17,58.79z"/>
					<path class="st41" d="M38.03,59.21c-0.03,0-0.05-0.07-0.04-0.14c0.01-0.07,0.05-0.13,0.08-0.12c0.03,0,0.05,0.07,0.04,0.14
						C38.1,59.17,38.06,59.22,38.03,59.21z"/>
					<path class="st41" d="M37.53,60.18c-0.03-0.01-0.03-0.07,0-0.12c0.03-0.05,0.07-0.09,0.1-0.08c0.03,0.01,0.03,0.07,0,0.12
						C37.6,60.16,37.57,60.19,37.53,60.18z"/>
					<path class="st41" d="M42.69,58.71c-0.02,0.03-0.07,0.02-0.11,0c-0.05-0.02-0.07-0.08-0.05-0.1s0.07-0.02,0.11,0
						C42.69,58.64,42.71,58.69,42.69,58.71z"/>
					<path class="st41" d="M43.2,58.64c-0.03-0.02-0.02-0.08,0.01-0.14s0.09-0.1,0.11-0.08s0.02,0.08-0.01,0.14
						S43.23,58.66,43.2,58.64z"/>
					<path class="st41" d="M42.86,59.98c-0.03,0-0.05-0.08-0.03-0.18c0.02-0.09,0.05-0.16,0.09-0.15c0.03,0.01,0.05,0.08,0.03,0.17
						C42.93,59.91,42.89,59.98,42.86,59.98z"/>
					<g>
						<path class="st40" d="M42.69,64.91c0,0,0.1,0.04,0.27,0.09c0.25,0.07,0.5,0.09,0.76,0.07c0.38-0.04,0.74-0.19,1.04-0.42
							c0.37-0.28,0.62-0.68,0.73-1.13c0.1-0.45,0.07-0.92-0.09-1.35c-0.13-0.36-0.37-0.66-0.69-0.87c-0.21-0.14-0.46-0.23-0.71-0.26
							c-0.18-0.02-0.28,0-0.28-0.02c0.02-0.01,0.05-0.01,0.07-0.02c0.07-0.01,0.14-0.01,0.21,0c0.27,0.02,0.52,0.1,0.75,0.24
							c0.34,0.21,0.6,0.53,0.74,0.9c0.18,0.45,0.22,0.95,0.1,1.43c-0.11,0.48-0.39,0.9-0.78,1.2c-0.32,0.24-0.7,0.38-1.09,0.42
							c-0.27,0.02-0.53-0.02-0.78-0.11C42.86,65.03,42.77,64.98,42.69,64.91z"/>
					</g>
					<path d="M37.6,50.04c0.67-0.79,1.7-1.19,2.73-1.06c1.02,0.14,1.95,0.65,2.62,1.44c0.66,0.78,1.13,1.71,1.37,2.7
						c0.09,0.29,0.13,0.6,0.11,0.9c-0.02,0.31-0.19,0.58-0.45,0.75c-0.29,0.14-0.62,0.13-0.9-0.02c-0.27-0.15-0.52-0.34-0.74-0.57
						c-0.17,0.75-0.93,1.22-1.68,1.05c-0.49-0.11-0.88-0.47-1.02-0.95c-0.43,1.04-1.61,1.53-2.65,1.1
						c-0.63-0.26-1.09-0.82-1.22-1.49c-0.16-0.78,0.17-1.59,0.62-2.25s1.03-1.22,1.5-1.87"/>
					<g>
						<path d="M39.42,58.15c-0.46,0.09-0.71,0.17-0.75,0.42c-0.24-0.15-0.5-0.2-0.95-0.4c0,0-0.07-0.08-0.07-0.08
							c0.25-0.24,0.55-0.46,0.93-0.52c0.39-0.02,0.75,0.21,0.92,0.53L39.42,58.15L39.42,58.15z"/>
					</g>
					<g>
						<path d="M42.93,57.91c-0.39,0.05-0.88,0.22-0.63,0.42c0.04-0.03,0-0.05-0.14-0.13c-0.05-0.03-0.78-0.27-0.77-0.34
							c0.45-0.58,1.27-0.76,1.63,0.01C43.02,57.87,42.93,57.91,42.93,57.91L42.93,57.91z"/>
					</g>
					<polygon points="37.89,57.98 37.65,57.66 37.72,57.97 37.43,57.82 37.67,58.14 37.75,58.05 					"/>
					<polygon points="43,57.9 43.19,57.56 42.93,57.75 42.96,57.42 42.77,57.77 42.88,57.8 					"/>
					<path d="M37.92,49.92c0.93,1.68,0.63,3.78-0.74,5.13c-0.68,0.65-1.6,1.09-2.03,1.93c-0.45,0.88-0.21,1.95,0.11,2.89
						c0.32,0.94,0.73,1.9,0.59,2.88c-0.17,1.22-1.14,2.2-1.35,3.41c-0.4,2.32,2.1,4.37,1.8,6.7c-0.13,1.02-0.77,1.89-1.33,2.76
						s-1.07,1.87-0.88,2.89c0.09,0.48,0.5,0.9,0.45,1.4c-0.18,1.97-2.97,2.24-3.38,1.89c0.51-0.97-0.09-2.48-0.15-2.56
						c-0.18,0.88-0.91,1.55-1.8,1.66c0.11-0.76,0.05-1.53-0.18-2.25c-0.34,0.56-0.91,0.95-1.56,1.05c0.53-2.75,0.2-5.59-0.95-8.14
						c-0.4-0.89-0.92-1.8-0.79-2.78c0.17-1.25,1.35-2.1,1.9-3.24c0.62-1.28,0.41-2.78,0.24-4.2c-0.17-1.41-0.26-2.96,0.55-4.13
						c0.5-0.71,1.28-1.21,1.68-1.98c0.37-0.71,0.36-1.56,0.58-2.34c0.41-1.4,1.44-2.98,2.82-3.46C34.9,48.96,37.04,48.5,37.92,49.92
						"/>
				</g>
			</g>
		</g>
		<g>
			<g>
				<g>
					<polygon class="st37" points="103.39,148.51 113.82,119.53 111.75,118.76 100.86,148.5 					"/>
				</g>
				<g>
					<polygon class="st37" points="143.53,148.5 132.67,118.31 130.6,119.08 141.17,148.5 					"/>
				</g>
				<g>
					<polygon class="st37" points="160.76,148.5 149.84,118.14 147.78,118.91 158.42,148.5 					"/>
				</g>
				<g>
					<polygon class="st37" points="117.07,148.51 127.5,119.53 125.44,118.76 114.54,148.5 					"/>
				</g>
				<path class="st37" d="M109.78,113.31h30.3c2.36,0,4.28,1.92,4.28,4.28v1.99c0,2.36-1.92,4.28-4.28,4.28h-30.3
					c-2.36,0-4.28-1.92-4.28-4.28v-1.99C105.5,115.23,107.41,113.31,109.78,113.31z"/>
				<path class="st38" d="M133.04,114.19h4.1l10.69-29.44c0.42-1.11,1.46-1.85,2.62-1.86l12.82-0.18c1.97-0.02,3.82,2.8,2.73,6.42
					l-8.18,24.15l0,0l-2.26,7.24l-24.02,0.25L133.04,114.19z"/>
				<path class="st37" d="M128.58,114.47l20.85-0.05l9.63-27.8c0.66-1.9-0.73-3.88-2.71-3.86l-13.9,0.14
					c-1.17,0.01-2.21,0.75-2.62,1.86L128.58,114.47z"/>
				<path class="st38" d="M118.84,113.32c0,0,11.75,0.73,15.68,0.74c4.07,0,15.11-1.55,15.11-1.55c2.74,0,6.13,2.87,6.13,5.41v1.35
					c0,2.54-2.22,4.6-4.96,4.6h-31.96c-2.74,0-4.96-2.06-4.96-4.6v-1.35C113.89,115.38,116.11,113.32,118.84,113.32z"/>
			</g>
			<path class="st42" d="M96.55,64.34c0.21,0.24,0.56,0.64,0.76,0.96c0.22,0.35,0.54,0.6,0.77,0.86c0.46,0.52,0.78,0.91,0.8,0.88
				c0.01-0.04,0.18,0-0.03-0.32c-0.24-0.39-0.93-1.1-1.25-1.7C97.42,64.68,97.01,64,97.01,64s-0.44-1.15-0.38-1.2
				c0.31-0.25,0.82,0.45,1.01,0.94c0.27,0.26,0.69,0.99,0.69,0.99s1.16,1.3,1.34,1.14c0.08-0.07-0.54-0.95-1.02-1.91
				c-0.44-0.89-0.75-1.86-0.59-1.97c0.27-0.19,0.86,0.75,0.86,0.75s0.38,0.68,0.53,0.89c0.17,0.25,0.73,0.97,0.73,0.97
				s2.07,2.42,2.22,2.26c0.16-0.17,0.39-0.76,0.31-0.95c-0.08-0.19-0.4-0.48-0.48-0.67c-0.08-0.19-0.02-0.51,0.21-0.62
				c0.22-0.11,0.95,0.69,0.95,0.69s0.59,0.65,0.72,1.24c0.46,2.05,0.11,2.04,0.18,2.3c0.08,0.31,3.18,3.25,3.18,3.25
				s8.62,8.91,9.13,9.36l-2.41,2.86c-0.64-0.39-10.61-11.12-11.61-12.25c0,0-1.67-0.92-2.71-1.53c-1.03-0.61-1.76-1.65-2.02-1.86
				c-0.04-0.03-0.89-0.8-1.68-2.03c-0.69-1.05,0.43-0.36,0.43-0.36s1.62,1.73,1.73,1.58c0.08-0.11-0.85-1.01-1.63-2.17
				c-0.2-0.3-0.39-0.59-0.57-0.87C95.65,64.15,95.94,63.67,96.55,64.34z"/>
			<g>
				<path class="st40" d="M116.29,78.77c0,0-10.48-8.91-11.04-9.06c-0.85,0.69-1.89,3.21-1.96,4.28
					c-0.03,0.49,9.72,12.46,12.37,13.14c2.89,0.75,15.28-2.72,17.26-4.11c2.22-1.55,6.85-5.83,6.38-8.5
					c-0.21-1.21-2.2-3.01-3.41-3.27C131.1,70.25,123.83,75.53,116.29,78.77z"/>
			</g>
			<path class="st42" d="M105.88,139.11c0,0-0.73,4.25-0.62,5.04c0.11,0.78-3.86,3.22-5.18,2.02c-0.74-0.67-0.29-1.85-0.29-1.85
				l1.16-0.69l0.48-5.55L105.88,139.11z"/>
			<g>
				<path class="st40" d="M105.26,143.94c0,0-1.9,0.36-2.78,0.37c-1.14,0.02-2.45-0.15-2.45-0.15s-2.38,0.89-3.14,1.27
					c-1.69,0.85-3.24,1.38-3.79,2.24c-0.18,0.28-0.18,0.52,0.46,0.64c1.68,0.32,10.78,0.58,11.98,0.15
					C107.4,147.81,105.26,143.94,105.26,143.94z"/>
			</g>
			<path class="st42" d="M89.61,129.5c0,0-2.43,3.41-2.65,4.17c-0.23,0.75-4.78,0.92-5.45-0.8c-0.38-0.97,0.52-1.79,0.52-1.79
				l1.31-0.03l2.75-4.69L89.61,129.5z"/>
			<g>
				<path class="st40" d="M87.03,133.49c0,0-1.83-0.64-2.63-1.07c-1.02-0.56-2.11-1.37-2.11-1.37s-2.49-0.4-3.32-0.44
					c-1.86-0.1-3.51-0.18-4.32,0.09c-0.3,0.1-0.65,0.28-0.18,0.78c1.81,1.9,9.15,5.77,10.57,6
					C86.97,137.78,87.03,133.49,87.03,133.49z"/>
			</g>
			<path d="M141.42,51.38c0,0,2.27-1.34,3.31,1.13c0,0,1.29-0.32,1.88,0.89c0,0,2.23-0.1,2.12,2.81c0,0,1.12,0.06,1.01,1.23
				c-0.11,1.17-0.93,1.79-0.93,1.79s0.52,0.54,0.01,1.53c-0.43,0.84-1.3,0.79-1.3,0.79s-0.56,1.45-1.39,1.74
				c-0.84,0.29-1.79-0.15-1.79-0.15s-0.45,0.76-1.29,0.49c-0.84-0.26-1.75-1.22-2.78-1.11c-1.03,0.11-3.45-0.78-3.45-0.78
				s-2.56-1.72-1.16-4.07c0,0-1.21-1.5,0.39-2.63c0,0-0.45-2.42,1.7-3.31C139.91,50.83,141.42,51.38,141.42,51.38z"/>
			<path d="M98.96,99.52c2.28-1.12,26.18,2.6,26.18,2.6l2.87-4.57l9.33,2.12c0,0,2.64,3.04,2.75,4.4c0.35,4.4-1.67,11.81-3.94,12.53
				c-8.11,2.56-25.54-2.68-27.98-3.24c0,0,0.09,3.95-0.65,12.01c-0.29,3.19-0.68,13.99-1.03,17.06c-2.13,0-4.27-0.05-6.4-0.33
				C100.07,142.12,96.68,100.64,98.96,99.52z"/>
			<path class="st37" d="M83.14,128.81c4.09-10.33,13.76-35.92,16.98-36.49c4.21-0.75,25.03,9.8,25.03,9.8l-21.24-0.44
				c0,0-0.12,0.21-1.04,4.66c-0.72,3.47-9.39,19.45-13.94,26.22C86.81,131.62,84.73,130.75,83.14,128.81z"/>
			<path class="st23" d="M137.86,70.99c0,0,5.29-0.06,5.85,0.06c0.56,0.12-0.44,21.59-1.13,29.6c-0.69,8.01-1.79,9.21-1.79,9.21
				s-7.54,0.03-12.76-1.62c-5.42-1.71-10.98-6.07-10.98-6.07s8.79-14.65,10.76-19.11C129.77,78.61,137.86,70.99,137.86,70.99z"/>
			<g>
				<path class="st40" d="M114.34,101.87c0.09-0.42,1.89-4.5,2.23-5.12c3.36-6.15,13.32-23.77,16.77-25.47
					c0.56-0.28,4.53-0.3,4.53-0.3l-1.37,1.52c-2.34,2.14-3.97,4.23-5.65,6.99c-4.85,8-12.02,25.44-12.46,25.41
					C117.9,104.85,114.14,102.79,114.34,101.87z"/>
			</g>
			<path class="st42" d="M139.26,67.15l-1.06,2.9c0,0-1.85,4.1-0.87,5.19c0.98,1.08,6.09-4.16,6.09-4.16l1.27-7.65L139.26,67.15z"/>
			<path class="st43" d="M144.27,65.89c-1.53,2.37-4.16,3.45-5.91,3.71l0.9-2.45l5.43-3.73L144.27,65.89z"/>
			<path class="st42" d="M143.76,54.88c-2.17-1.33-5.03-0.32-5.92,2.03c-0.39,1.02-0.82,2.31-1.17,3.76
				c-0.83,3.47,0.22,7.26,1.8,7.61c1.58,0.35,6.46-0.94,7.71-5.85C146.95,59.39,146.04,56.27,143.76,54.88z"/>
			<path class="st42" d="M144.93,62.55c-0.17,0.77,0.2,1.51,0.83,1.64c0.63,0.14,1.28-0.37,1.45-1.14c0.17-0.77-0.2-1.5-0.83-1.64
				C145.75,61.27,145.1,61.78,144.93,62.55z"/>
			<path d="M142.93,53.11c-0.29-0.07-0.57-0.06-0.82-0.01c-0.03-0.19-0.08-0.37-0.17-0.54c-0.62-1.24-2.56-1.55-4.33-0.68
				c-1.77,0.87-2.69,2.58-2.07,3.83c0.18,0.37,0.48,0.65,0.86,0.85c-0.05,0.09-0.08,0.19-0.1,0.29c-0.15,0.67,0.27,1.34,0.93,1.49
				c0.66,0.15,1.31-0.28,1.46-0.95c0.04-0.2,0.04-0.4-0.01-0.58c0.4-0.08,0.81-0.22,1.2-0.41c0.86-0.42,1.52-1.05,1.9-1.72
				c0.2,0.15,0.46,0.27,0.75,0.34c0.77,0.17,1.49-0.11,1.6-0.64C144.23,53.85,143.7,53.28,142.93,53.11z"/>
			<g>
				<path class="st40" d="M143.42,71.04c0,0,6.14-0.24,7.54,1.05c0.89,0.82-0.91,9.04-0.91,9.04s-1.72,2.74-2.45,8.35
					c-1.21,9.32-1.81,22.37-2.29,22.68c-2.76,0.99-12.1-0.9-12.48-1.98C128.65,98.27,143.42,71.04,143.42,71.04z"/>
			</g>
			<g>
				<g>
					<g>
						<g>
							<g>
								<g>
									<g>
										<g>
											<g>
												<g>
													<g>
														<g>
															<g>
																<g>
																	<g>
																		<g>
																			<g>
																				<path d="M143.28,59.76c-0.05-0.05-0.37,0.19-0.83,0.19c-0.46,0.01-0.8-0.22-0.85-0.16
																					c-0.02,0.03,0.03,0.12,0.18,0.23c0.15,0.1,0.39,0.2,0.68,0.2c0.29-0.01,0.52-0.11,0.66-0.22
																					C143.26,59.88,143.31,59.78,143.28,59.76z"/>
																			</g>
																		</g>
																	</g>
																</g>
															</g>
														</g>
													</g>
												</g>
											</g>
										</g>
									</g>
								</g>
							</g>
						</g>
					</g>
				</g>
				<g>
					<g>
						<g>
							<g>
								<g>
									<g>
										<g>
											<g>
												<g>
													<g>
														<g>
															<g>
																<g>
																	<g>
																		<g>
																			<g>
																				<path d="M138.79,59.72c-0.05-0.05-0.37,0.19-0.83,0.19c-0.46,0.01-0.8-0.22-0.85-0.16
																					c-0.02,0.03,0.03,0.12,0.18,0.23c0.15,0.1,0.39,0.2,0.68,0.2c0.29-0.01,0.52-0.11,0.66-0.22
																					C138.77,59.85,138.82,59.74,138.79,59.72z"/>
																			</g>
																		</g>
																	</g>
																</g>
															</g>
														</g>
													</g>
												</g>
											</g>
										</g>
									</g>
								</g>
							</g>
						</g>
					</g>
				</g>
				<g>
					<g>
						<g>
							<g>
								<g>
									<g>
										<g>
											<g>
												<g>
													<g>
														<g>
															<g>
																<g>
																	<g>
																		<g>
																			<path d="M140.05,63.06c0-0.03-0.28-0.07-0.75-0.12c-0.12-0.01-0.23-0.03-0.25-0.11
																				c-0.03-0.08,0.02-0.21,0.07-0.35c0.11-0.28,0.22-0.58,0.33-0.9c0.46-1.28,0.79-2.32,0.74-2.34
																				c-0.05-0.02-0.47,1-0.93,2.28c-0.11,0.31-0.22,0.61-0.32,0.9c-0.04,0.13-0.12,0.29-0.05,0.46
																				c0.03,0.09,0.12,0.15,0.2,0.17c0.08,0.02,0.14,0.02,0.2,0.02C139.76,63.09,140.04,63.09,140.05,63.06z"/>
																		</g>
																	</g>
																</g>
															</g>
														</g>
													</g>
												</g>
											</g>
										</g>
									</g>
								</g>
							</g>
						</g>
					</g>
				</g>
				<g>
					<g>
						<g>
							<g>
								<g>
									<g>
										<g>
											<g>
												<g>
													<g>
														<g>
															<path d="M141.46,58.09c0.06,0.12,0.51-0.01,1.05-0.03c0.54-0.03,0.99,0.06,1.05-0.06c0.02-0.06-0.07-0.16-0.26-0.25
																c-0.19-0.09-0.48-0.16-0.81-0.15c-0.32,0.02-0.61,0.11-0.79,0.22C141.52,57.92,141.43,58.03,141.46,58.09z"/>
														</g>
													</g>
												</g>
											</g>
										</g>
									</g>
								</g>
							</g>
						</g>
					</g>
				</g>
				<g>
					<g>
						<g>
							<g>
								<g>
									<g>
										<g>
											<g>
												<g>
													<g>
														<g>
															<path d="M137.1,58.13c0.1,0.1,0.47,0,0.92-0.01c0.45-0.02,0.83,0.07,0.92-0.04c0.04-0.05-0.02-0.16-0.19-0.26
																c-0.16-0.1-0.44-0.18-0.75-0.17c-0.31,0.01-0.58,0.1-0.73,0.21C137.11,57.98,137.06,58.08,137.1,58.13z"/>
														</g>
													</g>
												</g>
											</g>
										</g>
									</g>
								</g>
							</g>
						</g>
					</g>
				</g>
				<path class="st43" d="M140.29,65.46l-1.94-0.17c-0.07,0.52,0.3,1,0.82,1.07c0.01,0,0.02,0,0.04,0
					C139.75,66.41,140.23,66,140.29,65.46z"/>
				<path class="st44" d="M140.21,65.74c-0.16,0.41-0.57,0.67-1.01,0.63c-0.22-0.01-0.43-0.11-0.59-0.27
					C139.03,65.67,139.65,65.53,140.21,65.74z"/>
			</g>
			<polygon class="st45" points="143.7,72.6 143.4,70.98 139.55,71.91 137.83,70.81 137.45,72.06 138.3,73.72 139.46,73.09 
				140.06,73.85 			"/>
			<polygon class="st23" points="140.29,76.07 136.2,75.27 137.56,71.47 140.86,72.61 			"/>
			<path class="st32" d="M140.06,73.93c-0.01,0-0.03-0.01-0.03-0.02l-0.58-0.73l-1.13,0.61c-0.01,0.01-0.02,0.01-0.03,0
				c-0.01,0-0.02-0.01-0.03-0.02l-1.02-2.11c-0.01-0.02,0-0.05,0.02-0.06c0.02-0.01,0.05,0,0.06,0.02l1,2.07l1.12-0.61
				c0.02-0.01,0.04-0.01,0.06,0.01l0.58,0.73l3.61-1.23c0.02-0.01,0.05,0,0.06,0.03c0.01,0.02,0,0.05-0.03,0.06l-3.64,1.24
				C140.07,73.93,140.07,73.93,140.06,73.93z"/>
			<polygon class="st45" points="143.69,72.6 144.33,71.03 143.4,70.98 			"/>
			<path class="st32" d="M135.39,80.06c-0.01,0-0.02,0-0.02-0.01c-0.02-0.01-0.03-0.04-0.02-0.06l3.3-5.49
				c0.01-0.02,0.04-0.03,0.06-0.02c0.02,0.01,0.03,0.04,0.02,0.06l-3.3,5.49C135.42,80.05,135.4,80.06,135.39,80.06z"/>
		</g>
		<g>
			<path class="st37" d="M80.32,145.24L80.32,145.24c-0.43,0.03-0.79-0.37-0.83-0.9l-2.64-36.58l3.83-0.31l0.38,36.79
				C81.06,144.76,80.74,145.21,80.32,145.24z"/>
			<g>
				<path class="st38" d="M118,96.02c-3.89-5.01-19.77-8.77-38.77-8.77c-18.67,0-34.33,3.62-38.56,8.5l-1.12,0.66l0.03,2.47
					c0.49,3.21,5.8,6.06,13.93,8.01l-3.59,40.63c-0.05,0.59,0.3,1.12,0.8,1.19c0.48,0.06,0.91-0.34,0.98-0.91l5.13-40.2
					c6.37,1.23,14.09,1.94,22.4,1.94c8.03,0,15.51-0.67,21.76-1.82l5.74,40.1c0.08,0.59,0.55,0.98,1.04,0.88
					c0.47-0.1,0.8-0.62,0.74-1.2l-4.2-40.46c8.5-1.95,14.07-4.87,14.57-8.16l0.04-2.56L118,96.02z"/>
				<ellipse class="st32" cx="79.22" cy="96.6" rx="39.69" ry="9.36"/>
			</g>
		</g>
		<g>
			<g>
				<g>
					<path class="st46" d="M115.73,88.82l-0.43,5.04c-0.1,1.16-1.12,2.02-2.28,1.92l-1.8-0.15c-1.16-0.1-2.02-1.12-1.92-2.28
						l0.49-5.68l5.99,0.51L115.73,88.82z"/>
				</g>
				<g>
					<g>
						<path class="st46" d="M108.47,93.66l0.99,0.09l0.07-0.85l-0.99-0.09c-0.47-0.04-0.82-0.46-0.78-0.93l0.07-0.85
							c0.04-0.47,0.46-0.82,0.93-0.78l1.28,0.11l0.07-0.85l-1.28-0.11c-0.94-0.08-1.77,0.62-1.85,1.56l-0.07,0.85
							C106.83,92.75,107.53,93.58,108.47,93.66z"/>
					</g>
				</g>
				<path class="st42" d="M108.95,91.23c0.14,0.21,2.01,1.72,2.01,1.72s1.65,0.77,2.19,0.92c0,0,0.28,0.24-0.38,0.16
					c-0.26-0.03-1.18-0.35-1.18-0.35s-2.26-1.38-2.85-0.79c-0.18,0.18,2.65,1.71,2.65,1.71s2.23,0.55,2.85,0.74
					c1.16,0.36,2.5,0.23,7.3-0.31c0.52-0.08,1.68-2.2,0.22-3.98c-1.68,0.62-3.02,0.15-3.02,0.15l-3.35-1.37c0,0-2.34-0.83-3.27,0.21
					c-0.4,0.45,1.04,0.33,1.32,0.41c0.27,0.08,0.54,0.16,0.72,0.38c-0.75,0.09-1.11,0.03-1.84-0.17c-1.6-0.47-2.37-0.69-2.65-0.53
					c-0.32,0.19,0.6,0.92,2.26,1.59c0.68,0.27,1.4,0.28,1.68,0.43c0.14,0.08,0.08,0.17-0.1,0.22c-0.31,0.1-1.02,0.1-1.74-0.19
					c-0.65-0.26-1.68-1.01-2.37-1.36C108.26,90.26,108.83,91.06,108.95,91.23z"/>
			</g>
			<g>
				<path class="st40" d="M135.42,89.39c0,0-15.06,1.18-15.63,1.29c-0.31,0.91-0.2,3.68-0.16,4.81c0.02,0.49,15.03,1.48,17.71,0.97
					c2.93-0.56,10.3-8.66,12.01-11.39c1.43-2.29,4.49-8.13,3.73-10.69c-0.46-1.54-2.85-3.29-4.15-2.88
					C143.74,73.11,135.42,89.39,135.42,89.39z"/>
			</g>
		</g>
		<g>
			<g>
				<path class="st40" d="M44.41,90.47l-0.03,5.06c-0.01,1.16,0.93,2.11,2.09,2.12l1.8,0.01c1.16,0.01,2.11-0.93,2.12-2.09l0.04-5.7
					l-6.01-0.04L44.41,90.47z"/>
			</g>
			<g>
				<g>
					<path class="st40" d="M51.2,95.96l-1-0.01l0.01-0.86l1,0.01c0.47,0,0.86-0.38,0.86-0.85l0.01-0.86c0-0.47-0.38-0.86-0.85-0.86
						l-1.28-0.01l0.01-0.86l1.28,0.01c0.94,0.01,1.71,0.78,1.7,1.72l-0.01,0.86C52.91,95.2,52.14,95.96,51.2,95.96z"/>
				</g>
			</g>
		</g>
	</g>
	
		<g id="Lines_00000170250545330298500640000014150283781611502244_" style="clip-path:url(#SVGID_00000090285600542298756610000017878069408384291204_);">
		<g id="Lines_00000034074813294653220910000017096606238378068117_">
			<g>
				<path class="st40" d="M105.45,64.42c-0.09-0.14-0.05-0.32,0.09-0.41l3-2.12c0.14-0.09,0.32-0.05,0.41,0.09
					c0.08,0.13,0.05,0.31-0.08,0.4l-3.02,2.13C105.72,64.59,105.54,64.56,105.45,64.42L105.45,64.42z"/>
			</g>
			<g>
				<path class="st40" d="M102.97,62.35c-0.06-0.08-0.07-0.19-0.02-0.29l1.58-3.41c0.07-0.15,0.24-0.21,0.39-0.14
					c0.15,0.07,0.21,0.24,0.14,0.39l-1.58,3.41c-0.07,0.15-0.24,0.21-0.39,0.14C103.04,62.44,103,62.4,102.97,62.35z"/>
			</g>
			<g>
				<path class="st40" d="M106.56,67.45c-0.03-0.04-0.04-0.09-0.05-0.13c-0.02-0.16,0.1-0.31,0.26-0.32c0,0,0,0,0,0l3.73-0.33
					c0.16-0.01,0.31,0.11,0.32,0.27c0,0,0,0,0,0c0.02,0.16-0.1,0.31-0.26,0.32l-3.73,0.33C106.73,67.59,106.62,67.54,106.56,67.45z"
					/>
			</g>
		</g>
	</g>
</g>
</svg>
