<?xml version="1.0" encoding="utf-8"?>
<!-- Generator: Adobe Illustrator 27.1.0, SVG Export Plug-In . SVG Version: 6.00 Build 0)  -->
<svg version="1.1" id="Layer_1" xmlns="http://www.w3.org/2000/svg" xmlns:xlink="http://www.w3.org/1999/xlink" x="0px" y="0px"
	 viewBox="0 0 377.36 235.39" style="enable-background:new 0 0 377.36 235.39;" xml:space="preserve">
<style type="text/css">
	.st0{fill:url(#SVGID_1_);}
	.st1{fill:url(#SVGID_00000112619457356185909840000009359602937141470865_);}
	.st2{fill:url(#SVGID_00000050652359200066694280000017983733141064459694_);}
	.st3{fill:url(#SVGID_00000061456880947676317690000004164782609931279752_);}
</style>
<g>
	<linearGradient id="SVGID_1_" gradientUnits="userSpaceOnUse" x1="4.7909" y1="117.2707" x2="371.4623" y2="117.2707">
		<stop  offset="0" style="stop-color:#FFB782"/>
		<stop  offset="1" style="stop-color:#FF8E3A"/>
	</linearGradient>
	<path class="st0" d="M364.54,80.75l-14.49,0.21c-0.38-0.07-0.78-0.11-1.19-0.11l-12.94,0.13c3.25-6.19,6.86-14.76,5.56-19.12
		c-0.92-3.07-5.2-6.49-8.23-6.66c-3.63-0.86-8.79-0.96-11.62-0.94l0,0l-2.04-0.11l1.91-11.5c1.09-1.14,2.08-2.47,2.88-4.03
		c0.16,0.08,0.32,0.14,0.49,0.17c1.42,0.31,2.89-0.84,3.28-2.59c0.14-0.64,0.11-1.27-0.04-1.83c0.51-0.85,0.79-1.6,0.79-1.6
		s1.96,0.11,2.93-1.79c1.15-2.24-0.03-3.46-0.03-3.46s1.86-1.4,2.11-4.05c0.25-2.66-2.3-2.79-2.3-2.79
		c0.24-6.57-4.81-6.36-4.81-6.36c-1.34-2.75-4.27-2.02-4.27-2.02c-2.36-5.6-7.5-2.56-7.5-2.56s-3.42-1.23-8.29,0.8
		c-0.94,0.39-1.66,0.91-2.21,1.5c-2.67,2.04-3.92,4.99-2.92,7.3c-1.5,2.28,0.41,4.66,0.41,4.66c-2.44,4.11,0.44,7.36,1.88,8.64
		c-1.14,7.3,1.14,14.66,4.45,15.39c0.24,0.05,0.51,0.09,0.8,0.1l-1.43,3.9c0,0-0.32,0.72-0.74,1.79l-0.09-0.06l-0.12,0.38
		c-1.17,0.01-7.47,0.09-9.54,0.53c-10.56,1.32-24.63,10.89-39.14,17.13c0,0-23.74-20.18-25-20.51c-0.09,0.08-0.19,0.17-0.29,0.27
		c-1.05-1.07-1.85-1.95-1.91-2.18c-0.15-0.59,0.65-0.57-0.4-5.21c-0.3-1.34-1.63-2.82-1.63-2.82s-1.65-1.81-2.15-1.56
		c-0.51,0.25-0.65,0.96-0.47,1.4c0.18,0.44,0.91,1.08,1.09,1.52c0.18,0.44-0.35,1.78-0.71,2.15c-0.36,0.37-5.04-5.11-5.04-5.11
		s-1.27-1.63-1.65-2.21c-0.33-0.49-1.19-2.03-1.19-2.03s-1.35-2.12-1.96-1.7c-0.36,0.25,0.34,2.44,1.34,4.46
		c1.08,2.17,2.49,4.17,2.32,4.32c-0.41,0.36-3.04-2.59-3.04-2.59s-0.94-1.66-1.56-2.24c-0.41-1.11-1.58-2.71-2.28-2.14
		c-0.13,0.1,0.86,2.71,0.86,2.71s0.94,1.55,1.34,2.32c0.71,1.35,2.28,2.97,2.83,3.85c0.46,0.73,0.09,0.64,0.06,0.73
		c-0.02,0.07-0.77-0.81-1.8-2c-0.52-0.6-1.23-1.16-1.74-1.95c-0.47-0.73-1.25-1.64-1.73-2.18c-1.36-1.52-2.03-0.44-0.97,1.18
		c0.4,0.62,0.84,1.28,1.29,1.96c1.75,2.63,3.87,4.65,3.68,4.91c-0.25,0.34-3.91-3.59-3.91-3.59s-2.54-1.58-0.98,0.81
		c1.81,2.77,3.73,4.52,3.81,4.59c0.6,0.49,2.24,2.84,4.58,4.22c2.34,1.38,6.13,3.46,6.13,3.46c0.32,0.36,1.05,1.17,2.07,2.27
		c-0.23,0.79-0.38,1.51-0.41,2.06c-0.07,1.11,22.02,28.22,28.01,29.78c2.63,0.68,8.74-0.18,15.39-1.66
		c-1.96,3.31-3.85,6.56-5.61,9.62c-0.21,0.02-0.38,0.04-0.44,0.05c-0.1,0.3-0.18,0.69-0.24,1.14c-0.07,0.12-0.14,0.24-0.21,0.36
		c-1.2-0.09-1.94-0.35-1.94-0.35l-7.03-2.87l0.21-2.49l0.12-1.45l-13.57-1.16l-0.35,4.07l-1.83-0.16c-1.3-0.11-2.51,0.44-3.29,1.37
		C221.64,93.4,199.08,91,174.14,91c-25.68,0-48.85,2.54-65.23,6.61l0-0.66L95.3,96.87l-0.01,1.45l-0.02,3.49
		c-0.35-0.01-0.54-0.02-0.54-0.02c-0.79-0.05-1.54-0.12-2.24-0.17c-0.17-3.15,0.05-11.69-0.25-20.55c1-1.52,1.43-3.2,1.48-4.96
		c0.63,0.28,1.18,0.14,1.05-1.28c-0.28-3.16,1.46-3.94,3.37-7.3c1.92-3.35-0.65-7.14-0.65-7.14c-1.31-1.05-0.91-3.16-0.1-4.62
		c0.81-1.46,2.02-2.84,2.04-4.52c0.05-3.26-4.3-5.44-3.97-8.68c0.23-2.34,2.88-3.93,3-6.27c0.09-2.06-1.77-3.65-2.47-5.59
		c-0.82-2.26,0.01-4.72,0.34-7.1c0.4-2.94,0.02-5.9-1.03-8.62c-0.03-0.43-0.09-0.86-0.22-1.28c-0.54-2.25-1.6-4.35-3.1-6.13
		c-1.51-1.78-3.62-2.94-5.93-3.26c-2.09-0.26-4.16,0.44-5.67,1.87c-2.07-2.88-6.73-1.88-9.77-0.83c-3.12,1.08-5.45,4.67-6.38,7.84
		c-0.51,1.75-0.47,3.68-1.32,5.29c-0.9,1.75-2.68,2.86-3.8,4.48c-0.17,0.25-0.31,0.51-0.44,0.77c-3.39,4.09,0.18,10.09-2.39,14.03
		c-1.62,2.49-5.11,3.69-5.84,6.56c-0.37,1.42,0.05,2.92,0.27,4.37c0.22,1.45,0.17,3.12-0.89,4.15c-0.53,0.42-1.09,0.8-1.68,1.15
		c-1.63,1.2-2.19,3.44-2,5.45c0.18,2.02,0.97,3.92,1.53,5.87c1.27,4.56,1.25,9.37-0.01,13.9l-20.27-0.21c-0.41,0-0.8,0.04-1.19,0.11
		l-14.49-0.21c-4.47-0.05-8.66,6.34-6.19,14.54l18.53,54.72l-0.01,0l5.11,16.41l0.02,0c1.12,3.66,4.34,6.49,8.37,7.31L17.4,227.93
		l5.3,0l20.07-55.8H76.5l-20.06,55.8l5.34,0l20.04-55.8h14.46l4.46,12.4c-2.43,4.41-4.12,7.38-4.37,7.53
		c-2.87,0.05-7.93,0.94-7.93,1.48l4.22,24.44c0.95,3.16,2.54,3.13,2.95,2.71c0.73-0.76,1.12-5.81,1.27-9.55l8.25,17.02
		c0,0,1.2,0.17,2.7,0.3c0.22,0.94,0.89,1.67,1.74,1.78c0.95,0.12,1.82-0.57,2.13-1.62c0.98-0.04,1.76-0.17,2.02-0.46
		c0.58-0.65-0.48-1.4-1.62-2.36l0.92-7.2l3.36,9.33l5.73-0.01l-7.62-20.81l1.03-8.03c3.09-6.94,7.46-16.88,11.56-26.97h0.21
		l20.09,55.82l5.73-0.01l-20.5-55.99c5.67-0.93,9.99-5.84,9.99-11.78c0-4.7-2.72-8.75-6.66-10.7c1.97-3.53,3.64-6.84,4.84-9.72
		c8.82,0.99,18.33,1.6,28.27,1.75l3.44,47.68c-3.75-0.2-7.01-0.3-8.68,0.26c-0.68,0.23-1.48,0.64-0.41,1.76
		c1.7,1.79,5.57,4.34,9.73,6.75l1.62,22.39c0.09,1.22,0.93,2.12,1.89,2.05c0.95-0.08,1.68-1.08,1.67-2.28l-0.2-19.41
		c4.17,2.19,7.89,3.87,9.24,4.09c4.37,0.71,4.51-9.02,4.51-9.02s-0.01,0-0.02-0.01c0.33-0.72,1.04-1.9,1.86-3.16
		c0.8,0.37,1.61,0.73,2.42,1.1c5.84-8.68,14.67-24.05,21.53-37.18c1.16,27.08,3.75,58.81,3.75,58.81c0.75,0.1,1.51,0.16,2.26,0.24
		l-0.27,3.17l-2.04,1.22c-0.02,0-0.03,0-0.03,0s-5.38,2.03-7.11,2.89c-3.84,1.91-7.34,3.12-8.59,5.08c-0.4,0.63-0.41,1.18,1.05,1.46
		c3.81,0.73,24.42,1.32,27.13,0.35c4.21-1.51-0.64-10.26-0.64-10.26s-0.01,0-0.02,0c0-0.41,0.03-0.99,0.09-1.64l0.64-1.78
		c0.28,0,0.56,0.01,0.85,0.01l1.75,12.2c0.19,1.33,1.24,2.22,2.35,1.99c1.07-0.22,1.81-1.42,1.67-2.71l-2.4-23.18l10.94-30.38h14.58
		c0.11,0,0.22,0.02,0.34,0.02h10.69l-20.43,55.8l5.73,0.01l20.09-55.81h14.46l20.04,55.8l5.34,0l-20.06-55.8h33.73l20.07,55.8l5.3,0
		l-20.15-56.05c4.03-0.82,7.25-3.65,8.37-7.31l0.02,0l5.11-16.41l-0.01,0l18.53-54.72C373.2,87.09,369.01,80.7,364.54,80.75z
		 M84.4,108.04c0.01,0.02,0.01,0.04,0.02,0.06c0.15,0.4,0.4,0.77,0.72,1.1c-0.03,0.06-0.07,0.12-0.1,0.17
		c-0.29-0.07-0.57-0.14-0.86-0.2c0.05-0.43,0.1-0.86,0.15-1.31C84.35,107.92,84.38,107.99,84.4,108.04z M102.63,204.92
		c-1.82,0.46-3.24,1.04-4.31,1.6c1.36-2.88,3.46-7.06,5.3-9.4c0.2-0.25,0.47-0.61,0.81-1.04c-0.89,5.14-1.54,8.58-1.74,8.79
		C102.66,204.89,102.65,204.91,102.63,204.92z M238.21,177.4c0.18-2.01,0.34-3.88,0.48-5.66c1.45,1.03,3.14,1.75,4.97,2.05
		l-6.26,17.11C237.68,185.19,237.96,180.09,238.21,177.4z M239.69,151.64c0-0.96-0.01-1.46-0.01-1.46c0.46,0.11,1.18,0.29,2.08,0.53
		C241.03,150.95,240.34,151.27,239.69,151.64z M241.05,97.82l1.83,0.16l-0.05,0.55c-0.79-0.22-1.59-0.44-2.42-0.65
		C240.62,97.83,240.83,97.8,241.05,97.82z M80.5,6.12c-0.03,0.04-0.06,0.08-0.09,0.12c0-0.01-0.01-0.01-0.01-0.02L80.5,6.12z
		 M101.66,172.13h5.85c-1.21,2.22-2.39,4.38-3.5,6.42L101.66,172.13z M183.47,190.2l-2.33,0.05c-0.02-0.01-0.03-0.02-0.03-0.02
		s-1.45-0.23-3.13-0.48l-0.49-48.24c8.14-0.08,15.99-0.47,23.44-1.13c-6.88,16.35-13.7,34.13-17.91,44.77
		c0.67,0.81,1.39,1.52,2.12,2.18L183.47,190.2z"/>
	
		<linearGradient id="SVGID_00000111887726299620295620000012866532139454605747_" gradientUnits="userSpaceOnUse" x1="234.0041" y1="31.8959" x2="242.1383" y2="31.8959">
		<stop  offset="0" style="stop-color:#FFB782"/>
		<stop  offset="1" style="stop-color:#FF8E3A"/>
	</linearGradient>
	<path style="fill:url(#SVGID_00000111887726299620295620000012866532139454605747_);" d="M234.11,34.68
		c0.21,0.29,0.6,0.37,0.9,0.18l6.84-4.82c0.29-0.21,0.36-0.6,0.17-0.9c-0.2-0.31-0.61-0.4-0.92-0.21l-6.8,4.8
		c-0.31,0.2-0.4,0.61-0.21,0.92L234.11,34.68z"/>
	
		<linearGradient id="SVGID_00000039091841680587590760000002158990155687521667_" gradientUnits="userSpaceOnUse" x1="228.3849" y1="25.7447" x2="233.2904" y2="25.7447">
		<stop  offset="0" style="stop-color:#FFB782"/>
		<stop  offset="1" style="stop-color:#FF8E3A"/>
	</linearGradient>
	<path style="fill:url(#SVGID_00000039091841680587590760000002158990155687521667_);" d="M228.77,30.21
		c0.33,0.16,0.73,0.01,0.89-0.32l3.57-7.72c0.15-0.34,0.01-0.73-0.33-0.89c-0.34-0.15-0.73-0.01-0.89,0.33l-3.57,7.72
		c-0.1,0.21-0.08,0.45,0.05,0.65C228.56,30.08,228.66,30.16,228.77,30.21z"/>
	
		<linearGradient id="SVGID_00000023994838134658095960000015195503549872291987_" gradientUnits="userSpaceOnUse" x1="236.5217" y1="40.7782" x2="246.3004" y2="40.7782">
		<stop  offset="0" style="stop-color:#FFB782"/>
		<stop  offset="1" style="stop-color:#FF8E3A"/>
	</linearGradient>
	<path style="fill:url(#SVGID_00000023994838134658095960000015195503549872291987_);" d="M237.12,40.49
		c-0.37,0.04-0.64,0.36-0.6,0.73c0.01,0.11,0.05,0.21,0.11,0.3c0.13,0.2,0.37,0.32,0.62,0.3l8.45-0.75c0.37-0.04,0.63-0.36,0.6-0.73
		c0,0,0,0,0,0c-0.03-0.37-0.36-0.64-0.72-0.61L237.12,40.49C237.13,40.49,237.13,40.49,237.12,40.49z"/>
</g>
</svg>
