<?xml version="1.0" encoding="utf-8"?>
<!-- Generator: Adobe Illustrator 27.1.0, SVG Export Plug-In . SVG Version: 6.00 Build 0)  -->
<svg version="1.1" id="Layer_1" xmlns="http://www.w3.org/2000/svg" xmlns:xlink="http://www.w3.org/1999/xlink" x="0px" y="0px"
	 viewBox="0 0 175 175" style="enable-background:new 0 0 175 175;" xml:space="preserve">
<style type="text/css">
	.st0{display:none;}
	.st1{display:inline;fill:#FFFFFF;}
	.st2{fill:#FFFFFF;stroke:#6700AD;stroke-width:6;stroke-miterlimit:10;}
	.st3{display:inline;}
	.st4{clip-path:url(#SVGID_00000163051069818519653720000018094698643264294069_);}
	.st5{clip-path:url(#SVGID_00000051348105980404233730000011344325668826572988_);}
	.st6{fill:#B78876;}
	.st7{fill:#FFCD05;}
	.st8{fill:#FDB71E;}
	.st9{opacity:0.5;fill:#46494C;enable-background:new    ;}
	.st10{fill:#010101;}
	.st11{fill:#966E63;}
	.st12{clip-path:url(#SVGID_00000020383999914251042090000000119831392133596823_);}
	.st13{fill:#46494C;}
	.st14{fill:#9A6F2A;}
	.st15{fill:#FBBD9E;}
	.st16{fill:#EC9A6F;}
	.st17{fill:#F7A7A8;}
	.st18{clip-path:url(#SVGID_00000148621984031376371050000005799528839485016498_);}
	.st19{fill:#EEEEEF;}
	.st20{clip-path:url(#SVGID_00000066507468460737042200000015293332049516253571_);}
	.st21{clip-path:url(#SVGID_00000106850413995061761340000006854822411471836547_);}
	.st22{fill:#45484B;}
	.st23{fill:#FFFFFF;}
	.st24{fill:#7FB936;}
	.st25{fill:#B16668;}
	.st26{fill:#263238;}
	.st27{fill:#C8856A;}
	.st28{fill:#AF6152;}
	.st29{fill:#F28F8F;}
	.st30{fill:#FFA8A7;}
	.st31{fill:#5F8B29;}
	.st32{fill:#EDEEEF;}
	.st33{fill:#492B00;}
	.st34{display:inline;fill:none;stroke:#7FB936;stroke-width:6;stroke-miterlimit:10;}
	.st35{fill:#565656;}
	.st36{fill:#6700AD;}
	.st37{opacity:0.2;}
	.st38{fill:#FFBF9D;}
	.st39{fill:#FCB295;}
	.st40{fill-rule:evenodd;clip-rule:evenodd;fill:#EDEEEF;}
	.st41{fill:#7A7A7C;}
	.st42{fill:#1C1C1C;}
	.st43{fill:#E0A58C;}
	.st44{fill:#FF9A6C;}
	.st45{fill:#455A64;}
	.st46{fill:#AE7461;}
	.st47{fill:#6F4439;}
	.st48{fill:#717171;}
</style>
<g class="st0">
	<circle id="SVGID_1_" class="st1" cx="87.05" cy="87.25" r="82.81"/>
</g>
<g>
	<circle id="SVGID_00000132070845494499653930000004028124833565880500_" class="st2" cx="87.05" cy="87.25" r="82.81"/>
</g>
<g class="st0">
	<g class="st3">
		<defs>
			<circle id="SVGID_00000018936390710170688440000004189937736706387120_" cx="87.05" cy="87.25" r="82.81"/>
		</defs>
		<clipPath id="SVGID_00000146464539286043935780000012982893176930791304_">
			<use xlink:href="#SVGID_00000018936390710170688440000004189937736706387120_"  style="overflow:visible;"/>
		</clipPath>
		<g style="clip-path:url(#SVGID_00000146464539286043935780000012982893176930791304_);">
			<g>
				<g>
					<defs>
						<circle id="SVGID_00000162313396684968366350000011434543155223659417_" cx="87.05" cy="87.25" r="82.81"/>
					</defs>
					<clipPath id="SVGID_00000116199484801830255660000006590225303560037506_">
						<use xlink:href="#SVGID_00000162313396684968366350000011434543155223659417_"  style="overflow:visible;"/>
					</clipPath>
					<g style="clip-path:url(#SVGID_00000116199484801830255660000006590225303560037506_);">
						<polygon class="st6" points="82.64,135.2 64.43,158.55 53.17,157.66 69.82,132.79 						"/>
						<polygon class="st6" points="77.98,110.46 82.64,135.2 72.18,144.7 65.87,113.54 						"/>
						<polygon class="st6" points="14.12,110.84 8.34,136.05 20.57,136.08 26.23,113.92 						"/>
						<path class="st7" d="M64.29,98.5l0.31,53.03H26.88l0.26-36.79l-15.39-4.5c0,0,6-20.44,7.83-23.31
							C21.4,84.06,36,77.71,36,77.71s13.68-1.21,14.45-0.83c0,0,17.56,5.56,20.4,8.74c2.84,3.17,10.17,25.23,10.17,25.23
							l-16.73,3.31V98.53"/>
						<path class="st8" d="M64.3,98.53"/>
						<path class="st9" d="M27.21,121.08c-0.05,0-0.1-5.34-0.1-11.92s0.05-11.92,0.1-11.92c0.05,0,0.1,5.33,0.1,11.92
							S27.27,121.08,27.21,121.08z"/>
						<path class="st9" d="M64.3,121.3c-0.05,0-0.1-5.34-0.1-11.92s0.05-11.92,0.1-11.92s0.1,5.33,0.1,11.92
							C64.39,115.97,64.35,121.3,64.3,121.3z"/>
						<path class="st6" d="M32.32,56.35l3.86,22.38c0.67,3.92,4.39,6.56,8.31,5.89c0.02,0,0.04-0.01,0.05-0.01l0,0
							c3.67-0.66,6.24-4.01,5.91-7.73c-0.18-1.99-0.33-3.63-0.33-3.63s5.61-1.44,5.12-7.13c-0.24-2.75-1.18-8.39-2.09-13.48
							c-0.98-5.46-6-9.25-11.52-8.71l-0.55,0.05c-5.77,0.9-9.72,6.32-8.81,12.09C32.29,56.17,32.3,56.26,32.32,56.35z"/>
						<path class="st10" d="M51.44,56.14c0.05,0.56-0.26,1.07-0.7,1.14c-0.42,0.1-0.83-0.26-0.9-0.79c0-0.01,0-0.02,0-0.03
							c-0.05-0.56,0.26-1.07,0.7-1.14c0.42-0.1,0.83,0.26,0.9,0.79C51.44,56.12,51.44,56.13,51.44,56.14z"/>
						<path class="st10" d="M42.88,57.41c0.04,0.56-0.27,1.06-0.71,1.14c-0.42,0.1-0.83-0.26-0.91-0.8c0-0.01,0-0.01,0-0.02
							c-0.05-0.56,0.26-1.06,0.7-1.14C42.39,56.49,42.79,56.86,42.88,57.41C42.88,57.4,42.88,57.4,42.88,57.41z"/>
						<path class="st10" d="M43.52,53.09c-0.06,0.25-0.95,0.22-1.96,0.44c-1.01,0.23-1.82,0.59-1.97,0.38
							c-0.07-0.09,0.05-0.33,0.38-0.6c0.42-0.33,0.91-0.56,1.43-0.66c0.52-0.11,1.06-0.1,1.57,0.03
							C43.34,52.81,43.54,52.98,43.52,53.09z"/>
						<path class="st10" d="M51.64,53.04c-0.14,0.21-0.75,0.07-1.5,0.13s-1.32,0.27-1.5,0.07c-0.07-0.09,0-0.3,0.26-0.52
							c0.34-0.27,0.75-0.42,1.17-0.44c0.43-0.03,0.85,0.06,1.22,0.29C51.59,52.74,51.7,52.94,51.64,53.04z"/>
						<path class="st10" d="M37.89,49.51l-0.03,0.03c-0.84,0.8-1.33,1.9-1.38,3.05c0,0.04,0,0.08,0,0.12
							c-0.06,1.65,0.14,3.3,0.06,4.94c-0.08,1.64-0.48,3.35-1.57,4.58c-0.45,0.51-1.29,0.91-1.75,0.41
							c-0.16-0.21-0.26-0.46-0.28-0.72c-0.68-3.89-2.09-7.26-2.48-11.36c-0.11-1.11,0.32-2.21,1.16-2.95
							c0.8-0.7,1.78-1.44,2.78-1.08c1,0.36,2.41,2.02,3.22,2.71"/>
						<path class="st6" d="M34.49,58.74c-0.1-0.03-4.02-0.77-3.52,3.1c0.29,2.23,1.66,2.75,2.78,2.76c0.83,0.01,1.51-0.25,1.51-0.3
							C35.25,64.19,34.49,58.74,34.49,58.74z"/>
						<path class="st11" d="M35.06,64.61c0,0,1.66,10.55,15.4,8.53l-0.14,1.74c0,0-11.82,1.97-15.67-4.96l-0.91-5.32L35.06,64.61z"
							/>
						<path class="st10" d="M57.66,45.65c0-1.32-1.07-2.38-2.38-2.38c-0.14,0-0.28,0.02-0.42,0.04c-0.02-0.19-0.06-0.38-0.15-0.55
							c-0.46-0.74-1.3-1.17-2.18-1.1c-0.33,0.03-0.66,0.1-0.98,0.18c-0.43-0.63-1.15-1.04-1.97-1.04c-0.65,0-1.25,0.26-1.68,0.69
							c-0.43-0.43-1.02-0.69-1.68-0.69c-0.79,0-1.48,0.39-1.91,0.98c-0.43-0.59-1.13-0.98-1.91-0.98c-0.91,0-1.69,0.52-2.1,1.27
							c-1.01-0.08-2-0.03-2.83,0.32c-1.86,0.79-4.29,3.28-3.16,4.75H34.3c-0.07,0.74-0.03,1.49,0.14,2.22
							c0.18,0.73,0.7,1.34,1.4,1.63c0.73,0.24,1.44-1.32,2.63-1.88c1.61-0.75,4.51,0.06,6.23,0.51c1.73,0.45,3.37,1.17,5.1,1.58
							c1.73,0.4,3.65,0.45,5.2-0.42c0.61-0.34,1.19-0.91,1.19-1.61c0-0.39-0.29-0.75-0.64-0.91c0.19-0.06,0.37-0.14,0.53-0.25
							c0.12-0.08,0.22-0.17,0.31-0.27C57.15,47.33,57.66,46.56,57.66,45.65z"/>
						<path class="st10" d="M58.12,67.52c0-0.89-0.37-1.69-0.96-2.26c0.04-0.21,0.07-0.43,0.07-0.65c0-1.74-1.41-3.15-3.15-3.15
							c-0.64,0-1.24,0.2-1.74,0.53c-0.43-0.21-0.9-0.35-1.41-0.35c-1.08,0-2.03,0.54-2.6,1.37c-0.56-0.52-1.31-0.85-2.14-0.85
							c-0.79,0-1.49,0.3-2.05,0.77c-1.95,0.45-3.19,2.16-3.19,2.16c-2.34,0-4.26-1.87-4.31-4.22l-0.09-3.88l-1.9,1.05
							c-0.52,7.24,2.03,10.41,2.03,10.41c-0.01,2.48,1.66,3.85,2.98,4.54c0.22,1.16,1.23,2.03,2.45,2.03c0.4,0,0.77-0.1,1.11-0.27
							c0.56,0.85,1.53,1.42,2.63,1.42c0.81,0,1.54-0.31,2.1-0.81c0.02,0,0.04,0,0.06,0c0.51,0.35,1.12,0.56,1.79,0.56
							c1.21,0,2.25-0.69,2.78-1.7c0.23,0.05,0.47,0.09,0.72,0.09c1.74,0,3.15-1.41,3.15-3.15c0-0.28-0.05-0.54-0.11-0.8
							C57.38,69.85,58.12,68.77,58.12,67.52z"/>
						<path class="st10" d="M47.1,55.66c0.83,1.41,1.86,3.07,1.55,4.77c-0.17,0.04-0.34,0.06-0.51,0.09
							c0.15-0.06,0.31-0.13,0.46-0.18l-0.03,0.03C48.73,58.71,47.76,57.14,47.1,55.66L47.1,55.66z"/>
						<rect x="26.88" y="151.53" class="st10" width="37.52" height="26.47"/>
					</g>
				</g>
			</g>
			<g>
				<g>
					<defs>
						<circle id="SVGID_00000158724245122021686140000000568964887159918514_" cx="87.05" cy="87.25" r="82.81"/>
					</defs>
					<clipPath id="SVGID_00000147182742347593134430000016806216377958522542_">
						<use xlink:href="#SVGID_00000158724245122021686140000000568964887159918514_"  style="overflow:visible;"/>
					</clipPath>
					<g style="clip-path:url(#SVGID_00000147182742347593134430000016806216377958522542_);">
						<path class="st7" d="M114.05,120.86l11.11-18.52l-7.09-17.7c-0.68,0.35-13.67,26.15-16.36,30.24
							c-0.12,0.19-0.59,1.62-1.02,3.02c-0.54,1.76-0.26,3.66,0.77,5.18l16.07,25.16l1.36-17.76L114.05,120.86z"/>
						<rect x="117.28" y="143.61" class="st13" width="40.21" height="35.92"/>
						<path class="st14" d="M131.06,71.55l-3.33-0.17c0.64-1.88,1.13-4.16,1.37-6.64c0.65-6.78-0.82-12.46-3.28-12.7
							c-2.46-0.24-4.98,5.07-5.63,11.85c-0.4,4.17,0,7.93,0.95,10.25c0.46,1.13,0.21,2.46-0.69,3.29c-0.01,0.01-0.01,0.01-0.02,0.02
							c-1.14,1.01-2.63,1.6-3.68,2.71c-1.32,1.51-1.76,3.6-1.14,5.51c0.64,1.88,2.03,3.42,3.84,4.26c2.47,1.15,5.34,1.06,7.73-0.26
							c2.9-1.64,4.59-4.93,5.02-8.24C132.62,78.12,131.95,74.77,131.06,71.55z"/>
						<path class="st7" d="M124.86,81.37l6.52,0.49l9.03,1.4c0,0,15.84,4.16,15.84,5.9c0,0.58-4.32,14.35-6.76,22.6
							c-0.6,2-1.08,4.04-1.46,6.09l9.45,25.82l-40.21-0.11v-24.19c0,0-2.63-21.89-2.17-24.88c0.29-1.86,1.04-6.05,2.68-9.36
							C118.83,83.01,122.51,81.19,124.86,81.37z"/>
						<path class="st7" d="M116.93,93.07c-1.35,1.73-2.37,3.7-2.98,5.81c-0.61,2.12-0.54,4.38,0.19,6.46
							c1.16,2.93,3.77,5.04,6.88,5.55"/>
						<path class="st9" d="M119.65,111.12c-0.06-0.02-0.11-0.06-0.17-0.09l-0.44-0.29c-0.38-0.26-0.93-0.64-1.59-1.15
							c-0.77-0.59-1.48-1.27-2.11-2.02c-0.77-0.92-1.33-2.01-1.63-3.17c-0.29-1.17-0.36-2.37-0.22-3.57
							c0.12-0.97,0.33-1.92,0.64-2.84c0.21-0.62,0.45-1.23,0.72-1.83c0.1-0.21,0.17-0.38,0.23-0.48c0.02-0.06,0.06-0.11,0.09-0.17
							c-0.07,0.23-0.15,0.46-0.25,0.68c-0.17,0.43-0.41,1.05-0.66,1.84c-0.29,0.92-0.49,1.86-0.59,2.82
							c-0.13,1.17-0.05,2.35,0.23,3.5c0.29,1.14,0.83,2.2,1.58,3.11c0.61,0.74,1.3,1.42,2.05,2.02c0.64,0.53,1.17,0.92,1.55,1.2
							l0.42,0.32C119.61,111.07,119.65,111.11,119.65,111.12z"/>
						<path class="st9" d="M140.91,114.83c-0.05,0.03-0.11,0.05-0.17,0.06c-0.11,0.03-0.27,0.09-0.49,0.13
							c-0.6,0.13-1.22,0.21-1.84,0.22c-4.22,0.13-8.09-2.32-9.78-6.19c-0.25-0.57-0.45-1.15-0.59-1.76
							c-0.05-0.21-0.07-0.38-0.09-0.5c-0.01-0.06-0.02-0.12-0.02-0.18c0.08,0.21,0.14,0.43,0.19,0.65
							c1.23,4.66,5.47,7.89,10.29,7.83c0.61,0,1.22-0.06,1.83-0.16C140.46,114.89,140.69,114.86,140.91,114.83z"/>
						<path class="st9" d="M146.86,122.08c-0.05,0,0.41-2.1,1.06-4.65s1.18-4.61,1.23-4.6s-0.41,2.09-1.04,4.65
							C147.48,120.03,146.91,122.08,146.86,122.08z"/>
						<path class="st9" d="M152.12,117.72c-0.05,0.03-1.55-2.44-3.38-5.51c-1.82-3.07-3.25-5.58-3.2-5.61s1.55,2.44,3.38,5.51
							C150.74,115.18,152.18,117.69,152.12,117.72z"/>
						<path class="st15" d="M142.91,60.68c0.7-5.6-3.27-10.71-8.87-11.41c-0.11-0.01-0.21-0.02-0.32-0.03
							c-5.45-0.52-10.29,3.54-11.11,8.95c-0.72,4.74-1.33,9.53-1.31,11.26c0.07,5.25,3.13,7.29,4.38,7.88
							c0.45,0.16,0.91,0.28,1.38,0.34l0,0c0.02,0,0.03,0.02,0.03,0.04l0,0l-1.16,6c-0.53,3.94,1.67,7.46,5.61,8.04
							c3.94,0.57,7.04-2.45,7.64-6.4L142.91,60.68z"/>
						<path class="st13" d="M123.53,61.25c0.09,0.12,0.78-0.25,1.67-0.12s1.47,0.67,1.58,0.57c0.06-0.04-0.02-0.25-0.27-0.5
							c-0.35-0.32-0.78-0.53-1.25-0.6c-0.46-0.07-0.93,0.01-1.35,0.23C123.59,61.01,123.48,61.19,123.53,61.25z"/>
						<path class="st13" d="M131.42,62.96c0.09,0.12,0.78-0.25,1.67-0.12s1.47,0.67,1.59,0.57c0.05-0.04-0.02-0.25-0.28-0.5
							c-0.34-0.32-0.78-0.53-1.25-0.59c-0.46-0.07-0.93,0.01-1.35,0.23C131.5,62.72,131.38,62.9,131.42,62.96z"/>
						<path class="st16" d="M127.11,77.7c0,0,3.38,0.78,8.05-1.17c0,0-2.01,4.33-8.36,2.79L127.11,77.7z"/>
						<path class="st14" d="M132.04,60.07c0.05,0.26,0.96,0.27,1.98,0.55s1.83,0.68,2,0.49c0.08-0.09-0.04-0.34-0.34-0.63
							c-0.83-0.71-1.95-1.01-3.03-0.79C132.23,59.79,132.02,59.95,132.04,60.07z"/>
						<path class="st14" d="M124.42,58.51c0.12,0.23,0.77,0.11,1.5,0.2c0.73,0.1,1.34,0.33,1.5,0.14c0.08-0.09,0-0.31-0.24-0.54
							c-0.68-0.58-1.64-0.69-2.43-0.28C124.48,58.21,124.37,58.4,124.42,58.51z"/>
						<path class="st7" d="M125.91,81.82c1,4.35,5.32,7.06,9.67,6.07c0.38-0.09,0.75-0.2,1.11-0.34c1.94-0.75,3.51-2.21,5.03-3.64
							c1.07,6.41-3.27,12.48-9.68,13.55c-0.41,0.07-0.82,0.11-1.23,0.14c-2.49,0.15-5.16-0.61-6.73-2.55
							c-1.09-1.35-1.53-3.14-1.5-4.88c0.08-1.74,0.41-3.46,0.98-5.1c0.44-1.42,1.14-3,2.58-3.4"/>
						<path class="st14" d="M142.46,54.53c1.87,1,2.87,3.1,3.23,5.18c0.36,2.07,0.18,4.2,0.27,6.3c0.09,2.1,0.49,4.3,1.82,5.93
							c1.4,1.74,3.62,2.56,5.6,3.62c4.35,2.33,7.94,6.32,9.24,11.09c1.31,4.77,0.12,10.27-3.45,13.7c-3.27,3.11-7.98,4.2-12.49,4.2
							c-3.21,0-6.73-0.69-8.74-3.2c-2-2.51-1.87-6.02-1.17-9.11c0.7-3.09,1.13-3.54,1.19-6.71c-0.86,1.94-0.46,1.27-1.62,2.93
							c-0.33,0.47-0.9,0.98-1.4,0.71c-0.5-0.27-0.35-1.14-0.09-1.73c3.87-8.61,2.52-25.95,4.81-35.45"/>
						<path class="st14" d="M145.2,54.39c-0.5-1.81-1.29-3.62-2.72-4.83c-2.19-1.75-5.28-1.8-7.52-0.12l0,0l0,0
							c0,0-10.77-5.05-12.75,9.49c0,0,3.82-0.32,7.78-2.62c1.22-0.71,2.59-1.06,3.99-1.04c0.02,0,0.05,0,0.07,0h0.01
							c0.62,0,1.14,0.46,1.17,1.08c0.03,0.74,0.07,1.44,0.11,2c0.12,1.84,0.88,3.59,2.15,4.93c1.96,1.91,4.92,2.25,7.65,2.48
							C146.18,62.05,146.21,58.12,145.2,54.39z"/>
						<path class="st7" d="M156.25,91.8l-9.62,16.46l11.69,20.07v0.12c0.04,0.4,0.27,0.75,0.61,0.95l0.08,6.63h13v-10.59
							c0-0.44-0.09-0.87-0.28-1.27C169.67,119.73,156.87,92.24,156.25,91.8z"/>
						<path class="st13" d="M127.46,64.73l-0.61,1.07l-0.03-0.1c0.3,0.14,0.66,0.3,0.87,0.54c-0.36-0.1-0.69-0.27-1-0.46l0.04-0.06
							C126.75,65.74,127.45,64.69,127.46,64.73L127.46,64.73z"/>
						<path class="st16" d="M128.98,69.77l-3.55-0.01c-0.05,0.96,0.7,1.78,1.66,1.83c0.02,0,0.04,0,0.07,0
							C128.15,71.58,128.96,70.77,128.98,69.77z"/>
						<path class="st17" d="M128.88,70.29c-0.23,0.77-0.93,1.3-1.73,1.3c-0.41,0.01-0.8-0.14-1.11-0.4
							C126.72,70.35,127.84,69.99,128.88,70.29z"/>
					</g>
				</g>
			</g>
			<g>
				<g>
					<defs>
						<circle id="SVGID_00000127030585916255335070000003115782597130058377_" cx="87.05" cy="87.25" r="82.81"/>
					</defs>
					<clipPath id="SVGID_00000162343524256812020700000016266814157132882055_">
						<use xlink:href="#SVGID_00000127030585916255335070000003115782597130058377_"  style="overflow:visible;"/>
					</clipPath>
					<g style="clip-path:url(#SVGID_00000162343524256812020700000016266814157132882055_);">
						<g>
							<path class="st19" d="M62.59,59.31l3.17,0.56c3.53,3.97,9.61,4.34,13.58,0.81s4.34-9.61,0.81-13.58s-9.61-4.34-13.58-0.81
								c-3,2.66-4.03,6.89-2.6,10.63l0,0L62.59,59.31z"/>
							<path class="st10" d="M75.89,53.77c0-0.54,0.44-0.98,0.98-0.98s0.98,0.44,0.98,0.98s-0.44,0.98-0.98,0.98l0,0
								C76.33,54.74,75.9,54.3,75.89,53.77z"/>
							<path class="st10" d="M71.98,53.77c0-0.54,0.44-0.98,0.98-0.98s0.98,0.44,0.98,0.98s-0.44,0.98-0.98,0.98l0,0
								C72.42,54.74,71.99,54.3,71.98,53.77z"/>
							<path class="st10" d="M68.08,54.25c-0.27-0.47-0.11-1.07,0.36-1.33c0.47-0.27,1.07-0.11,1.33,0.36
								c0.27,0.47,0.11,1.06-0.35,1.33s-1.06,0.12-1.34-0.35C68.09,54.26,68.09,54.26,68.08,54.25z"/>
						</g>
						<g id="lines_00000008856618496693816550000013936048600852872621_">
							<g id="lines_00000028285985034494115850000017259419818740429211_">
								<path class="st7" d="M79.92,43.39c-0.15-0.13-0.16-0.35-0.03-0.5l2.75-3.49c0.13-0.15,0.35-0.16,0.5-0.03
									c0.14,0.12,0.16,0.34,0.05,0.49l-2.77,3.51C80.29,43.5,80.08,43.52,79.92,43.39L79.92,43.39z"/>
								<path class="st7" d="M76.34,41.85c-0.09-0.08-0.14-0.2-0.13-0.32l0.65-4.49c0.03-0.2,0.21-0.33,0.4-0.3
									c0.2,0.03,0.33,0.21,0.3,0.4l-0.66,4.49c-0.03,0.19-0.21,0.33-0.4,0.3C76.45,41.91,76.39,41.89,76.34,41.85z"/>
								<path class="st7" d="M72.46,42.3c-0.04-0.04-0.08-0.09-0.1-0.14l-1.61-4.05c-0.07-0.19,0.03-0.39,0.21-0.46
									c0.18-0.06,0.37,0.02,0.45,0.19l1.62,4.05c0.07,0.18-0.02,0.39-0.2,0.46C72.71,42.41,72.56,42.39,72.46,42.3z"/>
								<path class="st7" d="M82.26,46.52c-0.04-0.04-0.08-0.09-0.1-0.14c-0.07-0.18,0.01-0.39,0.2-0.46l0,0l4.2-1.67
									c0.18-0.07,0.39,0.02,0.46,0.2l0,0c0.07,0.18-0.01,0.39-0.2,0.46l-4.21,1.67C82.5,46.62,82.36,46.6,82.26,46.52z"/>
							</g>
						</g>
					</g>
				</g>
			</g>
			<g>
				<g>
					<defs>
						<circle id="SVGID_00000039128758718669871330000001223025493601922958_" cx="87.05" cy="87.25" r="82.81"/>
					</defs>
					<clipPath id="SVGID_00000020390169338924970700000008749772634753769619_">
						<use xlink:href="#SVGID_00000039128758718669871330000001223025493601922958_"  style="overflow:visible;"/>
					</clipPath>
					<g style="clip-path:url(#SVGID_00000020390169338924970700000008749772634753769619_);">
						<g>
							<path class="st13" d="M110.27,79.35l-3.17,0.56c-3.53,3.97-9.61,4.34-13.58,0.81c-3.97-3.53-4.34-9.61-0.81-13.58
								c3.53-3.97,9.61-4.34,13.58-0.81c3,2.66,4.03,6.89,2.6,10.63l0,0L110.27,79.35z"/>
							<path class="st19" d="M96.97,73.8c0-0.54-0.44-0.98-0.98-0.98s-0.98,0.44-0.98,0.98s0.44,0.98,0.98,0.98l0,0
								C96.53,74.78,96.97,74.34,96.97,73.8z"/>
							<path class="st19" d="M100.88,73.8c0-0.54-0.44-0.98-0.98-0.98s-0.98,0.44-0.98,0.98s0.44,0.98,0.98,0.98l0,0
								C100.44,74.78,100.88,74.34,100.88,73.8z"/>
							<path class="st19" d="M104.78,74.29c0.27-0.47,0.11-1.07-0.36-1.33c-0.47-0.27-1.07-0.11-1.33,0.36
								c-0.27,0.47-0.11,1.06,0.35,1.33c0.46,0.27,1.06,0.12,1.34-0.35C104.77,74.3,104.78,74.3,104.78,74.29z"/>
						</g>
						<g id="lines_00000110457906598447062010000003639702052756405420_">
							<g id="lines_00000010279767892960457020000014637697431072886155_">
								<path class="st7" d="M92.94,63.43c0.15-0.13,0.16-0.35,0.03-0.5l-2.75-3.49c-0.13-0.15-0.35-0.16-0.5-0.03
									c-0.14,0.12-0.16,0.34-0.05,0.49l2.77,3.51C92.57,63.53,92.79,63.55,92.94,63.43L92.94,63.43z"/>
								<path class="st7" d="M96.52,61.88c0.09-0.08,0.14-0.2,0.13-0.32L96,57.07c-0.03-0.2-0.21-0.33-0.4-0.3
									c-0.2,0.03-0.33,0.21-0.3,0.4l0.66,4.49c0.03,0.19,0.21,0.33,0.4,0.3C96.41,61.95,96.47,61.93,96.52,61.88z"/>
								<path class="st7" d="M100.4,62.34c0.04-0.04,0.08-0.09,0.1-0.14l1.61-4.05c0.07-0.19-0.03-0.39-0.21-0.46
									c-0.18-0.06-0.37,0.02-0.45,0.19l-1.62,4.05c-0.07,0.18,0.02,0.39,0.2,0.46C100.16,62.45,100.3,62.43,100.4,62.34z"/>
								<path class="st7" d="M90.61,66.55c0.04-0.04,0.08-0.09,0.1-0.14c0.07-0.18-0.01-0.39-0.2-0.46l0,0l-4.2-1.67
									c-0.18-0.07-0.39,0.02-0.46,0.2l0,0c-0.07,0.18,0.01,0.39,0.2,0.46l4.21,1.67C90.37,66.66,90.51,66.64,90.61,66.55z"/>
							</g>
						</g>
					</g>
				</g>
			</g>
		</g>
	</g>
</g>
<g class="st0">
	<g class="st3">
		<defs>
			<circle id="SVGID_00000080915526805504221570000003391304725424207758_" cx="87.05" cy="87.25" r="82.81"/>
		</defs>
		<clipPath id="SVGID_00000087391998793162736930000007472152963201312189_">
			<use xlink:href="#SVGID_00000080915526805504221570000003391304725424207758_"  style="overflow:visible;"/>
		</clipPath>
		<g style="clip-path:url(#SVGID_00000087391998793162736930000007472152963201312189_);">
			<g>
				<g>
					<path class="st22" d="M62.59,62.22l3.17,0.56c3.53,3.97,9.61,4.34,13.58,0.81s4.34-9.61,0.81-13.58
						c-3.53-3.97-9.61-4.34-13.58-0.81c-3,2.66-4.03,6.89-2.6,10.63l0,0L62.59,62.22z"/>
					<path class="st23" d="M75.89,56.67c0-0.54,0.44-0.98,0.98-0.98s0.98,0.44,0.98,0.98s-0.44,0.98-0.98,0.98l0,0
						C76.33,57.65,75.9,57.21,75.89,56.67z"/>
					<path class="st23" d="M71.99,56.67c0-0.54,0.44-0.98,0.98-0.98s0.98,0.44,0.98,0.98s-0.44,0.98-0.98,0.98l0,0
						C72.42,57.65,71.99,57.21,71.99,56.67z"/>
					<path class="st23" d="M68.09,57.16c-0.27-0.47-0.11-1.07,0.36-1.33c0.47-0.27,1.07-0.11,1.33,0.36
						c0.27,0.47,0.11,1.06-0.35,1.33s-1.06,0.12-1.34-0.35C68.09,57.17,68.09,57.16,68.09,57.16z"/>
				</g>
				<g id="lines_00000163764045626715053810000013691176070821200004_">
					<g id="lines_00000039115718752644804560000000035099475686513815_">
						<path class="st24" d="M79.92,46.29c-0.15-0.13-0.16-0.35-0.03-0.5l2.75-3.49c0.13-0.15,0.35-0.16,0.5-0.03
							c0.14,0.12,0.16,0.34,0.05,0.49l-2.77,3.51C80.29,46.4,80.08,46.42,79.92,46.29L79.92,46.29z"/>
						<path class="st24" d="M76.34,44.75c-0.09-0.08-0.14-0.2-0.13-0.32l0.65-4.49c0.03-0.2,0.21-0.33,0.4-0.3
							c0.2,0.03,0.33,0.21,0.3,0.4l-0.66,4.49c-0.03,0.19-0.21,0.33-0.4,0.3C76.45,44.82,76.39,44.79,76.34,44.75z"/>
						<path class="st24" d="M72.46,45.21c-0.04-0.04-0.08-0.09-0.1-0.14l-1.61-4.05c-0.07-0.19,0.03-0.39,0.21-0.46
							c0.18-0.06,0.37,0.02,0.45,0.19l1.62,4.05c0.07,0.18-0.02,0.39-0.2,0.46C72.71,45.31,72.56,45.29,72.46,45.21z"/>
						<path class="st24" d="M82.26,49.42c-0.04-0.04-0.08-0.09-0.1-0.14c-0.07-0.18,0.01-0.39,0.2-0.46l0,0l4.21-1.67
							c0.18-0.07,0.39,0.02,0.46,0.2l0,0c0.07,0.18-0.01,0.39-0.2,0.46l-4.21,1.67C82.5,49.53,82.36,49.51,82.26,49.42z"/>
					</g>
				</g>
			</g>
			<g>
				<g id="bottom_00000103223932812419806190000002256945741977036710_">
					<path class="st25" d="M26.28,126.32c-1.44,4.38-1.86,10.45-2.45,20.42c-0.58,9.75-0.79,18.47-1.5,29.35
						c-1.02,2.59-2.37,5.3-3.27,17.24c-0.45,6.04-0.57,13.52-1.2,19.91l-0.47,3.87c0.82,4.53,7.44,4.94,8.33,2.26
						c0.59-1.48,1.07-2.99,1.44-4.54c2.2-8.6,5.69-20.38,7.79-26.77c1.63-4.96,6.1-22.79,9.08-33.03l4.17,20.47
						c0,0-1.39,2.49,1.24,16.14c1.24,6.41,2.13,8.25,3.27,17.12c0.12,0.96,0.89,1.53,0.92,2.5c0,0.28,0.74,1.2,3.43,1.6
						c2.69,0.4,5.5-1.45,5.48-1.84c-0.51-10.05,0.23-26.33,0.28-33.09c0.14-16.61,0-42.64-0.68-53.23L26.28,126.32z"/>
					<path d="M77.51,223.24c0.17,0,0.48,1.85-0.41,2.67c-1.02,0.95-4.08,2.55-8.23,2.13s-5.3-1.2-6.99-2.55
						c-1.68-1.35-3.24-2.74-5.11-3.09c-1.74-0.33-4.39-0.94-4.96-1.47s-0.56-2.89-0.56-2.89L77.51,223.24z"/>
					<path class="st22" d="M56.35,211.33c-0.48-0.46-0.91-0.96-1.31-1.49c-0.23-0.27-1.24-0.42-1.53-0.63
						c-0.28-0.15-0.56-0.33-0.82-0.51c-0.28-0.26-0.15-0.62-0.18-1c-0.33,0.02-0.61,0.26-0.68,0.59c-0.11,0.66-0.19,2.55-0.43,3.65
						c-0.32,2.3-0.34,4.62-0.07,6.92c0.26,1.22,3.86,1.86,5.68,2.5s3.22,1.53,5.14,3.04c2.21,1.67,4.91,2.57,7.68,2.55
						c3.17-0.12,6.71-1.25,7.49-2.75c0.96-1.85,1.06-3.57-3.71-5.65c-0.9-0.38-3.69-1.91-4.78-2.55c-1.19-0.68-2.32-1.49-3.35-2.39
						c-0.43-0.38-0.85-0.78-1.24-1.2c-0.31-0.39-1.59-1.39-1.74-1.87C62.5,210.55,60.68,213.98,56.35,211.33z"/>
					<path d="M25.39,233.55c-0.29,2.84-0.82,4.71-1.9,6.33c-1.09,1.62-3.02,2.04-4.92,1.49c-1.9-0.56-4.32-2-4.76-4.48
						c-0.44-2.48-0.26-4.16,0.3-6.77L25.39,233.55z"/>
					<path class="st22" d="M18.17,216.97c-0.05-0.11-0.34-0.4-0.35-0.45s-0.08-1.88,0.03-2.54c-0.68,0.19-1.02,3.32-1.66,7.11
						c-0.67,4.08-1.46,5.28-2.04,8.63c-0.68,3.82-0.46,5.11,0.78,7.5s5.91,4.88,8.4,1.66c2.04-2.62,2.16-5.2,2.16-9.05
						c-0.03-3.05,0.12-6.11,0.44-9.14c0.29-2.87,1.33-3.41,0.65-3.75c0.13,0.06,0.06-0.16,0,0c-0.1,0.37-0.25,0.72-0.46,1.05
						C26.13,217.99,20.83,222.65,18.17,216.97z"/>
					<path class="st22" d="M44.12,156.53l3.48,18.34c0,0-0.06,4.15,0.33,9.46c0.39,5.31,1.91,15.25,3.21,20.85
						c3.62,2.01,8.03,2,11.64-0.03c0,0,0.32-23.68,0.37-31.15c0.07-9.62-0.28-37.51-0.92-49.33l-37.27,1.74c0,0-1.26,4.3-1.68,13.78
						c-0.42,9.49-1.39,35.19-1.39,35.19c-3.06,9.19-4.02,19.9-4.51,36.65c3.68,4.92,10.82,2.37,10.82,2.37s6.2-22.1,7.75-27.17
						c1.82-5.97,6.42-25.02,8.17-30.72"/>
					<path d="M41.35,166.73c2.25-9.41,4.71-18.77,7.24-28.12c0.01-3.07,0.08-6.6,0.15-9.83c0.07,3.3,0.14,6.61,0.15,9.91
						C46.49,148.07,44.02,157.43,41.35,166.73L41.35,166.73z"/>
				</g>
				<path class="st24" d="M60.49,72.02c-2.18-3.15-5.73-4.2-10.82-3.37l12.44,25.61c0.49-3.9,0.76-7.82,0.82-11.74
					C62.95,77.81,62.67,75.17,60.49,72.02z"/>
				<g id="Chest">
					<path class="st24" d="M62.78,124.84c-6.94,12.38-32.36,12.6-38.77,4.46c0.86-5.74,1.43-11.52,1.69-17.32
						c0.2-4.98-2.41-13.52-2.2-19.79c0.21-6.27,2.68-10.29,2.68-10.29s8.62-8.77,14.42-11.12c9.7-3.94,14.04-1.18,14.04-1.18
						c2.55,0.75,8.29,9.75,8.29,16.45C62.93,94.64,62.78,124.84,62.78,124.84z"/>
				</g>
				<g id="Head">
					<path class="st26" d="M37.83,48.64c-0.83-0.47-1.76-0.71-2.71-0.71c-1.05,0-1.4,0-2.34,0.67c-0.53,0.38-0.92,0.93-1.09,1.56
						c-0.25,0.87-0.18,1.8,0.19,2.62c0.3,0.78-0.11,1.39-0.37,2.12c-0.34,0.92-0.12,1.95,0.56,2.65c0.61,0.62,1.48,1.14,1.82,1.97
						c0.42,0.99,0.3,2.09,0.71,3.11c0.36,0.81,0.85,1.55,1.46,2.19c0.39,0.49,0.73,1.02,1.02,1.57c0.31,0.51,0.97,0.74,1.41,1.09
						c0.15,0.12,0.51,0.63,0.73,0.57c0.32-0.08,0.13-1.07,0.12-1.29c0-0.86,0-1.72-0.06-2.55l-0.17-3.34c0,0,2.14-2.9,2.38-5.29
						c0.31-3.06-0.34-4.32-0.34-4.32C40.1,50.44,39.03,49.32,37.83,48.64z"/>
					<path class="st26" d="M41.08,53.53c-0.1,1.6,0.24,3.21,0.98,4.64c0.64,1.23,1.79,2.89,3.17,3.33c0.5,0.14,1.02,0.26,1.53,0.35
						c1.73,0.33,3.51,0.29,5.22-0.11c1.28-0.29,2.55-0.73,3.45-1.74c0.61-0.62,1.14-1.3,1.6-2.04c0.14-0.27,0.15-0.56,0.29-0.83
						c0.34-0.64,0.97-1.2,1.18-1.9c0.11-0.63,0.14-1.27,0.09-1.9c0-0.7,0.47-1.21,0.51-1.89c0.08-0.62-0.07-1.24-0.42-1.76
						c-0.2-0.32-0.41-0.62-0.65-0.91c-0.38-0.34-0.82-0.61-1.29-0.82c-0.42-0.24-0.79-0.56-1.2-0.8c-1.02-0.56-2.11-1.01-3.23-1.34
						c-1.59-0.46-3.27-0.54-4.9-0.23c-1.68,0.31-3.34,1.66-4.39,2.96C41.87,49.96,41.2,51.71,41.08,53.53z"/>
					<path class="st27" d="M35.05,65.56c1.96,0.77,2.84-0.48,2.84-0.48l-0.67,8.27c2.3,2.94,7.78,6.53,11.81,6
						c2.16-0.29,2.49-2.2,0.38-5.06l0.37-2.71c1.13,0.11,2.26,0.11,3.39,0c2.19-0.34,3.89-1.93,4.54-4.29
						c1.06-3.8,0.69-10.56-0.51-17.8c-2.44-1.9-11.74-1.26-16.88,1.99c0.57,3.11,0.6,4.01,0.27,5.91c-0.33,1.9-1.02,2.77-1.59,2.85
						c-1.05,0.15-1.2-0.98-1.87-1.68s-3.23-1.12-4.32,1.18C31.73,62.04,33.56,64.98,35.05,65.56z"/>
					<path class="st28" d="M49.8,71.58c-3.48-0.35-7.87-1.99-8.99-3.57c-0.64-0.89-1.16-1.87-1.53-2.9c0,0,0.06,2.17,0.9,3.57
						s3.98,3.82,9.43,4.2L49.8,71.58z"/>
					<path class="st26" d="M57,43.95c-0.34-0.15-0.62-0.41-0.81-0.73c-0.31-0.57-0.42-1.19-0.87-1.69
						c-0.61-0.76-1.53-1.21-2.51-1.23c-0.9,0-1.75,0.55-2.63,0.68c-0.96,0.15-1.37-0.29-2.11-0.75c-0.93-0.58-2.47-0.57-3.51-0.25
						c-0.47,0.13-0.91,0.36-1.29,0.68c-0.34,0.32-0.51,0.79-0.96,1.02c-0.76,0.42-1.95-0.09-2.77-0.15
						c-1.44-0.12-2.61,0.33-2.91,1.53c-0.13,0.51-0.14,0.92-0.26,1.39c-0.12,0.4-0.4,0.73-0.77,0.91c-0.68,0.32-1.19,0.9-1.43,1.61
						c-0.31,0.99-0.04,2.06,0.71,2.78c0.7,0.58,1.95,1.02,2.88,0.77c0.12,0.81,1.11,1.38,1.88,1.48c0.44,0.09,0.89,0.09,1.32,0
						c0.15-0.04,1.33-0.55,1.2-0.78c0.47,0.79,1.31,1.29,2.23,1.33c1.11,0.09,2.18-0.43,2.8-1.36c-0.23,0.36,0.38,0.9,0.63,1.08
						c0.42,0.26,0.91,0.4,1.4,0.41c0.86,0.04,1.68-0.38,2.14-1.11c0.38-0.55,1.06-0.82,1.72-0.68c0.61,0.18,1.24,0.28,1.87,0.3
						c0.87-0.01,1.66-0.51,2.04-1.29c0.21-0.51,0.24-1.08,0.07-1.6c0.55,0.87,2.24,1.2,2.4-0.1c-0.18,0.17-0.47,0.16-0.64-0.02
						c-0.06-0.06-0.1-0.14-0.11-0.23c-0.08-0.45,0.39-0.91,0.48-1.34c0.15-0.87-0.28-1.73-1.07-2.12
						C57.81,44.28,57.39,44.14,57,43.95z"/>
					<path class="st26" d="M47.82,54.56l-2.38,0.49c-0.21-0.42,0.16-0.87,0.83-1.01c0.64-0.13,1.33,0.09,1.54,0.49
						C47.8,54.54,47.81,54.55,47.82,54.56z"/>
					<path class="st26" d="M56.9,54.55l-2.43-0.45c0.15-0.41,0.8-0.67,1.45-0.57c0.03,0,0.06,0.01,0.09,0.01
						C56.68,53.67,57.08,54.11,56.9,54.55z"/>
					<path class="st28" d="M47.96,63.96l3.38,1.32c-0.32,0.93-1.33,1.44-2.27,1.12c-0.02-0.01-0.04-0.01-0.06-0.02
						C48.07,65.98,47.6,64.91,47.96,63.96z"/>
					<path class="st29" d="M47.86,64.48c-0.07,0.81,0.4,1.58,1.16,1.89c0.39,0.15,0.82,0.15,1.22,0
						C49.88,65.33,48.95,64.59,47.86,64.48z"/>
					<path class="st28" d="M51.28,59.92c0,0,2.63,1.45,0.31,1.89L51.28,59.92z"/>
					<path class="st26" d="M48.3,57.34c-0.27,0.89-1.39,1.57-2.29,1.17c-0.29-0.16-0.51-0.4-0.62-0.73l0.05-0.06
						c0.55-0.05,0.98,0.1,1.48,0.22c0.44,0.03,0.94-0.23,1.31-0.63L48.3,57.34L48.3,57.34z"/>
					<path class="st26" d="M56.73,57.38c-0.11,1.21-1.61,1.23-2.36,0.61c-0.24-0.19-0.42-0.42-0.59-0.65l0.06-0.06
						c0.42,0.28,0.93,0.52,1.42,0.46c0.51-0.15,0.8-0.31,1.4-0.41C56.67,57.33,56.73,57.38,56.73,57.38L56.73,57.38z"/>
					<circle class="st28" cx="43.53" cy="60.73" r="0.32"/>
					<circle class="st28" cx="44.49" cy="61.38" r="0.32"/>
					<circle class="st28" cx="43.53" cy="61.7" r="0.32"/>
					<circle class="st28" cx="56.56" cy="60.02" r="0.26"/>
					<circle class="st28" cx="57.33" cy="60.54" r="0.26"/>
					<circle class="st28" cx="56.56" cy="60.8" r="0.26"/>
				</g>
				<path class="st27" d="M42.15,115.36c0,0-1.75-21.99-2.17-25.94c-0.52-4.96-0.83-8.98-3.57-9.55c-2.43-0.51-4.58-0.12-8.26,3.02
					c-2.34,1.99-3.24,4.32-3.48,9.48s3.81,22.93,4.98,26.1c2.49,6.74,2.63,7.16,7.84,8.45"/>
				<path class="st24" d="M37.43,78.48c1.67,0.82,2.5,3.43,2.76,8.01c0.26,4.59,1.29,20.38,1.29,20.38
					c-2.35,2.08-5.27,3.43-8.38,3.87c-5.13,0.71-6.14-0.2-6.14-0.2s-3.42-16.52-3.64-18.47c-0.23-1.95-0.32-5.62,1.76-8.35
					S31.85,76.49,37.43,78.48z"/>
				<path class="st27" d="M41.16,114.63c0,0,12.53,7.46,17.51,9.46l2.58,0.67l7.97-4.2c0,0,2.87-0.87,3.05,1.49
					c1.09,0.35,2.15,1.42,1.69,2.64c-0.08,0.16-0.13,0.33-0.16,0.51c0.01,0.17,0.05,0.34,0.13,0.5c0.26,0.5,0.31,1.09,0.15,1.63
					c-0.19,0.43-0.62,0.69-0.8,1.2c-0.18,0.51-0.04,1.14-0.31,1.61c-0.16,0.25-0.38,0.45-0.65,0.58c-1.96,1.04-3.97,1.98-6.03,2.82
					c-0.71,0.27-4.87-0.18-6.66-0.48c-3.8-0.53-7.56-1.33-11.24-2.4c-8.13-2.27-10.22-2.83-14.96-5.18"/>
				<path class="st22" d="M41.48,106.87c-0.44-5.61-0.8-11.23-1.08-16.86C40.84,95.63,41.19,101.25,41.48,106.87L41.48,106.87z"/>
			</g>
			<g>
				<g id="bottom">
					<path class="st30" d="M119.86,217.52l0.84-9.04l-12-1.53c0,0,0.35,4.76,0.35,8.31c0,3.43,0,4.88-1.17,6.81
						s-4.13,4.41-7.39,5.71s-6.38,3.06-5.49,4.92s5.77,2.73,7.9,2.29c2.12-0.44,6.86-2.95,9.27-4.73s6.38-2.61,7.3-3.01
						c0.92-0.39,1.14-1.69,1.11-3.84C120.47,221.43,120.23,219.46,119.86,217.52z"/>
					<path class="st24" d="M103.29,131.41c-0.42,6.13,1.05,23.7,1.49,36.56c0.2,6.07,1.3,14.68,1.53,17.36
						c0.61,7.61,2.3,25.02,2.3,25.02s6.39,2.55,12.11,0.28c0.96-9.55,4.34-23.11,1.8-31.23l4.11-45.23L103.29,131.41z"/>
					<path class="st31" d="M94.37,232.84c-0.16,0-0.38,1.8,0.51,2.55c1.02,0.86,4.08,2.26,8.05,1.69c3.96-0.57,6.1-1.83,7.66-3.18
						c1.56-1.35,3.77-3.26,5.56-3.68c1.67-0.39,4.38-1.37,4.9-1.89s0.41-2.81,0.41-2.81L94.37,232.84z"/>
					<path class="st24" d="M116.64,221.81c0.7-0.41,0.89-1.31,1.3-2.01c0.32-0.55,0.79-1.01,1.36-1.31
						c0.18-0.09,0.36-0.16,0.55-0.22c0,0,0.05-0.76,0.03-0.76c0.32,0.15,0.56,0.43,0.65,0.77c0.13,0.63,0.15,1.43,0.43,2.47
						c0.39,1.43,0.68,4.38,0.48,5.55s-3.81,2.23-5.54,2.92c-2.03,0.92-3.92,2.15-5.59,3.63c-1.85,1.56-5.75,3.17-8.35,3.24
						c-3.96,0.12-6.54-0.91-7.35-2.32c-0.7-1.22-0.11-3.01,0.9-3.89c1.39-1.23,3.11-2.01,4.77-2.85c2.22-1.14,4.7-2.51,6.37-4.48
						c0.46-0.54,1.19-0.77,1.88-0.62C110.27,222.34,113.68,222.84,116.64,221.81z"/>
					<path class="st31" d="M108.33,207.85c2.32,1.63,8.92,3.14,12.73,0.51l-0.51,8.11c-2.29,1.53-9.04,2.12-11.72-0.9L108.33,207.85
						z"/>
					<path class="st30" d="M141.21,225.86l0.23-10.6l-11.89,0.44l1.75,10.72c0,0,0.69,4.35,0.84,5.4c0.37,3.01,0.58,6.04,0.62,9.08
						c0.05,4,0.26,7.7,1.35,9.55c1.1,1.84,2.29,2.13,4.08,1.53c1.79-0.6,3.98-2.61,4.67-5.79s-0.27-7.87-0.66-8.94
						C141.82,236.18,141.27,229.77,141.21,225.86z"/>
					<path class="st24" d="M139.61,134.57l-23.48-0.12c0.77,5.91,6.22,46.03,7.43,52.81c1.22,6.78,6.55,33.37,6.55,33.37
						s1.26,1.99,5.26,1.75c4.5-0.28,6.23-2.09,6.23-2.09s0.87-14.29,0.96-22.68c0.1-5.29-0.58-10.57-2.01-15.67
						c0,0,0.6-15.29,0.58-25.53C141.12,146.17,141.06,142.93,139.61,134.57z"/>
					<path class="st31" d="M131.82,245.88c0.12,2.81,0.54,4.67,1.51,6.33s2.85,2.21,4.77,1.76c1.91-0.45,4.38-1.69,4.96-4.08
						s0.93-4.06,0.51-6.66L131.82,245.88z"/>
					<path class="st24" d="M141,229.09c0.28-0.21,0.1-2.83,0.21-3.23c0.78,0.08,0.51,3.79,0.92,7.56c0.42,4.04,0.99,5.66,1.37,8.98
						c0.44,3.79-0.21,5.47-1.58,7.73c-1.36,2.27-6.13,4.43-8.38,1.12c-1.85-2.7-1.89-5.67-1.66-9.44c0.23-3.9-0.11-6.53-0.38-9.49
						c-0.29-3.06-0.87-5.62-0.18-5.9c0,0,0.46,2.33,0.63,2.81C131.94,229.24,135.78,232.71,141,229.09z"/>
					<path class="st31" d="M129.36,217.44c2.43,1.39,9.04,2.22,12.49-0.8l-0.47,7.32c-2.08,1.74-8.62,3.06-11.54,0.3L129.36,217.44z
						"/>
					<path class="st31" d="M140.19,188.64c-0.16-1.31-0.32-2.35-0.46-3.35c-0.51-3.35-0.96-6.52-1.6-19.17
						c-0.23-4.76-0.26-8.43-0.28-11.68c-0.04-6.57-0.06-11.33-1.77-19.91h-0.51c1.62,8.06,1.74,12.76,1.78,18.72
						c-3.14-0.13-4.93-3.14-5.62-9.46c-0.74-6.69-1.48-11.26-1.49-11.3l-0.51,0.08c0,0.05,0.75,4.59,1.48,11.28
						c0.72,6.55,2.73,9.79,6.13,9.92c0,0.22,0,0.43,0,0.66c0,3.24,0.04,6.92,0.28,11.7c0.64,12.68,1.11,15.86,1.6,19.22
						c0.15,1.02,0.3,2.04,0.46,3.34c1.14,9.97,1.48,20.02,1.02,30.05h0.51C141.67,208.7,141.33,198.63,140.19,188.64z"/>
					<path class="st31" d="M124.05,188.33c-0.99-6.03-1.97-12.06-2.96-18.09c-0.63-3.87-1.27-7.75-1.9-11.62
						c-0.24-1.5-0.43-3.01-0.81-4.48c-0.62-2.36-1.05-4.77-1.25-7.2c-0.25-3.1-0.21-6.55,1.42-9.3c0.19-0.33-0.32-0.62-0.51-0.3
						c-2.59,4.38-1.68,10.39-0.67,15.12c0.36,1.66,0.75,3.24,1.02,4.92c1.3,7.94,2.6,15.89,3.9,23.83c0.4,2.43,0.79,4.85,1.19,7.28
						C123.54,188.86,124.11,188.7,124.05,188.33L124.05,188.33z"/>
				</g>
				<g id="character_00000165922468156480635380000007502132137765293717_">
					<path class="st30" d="M105.78,84.28c-2.74,2.14-4.74,7.35-5.81,17.25c-1.04,9.59,3.7,34,3.7,34l7.98,2.33l2.2-35.97
						L105.78,84.28z"/>
					<path class="st32" d="M109.58,81.82c-4.8,1.68-7.39,4.68-8.35,9.42c-1.1,5.45-2.59,21.05-2.59,21.05
						c2.43-0.12,4.87,0.06,7.26,0.52c3.2,0.75,6.04,3.07,6.04,3.07l1.72-14.69L109.58,81.82z"/>
					<g id="chest">
						<path class="st32" d="M103.32,97.11c0.03-6.71,6.13-15.73,8.52-16.48c0,0,4.08-2.76,13.19,1.18
							c5.45,2.35,14.53,8.93,14.53,8.93c0.83,4.11,1.34,8.28,1.53,12.47c0.2,6.26-2.26,14.81-2.04,19.79
							c0.21,4.99,0.62,10.01,1.59,17.32c-6.02,8.14-30.94,7.7-37.46-4.68C103.21,125.8,103.32,104.28,103.32,97.11z"/>
					</g>
					<g id="head">
						<path class="st33" d="M107,66.83c-1.09-2.36-0.19-6.31-0.19-6.31c-1.1,1.6-1.42,3.61-0.89,5.47
							c-2.26-2.61-1.83-7.87,2.75-10.84c6.05-3.93,17.87-4.66,20.42,3.8c1.97,0.3,3.1,2.55,2.93,7.24s-2.85,10.72-2.38,12.91
							c0.47,2.19,1.13,2.74,1.13,2.74c-1.25-0.2-2.32-1-2.86-2.15c0.23,0.96,0.54,1.9,0.95,2.81h-16.57L107,66.83z"/>
						<path class="st30" d="M129.43,77.07c-1.93,0.7-2.71-0.51-2.71-0.51l0.65,8.11c-2.32,2.82-7.79,6.49-11.74,5.87
							c-2.11-0.34-2.37-2.23-0.24-4.98l-0.33-2.6c-1.3,0.06-2.6-0.03-3.89-0.26c-2.2-0.59-3.85-2.41-4.21-4.66
							c-0.47-2.6-0.46-8.87,0.63-14.81c0.25-1.32,1.11-3.28,2.12-4.14c0.27,1.13,0.39,2.17,3.4,2.5c3.32,0.36,8.39-3.22,10.68-0.63
							c-1.03,0.81-1.61,2.07-1.53,3.38c0.04,1.83,1.53,3.73,1.69,4.87c0.28,1.88,0.94,2.74,1.49,2.83c1.02,0.18,1.21-0.93,1.88-1.6
							s3.19-1.02,4.2,1.27C132.54,73.99,130.91,76.53,129.43,77.07z"/>
						<path class="st29" d="M124.05,80.3c0.86-1.35,0.98-3.48,0.98-3.48c-0.39,1-0.91,1.95-1.56,2.81c-1.13,1.53-5,3.06-8.42,3.31
							l0.17,1.21C120.17,83.76,123.23,81.6,124.05,80.3z"/>
						<path class="st29" d="M111.02,73.1l1.86,0.54l0.33-3.24C112.47,70.49,111.74,71.73,111.02,73.1z"/>
						<path class="st33" d="M116.66,66.35l2.81,0.48c0.26-0.39-0.16-0.82-0.95-0.96c-0.76-0.13-1.58,0.07-1.84,0.44
							C116.68,66.33,116.67,66.34,116.66,66.35z"/>
						<path class="st33" d="M107.97,66.14l2.83-0.41c-0.17-0.39-0.92-0.64-1.68-0.56c-0.02,0-0.05,0.01-0.07,0.01
							C108.26,65.31,107.79,65.73,107.97,66.14z"/>
						<path d="M107.94,69.43c-0.14-1.33,1.68-2.07,2.61-1.22c0.3,0.24,0.49,0.58,0.53,0.97l-0.05,0.06
							c-0.9-0.87-2.28-0.81-3.02,0.23C108,69.48,107.94,69.43,107.94,69.43L107.94,69.43z"/>
						<path d="M115.66,69.22c0.26-1.32,2.22-1.47,2.85-0.38c0.21,0.32,0.29,0.7,0.22,1.09l-0.07,0.04c-0.59-1.1-1.93-1.46-2.95-0.69
							C115.71,69.28,115.66,69.22,115.66,69.22L115.66,69.22z"/>
						<path class="st25" d="M113.04,77.01c0.4-0.38,1.03-0.65,1.66-0.71c0.47-0.05,0.9,0.03,1.2,0.22c0.29,0.18,0.33,0.49,0.09,0.78
							c-0.34,0.3-0.88,0.48-1.37,0.44c-0.5-0.03-0.95-0.13-1.35-0.29c-0.12-0.03-0.22-0.08-0.31-0.15c-0.08-0.06-0.08-0.16,0-0.25"
							/>
						<path d="M116.12,75.88c-0.13-0.07-0.53,0.82-1.57,1.12s-1.95-0.23-2.01-0.11c-0.04,0.05,0.14,0.27,0.53,0.46
							c0.52,0.24,1.1,0.29,1.65,0.14c0.53-0.14,0.98-0.49,1.26-0.96C116.18,76.17,116.18,75.9,116.12,75.88z"/>
					</g>
					<path class="st30" d="M135.48,93.59c2.68-3.18,4.7-3.41,8.42,4.13c4.85,9.81,6.39,12.66,9.1,20.09
						c2.04,5.62,2.09,5.98-0.15,10.72c-1.25,2.63-8.57,16.16-10.8,18.64c-1.48,1.65-3.46,4.81-5.02,6.13c0,0-3.67,0.18-4.85-6.39
						c0,0-0.94-0.79-3.02,0.14c-1.43,0.64-3.31,0.92-4.27,0.14s1.07-1.42,2.07-2.16c1.44-1.21,3.13-2.08,4.94-2.55
						c2.59-0.67,3.1-1.35,5.11-4.42c2.41-3.71,4.91-13.07,4.91-13.07l-5.93-12.04C130.38,101.63,132.81,96.77,135.48,93.59z"/>
					<path class="st32" d="M132.14,97.94c1.17-5.78,5.36-7.48,6.91-7.33s3.99,2.92,5.47,6.22c2.27,5.04,7.02,16.51,7.02,16.51
						c-1.09,2.48-3.01,4.51-5.43,5.75c-4.14,2.19-6.42,2.41-6.42,2.41s-1.81-3.15-4.14-7.98
						C133.23,108.67,131.23,102.42,132.14,97.94z"/>
					<path class="st29" d="M141.92,124.94c1.46-1.79,3.61-2.9,5.92-3.04c-2.25-0.81-4.89,0.15-6.45,1.99L141.92,124.94z"/>
				</g>
				<path d="M138.71,119.7c-2.36-4.52-4.65-9.07-6.87-13.66C134.2,110.56,136.49,115.12,138.71,119.7L138.71,119.7z"/>
			</g>
			<g>
				<path class="st32" d="M111.5,23.41c-0.21-0.93-0.91-1.87-1.97-2.48c-1.14-0.66-2.4-0.77-3.33-0.39
					c-0.97-0.66-2.12-1.08-3.38-1.14c-2.27-0.11-4.33,0.94-5.61,2.63c-1-0.1-2.1,0.22-2.99,0.97c-1.38,1.16-1.84,2.95-1.21,4.32
					c-0.3,0.28-0.58,0.6-0.82,0.96c-1.56,2.39-0.89,5.6,1.5,7.16c0.1,0.06,0.2,0.12,0.3,0.17c-0.01,0.11-0.02,0.22-0.02,0.33
					c0,2.63,2.22,4.77,4.95,4.77c1.13,0,2.16-0.37,2.99-0.98c1.12,0.59,2.42,0.86,3.77,0.72c2.88-0.31,5.13-2.44,5.72-5.12
					c1.53-0.71,2.78-1.99,3.41-3.69C116.01,28.43,114.53,24.87,111.5,23.41z"/>
				<g>
					<path class="st26" d="M101.9,32.62c0-0.48,0.05-0.89,0.16-1.24c0.11-0.34,0.26-0.64,0.47-0.89s0.48-0.47,0.8-0.66
						c0.21-0.13,0.46-0.27,0.74-0.41s0.54-0.31,0.78-0.5s0.44-0.43,0.6-0.71c0.16-0.28,0.24-0.62,0.24-1.01
						c0-0.48-0.11-0.88-0.33-1.19c-0.22-0.31-0.51-0.55-0.85-0.71c-0.35-0.16-0.72-0.24-1.12-0.24s-0.77,0.07-1.13,0.22
						s-0.67,0.35-0.94,0.6c-0.27,0.25-0.49,0.54-0.66,0.86l-0.79-0.5c0.21-0.45,0.5-0.84,0.87-1.16s0.78-0.56,1.24-0.73
						s0.94-0.25,1.42-0.25c0.42,0,0.82,0.06,1.22,0.19c0.39,0.13,0.75,0.32,1.06,0.58s0.56,0.59,0.74,0.98
						c0.19,0.39,0.28,0.85,0.28,1.39c0,0.44-0.06,0.81-0.19,1.11c-0.12,0.3-0.3,0.56-0.52,0.77c-0.22,0.21-0.47,0.4-0.74,0.57
						c-0.27,0.16-0.55,0.32-0.85,0.48c-0.26,0.14-0.51,0.3-0.74,0.48c-0.24,0.17-0.43,0.41-0.58,0.71s-0.22,0.71-0.22,1.24h-0.96
						V32.62z M101.91,35.96v-1.77h1v1.77H101.91z"/>
				</g>
				<circle class="st32" cx="110.2" cy="42.9" r="1.3"/>
				<circle class="st32" cx="113.14" cy="45.85" r="1.3"/>
				<circle class="st32" cx="116.53" cy="48.46" r="1.3"/>
			</g>
		</g>
	</g>
</g>
<g class="st0">
	<circle id="SVGID_00000044149791232847480710000004775682977474788508_" class="st34" cx="87.05" cy="87.25" r="82.81"/>
</g>
<g>
	<g>
		<g id="character_00000155863799864647420910000009733852491548412034_">
			<path class="st35" d="M80.21,59.36c-0.39,0-0.77,0.1-1.11,0.27c-0.79,0.34-1.64,0.52-2.51,0.52c-3.67,0-7.2-2.18-7.2-6.68
				c0-2.68,2.75-5.41,5.46-5.86c1.37-0.23,3.36,0.44,4.44,0.96c0.42,0.21,0.89,0.32,1.36,0.32h0.67l0.04-14.8
				c0-1.01-0.9-1.83-1.72-1.83h-43.9c-1.4,0-2.3,0.82-2.3,1.83v15.27l1.77-0.1c0.41,0,0.82-0.07,1.2-0.21
				c0.76-0.28,1.56-0.77,2.44-0.77c3.76,0,6.39,2.13,6.23,5.58c-0.13,3.04-2.39,5.42-5.73,5.64c-1.1,0.05-2.19-0.16-3.18-0.63
				c-0.45-0.2-0.94-0.31-1.44-0.32l-1.29,0.03v14.96c0,1.24,1.1,2.24,2.46,2.24h42.98c1.36,0,2.46-1,2.46-2.24V59.36L80.21,59.36z"
				/>
			<ellipse class="st36" cx="56.34" cy="55.98" rx="8.85" ry="3.2"/>
			<ellipse class="st37" cx="56.54" cy="56.54" rx="7.63" ry="2.76"/>
			<path class="st38" d="M51.7,56.98l-0.22-17.96c-0.2-4.47,2.23-8.31,6.7-8.38l0.41,0.02c4.16,0.17,7.49,3.51,7.66,7.67
				c0.15,3.87,0.27,8.15,0.16,10.22c-0.24,4.28-4.54,4.78-4.54,4.78s-0.03,2.61-0.02,3.87l-1.36,2.72l-1.16-0.64L51.7,56.98z"/>
			<path class="st39" d="M61.87,53.12c-1.98-0.09-3.89-0.74-5.51-1.88c0,0,1.2,3.28,5.5,3.07L61.87,53.12z"/>
			<path class="st32" d="M65.27,39.98c-0.08,0.08-0.53-0.29-1.19-0.31c-0.66-0.03-1.16,0.29-1.22,0.2
				c-0.03-0.04,0.05-0.18,0.27-0.32c0.29-0.19,0.64-0.28,0.98-0.26c0.34,0.02,0.67,0.14,0.93,0.36
				C65.24,39.8,65.3,39.95,65.27,39.98z"/>
			<path class="st32" d="M58.8,39.86c-0.08,0.08-0.53-0.28-1.19-0.31s-1.15,0.28-1.22,0.2c-0.03-0.04,0.05-0.18,0.27-0.32
				c0.29-0.19,0.64-0.28,0.98-0.27c0.34,0.01,0.67,0.13,0.94,0.35C58.78,39.68,58.84,39.83,58.8,39.86z"/>
			<path class="st38" d="M51.7,42.01c-0.07-0.03-2.91-0.99-2.94,1.94c-0.03,2.93,2.92,2.36,2.93,2.27
				C51.69,46.14,51.7,42.01,51.7,42.01z"/>
			<path d="M59.8,47.31c0.09-0.05,0.44,0.51,1.18,0.62s1.31-0.34,1.36-0.27c0.02,0.04-0.07,0.2-0.32,0.36
				c-0.33,0.21-0.73,0.3-1.12,0.25c-0.38-0.05-0.72-0.24-0.96-0.54C59.78,47.51,59.76,47.33,59.8,47.31z"/>
			<path class="st36" d="M79.3,75.74c0,0-4.41-16.28-9.53-17.51l-1.95-0.57l0,0l-5.9-1.6c0,0,0.04,2.27-3.24,2.34
				c-3.79,0.08-6.97-3.24-6.97-3.24s-7.87,2.45-9.52,3.79c-1.65,1.33,1.07,16.75,1.07,16.75h28.8l0,0L79.3,75.74z"/>
			<path class="st36" d="M42.13,58.95c-1.65,1.28-2.78,3.11-3.18,5.15c-0.69,3.46-2.13,11.6-2.13,11.6h12.03
				c0,0-0.55-5.03-0.55-5.41s-2.08-8.62-2.21-8.81C45.96,61.3,42.13,58.95,42.13,58.95z"/>
			<path d="M47.35,75.72c-0.01-0.14-0.01-0.28,0-0.42c0-0.29,0-0.67,0-1.14c0-0.96,0-2.29,0-3.75s-0.06-2.79-0.09-3.75
				c-0.02-0.46-0.03-0.85-0.04-1.14c-0.01-0.14-0.01-0.28,0-0.42c0.03,0.14,0.04,0.28,0.05,0.42c0.02,0.27,0.05,0.66,0.07,1.13
				c0.06,0.96,0.11,2.29,0.13,3.75c0.02,1.47,0,2.79-0.03,3.75c-0.01,0.48-0.03,0.87-0.05,1.14C47.4,75.44,47.38,75.58,47.35,75.72z
				"/>
			<path d="M70.41,64.06c0.03,0,0.41,2.58,0.84,5.77c0.43,3.19,0.74,5.77,0.72,5.78s-0.41-2.58-0.84-5.77
				C70.7,66.65,70.38,64.07,70.41,64.06z"/>
			<path class="st32" d="M71.5,32.39c0-0.04,0.01-0.08,0.01-0.12c0-1.34-1.09-2.43-2.43-2.43c-0.37,0-0.72,0.09-1.03,0.24
				c-0.33-0.9-1.19-1.55-2.2-1.55c-0.6,0-1.14,0.23-1.56,0.6c-0.57-0.47-1.12-0.82-1.67-1.05c-1.43-0.59-3.82-0.85-5.32-0.48
				c-1.5,0.37-2.85,1.57-3.08,3.1c-0.83-0.72-2.09-0.72-3.11-0.33h-0.03c-1.09,0.37-1.73,1.47-2.09,2.57
				c-1.32,0.03-2.38,1.1-2.38,2.43c0,0.88,0.47,1.64,1.17,2.07c-0.17,0.33-0.28,0.71-0.28,1.11c0,1.34,1.09,2.43,2.43,2.43
				c0.01,0,0.02,0,0.04,0c0.06,0.38,0.13,0.7,0.21,0.92c0.78,0.02,0.96-0.06,1.36,0.07c0.51,0.17,0.3,1.07,0.96,0.82
				c0.34-0.12,0.87-1.4,0.99-1.74c0.77-2.28,1.05-4.69,0.81-7.08c0.48-0.5,1.05-0.9,1.68-1.18l-0.05,0.05c1.2-0.4,2.57-0.8,3.7-0.22
				c0.88,0.45,1.39,1.37,2.04,2.11c1.24,1.4,2.64,2.16,4.51,2.26c0.15,1.3,0.18,3.42,0.24,4.63l1.06-2.4
				c0.07-0.11,0.12-0.23,0.18-0.34c0.4,0.3,0.9,0.48,1.44,0.48c1.31,0,2.37-1.04,2.42-2.33c0.98-0.31,1.7-1.22,1.7-2.31
				C73.2,33.61,72.48,32.7,71.5,32.39z"/>
			<path class="st40" d="M56.82,50.66c0.29-0.21,0.57-0.39,0.82-0.55c-0.47,0.63-0.58,1.02,0.77,0.03c0.36-0.26,0.69-0.47,0.99-0.65
				c-0.48,0.64-0.71,0.89,0.76,0.05c0.75-0.43,1.27-0.84,1.58-1.24c0.3,0.4,0.83,0.81,1.58,1.24c1.47,0.84,1.24,0.59,0.76-0.05
				c0.31,0.18,0.64,0.39,0.99,0.65c1.35,0.99,1.24,0.6,0.77-0.03c0.26,0.16,0.53,0.34,0.82,0.55c2.52,1.84,0.32-1.11-0.11-1.62
				c-1.33-1.57-3.55-3.63-4.72-2.47c-0.04,0.04-0.07,0.08-0.1,0.12c-0.03-0.04-0.06-0.08-0.1-0.12c-1.16-1.16-3.38,0.9-4.72,2.47
				C56.5,49.54,54.31,52.49,56.82,50.66L56.82,50.66z"/>
			<path d="M61.07,43.09c0.64,0.27,1.13,0.79,1.58,1.29c-0.24,0.12-0.49,0.24-0.75,0.31c-0.06,0.01-0.18,0.07-0.21,0.03
				c0,0,0.64-0.41,0.64-0.41l0,0.03C61.92,43.93,61.4,43.5,61.07,43.09L61.07,43.09z"/>
			<path d="M56.69,41.96c0,0,1.1-1.22,1.81,0.18"/>
			<path d="M63.16,42.12c0,0,0.87-1.4,1.82-0.13"/>
			<path class="st36" d="M64.71,55.36c0,0.19-0.02,0.38-0.07,0.57c-0.54,2.17-4.1,3.85-8.41,3.85c-4.25,0-7.78-1.63-8.38-3.76
				c-0.06-0.21-0.09-0.43-0.09-0.66l9.64,2.44L64.71,55.36z"/>
			<g>
				<path class="st41" d="M56.12,66.58"/>
				<path class="st41" d="M57.4,57.8"/>
				<path d="M57.42,57.8c-0.38,2.57-0.64,6.33-1.31,8.77c0.08-1.48,0.3-2.94,0.56-4.4C56.69,62.18,57.36,57.75,57.42,57.8
					L57.42,57.8z"/>
			</g>
			<g>
				<line class="st41" x1="57.4" y1="57.8" x2="58.6" y2="66.59"/>
				<path d="M57.42,57.79c0.34,2.58,1.13,6.26,1.17,8.79c-0.33-1.45-0.52-2.91-0.68-4.38C57.92,62.2,57.35,57.75,57.42,57.79
					L57.42,57.79z"/>
			</g>
		</g>
		<g id="character_00000183209714984702207830000007450533013479369137_">
			<path class="st41" d="M128.34,140.89V98.26c0-1.34-1.08-2.42-2.42-2.42H110.2v-1.06c0-0.49,0.12-0.98,0.34-1.43
				c1.56-3.26,0.19-7.16-3.06-8.73c-3.26-1.56-7.16-0.19-8.73,3.06c-0.83,1.72-0.86,3.72-0.09,5.47c0.19,0.42,0.29,0.87,0.29,1.32
				v1.37H83.62c-1.34,0-2.42,1.08-2.42,2.42v42.63c0,1.09,0.88,1.97,1.97,1.97l0,0h43.2C127.45,142.87,128.34,141.99,128.34,140.89
				C128.34,140.9,128.34,140.9,128.34,140.89z"/>
			<path class="st42" d="M114.42,122c-0.11-2.9-0.21-5.82-0.77-8.67c-0.56-2.85-1.26-5.63-3.05-7.92l-16.8,0.89
				c-0.65,2.57-1.3,5.21-1.03,7.85c0.26,2.56,1.39,5.03,1.2,7.6c-0.13,1.81-0.9,3.51-1.47,5.24c-0.57,1.73-0.93,3.65-0.26,5.34
				c0.15,0.44,0.43,0.82,0.81,1.09c0.48,0.31,1.07,0.32,1.64,0.32c6.71,0.01,13.43-0.14,20.14-0.46
				C114.69,129.53,114.56,125.77,114.42,122z"/>
			<path class="st26" d="M111.87,112.63c0.08,3.63-1.41,7.12-4.09,9.58l-1.82-5.24"/>
			<path class="st42" d="M98.14,102.2c1.56-0.85,3.45-0.96,5.2-0.62s3.36,1.13,4.91,2.02c0.87,0.5,1.73,1.05,2.35,1.82
				c1.13,1.42,2.26,3.75,2.36,5.56c0.09,1.46-0.48,5.13-1.1,6.46c-0.57,1.22-3.24,2.15-4.57,2.45l-12.1-13.99
				C95.65,104.32,96.7,102.99,98.14,102.2z"/>
			<path class="st42" d="M96.05,104.1l2.9-0.52c-1.58,3.75-2.01,12.34-2.92,16.31c-1.07-1.54-3.55-6.25-3.42-8.11
				C92.74,109.93,92.61,103.77,96.05,104.1z"/>
			<path class="st38" d="M109.81,110.33c-0.12-2.15-1.62-3.98-3.71-4.52l-6.7-1.71c-2.88-0.31-4.81,3.22-5,6.1
				c-0.21,3.2-0.34,6.58,0.04,8.97c0.76,4.81,4.46,5.42,4.46,5.42s0,1.11,0,2.51l0.07,0.18c1.72,4.03,7.39,4.21,9.37,0.31l0,0
				l1.49-17.2C109.83,110.31,109.82,110.45,109.81,110.33z"/>
			<path class="st42" d="M99.07,117.3c0-0.03-0.34-0.09-0.89-0.16c-0.14-0.01-0.27-0.04-0.3-0.14c-0.01-0.14,0.02-0.29,0.09-0.41
				l0.42-1.05c0.58-1.5,0.99-2.73,0.93-2.75c-0.05-0.02-0.58,1.18-1.16,2.67c-0.14,0.37-0.27,0.72-0.4,1.06
				c-0.09,0.17-0.11,0.36-0.07,0.54c0.04,0.1,0.13,0.17,0.23,0.2c0.08,0.02,0.16,0.03,0.24,0.03
				C98.72,117.32,99.07,117.33,99.07,117.3z"/>
			<path class="st43" d="M105.3,122.89c0,0-1.57,3.3-6.4,2.84v-1.13C101.14,124.63,103.36,124.04,105.3,122.89z"/>
			<path class="st42" d="M101.66,109.7c0.06,0.18,0.72,0.1,1.51,0.19c0.79,0.1,1.42,0.31,1.52,0.15c0.05-0.08-0.06-0.24-0.32-0.42
				c-0.69-0.44-1.54-0.53-2.31-0.26C101.78,109.47,101.63,109.61,101.66,109.7z"/>
			<path class="st42" d="M95.34,110.06c0.12,0.15,0.58,0,1.13-0.01s1.02,0.1,1.13-0.05c0.05-0.08-0.02-0.24-0.23-0.37
				c-0.56-0.35-1.28-0.33-1.82,0.05C95.35,109.83,95.29,109.99,95.34,110.06z"/>
			<rect x="98.89" y="127.37" class="st38" width="10.03" height="14.37"/>
			<path class="st42" d="M95.71,105.82c0.3-0.72,1.09-1.16,1.88-1.2c0.79,0,1.56,0.22,2.23,0.65c2.88,1.65,4.35,5.65,7.2,7.36
				c0.7,0.42,1.61,0.03,2.21,0.59c0.6,0.56,0.98,1.44,0.65,2.19c0.41-0.5,0.74-1.06,0.99-1.66c0.25-0.61,0.22-1.29-0.08-1.87
				c-0.24-0.42-0.68-0.75-0.8-1.22c-0.11-0.42,0.06-0.86,0.04-1.29c-0.05-0.44-0.2-0.86-0.44-1.23c-1.12-1.96-2.64-3.73-4.62-4.83
				c-1.29-0.74-2.76-1.12-4.24-1.09c-1.49,0.04-2.92,0.6-4.03,1.59C96.04,104.41,95.38,105.02,95.71,105.82"/>
			<path class="st38" d="M109.15,113.82c0.05-0.14,2.57-1.04,2.6,1.62c0.03,2.59-2.59,2.08-2.6,2
				C109.15,117.37,109.15,113.82,109.15,113.82z"/>
			<path class="st42" d="M109.53,113.22c0.04,0.71,0.07,1.45-0.25,2.08s-1.16,1.06-1.78,0.7c-0.5-0.29-0.65-0.93-0.74-1.5
				c-0.24-1.65-0.36-3.31-0.62-4.96L109.53,113.22z"/>
			<path class="st38" d="M117.13,135.63l7.72,8.23c1.28,1.36,2.2,2.6,4.01,3.07c1.27,0.33,3.25,0.16,3.91-0.68
				c0.9-1.14,1.33-3.49,0.34-5c-0.99-1.51-16.38-15.88-16.38-15.88L117.13,135.63"/>
			<path class="st38" d="M84.25,142.91c0-0.51,2.91-11.05,5.85-12.26l2.27,3.49l0.64,8.79L84.25,142.91z"/>
			<path class="st36" d="M119.27,138.01l-2.55-12.64l-8.25-0.08c-1.81,2.05-2.44,15.86-4.38,16.06c-1.31,0.14-3.88-12.52-5.3-14.11
				l-8.69,3.42l2.26,12.27l26.21-0.02C119.59,139.54,119.27,138.01,119.27,138.01z"/>
			<path class="st42" d="M91.05,127.67c0,0.03,0.09,0.06,0.26,0.05c0.25-0.01,0.49-0.07,0.71-0.18c0.35-0.17,0.67-0.41,0.93-0.7
				c0.35-0.39,0.61-0.84,0.78-1.33c0.19-0.58,0.31-1.19,0.33-1.8c0.04-0.65,0.02-1.32,0-2.03c-0.06-1.42-0.22-2.96-0.41-4.57
				c-0.19-1.61-0.36-3.12-0.43-4.5c-0.07-1.22-0.06-2.44,0.04-3.66c0.18-2.07,0.62-3.31,0.48-3.36c-0.03-0.01-0.09,0.05-0.17,0.19
				c-0.04,0.07-0.09,0.16-0.14,0.26c-0.06,0.1-0.1,0.23-0.16,0.37c-0.32,0.79-0.55,1.62-0.68,2.46c-0.21,1.25-0.29,2.51-0.26,3.77
				c0.02,1.42,0.17,2.98,0.36,4.58c0.19,1.61,0.38,3.12,0.48,4.51c0.05,0.69,0.09,1.35,0.09,1.95c0.01,0.55-0.05,1.09-0.18,1.62
				c-0.18,0.76-0.62,1.43-1.24,1.9C91.37,127.53,91.04,127.59,91.05,127.67z"/>
			<path class="st42" d="M97.39,104.64c0-0.01-0.02-0.03-0.08-0.04c-0.08-0.02-0.17-0.02-0.25,0c-0.13,0.02-0.26,0.08-0.38,0.15
				c-0.15,0.1-0.28,0.23-0.38,0.38c-0.12,0.18-0.21,0.37-0.27,0.57c-0.07,0.21-0.13,0.44-0.18,0.68c-0.11,0.48-0.19,1.01-0.27,1.57
				c-0.08,0.56-0.16,1.08-0.26,1.55c-0.09,0.41-0.2,0.82-0.34,1.22c-0.25,0.68-0.51,1.06-0.47,1.09c0.01,0.01,0.03-0.01,0.08-0.05
				c0.02-0.02,0.04-0.04,0.07-0.07c0.03-0.03,0.06-0.07,0.09-0.11c0.18-0.24,0.33-0.49,0.45-0.76c0.18-0.4,0.33-0.82,0.43-1.24
				c0.12-0.48,0.21-1.01,0.29-1.57s0.15-1.08,0.25-1.55c0.05-0.24,0.09-0.46,0.14-0.66c0.05-0.18,0.12-0.36,0.21-0.53
				c0.13-0.24,0.34-0.42,0.59-0.52C97.27,104.65,97.38,104.66,97.39,104.64z"/>
			<path class="st42" d="M97.39,103.71c0-0.01-0.03-0.03-0.09-0.04c-0.09-0.02-0.19-0.02-0.28-0.01c-0.15,0.02-0.29,0.07-0.41,0.14
				c-0.16,0.09-0.3,0.22-0.41,0.37c-0.12,0.18-0.22,0.37-0.28,0.57c-0.07,0.21-0.13,0.44-0.18,0.68c-0.11,0.48-0.18,1.02-0.26,1.57
				c-0.08,0.56-0.15,1.08-0.25,1.55c-0.08,0.42-0.2,0.82-0.35,1.22c-0.26,0.68-0.53,1.05-0.48,1.08c0.01,0.01,0.04-0.01,0.08-0.05
				c0.02-0.02,0.05-0.04,0.08-0.07s0.06-0.07,0.09-0.11c0.19-0.23,0.35-0.49,0.48-0.76c0.19-0.4,0.34-0.81,0.44-1.24
				c0.12-0.48,0.21-1.01,0.28-1.57c0.08-0.56,0.14-1.09,0.23-1.56c0.04-0.24,0.09-0.46,0.14-0.66c0.05-0.18,0.12-0.36,0.21-0.53
				c0.13-0.24,0.36-0.42,0.63-0.51C97.26,103.72,97.39,103.73,97.39,103.71z"/>
			<path class="st42" d="M96.8,104.74c0-0.01-0.04-0.03-0.12-0.05c-0.12-0.03-0.24-0.04-0.36-0.04c-0.19,0-0.36,0.02-0.51,0.07
				c-0.2,0.06-0.36,0.15-0.48,0.26c-0.14,0.13-0.24,0.28-0.29,0.45c-0.07,0.17-0.11,0.36-0.15,0.55c-0.08,0.39-0.11,0.84-0.13,1.3
				s-0.05,0.9-0.12,1.29c-0.05,0.34-0.15,0.67-0.29,0.99c-0.24,0.54-0.55,0.82-0.48,0.86c0.01,0.01,0.05,0,0.1-0.03
				c0.03-0.01,0.06-0.03,0.09-0.05c0.03-0.02,0.07-0.05,0.11-0.08c0.21-0.18,0.39-0.37,0.52-0.58c0.19-0.31,0.33-0.65,0.41-1
				c0.09-0.39,0.14-0.84,0.16-1.3s0.04-0.9,0.1-1.3c0.03-0.19,0.05-0.38,0.1-0.55c0.04-0.15,0.11-0.29,0.21-0.42
				c0.14-0.18,0.41-0.31,0.75-0.36C96.63,104.74,96.8,104.77,96.8,104.74z"/>
			<path class="st42" d="M98.23,104.38c0.27,0.02,0.53,0.13,0.72,0.31c0.14,0.13,0.26,0.28,0.36,0.44c0.12,0.17,0.23,0.37,0.35,0.58
				c0.24,0.42,0.47,0.9,0.72,1.4c0.25,0.5,0.51,0.98,0.77,1.4c0.23,0.37,0.5,0.72,0.8,1.04c0.2,0.22,0.43,0.41,0.67,0.58
				c0.04,0.03,0.08,0.06,0.12,0.07c0.04,0.02,0.07,0.04,0.09,0.05c0.05,0.02,0.08,0.03,0.09,0.02c0.03-0.04-0.33-0.32-0.78-0.88
				c-0.26-0.33-0.5-0.68-0.71-1.05c-0.24-0.41-0.48-0.88-0.74-1.39c-0.25-0.5-0.5-0.98-0.76-1.4c-0.13-0.21-0.25-0.41-0.39-0.59
				c-0.12-0.17-0.27-0.33-0.44-0.46c-0.14-0.11-0.31-0.19-0.48-0.24c-0.13-0.03-0.27-0.04-0.4-0.02c-0.08,0.01-0.17,0.04-0.24,0.08
				c-0.05,0.03-0.07,0.06-0.06,0.06C97.93,104.42,98.04,104.38,98.23,104.38z"/>
			<path class="st42" d="M97.95,103.97c0.27,0.05,0.51,0.18,0.68,0.39c0.12,0.14,0.23,0.3,0.31,0.47c0.1,0.19,0.19,0.4,0.28,0.62
				c0.19,0.44,0.37,0.94,0.56,1.47c0.2,0.53,0.4,1.03,0.61,1.47c0.19,0.4,0.42,0.77,0.68,1.13c0.18,0.24,0.38,0.46,0.6,0.65
				c0.04,0.03,0.07,0.06,0.11,0.09c0.03,0.02,0.06,0.04,0.09,0.06c0.05,0.03,0.08,0.04,0.08,0.03c0.04-0.04-0.3-0.35-0.68-0.96
				c-0.22-0.36-0.42-0.74-0.59-1.12c-0.2-0.44-0.38-0.93-0.58-1.46c-0.2-0.53-0.39-1.03-0.6-1.48c-0.1-0.22-0.21-0.43-0.32-0.63
				c-0.1-0.19-0.23-0.35-0.39-0.5c-0.13-0.13-0.28-0.22-0.45-0.29c-0.13-0.05-0.26-0.07-0.4-0.07c-0.09,0-0.17,0.02-0.25,0.06
				c-0.05,0.03-0.08,0.05-0.07,0.06C97.64,103.97,97.75,103.94,97.95,103.97z"/>
			<path class="st42" d="M97.69,103.99c0.36-0.12,0.7-0.11,0.95,0.01c0.18,0.09,0.33,0.2,0.46,0.34c0.14,0.15,0.28,0.34,0.42,0.53
				c0.29,0.39,0.57,0.85,0.87,1.33c0.3,0.48,0.61,0.93,0.94,1.3c0.29,0.33,0.62,0.62,1,0.86c0.26,0.16,0.54,0.29,0.86,0.37
				c0.06,0.01,0.11,0.03,0.15,0.03c0.05,0.01,0.09,0.01,0.12,0.01c0.07,0,0.11,0,0.12-0.02c0.04-0.07-0.43-0.22-0.99-0.67
				c-0.33-0.27-0.62-0.58-0.88-0.91c-0.3-0.38-0.59-0.83-0.89-1.31c-0.3-0.48-0.6-0.94-0.91-1.32c-0.16-0.19-0.31-0.36-0.48-0.52
				c-0.15-0.15-0.34-0.26-0.56-0.33c-0.18-0.06-0.4-0.08-0.63-0.04c-0.18,0.03-0.36,0.09-0.55,0.18c-0.12,0.06-0.23,0.13-0.33,0.22
				c-0.07,0.06-0.1,0.1-0.09,0.11C97.28,104.2,97.43,104.09,97.69,103.99z"/>
			<path class="st44" d="M99.76,118.56c0.25-0.33,0.64-0.51,1.06-0.48c0.3,0.01,0.57,0.15,0.77,0.37c0.19,0.22,0.22,0.53,0.08,0.78
				c-0.21,0.25-0.55,0.34-0.86,0.24c-0.32-0.1-0.61-0.26-0.87-0.47c-0.08-0.05-0.14-0.11-0.2-0.19c-0.05-0.07-0.05-0.17,0-0.24"/>
			<path class="st42" d="M101.38,117.37c-0.11,0-0.08,0.72-0.68,1.24s-1.37,0.48-1.37,0.58c0,0.05,0.18,0.13,0.5,0.13
				c0.42-0.01,0.83-0.17,1.14-0.45c0.3-0.27,0.49-0.64,0.52-1.04C101.52,117.53,101.43,117.36,101.38,117.37z"/>
			<path class="st42" d="M113.84,114.4c0.91,3.3,0.14,7.72,1.04,10.37c0.9,2.65,1.55,5.6,0.54,8.21l-1.4-3.09
				c0.56,1.24,0.45,2.68-0.3,3.82c-0.75,1.11-4.53,2.05-5.87,1.99c-1.36-7.17-0.99-12.65,1.36-18.19l1.81,2l1.63-0.7L113.84,114.4z"
				/>
			<path class="st42" d="M99.56,113.56c0.02-0.25,0.06-0.5,0.12-0.75c0.08-0.29,0.19-0.56,0.35-0.82c0.46-0.75,1.22-1.28,2.08-1.44
				c0.54-0.1,1.1-0.05,1.61,0.14c0.28,0.1,0.54,0.24,0.78,0.42c0.12,0.09,0.24,0.19,0.35,0.29c0.11,0.11,0.21,0.23,0.3,0.36
				c0.8,1.07,0.8,2.53,0,3.6c-0.09,0.12-0.19,0.24-0.3,0.35c-0.11,0.11-0.23,0.21-0.35,0.3c-0.24,0.18-0.5,0.32-0.78,0.42
				c-0.52,0.19-1.07,0.23-1.61,0.13c-0.87-0.16-1.63-0.69-2.08-1.44c-0.16-0.25-0.27-0.53-0.35-0.81c-0.06-0.25-0.1-0.5-0.12-0.75
				c0,0.02,0,0.03,0,0.05c0,0.04,0,0.09,0,0.15c0,0.08,0.01,0.16,0.02,0.24c0.01,0.11,0.03,0.22,0.06,0.32
				c0.07,0.29,0.18,0.58,0.34,0.83c0.2,0.35,0.47,0.65,0.79,0.89c0.39,0.3,0.84,0.5,1.32,0.59c0.55,0.1,1.13,0.06,1.66-0.13
				c0.29-0.1,0.56-0.24,0.8-0.43c0.12-0.09,0.24-0.19,0.35-0.29c0.11-0.11,0.22-0.23,0.31-0.36c0.82-1.1,0.82-2.62,0-3.72
				c-0.09-0.13-0.2-0.25-0.31-0.37c-0.11-0.11-0.23-0.21-0.36-0.3c-0.24-0.18-0.51-0.33-0.8-0.43c-0.53-0.19-1.1-0.24-1.66-0.13
				c-0.48,0.09-0.94,0.29-1.32,0.59c-0.32,0.24-0.59,0.55-0.79,0.89c-0.15,0.26-0.27,0.54-0.34,0.83c-0.03,0.11-0.05,0.21-0.06,0.32
				c-0.01,0.08-0.02,0.16-0.02,0.24c0,0.06,0,0.11,0,0.15C99.55,113.52,99.55,113.54,99.56,113.56z"/>
			<path class="st42" d="M92.56,113.43c0.02-0.25,0.06-0.5,0.12-0.75c0.07-0.29,0.19-0.56,0.35-0.82c0.46-0.76,1.21-1.28,2.08-1.44
				c0.54-0.1,1.1-0.05,1.61,0.13c0.28,0.1,0.54,0.24,0.78,0.42c0.12,0.09,0.24,0.19,0.35,0.3c0.11,0.11,0.21,0.23,0.3,0.35
				c0.8,1.07,0.8,2.53,0,3.6c-0.09,0.12-0.19,0.24-0.3,0.35c-0.11,0.11-0.22,0.21-0.35,0.3c-0.24,0.18-0.5,0.32-0.78,0.42
				c-0.52,0.19-1.07,0.23-1.61,0.14c-0.87-0.16-1.63-0.69-2.09-1.44c-0.16-0.25-0.27-0.53-0.35-0.82c-0.06-0.25-0.1-0.5-0.12-0.75
				c0,0.02,0,0.03,0,0.05c0,0.04,0,0.09,0,0.15c0,0.08,0.01,0.16,0.02,0.24c0.01,0.12,0.03,0.23,0.06,0.35
				c0.07,0.29,0.18,0.58,0.34,0.83c0.46,0.78,1.23,1.32,2.11,1.49c0.56,0.1,1.13,0.06,1.66-0.13c0.29-0.1,0.56-0.24,0.8-0.43
				c0.13-0.1,0.26-0.21,0.37-0.32c0.11-0.11,0.22-0.23,0.31-0.36c0.82-1.1,0.82-2.61,0-3.72c-0.09-0.13-0.2-0.25-0.31-0.36
				c-0.11-0.11-0.23-0.21-0.36-0.3c-0.24-0.18-0.51-0.33-0.8-0.43c-0.53-0.19-1.11-0.24-1.66-0.13c-0.48,0.09-0.93,0.3-1.32,0.59
				c-0.32,0.24-0.59,0.55-0.79,0.89c-0.16,0.26-0.27,0.54-0.34,0.83c-0.03,0.11-0.05,0.21-0.06,0.32c-0.01,0.08-0.02,0.16-0.02,0.24
				c0,0.06,0,0.11,0,0.15C92.57,113.39,92.57,113.41,92.56,113.43z"/>
			<path class="st45" d="M98.74,113.04c0,0,0.05-0.04,0.12-0.09c0.09-0.07,0.2-0.12,0.32-0.13c0.12-0.01,0.23,0.02,0.33,0.08
				c0.08,0.04,0.12,0.08,0.14,0.07c0.01-0.01-0.02-0.07-0.1-0.13c-0.22-0.18-0.55-0.15-0.74,0.06
				C98.74,112.97,98.73,113.03,98.74,113.04z"/>
			<path class="st45" d="M105.68,112.77c0.62,0.18,1.25,0.33,1.89,0.45c0.63,0.15,1.27,0.27,1.91,0.35
				C108.23,113.23,106.96,112.97,105.68,112.77z"/>
			<path class="st23" d="M104.25,115.73c0.07-0.01,0.13-0.04,0.19-0.08c0.16-0.1,0.29-0.22,0.41-0.37c0.17-0.21,0.31-0.45,0.41-0.7
				c0.12-0.31,0.18-0.65,0.18-0.98c0-0.61-0.19-1.21-0.53-1.71c-0.1-0.15-0.22-0.29-0.36-0.42c-0.05-0.05-0.1-0.09-0.16-0.12
				c0.17,0.18,0.32,0.38,0.46,0.58c0.32,0.5,0.48,1.09,0.48,1.68c0,0.33-0.06,0.65-0.17,0.96c-0.09,0.25-0.22,0.48-0.38,0.69
				c-0.11,0.14-0.23,0.27-0.38,0.38C104.31,115.69,104.25,115.72,104.25,115.73z"/>
			<path class="st23" d="M102.88,116.21c0.19,0.02,0.38-0.01,0.56-0.08c0.18-0.04,0.36-0.13,0.5-0.25c-0.18,0.04-0.36,0.1-0.53,0.17
				C103.23,116.09,103.05,116.14,102.88,116.21z"/>
			<path class="st23" d="M95.6,110.72c0,0.02,0.21,0.02,0.54,0.09c0.86,0.18,1.61,0.73,2.04,1.5c0.17,0.29,0.23,0.49,0.24,0.48
				c0.01-0.01,0-0.06-0.03-0.15c-0.04-0.13-0.09-0.25-0.15-0.37c-0.42-0.81-1.19-1.38-2.09-1.53c-0.13-0.02-0.27-0.03-0.4-0.03
				C95.7,110.7,95.65,110.71,95.6,110.72z"/>
			<path class="st23" d="M98.27,114.26c0.12-0.13,0.19-0.3,0.2-0.48c0.05-0.17,0.04-0.36-0.02-0.53c-0.03,0.17-0.06,0.34-0.07,0.51
				C98.34,113.93,98.3,114.1,98.27,114.26z"/>
			<path class="st42" d="M105.28,136.54c0.05,0.03,0.25-0.16,0.53-0.56c0.38-0.58,0.69-1.21,0.92-1.87c0.34-0.97,0.57-1.98,0.7-3
				c0.15-1.23,0.24-2.47,0.27-3.71c0.04-1.3,0.08-2.54,0.17-3.65c0.07-0.98,0.22-1.95,0.43-2.91c0.37-1.63,0.88-2.57,0.74-2.64
				c-0.06-0.03-0.24,0.16-0.52,0.57c-0.37,0.59-0.67,1.22-0.89,1.88c-0.32,0.98-0.55,1.98-0.67,3c-0.15,1.14-0.21,2.4-0.25,3.71
				s-0.08,2.53-0.19,3.64c-0.08,0.97-0.24,1.94-0.46,2.89C105.67,135.53,105.14,136.46,105.28,136.54z"/>
			<path class="st32" d="M111.1,117.32c0,0,0.06,0.05,0.15,0.16c0.12,0.15,0.19,0.33,0.21,0.52c0.03,0.28-0.07,0.57-0.28,0.76
				c-0.25,0.25-0.61,0.35-0.95,0.26c-0.34-0.08-0.62-0.32-0.74-0.65c-0.1-0.27-0.1-0.56,0-0.83c0.06-0.18,0.18-0.34,0.35-0.44
				c0.07-0.03,0.13-0.05,0.2-0.05c-0.02,0-0.04,0-0.06,0c-0.06,0-0.11,0.01-0.16,0.03c-0.19,0.09-0.33,0.25-0.4,0.44
				c-0.12,0.28-0.12,0.6-0.02,0.88c0.13,0.36,0.44,0.63,0.81,0.72c0.19,0.05,0.39,0.04,0.58-0.01c0.17-0.06,0.33-0.15,0.46-0.28
				c0.11-0.12,0.19-0.26,0.24-0.41c0.04-0.14,0.05-0.28,0.03-0.42c-0.02-0.2-0.11-0.39-0.24-0.54
				C111.23,117.41,111.17,117.36,111.1,117.32z"/>
			<path class="st32" d="M111.62,116.82c0,0,0.04,0.04,0.1,0.11c0.08,0.1,0.13,0.22,0.14,0.35c0.02,0.19-0.05,0.38-0.19,0.51
				c-0.17,0.17-0.41,0.23-0.64,0.18c-0.23-0.06-0.42-0.22-0.5-0.44c-0.07-0.18-0.07-0.38,0-0.56c0.04-0.12,0.12-0.23,0.23-0.29
				c0.04-0.02,0.09-0.03,0.14-0.04c-0.01,0-0.03,0-0.04,0c-0.04,0-0.08,0.01-0.11,0.02c-0.13,0.06-0.22,0.17-0.27,0.3
				c-0.08,0.19-0.08,0.4-0.01,0.6c0.09,0.24,0.29,0.42,0.54,0.49c0.13,0.03,0.26,0.03,0.39-0.01c0.12-0.04,0.22-0.1,0.31-0.19
				c0.08-0.08,0.13-0.17,0.16-0.28c0.03-0.09,0.04-0.19,0.02-0.28c-0.02-0.14-0.07-0.26-0.16-0.36
				C111.71,116.88,111.67,116.84,111.62,116.82z"/>
			<path class="st32" d="M111.99,116.18c0,0,0.03,0.03,0.07,0.08c0.06,0.07,0.09,0.16,0.1,0.26c0.02,0.14-0.04,0.28-0.14,0.38
				c-0.12,0.12-0.3,0.17-0.47,0.13c-0.17-0.04-0.3-0.16-0.37-0.32c-0.05-0.13-0.05-0.28,0-0.41c0.03-0.09,0.09-0.17,0.17-0.22
				c0.03-0.01,0.07-0.02,0.1-0.03c-0.01,0-0.02,0-0.03,0c-0.03,0-0.06,0-0.08,0.02c-0.09,0.04-0.16,0.12-0.2,0.22
				c-0.06,0.14-0.06,0.3-0.01,0.44c0.07,0.18,0.22,0.31,0.4,0.36c0.09,0.02,0.19,0.02,0.29-0.01c0.09-0.03,0.16-0.08,0.23-0.14
				c0.06-0.06,0.1-0.13,0.12-0.2c0.02-0.07,0.03-0.14,0.02-0.21c-0.01-0.1-0.05-0.19-0.12-0.27
				C112.05,116.22,112.02,116.19,111.99,116.18z"/>
			<path class="st38" d="M127.57,124.43l-0.24-3.12l-0.64-3.96l-0.99-3.24c0,0-0.2-0.31-0.6-0.02c-0.39,0.29,0.17,2.06,0.17,2.06
				l0.21,1.35c0,0-0.13,1.07-0.22,0.99c-0.09-0.08-0.55-1.88-0.55-1.88l-1.2-3.85c-0.14-0.24-0.45-0.33-0.7-0.2
				c-0.26,0.11-0.4,0.52-0.3,1.1c0.1,0.58,0.46,1.54,0.52,1.86c0.06,0.33,0.48,2.22,0.48,2.22l-1.8-4.28c0,0-0.4-1.41-0.98-1.13
				c-0.58,0.27-0.06,1.25,0,1.7c0.06,0.44,1.27,3.35,1.29,4.19c0.02,0.84-0.16,0.44-0.16,0.44l-0.89-2.4
				c-0.39-1.06-0.87-1.64-1.36-1.68s0.44,2.44,0.44,2.44l1.19,3.44l-0.08,1.14l-0.9-0.93c0,0-0.17-1.32-1.06-1.78
				c-0.89-0.46-1.04,0.18-1.04,0.18l2.11,4.95c0.46,0.8,3.01,2.16,3.01,2.16l0.98,5.09l5.33-0.89L127.57,124.43z"/>
			<polygon class="st38" points="126.28,142.64 123.44,126.8 127.75,124.92 133.57,142.39 			"/>
			<path class="st43" d="M126.69,142.79c-0.08-0.21-0.15-0.42-0.19-0.64c-0.11-0.41-0.26-1.02-0.43-1.76
				c-0.35-1.49-0.8-3.56-1.27-5.86s-0.86-4.38-1.13-5.89l-0.31-1.79c-0.05-0.22-0.08-0.44-0.09-0.66c0.07,0.21,0.13,0.43,0.17,0.65
				l0.38,1.78c0.31,1.54,0.72,3.6,1.2,5.87s0.89,4.33,1.2,5.87c0.15,0.72,0.28,1.32,0.37,1.78
				C126.63,142.35,126.67,142.57,126.69,142.79z"/>
			<path class="st42" d="M103.22,113.2l-0.72,0.22c0,0-0.01-0.01-0.01-0.01l0.56-0.89l-0.72,0.74l0.2-0.83l-0.37,0.77
				c-0.04-0.01-0.08-0.03-0.12-0.03c-0.33-0.03-0.61,0.21-0.64,0.54c0,0.01,0,0.01,0,0.02c0,0.33,0.26,0.61,0.6,0.62
				c0.32,0.03,0.61-0.21,0.64-0.54c0-0.01,0-0.01,0-0.02c0-0.09-0.02-0.17-0.05-0.24L103.22,113.2z"/>
			<path class="st42" d="M95.33,112.54l0.29,0.7c0,0-0.01,0.01-0.01,0.01l-0.94-0.47l0.8,0.65l-0.84-0.12l0.8,0.29
				c-0.01,0.04-0.02,0.08-0.02,0.12c0,0.33,0.27,0.59,0.6,0.59c0.01,0,0.01,0,0.02,0c0.33-0.03,0.58-0.32,0.56-0.65
				c0-0.33-0.27-0.59-0.59-0.58c-0.01,0-0.01,0-0.02,0c-0.08,0.01-0.16,0.03-0.24,0.07L95.33,112.54z"/>
			<g>
				<circle class="st32" cx="123.45" cy="126.34" r="0.4"/>
				<circle class="st32" cx="124.13" cy="126.14" r="0.4"/>
				<circle class="st32" cx="124.83" cy="125.91" r="0.4"/>
				<circle class="st32" cx="125.47" cy="125.66" r="0.4"/>
				<circle class="st32" cx="126.19" cy="125.38" r="0.4"/>
				<circle class="st32" cx="126.8" cy="125.14" r="0.4"/>
				<circle class="st32" cx="127.43" cy="124.9" r="0.4"/>
			</g>
		</g>
		<g>
			<g id="character_00000133531058506872397260000007479028845326045083_">
				<path class="st32" d="M134.22,47.92c-0.89,0-1.77,0.17-2.59,0.52c-0.41,0.18-0.85,0.27-1.3,0.27l-1.7-0.1l-0.08-14.28
					c-0.04-1.28-1.1-2.29-2.38-2.25h-1.89H83.67c-1.26-0.01-2.29,0.99-2.31,2.25c0,0,0,0,0,0v14.21h-1.01
					c-0.47,0-0.93-0.11-1.36-0.32c-1.07-0.52-3.07-1.19-4.44-0.96c-2.71,0.45-5.46,3.17-5.46,5.86c0,4.5,3.53,7.32,7.2,7.32
					c0.86,0,1.72-0.18,2.51-0.52c0.35-0.17,0.73-0.26,1.11-0.27h1.44V73.7c0.01,1.26,1.05,2.27,2.31,2.26h42.41
					c1.28,0.03,2.35-0.98,2.38-2.26l0.08-14.61l1.49,0.1c0.48,0,0.96,0.11,1.4,0.32c1.22,0.56,2.57,0.74,3.89,0.52
					c2.8-0.45,4.98-2.64,5.29-5.31C141.04,51.03,138.01,47.92,134.22,47.92z"/>
				<path class="st36" d="M112.83,59.04c-1.51-0.93-6.45-1.8-7.56-1.9l-1.32-1.26l-9.7-0.69l-1.56,2.2l-5,1.33
					c-1.31,0.35-2.49,1.09-3.38,2.12l-2.98,2.34v10.13c0,1.56,0.8,2.6,2.36,2.6l29.97-0.07c5.34,0.12,3.82,0.16,8.08,0.12
					l-0.22-3.28c-0.24-3.5-1.68-6.81-4.09-9.35C115.7,61.52,113.82,59.65,112.83,59.04z"/>
				<path d="M113.76,63.92c0.01,0.04,0.02,0.08,0.02,0.12c0,0.09,0.02,0.21,0.03,0.35c0.03,0.3,0.06,0.74,0.09,1.28
					c0.06,1.08,0.11,2.57,0.08,4.22c-0.02,1.65-0.11,3.14-0.17,4.22c-0.04,0.52-0.06,0.96-0.09,1.28c-0.01,0.14-0.02,0.25-0.03,0.35
					c0,0.04-0.01,0.08-0.02,0.12c-0.01-0.04-0.01-0.08,0-0.12c0-0.09,0-0.21,0-0.35c0.01-0.32,0.03-0.75,0.05-1.28
					c0.04-1.08,0.11-2.57,0.13-4.22c0.03-1.65,0-3.14-0.05-4.22c-0.02-0.53-0.04-0.96-0.05-1.28c0-0.14,0-0.25,0-0.35
					C113.76,64,113.76,63.96,113.76,63.92z"/>
				<path d="M88.97,73.02c-0.03,0-0.69-2.23-1.47-4.99c-0.78-2.76-1.38-5.01-1.35-5.02c0.03-0.01,0.69,2.22,1.47,4.99
					C88.4,70.77,89.01,73.01,88.97,73.02z"/>
				<path class="st46" d="M94.1,72.71c-0.69-0.61-1.8,0.85-1.8,0.85c-0.22-0.45-1.65-0.4-1.87,0.24c-0.14-0.33-0.12-0.54-0.42-0.74
					c-0.3-0.22-0.68-0.28-1.04-0.17c-0.35,0.13-0.58,0.47-0.55,0.85c-0.35-0.46-0.95-0.65-1.5-0.48c-0.49,0.17-0.84,0.59-0.92,1.1
					c-0.02,0.06-0.02,0.13-0.02,0.19c0.01,0.03,0.02,0.06,0.04,0.08c0.07,0.12,0.17,0.21,0.24,0.33c0.02,0.05,0.05,0.09,0.07,0.14
					c0.1,0.22,0.17,0.44,0.2,0.68c0.01,0.11,0.02,0.22,0.05,0.33c0.03,0.07,0.07,0.13,0.11,0.19c0.21,0.41,0.22,0.92,0.24,1.37
					c0.03,0.5,0.08,1.04,0.38,1.44c0.3,0.4,0.94,0.61,1.33,0.28c-0.01,0.33,0.23,0.63,0.56,0.68c0.33,0.04,0.65-0.09,0.86-0.35
					c0.2-0.26,0.33-0.56,0.37-0.88c0.05,0.39,0.4,0.67,0.79,0.64c0.38-0.05,0.71-0.3,0.87-0.65c0.15-0.35,0.23-0.73,0.22-1.11
					c0-0.38,0.17-1.47,0.24-1.84c0,0,0.62,0,0.84,0l0.16-0.41c0.24-0.65,0.44-1.06,0.62-1.65C94.32,73.39,94.39,72.96,94.1,72.71z"
					/>
				<path class="st46" d="M84.68,74.2c-0.32-0.01-0.62,0.13-0.83,0.36c-0.22,0.3-0.21,0.99-0.15,1.36h1.08h0.27
					c0.21,0.12,0.21,0.57,0.31,0.8c0.21,0.39,0.69,0.55,1.09,0.36c0.38-0.21,0.61-0.62,0.58-1.05c-0.03-0.43-0.23-0.83-0.54-1.12
					C86.01,74.42,85.35,74.16,84.68,74.2z"/>
				<path class="st47" d="M88.43,73.62c0.08,0,0.19,1.29,0.26,2.88c0.06,1.6,0.04,2.88-0.04,2.9c-0.08,0.01-0.2-1.29-0.26-2.88
					C88.33,74.92,88.34,73.62,88.43,73.62z"/>
				<path class="st47" d="M90.43,73.72c0.08,0,0.29,1.16,0.29,2.61c0,1.46-0.2,2.62-0.27,2.61s-0.01-1.18-0.02-2.61
					S90.35,73.73,90.43,73.72z"/>
				<path d="M97.02,31.63c-1.13-1.27-3.96-1.1-4.63-0.28c-1.04-0.49-2.28-0.09-2.83,0.92l-3.01,0.65c-0.51,0.11-1.05,0.23-1.44,0.57
					c-0.39,0.34-0.59,0.99-0.26,1.4c-1.06,0.27-1.49,1.84-0.71,2.61c-0.41,0.47-0.37,1.19,0.11,1.61c0.02,0.01,0.03,0.03,0.05,0.04
					c-0.84,0.99-1.5,2.12-1.96,3.33c-0.19,0.5-0.35,1.07-0.16,1.58s0.85,0.86,1.29,0.55c-0.3,0.43-0.33,0.99-0.07,1.44
					c-0.51,0-0.67,0.79-0.32,1.16c0.35,0.37,0.91,0.42,1.42,0.41s1.06-0.03,1.47,0.26c-0.01,0.13-0.07,0.24-0.17,0.32
					c-0.89,0.67-1.1,1.92-0.48,2.84l0.17,0.24c0.29,0.42,1.02,0.81,1.47,1.05c1.14,0.61,1.83,0.5,3.11,0.69
					c-0.36,0.82,1.71,2.67,4.11,0.89c4.75,1.31,8.17,1.82,13.1,1.87c0.7,0,1.55-0.08,1.86-0.71c0.59,0.12,1.2-0.08,1.61-0.51
					c0.4-0.43,0.73-0.94,0.96-1.48c1.25-0.35,2.14-1.45,2.22-2.74c0.83-0.65,1.36-1.62,1.44-2.68c1.18-0.35,1.85-1.88,1.29-2.99
					c-0.25-1.46-0.74-2.86-1.44-4.16c0.81-0.17,1.12-1.25,0.79-2.01c-0.32-0.76-1.06-1.25-1.75-1.68c0.6,0.17,1.13-0.59,0.99-1.2
					c-0.14-0.61-0.68-1.03-1.21-1.36c-0.78-0.48-1.62-0.86-2.49-1.13c-0.28-1.06-1.62-2.28-2.61-2.76
					c-3.99-1.92-6.79-2.42-11.92,1.28"/>
				<path class="st46" d="M93.94,38.05c-0.06-0.84-0.19-1.68,0.64-1.8l8.51-2.56c2.74-0.42,4.73,2.88,5.03,5.65
					c0.33,3.06,0.62,6.82,0.36,9.13c-0.28,2.69-2.07,4.98-4.62,5.89l0.09,1.52c-2.08-0.12-2.1-0.13-4.59-0.25
					c-3.09-0.19-5.11-0.44-5.11-0.44L93.94,38.05z"/>
				<path class="st47" d="M103.86,54.36c0,0-2.51-0.16-5.67-1.87c0,0,1.12,2.91,5.76,3.27L103.86,54.36z"/>
				<path class="st26" d="M107.07,39.15c-0.11,0.15-0.55,0.02-1.08,0.04c-0.53,0.02-0.96,0.14-1.08,0c-0.05-0.07,0.01-0.22,0.2-0.37
					c0.25-0.18,0.55-0.28,0.87-0.28c0.31-0.01,0.61,0.07,0.87,0.24C107.04,38.92,107.11,39.07,107.07,39.15z"/>
				<path d="M110.19,41.55c-0.02-0.73-0.28-1.43-0.76-1.99c-0.3-0.26-0.58-0.54-0.86-0.82c-0.52-0.68-0.45-1.63-0.67-2.46
					c-0.3-1.08-1.11-1.96-2.16-2.34c-0.88-0.3-1.84-0.26-2.67-0.69c-0.6-0.32-1.06-0.87-1.68-1.15c-1.2-0.55-2.6,0.07-3.74,0.75
					c-0.23,0.9,0.35,1.68,0.9,2.43c0.56,0.76,1.43,1.23,2.37,1.29c0.72,0.04,1.56-0.12,2.07,0.39s0.33,1.49,0.77,2.11
					c0.63,0.89,2.05,0.55,2.99,1.1c0.72,0.42,1.03,1.29,1.39,2.04s0.99,1.54,1.83,1.5C110.13,43,110.2,42.27,110.19,41.55z"/>
				<path d="M99.47,34.48c-2.11-0.03-4.21,0.35-6.18,1.12c-0.58,0.24-1.19,0.52-1.52,1.05c-0.29,0.47-0.33,1.05-0.32,1.6
					c0.02,1.73,0.72,3.85,1.38,5.44l2.16,1.29c1.66-0.39,0.9-3.26,0.81-4.7c1.18-0.54,1.95-1.7,1.98-3
					C98.75,36.65,99.37,35.62,99.47,34.48z"/>
				<path class="st46" d="M94.96,44.36c-0.07-0.99-1.28-1.18-2.13-0.67c-0.47,0.28-0.82,0.83-0.76,1.88
					c0.16,2.8,2.94,2.06,2.94,1.98S95.03,45.51,94.96,44.36z"/>
				<path class="st48" d="M93.79,47.72c0,0,0,0,0,0.04c-0.01,0.04-0.02,0.07-0.04,0.11c-0.07,0.13-0.19,0.23-0.32,0.29
					c-0.22,0.1-0.45,0.15-0.69,0.15c-0.15,0-0.3-0.01-0.45-0.03c-0.17-0.03-0.33-0.08-0.48-0.15l0.03-0.02
					c-0.12,0.76-0.84,1.27-1.59,1.15c-0.23-0.04-0.44-0.13-0.62-0.27h0.05c-0.09,0.13-0.22,0.21-0.37,0.24
					c-0.15,0.03-0.31,0.02-0.45-0.04c-0.15-0.06-0.28-0.16-0.37-0.3c-0.09-0.14-0.13-0.3-0.14-0.46c-0.01-0.34,0.09-0.67,0.3-0.93
					c0.22-0.27,0.46-0.51,0.74-0.72v0.06c-0.24-0.15-0.4-0.39-0.44-0.66c-0.05-0.28-0.03-0.56,0.08-0.82
					c0.11-0.26,0.28-0.5,0.48-0.7c0.21-0.2,0.43-0.39,0.66-0.56v0.06c-0.2-0.22-0.3-0.51-0.28-0.81c0.02-0.3,0.13-0.59,0.31-0.83
					c0.36-0.46,0.88-0.72,1.37-0.96l-0.02,0.05c-0.25-1,0.36-2,1.35-2.25c0.22-0.05,0.44-0.07,0.66-0.04l-0.04,0.05
					c-0.09-0.49,0.05-0.99,0.38-1.36c0.29-0.36,0.72-0.57,1.18-0.58l-0.03,0.04c0.01-0.48,0.24-0.93,0.63-1.22
					c0.33-0.26,0.75-0.38,1.17-0.32l-0.03,0.03c0.01-0.26,0.09-0.5,0.23-0.72c0.11-0.19,0.25-0.37,0.42-0.51
					c0.26-0.24,0.6-0.39,0.96-0.41h0.11c0.03,0,0.07,0,0.1,0c0.06,0,0.12,0.01,0.18,0.02c0.09,0.02,0.18,0.04,0.27,0.07l0.16,0.07
					l0.05,0.02c-0.02,0-0.04-0.01-0.06-0.02l-0.16-0.06c-0.09-0.03-0.18-0.05-0.27-0.07c-0.06-0.01-0.12-0.01-0.17-0.01
					c-0.03,0-0.06,0-0.1,0h-0.1c-0.35,0.03-0.67,0.18-0.93,0.42c-0.16,0.14-0.3,0.32-0.41,0.51c-0.13,0.21-0.2,0.45-0.21,0.69v0.03
					h-0.03c-0.86-0.09-1.62,0.53-1.72,1.39c0,0.03-0.01,0.07-0.01,0.1v0.03h-0.04c-0.44,0.01-0.85,0.22-1.12,0.56
					c-0.32,0.35-0.47,0.83-0.38,1.3l0.01,0.06h-0.06c-0.97-0.11-1.85,0.59-1.96,1.56c-0.02,0.21-0.01,0.43,0.04,0.63v0.03
					l-0.03,0.01c-0.48,0.24-0.99,0.48-1.33,0.93c-0.18,0.23-0.28,0.5-0.3,0.79c-0.03,0.27,0.07,0.54,0.25,0.74l0.03,0.04l-0.04,0.03
					c-0.45,0.35-0.91,0.72-1.12,1.22c-0.1,0.25-0.13,0.52-0.08,0.78c0.04,0.25,0.19,0.47,0.41,0.61l0.05,0.03l-0.04,0.04
					c-0.27,0.2-0.51,0.44-0.72,0.7c-0.2,0.25-0.3,0.56-0.29,0.88c0,0.3,0.18,0.58,0.46,0.7c0.26,0.12,0.56,0.04,0.74-0.18l0.02-0.03
					l0.03,0.02c0.59,0.45,1.43,0.33,1.88-0.26c0.13-0.17,0.22-0.37,0.25-0.58v-0.03l0.03,0.01c0.15,0.07,0.31,0.12,0.48,0.15
					c0.15,0.02,0.29,0.04,0.44,0.03c0.23,0,0.46-0.04,0.68-0.13c0.14-0.05,0.25-0.15,0.32-0.27C93.77,47.77,93.78,47.71,93.79,47.72
					z"/>
				<path class="st48" d="M83.12,44.72c-0.04-0.05-0.08-0.11-0.11-0.17c-0.23-0.46-0.2-1.01,0.08-1.44c0.23-0.35,0.6-0.58,1.01-0.65
					l-0.02,0.03c-0.09-0.48,0-0.97,0.25-1.38c0.14-0.23,0.33-0.43,0.55-0.58c0.24-0.14,0.5-0.27,0.76-0.36
					c0.13-0.05,0.26-0.13,0.37-0.22c0.11-0.09,0.2-0.21,0.26-0.34c0.12-0.27,0.16-0.58,0.32-0.87c0.34-0.6,1.02-0.94,1.7-0.85
					l-0.05,0.05c-0.17-1.23,0.68-2.36,1.91-2.54c0.19-0.03,0.38-0.03,0.57-0.01l-0.05,0.05c-0.12-1.08,0.66-2.05,1.74-2.17
					c0.46-0.05,0.93,0.07,1.32,0.33H93.7c0.28-0.27,0.61-0.47,0.98-0.6c0.32-0.12,0.66-0.21,1-0.24c0.55-0.06,1.12-0.03,1.66,0.11
					c0.35,0.08,0.68,0.22,0.99,0.41c0.08,0.05,0.15,0.11,0.23,0.17c0.03,0.02,0.05,0.04,0.07,0.06c0,0-0.11-0.08-0.31-0.21
					c-0.31-0.18-0.64-0.31-0.99-0.39c-0.54-0.13-1.09-0.16-1.64-0.1c-0.34,0.04-0.67,0.12-0.99,0.24c-0.36,0.12-0.68,0.32-0.95,0.59
					l-0.02,0.02l-0.02-0.02c-0.87-0.58-2.04-0.35-2.63,0.51c-0.25,0.37-0.36,0.82-0.31,1.26v0.05h-0.05
					c-1.19-0.14-2.26,0.72-2.4,1.9c-0.02,0.18-0.02,0.36,0.01,0.54v0.06h-0.06c-0.65-0.09-1.29,0.23-1.62,0.8
					c-0.15,0.27-0.19,0.59-0.32,0.87c-0.06,0.14-0.16,0.27-0.28,0.37c-0.12,0.09-0.25,0.17-0.38,0.23c-0.26,0.1-0.51,0.21-0.75,0.36
					c-0.21,0.15-0.4,0.34-0.53,0.56c-0.25,0.4-0.34,0.87-0.25,1.33v0.03h-0.03c-0.4,0.06-0.76,0.28-0.99,0.62
					c-0.17,0.25-0.26,0.55-0.24,0.85c0.01,0.19,0.05,0.38,0.13,0.55C83.09,44.67,83.13,44.72,83.12,44.72z"/>
				<path class="st48" d="M109.89,45.48c-0.04-0.07-0.05-0.16-0.01-0.24c0.03-0.09,0.09-0.18,0.16-0.24
					c0.1-0.08,0.22-0.14,0.35-0.17c0.15-0.04,0.3-0.1,0.44-0.18c0.15-0.11,0.26-0.27,0.31-0.45c0.06-0.21,0.09-0.42,0.07-0.64
					c0-0.24-0.05-0.48-0.05-0.74c0-0.53,0.22-1.07,0.36-1.66c0.07-0.3,0.09-0.61,0.04-0.92c-0.05-0.32-0.23-0.61-0.51-0.79
					c-0.31-0.15-0.64-0.26-0.98-0.33c-0.18-0.05-0.35-0.13-0.5-0.24c-0.15-0.12-0.27-0.27-0.35-0.44c-0.14-0.36-0.24-0.73-0.29-1.1
					c-0.04-0.18-0.1-0.36-0.19-0.53c-0.09-0.16-0.24-0.29-0.41-0.36c-0.25-0.07-0.51-0.1-0.77-0.11c-0.14-0.01-0.27-0.04-0.39-0.1
					c-0.12-0.06-0.23-0.15-0.31-0.26c-0.13-0.23-0.23-0.47-0.29-0.72c-0.07-0.23-0.19-0.45-0.35-0.63
					c-0.31-0.36-0.75-0.57-1.22-0.58c-0.44-0.01-0.86,0.14-1.19,0.43l-0.04,0.03l-0.02-0.05c-0.32-0.7-0.93-1.22-1.66-1.44
					c-0.3-0.09-0.62-0.11-0.93-0.08c-0.27,0.02-0.53,0.1-0.77,0.21c-0.34,0.17-0.62,0.43-0.82,0.75c-0.05,0.08-0.1,0.17-0.14,0.26
					c-0.01,0.03-0.02,0.05-0.03,0.07l-0.01,0.02c0,0,0,0,0-0.02l0.03-0.07c0.04-0.09,0.08-0.18,0.13-0.27
					c0.19-0.33,0.47-0.61,0.82-0.78c0.25-0.12,0.51-0.2,0.78-0.23c0.32-0.04,0.65-0.01,0.96,0.07c0.75,0.22,1.38,0.75,1.71,1.46
					h-0.06c0.34-0.3,0.78-0.46,1.24-0.45c0.76,0.03,1.42,0.54,1.65,1.27c0.06,0.24,0.16,0.48,0.28,0.69
					c0.15,0.21,0.39,0.34,0.64,0.35c0.27,0,0.54,0.04,0.8,0.11c0.19,0.08,0.35,0.22,0.45,0.4c0.1,0.17,0.17,0.36,0.2,0.55
					c0.06,0.38,0.15,0.74,0.29,1.1c0.07,0.16,0.19,0.3,0.33,0.41c0.15,0.1,0.31,0.18,0.48,0.22c0.34,0.07,0.68,0.18,0.99,0.33
					c0.15,0.09,0.28,0.22,0.37,0.37c0.09,0.15,0.14,0.31,0.17,0.48c0.05,0.32,0.04,0.64-0.04,0.95c-0.14,0.59-0.37,1.12-0.36,1.64
					c0,0.25,0.03,0.5,0.04,0.74c0.02,0.22-0.01,0.44-0.08,0.66c-0.06,0.19-0.18,0.36-0.34,0.48c-0.14,0.08-0.29,0.14-0.45,0.18
					c-0.12,0.03-0.24,0.08-0.34,0.16c-0.07,0.06-0.13,0.13-0.16,0.22C109.87,45.34,109.86,45.41,109.89,45.48z"/>
				<path class="st48" d="M115.32,41.14l-0.03-0.05c-0.02-0.04-0.04-0.09-0.08-0.16c-0.07-0.14-0.16-0.35-0.29-0.61
					c-0.12-0.26-0.27-0.59-0.48-0.95c-0.21-0.42-0.54-0.76-0.94-1c-0.23-0.12-0.48-0.2-0.75-0.32c-0.14-0.06-0.27-0.13-0.38-0.22
					c-0.12-0.1-0.22-0.22-0.29-0.37c-0.13-0.29-0.14-0.62-0.24-0.92c-0.05-0.15-0.14-0.28-0.27-0.38c-0.14-0.09-0.29-0.16-0.45-0.21
					c-0.17-0.05-0.34-0.11-0.5-0.19c-0.17-0.09-0.3-0.23-0.38-0.4c-0.13-0.35-0.21-0.71-0.24-1.08c-0.03-0.18-0.09-0.36-0.19-0.51
					c-0.1-0.15-0.26-0.26-0.44-0.29c-0.37-0.08-0.76,0.05-1.18-0.01c-0.2-0.04-0.39-0.14-0.54-0.28c-0.13-0.15-0.25-0.31-0.35-0.48
					c-0.09-0.17-0.19-0.33-0.31-0.48c-0.11-0.15-0.25-0.27-0.41-0.35c-0.33-0.15-0.72-0.07-1.06,0c-0.34,0.11-0.71,0.14-1.06,0.09
					c-0.33-0.08-0.64-0.23-0.92-0.42c-0.26-0.18-0.54-0.33-0.82-0.46c-0.54-0.18-1.11-0.2-1.66-0.05c-0.45,0.12-0.87,0.33-1.23,0.63
					c-0.27,0.23-0.5,0.5-0.68,0.8c-0.11,0.19-0.21,0.39-0.29,0.6c-0.03,0.07-0.05,0.12-0.06,0.16c-0.01,0.02-0.01,0.04-0.02,0.05
					c0-0.02,0.01-0.04,0.01-0.06l0.06-0.17c0.07-0.21,0.17-0.42,0.28-0.61c0.19-0.31,0.42-0.58,0.69-0.82
					c0.36-0.31,0.79-0.53,1.25-0.65c0.56-0.15,1.15-0.14,1.7,0.04c0.29,0.12,0.57,0.27,0.83,0.45c0.27,0.19,0.58,0.33,0.9,0.41
					c0.35,0.04,0.7,0.01,1.03-0.09c0.18-0.05,0.36-0.08,0.55-0.1c0.4-0.05,0.79,0.13,1.01,0.47c0.12,0.16,0.21,0.32,0.31,0.48
					c0.09,0.17,0.21,0.32,0.34,0.47c0.13,0.13,0.3,0.23,0.48,0.26c0.38,0.06,0.78-0.06,1.18,0.01c0.2,0.04,0.38,0.16,0.5,0.33
					c0.1,0.17,0.17,0.35,0.2,0.55c0.03,0.36,0.11,0.72,0.24,1.06c0.07,0.15,0.2,0.28,0.35,0.36c0.15,0.08,0.32,0.14,0.48,0.19
					c0.17,0.05,0.33,0.12,0.48,0.22c0.14,0.11,0.24,0.27,0.28,0.44c0.11,0.32,0.11,0.64,0.24,0.92c0.13,0.26,0.36,0.46,0.64,0.56
					c0.26,0.12,0.52,0.2,0.75,0.33c0.41,0.25,0.75,0.6,0.96,1.03c0.2,0.37,0.34,0.69,0.46,0.96l0.27,0.62l0.07,0.16
					C115.32,41.11,115.32,41.13,115.32,41.14z"/>
				<path class="st48" d="M112.34,38.22c0.02,0,0.03,0,0.05,0c0.05,0,0.1,0.01,0.15,0.03c0.17,0.11,0.28,0.3,0.28,0.5
					c0,0.14-0.02,0.28-0.06,0.42c-0.05,0.16-0.07,0.32-0.07,0.48c0.02,0.19,0.09,0.36,0.2,0.52c0.11,0.17,0.24,0.33,0.36,0.54
					c0.13,0.21,0.15,0.47,0.07,0.7c-0.09,0.24-0.26,0.44-0.35,0.68c-0.07,0.26-0.05,0.53,0.08,0.77c0.11,0.26,0.26,0.5,0.37,0.79
					c0.06,0.14,0.09,0.3,0.09,0.45c0,0.16-0.04,0.32-0.11,0.46c-0.15,0.28-0.33,0.55-0.53,0.8c-0.21,0.25-0.31,0.56-0.3,0.89
					c0.07,0.33,0.19,0.64,0.34,0.94c0.07,0.16,0.1,0.34,0.1,0.51c0,0.18-0.05,0.35-0.13,0.5c-0.17,0.29-0.37,0.55-0.61,0.79
					c-0.21,0.23-0.38,0.5-0.48,0.79c-0.08,0.3-0.17,0.59-0.29,0.87c-0.07,0.14-0.16,0.26-0.28,0.35c-0.12,0.09-0.25,0.15-0.4,0.19
					c-0.13,0.04-0.26,0.08-0.39,0.14c-0.12,0.06-0.23,0.13-0.32,0.22c-0.18,0.18-0.33,0.38-0.46,0.6c-0.13,0.21-0.24,0.41-0.38,0.6
					c-0.24,0.34-0.58,0.59-0.98,0.72c-0.29,0.1-0.61,0.13-0.91,0.09c-0.19-0.02-0.38-0.08-0.56-0.16c-0.06-0.03-0.12-0.06-0.18-0.1
					c0.23,0.12,0.48,0.2,0.74,0.24c0.3,0.03,0.61,0,0.89-0.1c0.38-0.13,0.71-0.38,0.94-0.71c0.13-0.18,0.24-0.39,0.37-0.6
					c0.13-0.22,0.28-0.43,0.47-0.62c0.1-0.1,0.22-0.18,0.34-0.24c0.13-0.06,0.26-0.1,0.4-0.14c0.13-0.04,0.26-0.1,0.37-0.18
					c0.11-0.09,0.2-0.2,0.26-0.33c0.11-0.28,0.21-0.57,0.28-0.86c0.11-0.3,0.28-0.58,0.5-0.82c0.23-0.24,0.42-0.5,0.59-0.78
					c0.08-0.14,0.12-0.3,0.12-0.47c-0.01-0.16-0.04-0.33-0.1-0.48c-0.15-0.3-0.27-0.63-0.34-0.96c-0.02-0.17,0-0.35,0.07-0.51
					c0.06-0.15,0.14-0.3,0.24-0.44c0.2-0.25,0.37-0.51,0.53-0.78c0.06-0.13,0.1-0.28,0.1-0.43c0-0.15-0.03-0.29-0.08-0.43
					c-0.1-0.28-0.25-0.52-0.37-0.79c-0.13-0.26-0.16-0.56-0.08-0.84c0.1-0.26,0.27-0.46,0.35-0.68c0.08-0.21,0.06-0.46-0.06-0.65
					c-0.1-0.19-0.24-0.36-0.35-0.53c-0.11-0.16-0.18-0.35-0.2-0.55c0-0.17,0.03-0.33,0.08-0.5c0.04-0.13,0.06-0.27,0.06-0.41
					c0-0.19-0.09-0.37-0.25-0.48C112.47,38.22,112.4,38.21,112.34,38.22z"/>
				<path d="M107,41.26c-0.06,0.09-0.52-0.22-1.12-0.16c-0.6,0.07-0.99,0.46-1.07,0.38c-0.04-0.03,0.02-0.19,0.19-0.37
					c0.22-0.23,0.52-0.38,0.84-0.41c0.32-0.03,0.64,0.05,0.9,0.24C106.95,41.08,107.03,41.22,107,41.26z"/>
				<path d="M101.3,41.76c-0.08,0.09-0.59-0.31-1.31-0.3c-0.72,0.01-1.24,0.39-1.32,0.3c-0.04-0.04,0.04-0.21,0.27-0.39
					c0.3-0.23,0.67-0.36,1.06-0.36c0.38,0,0.74,0.12,1.04,0.35C101.26,41.54,101.34,41.71,101.3,41.76z"/>
				<g>
					<path d="M101.84,43.92c-0.66-0.07-0.93-0.02-1.4,0.08c-0.51,0-0.95,0.04-1.63-0.07c0,0-0.07-0.08-0.07-0.08
						c0.46-0.4,0.98-0.78,1.61-0.85c0.65-0.05,1.26,0.33,1.57,0.87L101.84,43.92L101.84,43.92z"/>
				</g>
				<g>
					<path d="M107.96,43.52c-0.58-0.06-0.85-0.07-1.19,0.08c-0.42-0.03-0.82,0.02-1.43-0.07c0,0-0.07-0.07-0.07-0.07
						c0.39-0.39,0.84-0.78,1.41-0.86c0.61-0.05,1.12,0.38,1.37,0.87L107.96,43.52L107.96,43.52z"/>
				</g>
				<g>
					<path class="st46" d="M112.35,72.71c0.69-0.61,1.8,0.85,1.8,0.85c0.22-0.45,1.65-0.4,1.87,0.24c0.14-0.33,0.12-0.54,0.42-0.74
						c0.3-0.22,0.68-0.28,1.04-0.17c0.35,0.13,0.58,0.47,0.55,0.85c0.35-0.46,0.95-0.65,1.5-0.48c0.49,0.17,0.84,0.59,0.92,1.1
						c0.02,0.06,0.02,0.13,0.02,0.19c-0.01,0.03-0.02,0.06-0.04,0.08c-0.07,0.12-0.17,0.21-0.24,0.33
						c-0.02,0.05-0.05,0.09-0.07,0.14c-0.1,0.22-0.17,0.44-0.2,0.68c-0.01,0.11-0.02,0.22-0.05,0.33c-0.03,0.07-0.07,0.13-0.11,0.19
						c-0.21,0.41-0.22,0.92-0.24,1.37c-0.03,0.5-0.08,1.04-0.38,1.44c-0.3,0.4-0.94,0.61-1.33,0.28c0.01,0.33-0.23,0.63-0.56,0.68
						c-0.33,0.04-0.65-0.09-0.86-0.35c-0.2-0.26-0.33-0.56-0.37-0.88c-0.05,0.39-0.4,0.67-0.79,0.64c-0.38-0.05-0.71-0.3-0.87-0.65
						c-0.15-0.35-0.23-0.73-0.22-1.11c0-0.38-0.17-1.47-0.24-1.84c0,0-0.62,0-0.84,0l-0.16-0.41c-0.24-0.65-0.44-1.06-0.62-1.65
						C112.14,73.39,112.07,72.96,112.35,72.71z"/>
					<path class="st46" d="M121.77,74.2c0.32-0.01,0.62,0.13,0.83,0.36c0.22,0.3,0.21,0.99,0.15,1.36h-1.08h-0.27
						c-0.21,0.12-0.21,0.57-0.31,0.8c-0.21,0.39-0.69,0.55-1.09,0.36c-0.38-0.21-0.61-0.62-0.58-1.05c0.03-0.43,0.23-0.83,0.54-1.12
						C120.45,74.42,121.1,74.16,121.77,74.2z"/>
					<path class="st47" d="M118.03,73.62c-0.08,0-0.19,1.29-0.26,2.88c-0.06,1.6-0.04,2.88,0.04,2.9c0.08,0.01,0.2-1.29,0.26-2.88
						C118.13,74.92,118.11,73.62,118.03,73.62z"/>
					<path class="st47" d="M116.02,73.72c-0.08,0-0.29,1.16-0.29,2.61c0,1.46,0.2,2.62,0.27,2.61s0.01-1.18,0.02-2.61
						S116.1,73.73,116.02,73.72z"/>
				</g>
				<g>
					<path d="M103.78,44.98c0.63-0.07,1.21,0.88,0.49,1.21c-0.53,0.16-0.58,0.05-0.2-0.33C104.21,45.57,103.9,45.29,103.78,44.98
						L103.78,44.98z"/>
				</g>
				<path class="st47" d="M101.12,48.17l2.45,0.24c0.18,0.02,0.32,0.19,0.29,0.37c-0.11,0.67-0.63,1.15-1.28,1.12
					c-0.02,0-0.03,0-0.05,0C101.75,49.8,101.13,49.04,101.12,48.17z"/>
				<path class="st29" d="M101.19,48.63c0.18,0.68,0.72,1.2,1.34,1.27c0.32,0.03,0.62-0.08,0.86-0.29
					C102.86,48.84,101.99,48.45,101.19,48.63z"/>
			</g>
			<path class="st23" d="M107.71,65.13c-3.26-1.56-7.16-0.19-8.73,3.06c-0.83,1.72-0.86,3.72-0.09,5.47
				c0.19,0.42,0.29,0.87,0.29,1.32v1.37l11.25-0.01v-1.06c0-0.49,0.12-0.98,0.34-1.43C112.34,70.6,110.97,66.69,107.71,65.13z"/>
		</g>
	</g>
	<g id="lines_00000155839617280417455010000005331328635960665751_">
		<g id="lines_00000031902640455579989620000000080866467507683728_">
			<path class="st36" d="M100.22,83.47c-0.23,0.11-0.5,0.02-0.61-0.2l-2.8-4.94c-0.11-0.23-0.02-0.5,0.2-0.61
				c0.22-0.11,0.48-0.03,0.6,0.18l2.8,4.97c0.11,0.22,0.03,0.48-0.18,0.6L100.22,83.47z"/>
			<path class="st36" d="M96.66,86.96c-0.14,0.07-0.31,0.07-0.44-0.01l-5-2.95c-0.22-0.13-0.29-0.41-0.16-0.62
				c0.13-0.22,0.41-0.29,0.62-0.16l4.99,2.95c0.22,0.13,0.29,0.41,0.16,0.62C96.79,86.86,96.73,86.92,96.66,86.96z"/>
			<path class="st36" d="M95.32,91.77c-0.07,0.03-0.14,0.05-0.21,0.05l-5.57-0.05c-0.25-0.01-0.45-0.22-0.44-0.47
				c0.01-0.24,0.2-0.43,0.45-0.44l5.57,0.04c0.25,0,0.45,0.21,0.45,0.46C95.57,91.53,95.47,91.69,95.32,91.77z"/>
			<path class="st36" d="M120.19,92.01c-0.07,0.03-0.14,0.05-0.21,0.05l-5.63-0.05c-0.25,0-0.45-0.21-0.45-0.46
				c0-0.25,0.21-0.45,0.46-0.45l5.63,0.05c0.25,0,0.45,0.21,0.45,0.46C120.44,91.77,120.34,91.93,120.19,92.01z"/>
			<path class="st36" d="M113.34,87.12c-0.22,0.11-0.48,0.03-0.6-0.18c-0.11-0.22-0.03-0.48,0.18-0.6l5.09-2.88
				c0.22-0.12,0.5-0.05,0.62,0.17c0,0.01,0.01,0.01,0.01,0.02c0.11,0.23,0.02,0.5-0.2,0.61l-5.1,2.88L113.34,87.12z"/>
			<path class="st36" d="M109.85,83.56c-0.14,0.07-0.31,0.07-0.44-0.01c-0.22-0.13-0.29-0.41-0.16-0.62l2.88-4.88
				c0.13-0.22,0.41-0.3,0.63-0.17c0.22,0.13,0.3,0.41,0.17,0.63l-2.88,4.88C110,83.46,109.93,83.52,109.85,83.56z"/>
			<path class="st36" d="M105.05,82.23c-0.07,0.03-0.14,0.05-0.21,0.05c-0.25,0-0.46-0.2-0.45-0.46c0,0,0,0,0,0l0.06-5.78
				c0-0.25,0.21-0.45,0.46-0.45c0,0,0,0,0,0c0.25,0,0.45,0.21,0.45,0.46l-0.06,5.78C105.29,82,105.19,82.15,105.05,82.23z"/>
		</g>
	</g>
</g>
</svg>
