<?xml version="1.0" encoding="utf-8"?>
<!-- Generator: Adobe Illustrator 27.1.0, SVG Export Plug-In . SVG Version: 6.00 Build 0)  -->
<svg version="1.1" id="Layer_1" xmlns="http://www.w3.org/2000/svg" xmlns:xlink="http://www.w3.org/1999/xlink" x="0px" y="0px"
	 viewBox="0 0 231.49 254.3" style="enable-background:new 0 0 231.49 254.3;" xml:space="preserve">
<style type="text/css">
	.st0{fill:#565656;}
	.st1{fill:url(#SVGID_1_);}
	.st2{fill:#7A7A7C;}
	.st3{fill:url(#SVGID_00000131346181405648811930000009655847712914028212_);}
	.st4{fill:#EDEEEF;}
	.st5{fill:url(#SVGID_00000119801617281616151430000014402292567492219580_);}
	.st6{fill:#FFFFFF;}
	.st7{fill:url(#SVGID_00000047749390955001821120000015917684371369914552_);}
	.st8{fill:url(#SVGID_00000135685628793145127610000015339785160175061694_);}
	.st9{fill:url(#SVGID_00000004541645288699777550000002199612805716051330_);}
	.st10{fill:url(#SVGID_00000020397283856643807890000014309582135575157638_);}
	.st11{fill:url(#SVGID_00000067944429199517434830000011319427919206149274_);}
	.st12{fill:url(#SVGID_00000181065360196710388520000008852351602234297532_);}
	.st13{fill:url(#SVGID_00000105428592424240197180000006607927410446864017_);}
</style>
<g>
	<g id="character_00000137853458042422369560000014393162384481914497_">
		<path class="st0" d="M101.94,69.2c-0.81,0.01-1.6,0.2-2.33,0.56c-1.66,0.71-3.44,1.08-5.24,1.08c-7.68,0-15.05-4.55-15.05-13.96
			c0-5.61,5.75-11.31,11.41-12.25c2.85-0.47,7.03,0.92,9.28,2.01c0.88,0.43,1.85,0.66,2.83,0.66h1.41l0.09-30.95
			c0-2.11-1.88-3.82-3.59-3.82H8.97c-2.92,0-4.8,1.71-4.8,3.82v31.93l3.69-0.2c0.86,0,1.71-0.15,2.51-0.45
			c1.6-0.59,3.27-1.61,5.1-1.61c7.86,0,13.35,4.45,13.03,11.67c-0.28,6.37-4.99,11.34-11.97,11.78c-2.29,0.11-4.58-0.34-6.66-1.31
			c-0.95-0.42-1.98-0.65-3.01-0.68l-2.69,0.06v31.27c0,2.59,2.31,4.69,5.15,4.69h89.86c2.84,0,5.15-2.1,5.15-4.69V69.2L101.94,69.2z
			"/>
		<linearGradient id="SVGID_1_" gradientUnits="userSpaceOnUse" x1="11.2087" y1="52.9257" x2="100.0351" y2="52.9257">
			<stop  offset="0.2754" style="stop-color:#6700AD"/>
			<stop  offset="1" style="stop-color:#A75FD3"/>
		</linearGradient>
		<path class="st1" d="M100.04,103.45c0,0-9.23-34.03-19.92-36.61l-4.07-1.19l-6.24-1.69c0.46-0.59,0.73-1.2,0.73-1.84
			c0-2.11-2.72-3.99-6.94-5.22c0-0.2,0-0.33,0-0.33s5.81-0.67,8.35-5.59c0.84,0.44,0.77,0.03,0.3-0.68c0.03-0.07,0.06-0.13,0.08-0.2
			c0.42,0.26,0.85,0.55,1.31,0.89c5.27,3.84,0.67-2.33-0.22-3.38c-0.12-0.15-0.26-0.3-0.39-0.45c0.02-0.19,0.06-0.37,0.07-0.58
			c0.23-4.33-0.02-13.27-0.33-21.37c-0.04-0.98-0.17-1.93-0.37-2.85c0.06,0,0.11,0.01,0.17,0.02c0.32,2.71,0.38,7.14,0.5,9.67
			l2.22-5.02c0.14-0.23,0.26-0.47,0.37-0.71c0.85,0.63,1.88,1.01,3.02,1.01c2.74,0,4.95-2.17,5.06-4.87
			c2.06-0.65,3.56-2.55,3.56-4.83c0-2.27-1.5-4.18-3.56-4.83c0-0.09,0.03-0.17,0.03-0.26c0-2.81-2.28-5.09-5.09-5.09
			c-0.78,0-1.51,0.18-2.16,0.49c-0.69-1.89-2.48-3.25-4.61-3.25c-1.26,0-2.39,0.48-3.26,1.26c-1.19-0.97-2.34-1.72-3.5-2.2
			c-2.98-1.24-7.98-1.78-11.12-1c-3.14,0.78-5.96,3.29-6.43,6.49c-1.73-1.51-4.36-1.51-6.5-0.69h-0.06
			c-2.27,0.78-3.62,3.08-4.38,5.38c-2.76,0.05-4.99,2.3-4.99,5.08c0,1.84,0.98,3.43,2.44,4.32c-0.36,0.7-0.59,1.48-0.59,2.33
			c0,2.81,2.28,5.09,5.09,5.09c0.03,0,0.05-0.01,0.08-0.01c0.13,0.77,0.27,1.44,0.43,1.89c-1.47,0.29-2.9,1.33-2.93,4.33
			c-0.05,5.39,4.7,5.11,5.87,4.85l0.18,14.64c-5.22,1.18-8.71,3.28-8.71,5.67c0,0.4,0.12,0.79,0.3,1.18
			c-4.58,1.64-9.62,3.64-11.36,5.04c-0.02,0.01-0.03,0.04-0.05,0.06c-0.06-0.04-0.1-0.06-0.1-0.06c-3.45,2.67-5.81,6.5-6.65,10.78
			c-1.45,7.24-4.46,24.26-4.46,24.26h22.03c0,0.01,0,0.02,0,0.03c0-0.01,0-0.02,0-0.03h3.12c0,0,0,0,0-0.01h48.55L100.04,103.45z"/>
	</g>
	<g id="character_00000168832545970217468930000016236409347155651716_">
		<path class="st2" d="M202.56,239.66v-89.14c0-2.8-2.27-5.06-5.06-5.06h-32.86v-2.21c0.01-1.03,0.25-2.05,0.71-2.98
			c3.27-6.81,0.4-14.98-6.41-18.25c-6.81-3.27-14.98-0.4-18.25,6.41c-1.73,3.6-1.8,7.78-0.19,11.43c0.39,0.87,0.6,1.81,0.61,2.76
			v2.85h-32.05c-2.8,0-5.06,2.27-5.06,5.06v89.12c0,2.28,1.85,4.12,4.12,4.12l0,0h90.31c2.28,0,4.12-1.84,4.12-4.11
			C202.56,239.66,202.56,239.66,202.56,239.66z"/>
		
			<linearGradient id="SVGID_00000125565677383641382420000016508427876543169160_" gradientUnits="userSpaceOnUse" x1="110.3749" y1="204.8438" x2="213.6891" y2="204.8438">
			<stop  offset="0.1275" style="stop-color:#6700AD"/>
			<stop  offset="0.8546" style="stop-color:#A75FD3"/>
		</linearGradient>
		<path style="fill:url(#SVGID_00000125565677383641382420000016508427876543169160_);" d="M213.48,242.79l0.02,0l-0.05-0.16
			c-0.1-0.44-0.24-0.86-0.42-1.26l-7.89-23.69l0.01,0l-0.95-2.81l-2.77-8.32c0.08-0.19,0.09-0.41,0.01-0.62
			c-0.08-0.2-0.23-0.34-0.4-0.43l-0.08-0.25l-0.5-6.53l-1.34-8.28l-2.08-6.78c0,0-0.42-0.64-1.25-0.04
			c-0.82,0.61,0.35,4.31,0.35,4.31l0.44,2.82c0,0-0.28,2.25-0.46,2.08c-0.19-0.17-1.15-3.94-1.15-3.94l-2.51-8.04
			c-0.3-0.5-0.94-0.68-1.46-0.42c-0.55,0.24-0.83,1.1-0.62,2.31c0.21,1.21,0.96,3.22,1.09,3.9c0.13,0.68,1,4.64,1,4.64l-3.76-8.95
			c0,0-0.84-2.94-2.05-2.37c-1.21,0.57-0.14,2.62,0,3.55c0.14,0.92,2.66,6.99,2.69,8.76s-0.34,0.92-0.34,0.92l-1.86-5.02
			c-0.82-2.21-1.83-3.44-2.84-3.52c-1.01-0.08,0.92,5.09,0.92,5.09l2.48,7.18l-0.17,2.39l-1.88-1.93c0,0-0.35-2.76-2.21-3.72
			s-2.17,0.38-2.17,0.38l4.4,10.35c0.82,1.44,4.9,3.76,6,4.37c-0.1,0.14-0.17,0.3-0.17,0.48c0,0.37,0.24,0.67,0.57,0.78
			c0.02,0.1,0.03,0.2,0.05,0.31l0.65,3.74c0.41,2.24,0.94,5.11,1.57,8.3c-8.2-7.81-16.07-15.15-16.07-15.15l-3.46-0.04
			c-0.13-0.4-0.26-0.81-0.4-1.21c-1.88-5.54-0.27-14.77-2.17-21.68c-0.12-0.75-0.25-1.5-0.39-2.24c-0.59-3.03-1.27-6.02-2.28-8.86
			c-0.66-2-1.65-4.01-2.74-5.74c-0.05-0.07-0.09-0.14-0.14-0.22c-0.4-0.62-0.81-1.22-1.23-1.74c-1.3-1.62-3.1-2.77-4.91-3.81
			c-3.24-1.85-6.62-3.51-10.27-4.22c-3.65-0.71-7.6-0.47-10.87,1.3c-1.77,0.97-3.25,2.34-4.37,3.97c-2.87-0.27-4.55,1.62-5.55,4.23
			c-0.09,0.19-0.17,0.39-0.27,0.62c-0.66,1.66-1.14,3.39-1.43,5.15c-0.43,2.61-0.61,5.25-0.55,7.89c0.05,2.97,0.36,6.22,0.75,9.58
			c0.39,3.36,0.79,6.53,1,9.42c0.11,1.44,0.2,2.82,0.2,4.07c0.02,1.14-0.11,2.28-0.37,3.39c-0.37,1.59-1.29,2.99-2.59,3.97
			c-0.96,0.67-1.66,0.79-1.63,0.96c0,0.07,0.19,0.12,0.54,0.11c0.51-0.03,1.02-0.16,1.48-0.38c0.29-0.14,0.56-0.32,0.82-0.49
			c-0.56,1.79-0.98,3.66-1.07,5.51l-3.77,1.48c-6.14,2.51-12.22,24.56-12.22,25.62l18.3,0.04l0-0.01l53.45-0.03
			c2.14-7.03,1.48-10.24,1.48-10.24l-0.05-0.24l11.7,12.46c2.67,2.84,4.6,5.43,8.38,6.42c2.65,0.69,6.8,0.33,8.17-1.41
			C213.25,249.01,214.11,245.67,213.48,242.79z"/>
	</g>
	<g>
		<g id="character">
			<path class="st4" d="M214.84,45.29c-1.86,0-3.7,0.36-5.42,1.08c-0.86,0.37-1.78,0.56-2.71,0.57l-3.56-0.21l-0.18-29.86
				c-0.08-2.68-2.31-4.78-4.98-4.71h-3.95h-84.87c-2.63-0.03-4.79,2.08-4.82,4.71c0,0,0,0,0,0v29.7h-2.12
				c-0.98,0-1.95-0.23-2.83-0.66c-2.24-1.09-6.43-2.48-9.27-2.01c-5.66,0.94-11.41,6.64-11.41,12.25c0,9.41,7.37,15.31,15.05,15.31
				c1.8,0,3.59-0.37,5.25-1.09c0.72-0.36,1.52-0.55,2.33-0.56h3.01v29.38c0.03,2.63,2.19,4.75,4.82,4.72h88.66
				c2.68,0.07,4.91-2.04,4.98-4.72l0.16-30.55l3.12,0.22c1.01,0.01,2.01,0.24,2.93,0.66c2.55,1.16,5.38,1.54,8.14,1.08
				c5.85-0.94,10.41-5.53,11.05-11.11C229.11,51.78,222.78,45.29,214.84,45.29z"/>
			
				<linearGradient id="SVGID_00000157309571584376256750000015034978431024584343_" gradientUnits="userSpaceOnUse" x1="104.289" y1="58.9919" x2="190.9614" y2="58.9919">
				<stop  offset="0.2754" style="stop-color:#6700AD"/>
				<stop  offset="0.8546" style="stop-color:#A75FD3"/>
			</linearGradient>
			<path style="fill:url(#SVGID_00000157309571584376256750000015034978431024584343_);" d="M190.57,100.97
				c-0.44-0.49-1.08-0.77-1.74-0.75c-0.11-0.01-0.22,0.02-0.32,0.02l-0.22-3.18c-0.5-7.31-3.52-14.23-8.56-19.55
				c-3.6-3.8-7.53-7.7-9.6-8.97c-3.16-1.93-13.49-3.77-15.81-3.98l-2.76-2.63l-0.02-0.26c0.01,0,0.01,0,0.02,0l-0.01-0.21
				c2.2,0.15,4.49,0.23,6.97,0.25c1.47,0,3.24-0.17,3.89-1.48c1.23,0.24,2.5-0.16,3.37-1.08c0.84-0.91,1.52-1.96,2.01-3.1
				c2.61-0.73,4.47-3.03,4.65-5.73c1.74-1.36,2.84-3.4,3.01-5.6c2.48-0.74,3.86-3.93,2.7-6.25c-0.52-3.04-1.54-5.98-3.01-8.69
				c1.69-0.35,2.34-2.62,1.66-4.2c-0.68-1.58-2.21-2.61-3.65-3.52c1.26,0.35,2.36-1.23,2.07-2.51c-0.29-1.28-1.42-2.16-2.54-2.83
				c-1.63-1-3.38-1.79-5.2-2.36c-0.58-2.22-3.4-4.77-5.47-5.76c-8.34-4.02-14.2-5.06-24.93,2.68l-0.01-0.05
				c-2.37-2.65-8.27-2.3-9.69-0.58c-2.17-1.03-4.76-0.19-5.91,1.92l-6.29,1.35c-1.07,0.23-2.2,0.48-3.01,1.19
				c-0.82,0.71-1.23,2.07-0.55,2.93c-2.22,0.56-3.1,3.85-1.48,5.45c-0.87,0.99-0.76,2.5,0.23,3.36c0.03,0.03,0.07,0.06,0.1,0.09
				c-1.75,2.07-3.14,4.43-4.09,6.96c-0.4,1.06-0.72,2.24-0.34,3.31c0.29,0.81,1.16,1.42,1.96,1.39c0,0.01,0.01,0.01,0.01,0.02
				c0,0-0.01-0.01-0.01-0.02c0.26-0.01,0.51-0.08,0.73-0.24c-0.64,0.89-0.69,2.07-0.15,3.01c-1.06,0-1.39,1.66-0.66,2.43
				s1.91,0.87,2.97,0.85c1.06-0.02,2.21-0.06,3.08,0.55c-0.02,0.26-0.15,0.51-0.35,0.67c-1.87,1.4-2.31,4.01-1,5.94l0.35,0.5
				c0.61,0.88,2.13,1.69,3.07,2.19c2.39,1.27,3.82,1.04,6.5,1.45c-0.74,1.72,3.58,5.59,8.59,1.86c0.03,0.01,0.07,0.02,0.1,0.03
				l0.05,2.65l-3.27,4.61l-10.45,2.78c-2.75,0.73-5.21,2.28-7.06,4.43l-6.22,4.9v21.19c0,3.26,1.66,5.44,4.92,5.44l0.02,0v0h2.26
				h0.56c0.44,0.26,0.43,1.2,0.64,1.66c0.44,0.81,1.44,1.14,2.28,0.74c0.34-0.18,0.6-0.45,0.81-0.76c0.15,0.66,0.17,1.36,0.21,2.01
				c0.06,1.06,0.17,2.18,0.8,3.01c0.63,0.83,1.93,1.26,2.75,0.61c0.01,0.01,0.02,0.02,0.02,0.02c0,0,0.01-0.01,0.01-0.01
				c-0.01,0.69,0.48,1.28,1.16,1.39c0.68,0.08,1.36-0.2,1.79-0.73c0.41-0.52,0.67-1.14,0.76-1.8c0.01,0.11,0.03,0.19,0.05,0.2
				c0,0,0.01-0.01,0.01-0.01c0.2,0.69,0.86,1.17,1.6,1.1c0.8-0.11,1.49-0.62,1.82-1.35c0.32-0.73,0.48-1.52,0.47-2.32
				c0-0.78,0.35-3.01,0.5-3.81l42.85-0.11l0.03,0.07c0.46,0,1.76,0,1.76,0c0.14,0.78,0.5,3.06,0.5,3.85
				c-0.01,0.8,0.15,1.59,0.47,2.32c0.34,0.73,1.02,1.24,1.82,1.35c0.74,0.06,1.4-0.41,1.6-1.1c0,0,0.01,0.01,0.01,0.01
				c0.03,0,0.04-0.08,0.05-0.2c0.09,0.66,0.35,1.28,0.76,1.8c0.43,0.54,1.11,0.81,1.79,0.73c0.68-0.11,1.18-0.7,1.16-1.39
				c0,0,0.01,0.01,0.01,0.01c0.01,0,0.02-0.01,0.02-0.02c0.82,0.65,2.12,0.22,2.75-0.61c0.63-0.84,0.74-1.96,0.8-3.01
				c0.03-0.65,0.06-1.35,0.21-2.01c0.21,0.31,0.47,0.58,0.81,0.76c0.84,0.4,1.84,0.07,2.28-0.74c0.19-0.42,0.2-1.21,0.52-1.56
				c0.26,0,0.53,0,0.82-0.01l-0.01-0.1h2.13C191.01,103.04,191.04,101.59,190.57,100.97z"/>
		</g>
		<path class="st6" d="M159.43,81.26c-6.81-3.27-14.98-0.4-18.25,6.41c-1.73,3.6-1.8,7.78-0.19,11.43c0.39,0.87,0.6,1.81,0.61,2.76
			v2.85l23.52-0.02v-2.21c0.01-1.03,0.25-2.05,0.71-2.98C169.1,92.7,166.24,84.53,159.43,81.26z"/>
	</g>
	<g id="Lines">
		<g id="lines">
			
				<linearGradient id="SVGID_00000012449732194664451920000018033772970444875146_" gradientUnits="userSpaceOnUse" x1="136.5319" y1="113.5897" x2="144.2755" y2="113.5897">
				<stop  offset="0.1275" style="stop-color:#6700AD"/>
				<stop  offset="0.8546" style="stop-color:#A75FD3"/>
			</linearGradient>
			<path style="fill:url(#SVGID_00000012449732194664451920000018033772970444875146_);" d="M143.76,119.6
				c-0.47,0.24-1.04,0.05-1.28-0.43l-5.85-10.32c-0.24-0.47-0.05-1.04,0.43-1.28c0.45-0.23,1-0.06,1.25,0.37l5.86,10.39
				c0.23,0.45,0.06,1.01-0.38,1.26L143.76,119.6z"/>
			
				<linearGradient id="SVGID_00000030450423117626815640000008011664819412602763_" gradientUnits="userSpaceOnUse" x1="124.4834" y1="122.9763" x2="136.8222" y2="122.9763">
				<stop  offset="0.1275" style="stop-color:#6700AD"/>
				<stop  offset="0.8546" style="stop-color:#A75FD3"/>
			</linearGradient>
			<path style="fill:url(#SVGID_00000030450423117626815640000008011664819412602763_);" d="M136.32,126.9
				c-0.29,0.15-0.64,0.15-0.92-0.02l-10.44-6.16c-0.45-0.27-0.61-0.85-0.34-1.31c0.27-0.45,0.85-0.61,1.31-0.34l10.44,6.16
				c0.45,0.27,0.6,0.85,0.33,1.3C136.61,126.69,136.48,126.82,136.32,126.9z"/>
			
				<linearGradient id="SVGID_00000109010612060894446080000012802411634939822750_" gradientUnits="userSpaceOnUse" x1="120.5153" y1="136.0452" x2="134.0325" y2="136.0452">
				<stop  offset="0.1275" style="stop-color:#6700AD"/>
				<stop  offset="0.8546" style="stop-color:#A75FD3"/>
			</linearGradient>
			<path style="fill:url(#SVGID_00000109010612060894446080000012802411634939822750_);" d="M133.53,136.95
				c-0.14,0.07-0.29,0.1-0.45,0.11l-11.65-0.11c-0.53-0.02-0.94-0.46-0.92-0.99c0.02-0.5,0.43-0.91,0.93-0.92l11.65,0.09
				c0.52,0.01,0.94,0.44,0.94,0.96C134.04,136.45,133.84,136.78,133.53,136.95z"/>
			
				<linearGradient id="SVGID_00000031185201204558026900000011200530567084277933_" gradientUnits="userSpaceOnUse" x1="172.368" y1="136.547" x2="186.0426" y2="136.547">
				<stop  offset="0.1454" style="stop-color:#A75FD3"/>
				<stop  offset="0.8725" style="stop-color:#6700AD"/>
			</linearGradient>
			<path style="fill:url(#SVGID_00000031185201204558026900000011200530567084277933_);" d="M185.53,137.45
				c-0.14,0.07-0.29,0.1-0.45,0.11l-11.77-0.1c-0.53-0.01-0.95-0.44-0.94-0.97c0.01-0.53,0.44-0.95,0.97-0.94l11.77,0.1
				c0.52,0.01,0.94,0.44,0.94,0.96C186.04,136.96,185.84,137.28,185.53,137.45z"/>
			
				<linearGradient id="SVGID_00000053539944621686316980000002895527077767206560_" gradientUnits="userSpaceOnUse" x1="169.8373" y1="123.383" x2="182.3942" y2="123.383">
				<stop  offset="0.1454" style="stop-color:#A75FD3"/>
				<stop  offset="0.8725" style="stop-color:#6700AD"/>
			</linearGradient>
			<path style="fill:url(#SVGID_00000053539944621686316980000002895527077767206560_);" d="M171.2,127.23
				c-0.45,0.23-1.01,0.06-1.26-0.38c-0.23-0.45-0.06-1.01,0.38-1.26l10.65-6.03c0.46-0.26,1.04-0.1,1.3,0.36
				c0.01,0.01,0.02,0.03,0.02,0.04c0.24,0.47,0.05,1.04-0.43,1.28l-10.66,6.02L171.2,127.23z"/>
			
				<linearGradient id="SVGID_00000180354258197667281440000004171529365896356514_" gradientUnits="userSpaceOnUse" x1="162.5084" y1="113.8349" x2="170.4519" y2="113.8349">
				<stop  offset="0.1454" style="stop-color:#A75FD3"/>
				<stop  offset="0.8725" style="stop-color:#6700AD"/>
			</linearGradient>
			<path style="fill:url(#SVGID_00000180354258197667281440000004171529365896356514_);" d="M163.9,119.79
				c-0.29,0.15-0.64,0.14-0.93-0.03c-0.45-0.27-0.6-0.85-0.33-1.3l6.01-10.2c0.26-0.46,0.85-0.62,1.31-0.36
				c0.46,0.26,0.62,0.85,0.36,1.31l-6.01,10.2C164.21,119.57,164.07,119.7,163.9,119.79z"/>
			
				<linearGradient id="SVGID_00000158021107682301685840000002538371723680467130_" gradientUnits="userSpaceOnUse" x1="153.4797" y1="103.1202" x2="153.4797" y2="117.1059">
				<stop  offset="0.1275" style="stop-color:#6700AD"/>
				<stop  offset="0.8546" style="stop-color:#A75FD3"/>
			</linearGradient>
			<path style="fill:url(#SVGID_00000158021107682301685840000002538371723680467130_);" d="M153.86,117
				c-0.14,0.07-0.29,0.11-0.45,0.11c-0.53,0-0.95-0.43-0.95-0.95c0,0,0-0.01,0-0.01l0.13-12.08c0.01-0.53,0.44-0.95,0.96-0.94
				c0,0,0,0,0,0c0.52,0,0.95,0.43,0.95,0.95l-0.13,12.09C154.36,116.52,154.17,116.84,153.86,117z"/>
		</g>
	</g>
</g>
</svg>
