<?xml version="1.0" encoding="utf-8"?>
<!-- Generator: Adobe Illustrator 27.1.0, SVG Export Plug-In . SVG Version: 6.00 Build 0)  -->
<svg version="1.1" id="Layer_1" xmlns="http://www.w3.org/2000/svg" xmlns:xlink="http://www.w3.org/1999/xlink" x="0px" y="0px"
	 viewBox="0 0 2000 263.5" style="enable-background:new 0 0 2000 263.5;" xml:space="preserve">
<style type="text/css">
	.st0{fill:url(#SVGID_1_);}
	.st1{fill:url(#SVGID_00000004521207984906406260000012216125613378516098_);}
	.st2{fill:url(#SVGID_00000097488526293721611290000001687902880819512728_);}
	.st3{fill:url(#SVGID_00000101815689570183625140000018058397102001738143_);}
	.st4{fill:url(#SVGID_00000163036326935493890930000012181774017963707015_);}
</style>
<linearGradient id="SVGID_1_" gradientUnits="userSpaceOnUse" x1="42.8395" y1="100.2963" x2="248.1395" y2="178.8579" gradientTransform="matrix(1 0 0 -1 0 268.2553)">
	<stop  offset="0" style="stop-color:#FFE580"/>
	<stop  offset="1" style="stop-color:#FFCC01"/>
</linearGradient>
<path class="st0" d="M58.7,15.8h148.6c23.9,0,43.4,19.4,43.4,43.4v148.6c0,23.9-19.4,43.4-43.4,43.4H58.7
	c-23.9,0-43.4-19.4-43.4-43.4V59.1C15.3,35.2,34.7,15.8,58.7,15.8z"/>
<linearGradient id="SVGID_00000103966336722151996050000012266963169898689206_" gradientUnits="userSpaceOnUse" x1="448.798" y1="134.7882" x2="684.1608" y2="134.7882" gradientTransform="matrix(1 0 0 -1 0 268.2553)">
	<stop  offset="0" style="stop-color:#A9EB57"/>
	<stop  offset="1" style="stop-color:#7FB936"/>
</linearGradient>
<path style="fill:url(#SVGID_00000103966336722151996050000012266963169898689206_);" d="M492.2,15.8h148.6
	c23.9,0,43.4,19.4,43.4,43.4v148.6c0,23.9-19.4,43.4-43.4,43.4H492.2c-23.9,0-43.4-19.4-43.4-43.4V59.1
	C448.8,35.2,468.2,15.8,492.2,15.8z"/>
<linearGradient id="SVGID_00000054237094675481667000000009690361995749764992_" gradientUnits="userSpaceOnUse" x1="1106.8207" y1="168.8221" x2="893.1416" y2="100.7551" gradientTransform="matrix(1 0 0 -1 0 268.2553)">
	<stop  offset="0" style="stop-color:#6700AD"/>
	<stop  offset="1" style="stop-color:#A75FD3"/>
</linearGradient>
<path style="fill:url(#SVGID_00000054237094675481667000000009690361995749764992_);" d="M925.7,15.8h148.6
	c23.9,0,43.4,19.4,43.4,43.4v148.6c0,23.9-19.4,43.4-43.4,43.4H925.7c-23.9,0-43.4-19.4-43.4-43.4V59.1
	C882.3,35.2,901.7,15.8,925.7,15.8z"/>
<linearGradient id="SVGID_00000109740953394842983530000007240253227044073654_" gradientUnits="userSpaceOnUse" x1="1316.3168" y1="150.2107" x2="1547.67" y2="119.7592" gradientTransform="matrix(1 0 0 -1 0 268.2553)">
	<stop  offset="0" style="stop-color:#B4C9FF"/>
	<stop  offset="1" style="stop-color:#2D63ED"/>
</linearGradient>
<path style="fill:url(#SVGID_00000109740953394842983530000007240253227044073654_);" d="M1359.2,15.8h148.6
	c23.9,0,43.4,19.4,43.4,43.4v148.6c0,23.9-19.4,43.4-43.4,43.4h-148.6c-23.9,0-43.4-19.4-43.4-43.4V59.1
	C1315.8,35.2,1335.2,15.8,1359.2,15.8z"/>
<linearGradient id="SVGID_00000078046140949818454990000007941158796608509600_" gradientUnits="userSpaceOnUse" x1="1789.2576" y1="161.2978" x2="2000.0992" y2="89.392" gradientTransform="matrix(1 0 0 -1 0 268.2553)">
	<stop  offset="0" style="stop-color:#FFB782"/>
	<stop  offset="1" style="stop-color:#FF8E3A"/>
</linearGradient>
<path style="fill:url(#SVGID_00000078046140949818454990000007941158796608509600_);" d="M1792.7,15.8h148.6
	c23.9,0,43.4,19.4,43.4,43.4v148.6c0,23.9-19.4,43.4-43.4,43.4h-148.6c-23.9,0-43.4-19.4-43.4-43.4V59.1
	C1749.3,35.2,1768.7,15.8,1792.7,15.8z"/>
</svg>
