<?xml version="1.0" encoding="utf-8"?>
<!-- Generator: Adobe Illustrator 27.1.0, SVG Export Plug-In . SVG Version: 6.00 Build 0)  -->
<svg version="1.1" id="Layer_1" xmlns="http://www.w3.org/2000/svg" xmlns:xlink="http://www.w3.org/1999/xlink" x="0px" y="0px"
	 viewBox="0 0 175 175" style="enable-background:new 0 0 175 175;" xml:space="preserve">
<style type="text/css">
	.st0{clip-path:url(#SVGID_00000004529945542157641800000014007052172786322817_);}
	.st1{clip-path:url(#SVGID_00000127750886818735863910000008107945227576221845_);}
	.st2{fill:#B78876;}
	.st3{fill:#FFCD05;}
	.st4{fill:#FDB71E;}
	.st5{opacity:0.5;fill:#46494C;}
	.st6{fill:#010101;}
	.st7{fill:#966E63;}
	.st8{fill:#46494C;}
	.st9{fill:#9A6F2A;}
	.st10{fill:#FBBD9E;}
	.st11{fill:#EC9A6F;}
	.st12{fill:#F7A7A8;}
	.st13{fill:#EEEEEF;}
</style>
<defs>
	<circle id="SVGID_1_" cx="87.05" cy="87.25" r="82.81"/>
</defs>
<use xlink:href="#SVGID_1_"  style="overflow:visible;fill:#FFFFFF;"/>
<clipPath id="SVGID_00000098182001120910676100000011005396235693458057_">
	<use xlink:href="#SVGID_1_"  style="overflow:visible;"/>
</clipPath>
<g style="clip-path:url(#SVGID_00000098182001120910676100000011005396235693458057_);">
	<defs>
		<circle id="SVGID_00000175308306709509769680000012241916560806378408_" cx="87.05" cy="87.25" r="82.81"/>
	</defs>
	<clipPath id="SVGID_00000113338719440577737530000007818261988299844540_">
		<use xlink:href="#SVGID_00000175308306709509769680000012241916560806378408_"  style="overflow:visible;"/>
	</clipPath>
	<g style="clip-path:url(#SVGID_00000113338719440577737530000007818261988299844540_);">
		<polygon class="st2" points="82.64,135.2 64.43,158.55 53.17,157.66 69.82,132.79 		"/>
		<polygon class="st2" points="77.98,110.46 82.64,135.2 72.18,144.7 65.87,113.54 		"/>
		<polygon class="st2" points="14.12,110.84 8.34,136.05 20.57,136.08 26.23,113.92 		"/>
		<path class="st3" d="M64.29,98.5l0.31,53.03H26.88l0.26-36.79l-15.39-4.5c0,0,6-20.44,7.83-23.31c1.82-2.87,16.42-9.22,16.42-9.22
			s13.68-1.21,14.45-0.83c0,0,17.56,5.56,20.4,8.74c2.84,3.17,10.17,25.23,10.17,25.23l-16.73,3.31V98.53"/>
		<path class="st4" d="M64.3,98.53"/>
		<path class="st5" d="M27.21,121.08c-0.05,0-0.1-5.34-0.1-11.92s0.05-11.92,0.1-11.92c0.05,0,0.1,5.33,0.1,11.92
			C27.31,115.75,27.27,121.08,27.21,121.08z"/>
		<path class="st5" d="M64.3,121.3c-0.05,0-0.1-5.34-0.1-11.92s0.05-11.92,0.1-11.92s0.1,5.33,0.1,11.92
			C64.39,115.97,64.35,121.3,64.3,121.3z"/>
		<path class="st2" d="M32.32,56.35l3.86,22.38c0.67,3.92,4.39,6.56,8.31,5.89c0.02,0,0.04-0.01,0.05-0.01l0,0
			c3.67-0.66,6.24-4.01,5.91-7.73c-0.18-1.99-0.33-3.63-0.33-3.63s5.61-1.44,5.12-7.13c-0.24-2.75-1.18-8.39-2.09-13.48
			c-0.98-5.46-6-9.25-11.52-8.71l-0.55,0.05c-5.77,0.9-9.72,6.32-8.81,12.09C32.29,56.17,32.3,56.26,32.32,56.35z"/>
		<path class="st6" d="M51.44,56.14c0.05,0.56-0.26,1.07-0.7,1.14c-0.42,0.1-0.83-0.26-0.9-0.79c0-0.01,0-0.02,0-0.03
			c-0.05-0.56,0.26-1.07,0.7-1.14c0.42-0.1,0.83,0.26,0.9,0.79C51.44,56.12,51.44,56.13,51.44,56.14z"/>
		<path class="st6" d="M42.88,57.41c0.04,0.56-0.27,1.06-0.71,1.14c-0.42,0.1-0.83-0.26-0.91-0.8c0-0.01,0-0.01,0-0.02
			c-0.05-0.56,0.26-1.06,0.7-1.14c0.43-0.1,0.83,0.27,0.91,0.81C42.88,57.4,42.88,57.4,42.88,57.41z"/>
		<path class="st6" d="M43.52,53.09c-0.06,0.25-0.95,0.22-1.96,0.44c-1.01,0.23-1.82,0.59-1.97,0.38c-0.07-0.09,0.05-0.33,0.38-0.6
			c0.42-0.33,0.91-0.56,1.43-0.66c0.52-0.11,1.06-0.1,1.57,0.03C43.34,52.81,43.54,52.98,43.52,53.09z"/>
		<path class="st6" d="M51.64,53.04c-0.14,0.21-0.75,0.07-1.5,0.13c-0.75,0.06-1.32,0.27-1.5,0.07c-0.07-0.09,0-0.3,0.26-0.52
			c0.34-0.27,0.75-0.42,1.17-0.44c0.43-0.03,0.85,0.06,1.22,0.29C51.59,52.74,51.7,52.94,51.64,53.04z"/>
		<path class="st6" d="M37.89,49.51l-0.03,0.03c-0.84,0.8-1.33,1.9-1.38,3.05c0,0.04,0,0.08,0,0.12c-0.06,1.65,0.14,3.3,0.06,4.94
			c-0.08,1.64-0.48,3.35-1.57,4.58c-0.45,0.51-1.29,0.91-1.75,0.41c-0.16-0.21-0.26-0.46-0.28-0.72c-0.68-3.89-2.09-7.26-2.48-11.36
			c-0.11-1.11,0.32-2.21,1.16-2.95c0.8-0.7,1.78-1.44,2.78-1.08c1,0.36,2.41,2.02,3.22,2.71"/>
		<path class="st2" d="M34.49,58.74c-0.1-0.03-4.02-0.77-3.52,3.1c0.29,2.23,1.66,2.75,2.78,2.76c0.83,0.01,1.51-0.25,1.51-0.3
			C35.25,64.19,34.49,58.74,34.49,58.74z"/>
		<path class="st7" d="M35.06,64.61c0,0,1.66,10.55,15.4,8.53l-0.14,1.74c0,0-11.82,1.97-15.67-4.96l-0.91-5.32L35.06,64.61z"/>
		<path class="st6" d="M57.66,45.65c0-1.32-1.07-2.38-2.38-2.38c-0.14,0-0.28,0.02-0.42,0.04c-0.02-0.19-0.06-0.38-0.15-0.55
			c-0.46-0.74-1.3-1.17-2.18-1.1c-0.33,0.03-0.66,0.1-0.98,0.18c-0.43-0.63-1.15-1.04-1.97-1.04c-0.65,0-1.25,0.26-1.68,0.69
			c-0.43-0.43-1.02-0.69-1.68-0.69c-0.79,0-1.48,0.39-1.91,0.98c-0.43-0.59-1.13-0.98-1.91-0.98c-0.91,0-1.69,0.52-2.1,1.27
			c-1.01-0.08-2-0.03-2.83,0.32c-1.86,0.79-4.29,3.28-3.16,4.75l-0.01,0c-0.07,0.74-0.03,1.49,0.14,2.22
			c0.18,0.73,0.7,1.34,1.4,1.63c0.73,0.24,1.44-1.32,2.63-1.88c1.61-0.75,4.51,0.06,6.23,0.51c1.73,0.45,3.37,1.17,5.1,1.58
			c1.73,0.4,3.65,0.45,5.2-0.42c0.61-0.34,1.19-0.91,1.19-1.61c0-0.39-0.29-0.75-0.64-0.91c0.19-0.06,0.37-0.14,0.53-0.25
			c0.12-0.08,0.22-0.17,0.31-0.27C57.15,47.33,57.66,46.56,57.66,45.65z"/>
		<path class="st6" d="M58.12,67.52c0-0.89-0.37-1.69-0.96-2.26c0.04-0.21,0.07-0.43,0.07-0.65c0-1.74-1.41-3.15-3.15-3.15
			c-0.64,0-1.24,0.2-1.74,0.53c-0.43-0.21-0.9-0.35-1.41-0.35c-1.08,0-2.03,0.54-2.6,1.37c-0.56-0.52-1.31-0.85-2.14-0.85
			c-0.79,0-1.49,0.3-2.05,0.77c-1.95,0.45-3.19,2.16-3.19,2.16c-2.34,0-4.26-1.87-4.31-4.22l-0.09-3.88l-1.9,1.05
			c-0.52,7.24,2.03,10.41,2.03,10.41c-0.01,2.48,1.66,3.85,2.98,4.54c0.22,1.16,1.23,2.03,2.45,2.03c0.4,0,0.77-0.1,1.11-0.27
			c0.56,0.85,1.53,1.42,2.63,1.42c0.81,0,1.54-0.31,2.1-0.81c0.02,0,0.04,0,0.06,0c0.51,0.35,1.12,0.56,1.79,0.56
			c1.21,0,2.25-0.69,2.78-1.7c0.23,0.05,0.47,0.09,0.72,0.09c1.74,0,3.15-1.41,3.15-3.15c0-0.28-0.05-0.54-0.11-0.8
			C57.38,69.85,58.12,68.77,58.12,67.52z"/>
		<path class="st6" d="M47.1,55.66c0.83,1.41,1.86,3.07,1.55,4.77c-0.17,0.04-0.34,0.06-0.51,0.09c0.15-0.06,0.31-0.13,0.46-0.18
			l-0.03,0.03C48.73,58.71,47.76,57.14,47.1,55.66L47.1,55.66z"/>
		<rect x="26.88" y="151.53" class="st6" width="37.52" height="26.47"/>
	</g>
	<g style="clip-path:url(#SVGID_00000113338719440577737530000007818261988299844540_);">
		<path class="st3" d="M114.05,120.86l11.11-18.52l-7.09-17.7c-0.68,0.35-13.67,26.15-16.36,30.24c-0.12,0.19-0.59,1.62-1.02,3.02
			c-0.54,1.76-0.26,3.66,0.77,5.18l16.07,25.16l1.36-17.76L114.05,120.86z"/>
		<rect x="117.28" y="143.61" class="st8" width="40.21" height="35.92"/>
		<path class="st9" d="M131.06,71.55l-3.33-0.17c0.64-1.88,1.13-4.16,1.37-6.64c0.65-6.78-0.82-12.46-3.28-12.7
			c-2.46-0.24-4.98,5.07-5.63,11.85c-0.4,4.17,0,7.93,0.95,10.25c0.46,1.13,0.21,2.46-0.69,3.29c-0.01,0.01-0.01,0.01-0.02,0.02
			c-1.14,1.01-2.63,1.6-3.68,2.71c-1.32,1.51-1.76,3.6-1.14,5.51c0.64,1.88,2.03,3.42,3.84,4.26c2.47,1.15,5.34,1.06,7.73-0.26
			c2.9-1.64,4.59-4.93,5.02-8.24C132.62,78.12,131.95,74.77,131.06,71.55z"/>
		<path class="st3" d="M124.86,81.37l6.52,0.49l9.03,1.4c0,0,15.84,4.16,15.84,5.9c0,0.58-4.32,14.35-6.76,22.6
			c-0.6,2-1.08,4.04-1.46,6.09l9.45,25.82l-40.21-0.11v-24.19c0,0-2.63-21.89-2.17-24.88c0.29-1.86,1.04-6.05,2.68-9.36
			C118.83,83.01,122.51,81.19,124.86,81.37z"/>
		<path class="st3" d="M116.93,93.07c-1.35,1.73-2.37,3.7-2.98,5.81c-0.61,2.12-0.54,4.38,0.19,6.46c1.16,2.93,3.77,5.04,6.88,5.55"
			/>
		<path class="st5" d="M119.65,111.12c-0.06-0.02-0.11-0.06-0.17-0.09l-0.44-0.29c-0.38-0.26-0.93-0.64-1.59-1.15
			c-0.77-0.59-1.48-1.27-2.11-2.02c-0.77-0.92-1.33-2.01-1.63-3.17c-0.29-1.17-0.36-2.37-0.22-3.57c0.12-0.97,0.33-1.92,0.64-2.84
			c0.21-0.62,0.45-1.23,0.72-1.83c0.1-0.21,0.17-0.38,0.23-0.48c0.02-0.06,0.06-0.11,0.09-0.17c-0.07,0.23-0.15,0.46-0.25,0.68
			c-0.17,0.43-0.41,1.05-0.66,1.84c-0.29,0.92-0.49,1.86-0.59,2.82c-0.13,1.17-0.05,2.35,0.23,3.5c0.29,1.14,0.83,2.2,1.58,3.11
			c0.61,0.74,1.3,1.42,2.05,2.02c0.64,0.53,1.17,0.92,1.55,1.2l0.42,0.32C119.61,111.07,119.65,111.11,119.65,111.12z"/>
		<path class="st5" d="M140.91,114.83c-0.05,0.03-0.11,0.05-0.17,0.06c-0.11,0.03-0.27,0.09-0.49,0.13
			c-0.6,0.13-1.22,0.21-1.84,0.22c-4.22,0.13-8.09-2.32-9.78-6.19c-0.25-0.57-0.45-1.15-0.59-1.76c-0.05-0.21-0.07-0.38-0.09-0.5
			c-0.01-0.06-0.02-0.12-0.02-0.18c0.08,0.21,0.14,0.43,0.19,0.65c1.23,4.66,5.47,7.89,10.29,7.83c0.61,0,1.22-0.06,1.83-0.16
			C140.46,114.89,140.69,114.86,140.91,114.83z"/>
		<path class="st5" d="M146.86,122.08c-0.05,0,0.41-2.1,1.06-4.65c0.65-2.55,1.18-4.61,1.23-4.6c0.05,0.01-0.41,2.09-1.04,4.65
			C147.48,120.03,146.91,122.08,146.86,122.08z"/>
		<path class="st5" d="M152.12,117.72c-0.05,0.03-1.55-2.44-3.38-5.51c-1.82-3.07-3.25-5.58-3.2-5.61c0.05-0.03,1.55,2.44,3.38,5.51
			C150.74,115.18,152.18,117.69,152.12,117.72z"/>
		<path class="st10" d="M142.91,60.68c0.7-5.6-3.27-10.71-8.87-11.41c-0.11-0.01-0.21-0.02-0.32-0.03
			c-5.45-0.52-10.29,3.54-11.11,8.95c-0.72,4.74-1.33,9.53-1.31,11.26c0.07,5.25,3.13,7.29,4.38,7.88c0.45,0.16,0.91,0.28,1.38,0.34
			l0,0c0.02,0,0.03,0.02,0.03,0.04c0,0,0,0,0,0l-1.16,6c-0.53,3.94,1.67,7.46,5.61,8.04c3.94,0.57,7.04-2.45,7.64-6.4L142.91,60.68z
			"/>
		<path class="st8" d="M123.53,61.25c0.09,0.12,0.78-0.25,1.67-0.12s1.47,0.67,1.58,0.57c0.06-0.04-0.02-0.25-0.27-0.5
			c-0.35-0.32-0.78-0.53-1.25-0.6c-0.46-0.07-0.93,0.01-1.35,0.23C123.59,61.01,123.48,61.19,123.53,61.25z"/>
		<path class="st8" d="M131.42,62.96c0.09,0.12,0.78-0.25,1.67-0.12c0.89,0.13,1.47,0.67,1.59,0.57c0.05-0.04-0.02-0.25-0.28-0.5
			c-0.34-0.32-0.78-0.53-1.25-0.59c-0.46-0.07-0.93,0.01-1.35,0.23C131.5,62.72,131.38,62.9,131.42,62.96z"/>
		<path class="st11" d="M127.11,77.7c0,0,3.38,0.78,8.05-1.17c0,0-2.01,4.33-8.36,2.79L127.11,77.7z"/>
		<path class="st9" d="M132.04,60.07c0.05,0.26,0.96,0.27,1.98,0.55s1.83,0.68,2,0.49c0.08-0.09-0.04-0.34-0.34-0.63
			c-0.83-0.71-1.95-1.01-3.03-0.79C132.23,59.79,132.02,59.95,132.04,60.07z"/>
		<path class="st9" d="M124.42,58.51c0.12,0.23,0.77,0.11,1.5,0.2c0.73,0.1,1.34,0.33,1.5,0.14c0.08-0.09,0-0.31-0.24-0.54
			c-0.68-0.58-1.64-0.69-2.43-0.28C124.48,58.21,124.37,58.4,124.42,58.51z"/>
		<path class="st3" d="M125.91,81.82c1,4.35,5.32,7.06,9.67,6.07c0.38-0.09,0.75-0.2,1.11-0.34c1.94-0.75,3.51-2.21,5.03-3.64
			c1.07,6.41-3.27,12.48-9.68,13.55c-0.41,0.07-0.82,0.11-1.23,0.14c-2.49,0.15-5.16-0.61-6.73-2.55c-1.09-1.35-1.53-3.14-1.5-4.88
			c0.08-1.74,0.41-3.46,0.98-5.1c0.44-1.42,1.14-3,2.58-3.4"/>
		<path class="st9" d="M142.46,54.53c1.87,1,2.87,3.1,3.23,5.18c0.36,2.07,0.18,4.2,0.27,6.3s0.49,4.3,1.82,5.93
			c1.4,1.74,3.62,2.56,5.6,3.62c4.35,2.33,7.94,6.32,9.24,11.09c1.31,4.77,0.12,10.27-3.45,13.7c-3.27,3.11-7.98,4.2-12.49,4.2
			c-3.21,0-6.73-0.69-8.74-3.2c-2-2.51-1.87-6.02-1.17-9.11c0.7-3.09,1.13-3.54,1.19-6.71c-0.86,1.94-0.46,1.27-1.62,2.93
			c-0.33,0.47-0.9,0.98-1.4,0.71c-0.5-0.27-0.35-1.14-0.09-1.73c3.87-8.61,2.52-25.95,4.81-35.45"/>
		<path class="st9" d="M145.2,54.39c-0.5-1.81-1.29-3.62-2.72-4.83c-2.19-1.75-5.28-1.8-7.52-0.12l0,0l0,0
			c0,0-10.77-5.05-12.75,9.49c0,0,3.82-0.32,7.78-2.62c1.22-0.71,2.59-1.06,3.99-1.04c0.02,0,0.05,0,0.07,0c0,0,0.01,0,0.01,0
			c0.62,0,1.14,0.46,1.17,1.08c0.03,0.74,0.07,1.44,0.11,2c0.12,1.84,0.88,3.59,2.15,4.93c1.96,1.91,4.92,2.25,7.65,2.48
			C146.18,62.05,146.21,58.12,145.2,54.39z"/>
		<path class="st3" d="M156.25,91.8l-9.62,16.46l11.69,20.07v0.12c0.04,0.4,0.27,0.75,0.61,0.95l0.08,6.63h13v-10.59
			c0-0.44-0.09-0.87-0.28-1.27C169.67,119.73,156.87,92.24,156.25,91.8z"/>
		<path class="st8" d="M127.46,64.73l-0.61,1.07l-0.03-0.1c0.3,0.14,0.66,0.3,0.87,0.54c-0.36-0.1-0.69-0.27-1-0.46l0.04-0.06
			C126.75,65.74,127.45,64.69,127.46,64.73L127.46,64.73z"/>
		<path class="st11" d="M128.98,69.77l-3.55-0.01c-0.05,0.96,0.7,1.78,1.66,1.83c0.02,0,0.04,0,0.07,0
			C128.15,71.58,128.96,70.77,128.98,69.77z"/>
		<path class="st12" d="M128.88,70.29c-0.23,0.77-0.93,1.3-1.73,1.3c-0.41,0.01-0.8-0.14-1.11-0.4
			C126.72,70.35,127.84,69.99,128.88,70.29z"/>
	</g>
	<g style="clip-path:url(#SVGID_00000113338719440577737530000007818261988299844540_);">
		<g>
			<path class="st13" d="M62.59,59.31l3.17,0.56c3.53,3.97,9.61,4.34,13.58,0.81s4.34-9.61,0.81-13.58s-9.61-4.34-13.58-0.81
				c-3,2.66-4.03,6.89-2.6,10.63l0,0L62.59,59.31z"/>
			<path class="st6" d="M75.89,53.77c0-0.54,0.44-0.98,0.98-0.98c0.54,0,0.98,0.44,0.98,0.98c0,0.54-0.44,0.98-0.98,0.98
				c0,0,0,0,0,0C76.33,54.74,75.9,54.3,75.89,53.77z"/>
			<path class="st6" d="M71.98,53.77c0-0.54,0.44-0.98,0.98-0.98s0.98,0.44,0.98,0.98c0,0.54-0.44,0.98-0.98,0.98c0,0,0,0,0,0
				C72.42,54.74,71.99,54.3,71.98,53.77z"/>
			<path class="st6" d="M68.08,54.25c-0.27-0.47-0.11-1.07,0.36-1.33c0.47-0.27,1.07-0.11,1.33,0.36c0.27,0.47,0.11,1.06-0.35,1.33
				c-0.46,0.27-1.06,0.12-1.34-0.35C68.09,54.26,68.09,54.26,68.08,54.25z"/>
		</g>
		<g id="lines_00000008856618496693816550000013936048600852872621_">
			<g id="lines_00000028285985034494115850000017259419818740429211_">
				<path class="st3" d="M79.92,43.39c-0.15-0.13-0.16-0.35-0.03-0.5l2.75-3.49c0.13-0.15,0.35-0.16,0.5-0.03
					c0.14,0.12,0.16,0.34,0.05,0.49l-2.77,3.51C80.29,43.5,80.08,43.52,79.92,43.39L79.92,43.39z"/>
				<path class="st3" d="M76.34,41.85c-0.09-0.08-0.14-0.2-0.13-0.32l0.65-4.49c0.03-0.2,0.21-0.33,0.4-0.3
					c0.2,0.03,0.33,0.21,0.3,0.4l-0.66,4.49c-0.03,0.19-0.21,0.33-0.4,0.3C76.45,41.91,76.39,41.89,76.34,41.85z"/>
				<path class="st3" d="M72.46,42.3c-0.04-0.04-0.08-0.09-0.1-0.14l-1.61-4.05c-0.07-0.19,0.03-0.39,0.21-0.46
					c0.18-0.06,0.37,0.02,0.45,0.19l1.62,4.05c0.07,0.18-0.02,0.39-0.2,0.46C72.71,42.41,72.56,42.39,72.46,42.3z"/>
				<path class="st3" d="M82.26,46.52c-0.04-0.04-0.08-0.09-0.1-0.14c-0.07-0.18,0.01-0.39,0.2-0.46c0,0,0,0,0,0l4.2-1.67
					c0.18-0.07,0.39,0.02,0.46,0.2c0,0,0,0,0,0c0.07,0.18-0.01,0.39-0.2,0.46l-4.21,1.67C82.5,46.62,82.36,46.6,82.26,46.52z"/>
			</g>
		</g>
	</g>
	<g style="clip-path:url(#SVGID_00000113338719440577737530000007818261988299844540_);">
		<g>
			<path class="st8" d="M110.27,79.35l-3.17,0.56c-3.53,3.97-9.61,4.34-13.58,0.81c-3.97-3.53-4.34-9.61-0.81-13.58
				c3.53-3.97,9.61-4.34,13.58-0.81c3,2.66,4.03,6.89,2.6,10.63l0,0L110.27,79.35z"/>
			<path class="st13" d="M96.97,73.8c0-0.54-0.44-0.98-0.98-0.98s-0.98,0.44-0.98,0.98c0,0.54,0.44,0.98,0.98,0.98c0,0,0,0,0,0
				C96.53,74.78,96.97,74.34,96.97,73.8z"/>
			<path class="st13" d="M100.88,73.8c0-0.54-0.44-0.98-0.98-0.98s-0.98,0.44-0.98,0.98c0,0.54,0.44,0.98,0.98,0.98c0,0,0,0,0,0
				C100.44,74.78,100.88,74.34,100.88,73.8z"/>
			<path class="st13" d="M104.78,74.29c0.27-0.47,0.11-1.07-0.36-1.33c-0.47-0.27-1.07-0.11-1.33,0.36
				c-0.27,0.47-0.11,1.06,0.35,1.33c0.46,0.27,1.06,0.12,1.34-0.35C104.77,74.3,104.78,74.3,104.78,74.29z"/>
		</g>
		<g id="lines_00000110457906598447062010000003639702052756405420_">
			<g id="lines_00000010279767892960457020000014637697431072886155_">
				<path class="st3" d="M92.94,63.43c0.15-0.13,0.16-0.35,0.03-0.5l-2.75-3.49c-0.13-0.15-0.35-0.16-0.5-0.03
					c-0.14,0.12-0.16,0.34-0.05,0.49l2.77,3.51C92.57,63.53,92.79,63.55,92.94,63.43L92.94,63.43z"/>
				<path class="st3" d="M96.52,61.88c0.09-0.08,0.14-0.2,0.13-0.32L96,57.07c-0.03-0.2-0.21-0.33-0.4-0.3
					c-0.2,0.03-0.33,0.21-0.3,0.4l0.66,4.49c0.03,0.19,0.21,0.33,0.4,0.3C96.41,61.95,96.47,61.93,96.52,61.88z"/>
				<path class="st3" d="M100.4,62.34c0.04-0.04,0.08-0.09,0.1-0.14l1.61-4.05c0.07-0.19-0.03-0.39-0.21-0.46
					c-0.18-0.06-0.37,0.02-0.45,0.19l-1.62,4.05c-0.07,0.18,0.02,0.39,0.2,0.46C100.16,62.45,100.3,62.43,100.4,62.34z"/>
				<path class="st3" d="M90.61,66.55c0.04-0.04,0.08-0.09,0.1-0.14c0.07-0.18-0.01-0.39-0.2-0.46c0,0,0,0,0,0l-4.2-1.67
					c-0.18-0.07-0.39,0.02-0.46,0.2c0,0,0,0,0,0c-0.07,0.18,0.01,0.39,0.2,0.46l4.21,1.67C90.37,66.66,90.51,66.64,90.61,66.55z"/>
			</g>
		</g>
	</g>
</g>
<use xlink:href="#SVGID_1_"  style="overflow:visible;fill:none;stroke:#FFCD05;stroke-width:6;stroke-miterlimit:10;"/>
</svg>
